M48
METRIC,TZ
T1C0.400
T2C0.800
T3C1.000
%
G90
G05
T1
X97292Y-114426
X99942Y-54976
X101242Y-97826
X102992Y-96976
X105192Y-96226
X109192Y-82426
X117792Y-85526
X120688Y-81761
X121092Y-114926
X121842Y-88476
X123892Y-70826
X127592Y-110876
X131983Y-91269
X132542Y-67576
X133692Y-79926
X134842Y-105876
X140292Y-58926
X141726Y-55255
X143242Y-106326
X143842Y-67726
X143992Y-79776
X145242Y-95826
X148105Y-101583
X148942Y-71276
X150392Y-87326
X151292Y-95026
X151811Y-59922
X155577Y-62009
X157007Y-62930
X157442Y-49726
X157442Y-106676
X158377Y-59099
X158686Y-61079
X158978Y-59913
X159393Y-61804
X161259Y-104383
X161592Y-107176
X162814Y-94490
X164336Y-53407
X165692Y-89226
X166578Y-84261
X166622Y-53847
X166700Y-70497
X166842Y-93742
X170011Y-107357
X170349Y-52500
X170847Y-96169
X171148Y-79610
X171266Y-57959
X171298Y-53094
X171595Y-64582
X171595Y-68124
X171942Y-87176
X172392Y-95626
X173641Y-63147
X174642Y-105676
X174942Y-95626
X177389Y-58172
X177692Y-95626
X177697Y-105399
X178210Y-103019
X178835Y-105809
X179192Y-88176
X180092Y-73276
X181199Y-103614
X181492Y-82726
X186492Y-59376
X187392Y-57726
X189423Y-87296
X193442Y-69276
X195642Y-76626
X196642Y-61525
X196742Y-65726
X197892Y-56926
X198342Y-54276
X201042Y-66976
X201242Y-102276
X203113Y-107363
X204192Y-102426
X206642Y-84076
X206742Y-106326
X207942Y-67526
X209242Y-114926
X211592Y-107176
X212942Y-111276
X215442Y-67426
X216142Y-47426
T2
X101456Y-92771
X101456Y-100391
X102008Y-108643
X103996Y-92771
X103996Y-100391
X104548Y-108643
X106536Y-92771
X106536Y-100391
X107088Y-108643
X109076Y-92771
X109076Y-100391
X109628Y-108643
X111616Y-92771
X111616Y-100391
X112168Y-108643
X114156Y-92771
X114156Y-100391
X114584Y-52986
X114584Y-55526
X114584Y-58066
X114584Y-60606
X114584Y-63146
X114584Y-65686
X114584Y-68226
X114584Y-70766
X114584Y-73306
X114708Y-108643
X116696Y-92771
X116696Y-100391
X117248Y-108643
X119236Y-92771
X119236Y-100391
X119788Y-108643
X120917Y-52955
X120917Y-55495
X120917Y-58035
X120917Y-60575
X120917Y-63115
X120917Y-65655
X120917Y-68195
X120917Y-70735
X120917Y-73275
X121776Y-92771
X121776Y-100391
X122328Y-108643
X124316Y-92771
X124316Y-100391
X127281Y-52955
X127281Y-55495
X127281Y-58035
X127281Y-60575
X127281Y-63115
X127281Y-65655
X127281Y-68195
X127281Y-70735
X127281Y-73275
X131383Y-92771
X131383Y-100391
X133923Y-92771
X133923Y-100391
X136463Y-92771
X136463Y-100391
X139003Y-92771
X139003Y-100391
X141543Y-92771
X141543Y-100391
X144083Y-92771
X144083Y-100391
X146623Y-92771
X146623Y-100391
X149163Y-92771
X149163Y-100391
X151703Y-92771
X151703Y-100391
X152453Y-74531
X152453Y-82151
X154243Y-92771
X154243Y-100391
X154993Y-74531
X154993Y-82151
X157533Y-74531
X157533Y-82151
X160073Y-74531
X160073Y-82151
X162178Y-92258
X162178Y-99878
X162613Y-74531
X162613Y-82151
X164718Y-92258
X164718Y-99878
X165153Y-74531
X165153Y-82151
X167258Y-92258
X167258Y-99878
X167693Y-74531
X167693Y-82151
X169798Y-92258
X169798Y-99878
X170233Y-74531
X170233Y-82151
X172338Y-92258
X172338Y-99878
X172773Y-74531
X172773Y-82151
X174878Y-92258
X174878Y-99878
X175313Y-74531
X175313Y-82151
X177418Y-92258
X177418Y-99878
X179958Y-92258
X179958Y-99878
X182498Y-92258
X182498Y-99878
X185038Y-92258
X185038Y-99878
X190024Y-52953
X190024Y-55493
X190024Y-58033
X190024Y-60573
X190024Y-63113
X190024Y-65653
X190024Y-68193
X190024Y-70733
X190024Y-73273
X191079Y-92258
X191079Y-99878
X193619Y-92258
X193619Y-99878
X196159Y-92258
X196159Y-99878
X198699Y-92258
X198699Y-99878
X201239Y-92258
X201239Y-99878
X203779Y-92258
X203779Y-99878
X204561Y-50493
X204561Y-53033
X204561Y-55573
X204561Y-58113
X204561Y-60653
X204561Y-63193
X204561Y-65733
X204561Y-68273
X204561Y-70813
X204561Y-73353
X206319Y-92258
X206319Y-99878
X208859Y-92258
X208859Y-99878
X211399Y-92258
X211399Y-99878
X212181Y-50493
X212181Y-53033
X212181Y-55573
X212181Y-58113
X212181Y-60653
X212181Y-63193
X212181Y-65733
X212181Y-68273
X212181Y-70813
X212181Y-73353
X213939Y-92258
X213939Y-99878
T3
X131972Y-110496
X131972Y-113036
X134512Y-110496
X134512Y-113036
X137052Y-110496
X137052Y-113036
X139592Y-110496
X139592Y-113036
X142132Y-110496
X142132Y-113036
X144672Y-110496
X144672Y-113036
X147212Y-110496
X147212Y-113036
X149752Y-110496
X149752Y-113036
X152292Y-110496
X152292Y-113036
X154832Y-110496
X154832Y-113036
X157372Y-110496
X157372Y-113036
X159912Y-110496
X159912Y-113036
X162452Y-110496
X162452Y-113036
X164992Y-110496
X164992Y-113036
X167532Y-110496
X167532Y-113036
X170072Y-110496
X170072Y-113036
X172612Y-110496
X172612Y-113036
X175152Y-110496
X175152Y-113036
X177692Y-110496
X177692Y-113036
X180232Y-110496
X180232Y-113036
X182772Y-110496
X182772Y-113036
X185312Y-110496
X185312Y-113036
X187852Y-110496
X187852Y-113036
X190392Y-110496
X190392Y-113036
X192932Y-110496
X192932Y-113036
X195472Y-110496
X195472Y-113036
X198012Y-110496
X198012Y-113036
X200552Y-110496
X200552Y-113036
X203092Y-110496
X203092Y-113036
X205632Y-110496
X205632Y-113036
X208172Y-110496
X208172Y-113036
X210712Y-110496
X210712Y-113036
M30
