%TF.GenerationSoftware,KiCad,Pcbnew,8.0.1*%
%TF.CreationDate,2024-03-31T12:23:00+01:00*%
%TF.ProjectId,Apricot-Xi-Expansion-RAM,41707269-636f-4742-9d58-692d45787061,rev?*%
%TF.SameCoordinates,Original*%
%TF.FileFunction,Paste,Top*%
%TF.FilePolarity,Positive*%
%FSLAX46Y46*%
G04 Gerber Fmt 4.6, Leading zero omitted, Abs format (unit mm)*
G04 Created by KiCad (PCBNEW 8.0.1) date 2024-03-31 12:23:00*
%MOMM*%
%LPD*%
G01*
G04 APERTURE LIST*
%ADD10R,1.100000X0.250000*%
G04 APERTURE END LIST*
D10*
%TO.C,SRAM1*%
X152970000Y-52422100D03*
X152970000Y-52922100D03*
X152970000Y-53422100D03*
X152970000Y-53922100D03*
X152970000Y-54422100D03*
X152970000Y-54922100D03*
X152970000Y-55422100D03*
X152970000Y-55922100D03*
X152970000Y-56422100D03*
X152970000Y-56922100D03*
X152970000Y-57422100D03*
X152970000Y-57922100D03*
X152970000Y-58422100D03*
X152970000Y-58922100D03*
X152970000Y-59422100D03*
X152970000Y-59922100D03*
X152970000Y-60422100D03*
X152970000Y-60922100D03*
X152970000Y-61422100D03*
X152970000Y-61922100D03*
X152970000Y-62422100D03*
X152970000Y-62922100D03*
X152970000Y-63422100D03*
X152970000Y-63922100D03*
X172470000Y-63922100D03*
X172470000Y-63422100D03*
X172470000Y-62922100D03*
X172470000Y-62422100D03*
X172470000Y-61922100D03*
X172470000Y-61422100D03*
X172470000Y-60922100D03*
X172470000Y-60422100D03*
X172470000Y-59922100D03*
X172470000Y-59422100D03*
X172470000Y-58922100D03*
X172470000Y-58422100D03*
X172470000Y-57922100D03*
X172470000Y-57422100D03*
X172470000Y-56922100D03*
X172470000Y-56422100D03*
X172470000Y-55922100D03*
X172470000Y-55422100D03*
X172470000Y-54922100D03*
X172470000Y-54422100D03*
X172470000Y-53922100D03*
X172470000Y-53422100D03*
X172470000Y-52922100D03*
X172470000Y-52422100D03*
%TD*%
M02*
