  0
SECTION
  2
HEADER
  9
$ANGBASE
  50
0.0
  9
$ANGDIR
  70
1
  9
$MEASUREMENT
  70
1
  0
ENDSEC
  0
SECTION
  2
TABLES
  0
TABLE
  2
LTYPE
  70
4
  0
LTYPE
  5
40F
  2
CONTINUOUS
  70
0
  3
Solid line
  72
65
  73
0
  40
0.0
  0
LTYPE
  5
410
  2
DASHDOT
 70
0
  3
Dash Dot ____ _ ____ _
 72
65
 73
4
 40
2.0
 49
1.25
 49
-0.25
 49
0.25
 49
-0.25
  0
LTYPE
  5
411
  2
DASHED
 70
0
  3
Dashed __ __ __ __ __
 72
65
 73
2
 40
0.75
 49
0.5
 49
-0.25
  0
LTYPE
  5
43B
  2
DOTTED
 70
0
  3
Dotted .  .  .  .
 72
65
 73
2
 40
0.2
 49
0.0
 49
-0.2
  0
ENDTAB
  0
TABLE
  2
STYLE
  70
4
  0
STYLE
  2
KICAD
  70
0
  40
0
  41
1
  42
1
  50
0
  71
0
  3
isocp.shx
  0
STYLE
  2
KICADB
  70
0
  40
0
  41
1
  42
1
  50
0
  71
0
  3
isocp.shx
  0
STYLE
  2
KICADI
  70
0
  40
0
  41
1
  42
1
  50
15
  71
0
  3
isocp.shx
  0
STYLE
  2
KICADBI
  70
0
  40
0
  41
1
  42
1
  50
15
  71
0
  3
isocp.shx
  0
ENDTAB
  0
TABLE
  2
LAYER
  70
1
  0
LAYER
  2
BLACK
  70
0
  62
7
  6
CONTINUOUS
  0
ENDTAB
  0
ENDSEC
  0
SECTION
  2
ENTITIES
0
LINE
8
BLACK
6
CONTINUOUS
10
94.2920000000000016
20
-118.1754999999999995
11
218.3919999999999959
21
-118.1754999999999995
0
LINE
8
BLACK
6
CONTINUOUS
10
218.36957799999999
20
-45.5920470000000009
11
94.2920000000000016
21
-45.5754999999999981
0
LINE
8
BLACK
6
CONTINUOUS
10
94.2920000000000016
20
-45.5754999999999981
11
94.2920000000000016
21
-118.1754999999999995
0
LINE
8
BLACK
6
CONTINUOUS
10
218.3919999999999959
20
-118.1754999999999995
11
218.36957799999999
21
-45.5920470000000009
0
LINE
8
BLACK
6
CONTINUOUS
10
97.0919999999999987
20
-114.2254999999999967
11
97.4919999999999902
21
-114.6254999999999882
0
LINE
8
BLACK
6
CONTINUOUS
10
97.4919999999999902
20
-114.2254999999999967
11
97.0919999999999987
21
-114.6254999999999882
0
LINE
8
BLACK
6
CONTINUOUS
10
99.7419999999999902
20
-54.775500000000001
11
100.1419999999999959
21
-55.1754999999999995
0
LINE
8
BLACK
6
CONTINUOUS
10
100.1419999999999959
20
-54.775500000000001
11
99.7419999999999902
21
-55.1754999999999995
0
LINE
8
BLACK
6
CONTINUOUS
10
101.0420000000000016
20
-97.6255000000000024
11
101.4419999999999931
21
-98.0254999999999939
0
LINE
8
BLACK
6
CONTINUOUS
10
101.4419999999999931
20
-97.6255000000000024
11
101.0420000000000016
21
-98.0254999999999939
0
LINE
8
BLACK
6
CONTINUOUS
10
102.7920000000000016
20
-96.7754999999999939
11
103.1919999999999931
21
-97.1754999999999995
0
LINE
8
BLACK
6
CONTINUOUS
10
103.1919999999999931
20
-96.7754999999999939
11
102.7920000000000016
21
-97.1754999999999995
0
LINE
8
BLACK
6
CONTINUOUS
10
104.9919999999999902
20
-96.0254999999999939
11
105.3919999999999959
21
-96.4254999999999995
0
LINE
8
BLACK
6
CONTINUOUS
10
105.3919999999999959
20
-96.0254999999999939
11
104.9919999999999902
21
-96.4254999999999995
0
LINE
8
BLACK
6
CONTINUOUS
10
108.9919999999999902
20
-82.2254999999999967
11
109.3919999999999959
21
-82.6255000000000024
0
LINE
8
BLACK
6
CONTINUOUS
10
109.3919999999999959
20
-82.2254999999999967
11
108.9919999999999902
21
-82.6255000000000024
0
LINE
8
BLACK
6
CONTINUOUS
10
117.5919999999999987
20
-85.325499999999991
11
117.9919999999999902
21
-85.7254999999999967
0
LINE
8
BLACK
6
CONTINUOUS
10
117.9919999999999902
20
-85.325499999999991
11
117.5919999999999987
21
-85.7254999999999967
0
LINE
8
BLACK
6
CONTINUOUS
10
120.4877999999999929
20
-81.5613999999999919
11
120.8877999999999986
21
-81.9613999999999976
0
LINE
8
BLACK
6
CONTINUOUS
10
120.8877999999999986
20
-81.5613999999999919
11
120.4877999999999929
21
-81.9613999999999976
0
LINE
8
BLACK
6
CONTINUOUS
10
120.8919999999999959
20
-114.7254999999999967
11
121.2920000000000016
21
-115.1254999999999882
0
LINE
8
BLACK
6
CONTINUOUS
10
121.2920000000000016
20
-114.7254999999999967
11
120.8919999999999959
21
-115.1254999999999882
0
LINE
8
BLACK
6
CONTINUOUS
10
121.6419999999999959
20
-88.2754999999999939
11
122.0419999999999874
21
-88.6754999999999995
0
LINE
8
BLACK
6
CONTINUOUS
10
122.0419999999999874
20
-88.2754999999999939
11
121.6419999999999959
21
-88.6754999999999995
0
LINE
8
BLACK
6
CONTINUOUS
10
123.6919999999999931
20
-70.6255000000000024
11
124.0919999999999987
21
-71.0254999999999939
0
LINE
8
BLACK
6
CONTINUOUS
10
124.0919999999999987
20
-70.6255000000000024
11
123.6919999999999931
21
-71.0254999999999939
0
LINE
8
BLACK
6
CONTINUOUS
10
127.3919999999999959
20
-110.6754999999999995
11
127.7919999999999874
21
-111.075499999999991
0
LINE
8
BLACK
6
CONTINUOUS
10
127.7919999999999874
20
-110.6754999999999995
11
127.3919999999999959
21
-111.075499999999991
0
LINE
8
BLACK
6
CONTINUOUS
10
131.7831999999999937
20
-91.0690000000000026
11
132.1831999999999994
21
-91.4689999999999941
0
LINE
8
BLACK
6
CONTINUOUS
10
132.1831999999999994
20
-91.0690000000000026
11
131.7831999999999937
21
-91.4689999999999941
0
LINE
8
BLACK
6
CONTINUOUS
10
132.3419999999999845
20
-67.3755000000000024
11
132.7419999999999902
21
-67.7754999999999939
0
LINE
8
BLACK
6
CONTINUOUS
10
132.7419999999999902
20
-67.3755000000000024
11
132.3419999999999845
21
-67.7754999999999939
0
LINE
8
BLACK
6
CONTINUOUS
10
133.4919999999999902
20
-79.7254999999999967
11
133.8919999999999959
21
-80.1255000000000024
0
LINE
8
BLACK
6
CONTINUOUS
10
133.8919999999999959
20
-79.7254999999999967
11
133.4919999999999902
21
-80.1255000000000024
0
LINE
8
BLACK
6
CONTINUOUS
10
134.6419999999999959
20
-105.6754999999999995
11
135.0420000000000016
21
-106.075499999999991
0
LINE
8
BLACK
6
CONTINUOUS
10
135.0420000000000016
20
-105.6754999999999995
11
134.6419999999999959
21
-106.075499999999991
0
LINE
8
BLACK
6
CONTINUOUS
10
140.0919999999999845
20
-58.7254999999999967
11
140.4919999999999902
21
-59.1254999999999953
0
LINE
8
BLACK
6
CONTINUOUS
10
140.4919999999999902
20
-58.7254999999999967
11
140.0919999999999845
21
-59.1254999999999953
0
LINE
8
BLACK
6
CONTINUOUS
10
141.5264999999999986
20
-55.055499999999995
11
141.9265000000000043
21
-55.4555000000000007
0
LINE
8
BLACK
6
CONTINUOUS
10
141.9265000000000043
20
-55.055499999999995
11
141.5264999999999986
21
-55.4555000000000007
0
LINE
8
BLACK
6
CONTINUOUS
10
143.0420000000000016
20
-106.1254999999999882
11
143.4420000000000073
21
-106.5254999999999939
0
LINE
8
BLACK
6
CONTINUOUS
10
143.4420000000000073
20
-106.1254999999999882
11
143.0420000000000016
21
-106.5254999999999939
0
LINE
8
BLACK
6
CONTINUOUS
10
143.6419999999999959
20
-67.5254999999999939
11
144.0420000000000016
21
-67.9254999999999995
0
LINE
8
BLACK
6
CONTINUOUS
10
144.0420000000000016
20
-67.5254999999999939
11
143.6419999999999959
21
-67.9254999999999995
0
LINE
8
BLACK
6
CONTINUOUS
10
143.7920000000000016
20
-79.575499999999991
11
144.1920000000000073
21
-79.9754999999999967
0
LINE
8
BLACK
6
CONTINUOUS
10
144.1920000000000073
20
-79.575499999999991
11
143.7920000000000016
21
-79.9754999999999967
0
LINE
8
BLACK
6
CONTINUOUS
10
145.0420000000000016
20
-95.6255000000000024
11
145.4420000000000073
21
-96.0254999999999939
0
LINE
8
BLACK
6
CONTINUOUS
10
145.4420000000000073
20
-95.6255000000000024
11
145.0420000000000016
21
-96.0254999999999939
0
LINE
8
BLACK
6
CONTINUOUS
10
147.9051000000000045
20
-101.3826999999999998
11
148.3050999999999817
21
-101.7826999999999913
0
LINE
8
BLACK
6
CONTINUOUS
10
148.3050999999999817
20
-101.3826999999999998
11
147.9051000000000045
21
-101.7826999999999913
0
LINE
8
BLACK
6
CONTINUOUS
10
148.7419999999999902
20
-71.075499999999991
11
149.1419999999999959
21
-71.4754999999999967
0
LINE
8
BLACK
6
CONTINUOUS
10
149.1419999999999959
20
-71.075499999999991
11
148.7419999999999902
21
-71.4754999999999967
0
LINE
8
BLACK
6
CONTINUOUS
10
150.1920000000000073
20
-87.1255000000000024
11
150.5919999999999845
21
-87.5254999999999939
0
LINE
8
BLACK
6
CONTINUOUS
10
150.5919999999999845
20
-87.1255000000000024
11
150.1920000000000073
21
-87.5254999999999939
0
LINE
8
BLACK
6
CONTINUOUS
10
151.0919999999999845
20
-94.825499999999991
11
151.4919999999999902
21
-95.2254999999999967
0
LINE
8
BLACK
6
CONTINUOUS
10
151.4919999999999902
20
-94.825499999999991
11
151.0919999999999845
21
-95.2254999999999967
0
LINE
8
BLACK
6
CONTINUOUS
10
151.61099999999999
20
-59.7220999999999975
11
152.0109999999999957
21
-60.1220999999999961
0
LINE
8
BLACK
6
CONTINUOUS
10
152.0109999999999957
20
-59.7220999999999975
11
151.61099999999999
21
-60.1220999999999961
0
LINE
8
BLACK
6
CONTINUOUS
10
155.3769999999999811
20
-61.809199999999997
11
155.7769999999999868
21
-62.2091999999999956
0
LINE
8
BLACK
6
CONTINUOUS
10
155.7769999999999868
20
-61.809199999999997
11
155.3769999999999811
21
-62.2091999999999956
0
LINE
8
BLACK
6
CONTINUOUS
10
156.8072999999999979
20
-62.729699999999994
11
157.2073000000000036
21
-63.1296999999999997
0
LINE
8
BLACK
6
CONTINUOUS
10
157.2073000000000036
20
-62.729699999999994
11
156.8072999999999979
21
-63.1296999999999997
0
LINE
8
BLACK
6
CONTINUOUS
10
157.2419999999999902
20
-49.525500000000001
11
157.6419999999999959
21
-49.9254999999999995
0
LINE
8
BLACK
6
CONTINUOUS
10
157.6419999999999959
20
-49.525500000000001
11
157.2419999999999902
21
-49.9254999999999995
0
LINE
8
BLACK
6
CONTINUOUS
10
157.2419999999999902
20
-106.4754999999999967
11
157.6419999999999959
21
-106.8754999999999882
0
LINE
8
BLACK
6
CONTINUOUS
10
157.6419999999999959
20
-106.4754999999999967
11
157.2419999999999902
21
-106.8754999999999882
0
LINE
8
BLACK
6
CONTINUOUS
10
158.1767999999999859
20
-58.8992000000000004
11
158.5767999999999915
21
-59.299199999999999
0
LINE
8
BLACK
6
CONTINUOUS
10
158.5767999999999915
20
-58.8992000000000004
11
158.1767999999999859
21
-59.299199999999999
0
LINE
8
BLACK
6
CONTINUOUS
10
158.4857999999999834
20
-60.8793000000000006
11
158.885799999999989
21
-61.2792999999999992
0
LINE
8
BLACK
6
CONTINUOUS
10
158.885799999999989
20
-60.8793000000000006
11
158.4857999999999834
21
-61.2792999999999992
0
LINE
8
BLACK
6
CONTINUOUS
10
158.7776999999999816
20
-59.7126999999999981
11
159.1776999999999873
21
-60.1126999999999967
0
LINE
8
BLACK
6
CONTINUOUS
10
159.1776999999999873
20
-59.7126999999999981
11
158.7776999999999816
21
-60.1126999999999967
0
LINE
8
BLACK
6
CONTINUOUS
10
159.1930999999999869
20
-61.6043999999999983
11
159.5930999999999926
21
-62.0043999999999969
0
LINE
8
BLACK
6
CONTINUOUS
10
159.5930999999999926
20
-61.6043999999999983
11
159.1930999999999869
21
-62.0043999999999969
0
LINE
8
BLACK
6
CONTINUOUS
10
161.0588999999999942
20
-104.1833999999999918
11
161.4588999999999999
21
-104.5833999999999975
0
LINE
8
BLACK
6
CONTINUOUS
10
161.4588999999999999
20
-104.1833999999999918
11
161.0588999999999942
21
-104.5833999999999975
0
LINE
8
BLACK
6
CONTINUOUS
10
161.3919999999999959
20
-106.9754999999999967
11
161.7920000000000016
21
-107.3754999999999882
0
LINE
8
BLACK
6
CONTINUOUS
10
161.7920000000000016
20
-106.9754999999999967
11
161.3919999999999959
21
-107.3754999999999882
0
LINE
8
BLACK
6
CONTINUOUS
10
162.6137999999999977
20
-94.2903999999999911
11
163.0138000000000034
21
-94.6903999999999968
0
LINE
8
BLACK
6
CONTINUOUS
10
163.0138000000000034
20
-94.2903999999999911
11
162.6137999999999977
21
-94.6903999999999968
0
LINE
8
BLACK
6
CONTINUOUS
10
164.136099999999999
20
-53.2067999999999941
11
164.5361000000000047
21
-53.6067999999999998
0
LINE
8
BLACK
6
CONTINUOUS
10
164.5361000000000047
20
-53.2067999999999941
11
164.136099999999999
21
-53.6067999999999998
0
LINE
8
BLACK
6
CONTINUOUS
10
165.4919999999999902
20
-89.0254999999999939
11
165.8919999999999959
21
-89.4254999999999995
0
LINE
8
BLACK
6
CONTINUOUS
10
165.8919999999999959
20
-89.0254999999999939
11
165.4919999999999902
21
-89.4254999999999995
0
LINE
8
BLACK
6
CONTINUOUS
10
166.3779999999999859
20
-84.0610999999999962
11
166.7779999999999916
21
-84.4611000000000018
0
LINE
8
BLACK
6
CONTINUOUS
10
166.7779999999999916
20
-84.0610999999999962
11
166.3779999999999859
21
-84.4611000000000018
0
LINE
8
BLACK
6
CONTINUOUS
10
166.4215999999999838
20
-53.6475000000000009
11
166.8215999999999894
21
-54.0474999999999994
0
LINE
8
BLACK
6
CONTINUOUS
10
166.8215999999999894
20
-53.6475000000000009
11
166.4215999999999838
21
-54.0474999999999994
0
LINE
8
BLACK
6
CONTINUOUS
10
166.5
20
-70.2973999999999961
11
166.9000000000000057
21
-70.6974000000000018
0
LINE
8
BLACK
6
CONTINUOUS
10
166.9000000000000057
20
-70.2973999999999961
11
166.5
21
-70.6974000000000018
0
LINE
8
BLACK
6
CONTINUOUS
10
166.6422000000000025
20
-93.5422999999999973
11
167.0421999999999798
21
-93.9422999999999888
0
LINE
8
BLACK
6
CONTINUOUS
10
167.0421999999999798
20
-93.5422999999999973
11
166.6422000000000025
21
-93.9422999999999888
0
LINE
8
BLACK
6
CONTINUOUS
10
169.8104999999999905
20
-107.1572999999999922
11
170.2104999999999961
21
-107.5572999999999979
0
LINE
8
BLACK
6
CONTINUOUS
10
170.2104999999999961
20
-107.1572999999999922
11
169.8104999999999905
21
-107.5572999999999979
0
LINE
8
BLACK
6
CONTINUOUS
10
170.1491999999999791
20
-52.2999000000000009
11
170.5491999999999848
21
-52.6998999999999995
0
LINE
8
BLACK
6
CONTINUOUS
10
170.5491999999999848
20
-52.2999000000000009
11
170.1491999999999791
21
-52.6998999999999995
0
LINE
8
BLACK
6
CONTINUOUS
10
170.6466999999999814
20
-95.9690999999999974
11
171.0466999999999871
21
-96.3690999999999889
0
LINE
8
BLACK
6
CONTINUOUS
10
171.0466999999999871
20
-95.9690999999999974
11
170.6466999999999814
21
-96.3690999999999889
0
LINE
8
BLACK
6
CONTINUOUS
10
170.9479999999999791
20
-79.4099999999999966
11
171.3479999999999848
21
-79.8100000000000023
0
LINE
8
BLACK
6
CONTINUOUS
10
171.3479999999999848
20
-79.4099999999999966
11
170.9479999999999791
21
-79.8100000000000023
0
LINE
8
BLACK
6
CONTINUOUS
10
171.0654999999999859
20
-57.7586999999999975
11
171.4654999999999916
21
-58.1586999999999961
0
LINE
8
BLACK
6
CONTINUOUS
10
171.4654999999999916
20
-57.7586999999999975
11
171.0654999999999859
21
-58.1586999999999961
0
LINE
8
BLACK
6
CONTINUOUS
10
171.0974999999999966
20
-52.8943999999999974
11
171.4975000000000023
21
-53.294399999999996
0
LINE
8
BLACK
6
CONTINUOUS
10
171.4975000000000023
20
-52.8943999999999974
11
171.0974999999999966
21
-53.294399999999996
0
LINE
8
BLACK
6
CONTINUOUS
10
171.3948999999999785
20
-64.3824999999999932
11
171.7948999999999842
21
-64.7824999999999989
0
LINE
8
BLACK
6
CONTINUOUS
10
171.7948999999999842
20
-64.3824999999999932
11
171.3948999999999785
21
-64.7824999999999989
0
LINE
8
BLACK
6
CONTINUOUS
10
171.3948999999999785
20
-67.9240999999999957
11
171.7948999999999842
21
-68.3241000000000014
0
LINE
8
BLACK
6
CONTINUOUS
10
171.7948999999999842
20
-67.9240999999999957
11
171.3948999999999785
21
-68.3241000000000014
0
LINE
8
BLACK
6
CONTINUOUS
10
171.7419999999999902
20
-86.9754999999999967
11
172.1419999999999959
21
-87.3755000000000024
0
LINE
8
BLACK
6
CONTINUOUS
10
172.1419999999999959
20
-86.9754999999999967
11
171.7419999999999902
21
-87.3755000000000024
0
LINE
8
BLACK
6
CONTINUOUS
10
172.1919999999999789
20
-95.4254999999999995
11
172.5919999999999845
21
-95.825499999999991
0
LINE
8
BLACK
6
CONTINUOUS
10
172.5919999999999845
20
-95.4254999999999995
11
172.1919999999999789
21
-95.825499999999991
0
LINE
8
BLACK
6
CONTINUOUS
10
173.4411999999999807
20
-62.9472999999999985
11
173.8411999999999864
21
-63.3472999999999971
0
LINE
8
BLACK
6
CONTINUOUS
10
173.8411999999999864
20
-62.9472999999999985
11
173.4411999999999807
21
-63.3472999999999971
0
LINE
8
BLACK
6
CONTINUOUS
10
174.4419999999999789
20
-105.4754999999999967
11
174.8419999999999845
21
-105.8754999999999882
0
LINE
8
BLACK
6
CONTINUOUS
10
174.8419999999999845
20
-105.4754999999999967
11
174.4419999999999789
21
-105.8754999999999882
0
LINE
8
BLACK
6
CONTINUOUS
10
174.7419999999999902
20
-95.4254999999999995
11
175.1419999999999959
21
-95.825499999999991
0
LINE
8
BLACK
6
CONTINUOUS
10
175.1419999999999959
20
-95.4254999999999995
11
174.7419999999999902
21
-95.825499999999991
0
LINE
8
BLACK
6
CONTINUOUS
10
177.188999999999993
20
-57.9720999999999975
11
177.5889999999999986
21
-58.3720999999999961
0
LINE
8
BLACK
6
CONTINUOUS
10
177.5889999999999986
20
-57.9720999999999975
11
177.188999999999993
21
-58.3720999999999961
0
LINE
8
BLACK
6
CONTINUOUS
10
177.4919999999999902
20
-95.4254999999999995
11
177.8919999999999959
21
-95.825499999999991
0
LINE
8
BLACK
6
CONTINUOUS
10
177.8919999999999959
20
-95.4254999999999995
11
177.4919999999999902
21
-95.825499999999991
0
LINE
8
BLACK
6
CONTINUOUS
10
177.4967000000000041
20
-105.1989999999999981
11
177.8966999999999814
21
-105.5989999999999895
0
LINE
8
BLACK
6
CONTINUOUS
10
177.8966999999999814
20
-105.1989999999999981
11
177.4967000000000041
21
-105.5989999999999895
0
LINE
8
BLACK
6
CONTINUOUS
10
178.0100999999999942
20
-102.8185999999999893
11
178.4100999999999999
21
-103.218599999999995
0
LINE
8
BLACK
6
CONTINUOUS
10
178.4100999999999999
20
-102.8185999999999893
11
178.0100999999999942
21
-103.218599999999995
0
LINE
8
BLACK
6
CONTINUOUS
10
178.6349999999999909
20
-105.6086999999999989
11
179.0349999999999966
21
-106.0086999999999904
0
LINE
8
BLACK
6
CONTINUOUS
10
179.0349999999999966
20
-105.6086999999999989
11
178.6349999999999909
21
-106.0086999999999904
0
LINE
8
BLACK
6
CONTINUOUS
10
178.9919999999999902
20
-87.9754999999999967
11
179.3919999999999959
21
-88.3755000000000024
0
LINE
8
BLACK
6
CONTINUOUS
10
179.3919999999999959
20
-87.9754999999999967
11
178.9919999999999902
21
-88.3755000000000024
0
LINE
8
BLACK
6
CONTINUOUS
10
179.8919999999999959
20
-73.075499999999991
11
180.2920000000000016
21
-73.4754999999999967
0
LINE
8
BLACK
6
CONTINUOUS
10
180.2920000000000016
20
-73.075499999999991
11
179.8919999999999959
21
-73.4754999999999967
0
LINE
8
BLACK
6
CONTINUOUS
10
180.9989999999999952
20
-103.4140000000000015
11
181.3990000000000009
21
-103.813999999999993
0
LINE
8
BLACK
6
CONTINUOUS
10
181.3990000000000009
20
-103.4140000000000015
11
180.9989999999999952
21
-103.813999999999993
0
LINE
8
BLACK
6
CONTINUOUS
10
181.2920000000000016
20
-82.5254999999999939
11
181.6919999999999789
21
-82.9254999999999995
0
LINE
8
BLACK
6
CONTINUOUS
10
181.6919999999999789
20
-82.5254999999999939
11
181.2920000000000016
21
-82.9254999999999995
0
LINE
8
BLACK
6
CONTINUOUS
10
186.2920000000000016
20
-59.1754999999999995
11
186.6919999999999789
21
-59.5754999999999981
0
LINE
8
BLACK
6
CONTINUOUS
10
186.6919999999999789
20
-59.1754999999999995
11
186.2920000000000016
21
-59.5754999999999981
0
LINE
8
BLACK
6
CONTINUOUS
10
187.1919999999999789
20
-57.5254999999999939
11
187.5919999999999845
21
-57.9254999999999995
0
LINE
8
BLACK
6
CONTINUOUS
10
187.5919999999999845
20
-57.5254999999999939
11
187.1919999999999789
21
-57.9254999999999995
0
LINE
8
BLACK
6
CONTINUOUS
10
189.2232999999999947
20
-87.0960999999999927
11
189.6233000000000004
21
-87.4960999999999984
0
LINE
8
BLACK
6
CONTINUOUS
10
189.6233000000000004
20
-87.0960999999999927
11
189.2232999999999947
21
-87.4960999999999984
0
LINE
8
BLACK
6
CONTINUOUS
10
193.2419999999999902
20
-69.075499999999991
11
193.6419999999999959
21
-69.4754999999999967
0
LINE
8
BLACK
6
CONTINUOUS
10
193.6419999999999959
20
-69.075499999999991
11
193.2419999999999902
21
-69.4754999999999967
0
LINE
8
BLACK
6
CONTINUOUS
10
195.4419999999999789
20
-76.4254999999999995
11
195.8419999999999845
21
-76.825499999999991
0
LINE
8
BLACK
6
CONTINUOUS
10
195.8419999999999845
20
-76.4254999999999995
11
195.4419999999999789
21
-76.825499999999991
0
LINE
8
BLACK
6
CONTINUOUS
10
196.4419999999999789
20
-61.3254999999999981
11
196.8419999999999845
21
-61.7254999999999967
0
LINE
8
BLACK
6
CONTINUOUS
10
196.8419999999999845
20
-61.3254999999999981
11
196.4419999999999789
21
-61.7254999999999967
0
LINE
8
BLACK
6
CONTINUOUS
10
196.5420000000000016
20
-65.5254999999999939
11
196.9419999999999789
21
-65.9254999999999995
0
LINE
8
BLACK
6
CONTINUOUS
10
196.9419999999999789
20
-65.5254999999999939
11
196.5420000000000016
21
-65.9254999999999995
0
LINE
8
BLACK
6
CONTINUOUS
10
197.6919999999999789
20
-56.7254999999999967
11
198.0919999999999845
21
-57.1254999999999953
0
LINE
8
BLACK
6
CONTINUOUS
10
198.0919999999999845
20
-56.7254999999999967
11
197.6919999999999789
21
-57.1254999999999953
0
LINE
8
BLACK
6
CONTINUOUS
10
198.1419999999999959
20
-54.0754999999999981
11
198.5420000000000016
21
-54.4754999999999967
0
LINE
8
BLACK
6
CONTINUOUS
10
198.5420000000000016
20
-54.0754999999999981
11
198.1419999999999959
21
-54.4754999999999967
0
LINE
8
BLACK
6
CONTINUOUS
10
200.8419999999999845
20
-66.7754999999999939
11
201.2419999999999902
21
-67.1754999999999995
0
LINE
8
BLACK
6
CONTINUOUS
10
201.2419999999999902
20
-66.7754999999999939
11
200.8419999999999845
21
-67.1754999999999995
0
LINE
8
BLACK
6
CONTINUOUS
10
201.0420000000000016
20
-102.075499999999991
11
201.4419999999999789
21
-102.4754999999999967
0
LINE
8
BLACK
6
CONTINUOUS
10
201.4419999999999789
20
-102.075499999999991
11
201.0420000000000016
21
-102.4754999999999967
0
LINE
8
BLACK
6
CONTINUOUS
10
202.9132999999999925
20
-107.162700000000001
11
203.3132999999999981
21
-107.5626999999999924
0
LINE
8
BLACK
6
CONTINUOUS
10
203.3132999999999981
20
-107.162700000000001
11
202.9132999999999925
21
-107.5626999999999924
0
LINE
8
BLACK
6
CONTINUOUS
10
203.9919999999999902
20
-102.2254999999999967
11
204.3919999999999959
21
-102.6255000000000024
0
LINE
8
BLACK
6
CONTINUOUS
10
204.3919999999999959
20
-102.2254999999999967
11
203.9919999999999902
21
-102.6255000000000024
0
LINE
8
BLACK
6
CONTINUOUS
10
206.4419999999999789
20
-83.8755000000000024
11
206.8419999999999845
21
-84.2754999999999939
0
LINE
8
BLACK
6
CONTINUOUS
10
206.8419999999999845
20
-83.8755000000000024
11
206.4419999999999789
21
-84.2754999999999939
0
LINE
8
BLACK
6
CONTINUOUS
10
206.5420000000000016
20
-106.1254999999999882
11
206.9419999999999789
21
-106.5254999999999939
0
LINE
8
BLACK
6
CONTINUOUS
10
206.9419999999999789
20
-106.1254999999999882
11
206.5420000000000016
21
-106.5254999999999939
0
LINE
8
BLACK
6
CONTINUOUS
10
207.7419999999999902
20
-67.325499999999991
11
208.1419999999999959
21
-67.7254999999999967
0
LINE
8
BLACK
6
CONTINUOUS
10
208.1419999999999959
20
-67.325499999999991
11
207.7419999999999902
21
-67.7254999999999967
0
LINE
8
BLACK
6
CONTINUOUS
10
209.0420000000000016
20
-114.7254999999999967
11
209.4419999999999789
21
-115.1254999999999882
0
LINE
8
BLACK
6
CONTINUOUS
10
209.4419999999999789
20
-114.7254999999999967
11
209.0420000000000016
21
-115.1254999999999882
0
LINE
8
BLACK
6
CONTINUOUS
10
211.3919999999999959
20
-106.9754999999999967
11
211.7920000000000016
21
-107.3754999999999882
0
LINE
8
BLACK
6
CONTINUOUS
10
211.7920000000000016
20
-106.9754999999999967
11
211.3919999999999959
21
-107.3754999999999882
0
LINE
8
BLACK
6
CONTINUOUS
10
212.7419999999999902
20
-111.075499999999991
11
213.1419999999999959
21
-111.4754999999999967
0
LINE
8
BLACK
6
CONTINUOUS
10
213.1419999999999959
20
-111.075499999999991
11
212.7419999999999902
21
-111.4754999999999967
0
LINE
8
BLACK
6
CONTINUOUS
10
215.2419999999999902
20
-67.2254999999999967
11
215.6419999999999959
21
-67.6255000000000024
0
LINE
8
BLACK
6
CONTINUOUS
10
215.6419999999999959
20
-67.2254999999999967
11
215.2419999999999902
21
-67.6255000000000024
0
LINE
8
BLACK
6
CONTINUOUS
10
215.9419999999999789
20
-47.2254999999999967
11
216.3419999999999845
21
-47.6254999999999953
0
LINE
8
BLACK
6
CONTINUOUS
10
216.3419999999999845
20
-47.2254999999999967
11
215.9419999999999789
21
-47.6254999999999953
0
CIRCLE
8
BLACK
10
101.4555999999999898
20
-92.7710999999999899
40
0.4
0
CIRCLE
8
BLACK
10
101.4555999999999898
20
-100.3910999999999945
40
0.4
0
CIRCLE
8
BLACK
10
102.0083999999999946
20
-108.6426999999999907
40
0.4
0
CIRCLE
8
BLACK
10
103.995599999999996
20
-92.7710999999999899
40
0.4
0
CIRCLE
8
BLACK
10
103.995599999999996
20
-100.3910999999999945
40
0.4
0
CIRCLE
8
BLACK
10
104.5484000000000009
20
-108.6426999999999907
40
0.4
0
CIRCLE
8
BLACK
10
106.5355999999999881
20
-92.7710999999999899
40
0.4
0
CIRCLE
8
BLACK
10
106.5355999999999881
20
-100.3910999999999945
40
0.4
0
CIRCLE
8
BLACK
10
107.0883999999999929
20
-108.6426999999999907
40
0.4
0
CIRCLE
8
BLACK
10
109.0755999999999943
20
-92.7710999999999899
40
0.4
0
CIRCLE
8
BLACK
10
109.0755999999999943
20
-100.3910999999999945
40
0.4
0
CIRCLE
8
BLACK
10
109.6283999999999992
20
-108.6426999999999907
40
0.4
0
CIRCLE
8
BLACK
10
111.6156000000000006
20
-92.7710999999999899
40
0.4
0
CIRCLE
8
BLACK
10
111.6156000000000006
20
-100.3910999999999945
40
0.4
0
CIRCLE
8
BLACK
10
112.1683999999999912
20
-108.6426999999999907
40
0.4
0
CIRCLE
8
BLACK
10
114.1555999999999926
20
-92.7710999999999899
40
0.4
0
CIRCLE
8
BLACK
10
114.1555999999999926
20
-100.3910999999999945
40
0.4
0
CIRCLE
8
BLACK
10
114.5841999999999956
20
-52.9863
40
0.4
0
CIRCLE
8
BLACK
10
114.5841999999999956
20
-55.5262999999999991
40
0.4
0
CIRCLE
8
BLACK
10
114.5841999999999956
20
-58.0662999999999982
40
0.4
0
CIRCLE
8
BLACK
10
114.5841999999999956
20
-60.6062999999999974
40
0.4
0
CIRCLE
8
BLACK
10
114.5841999999999956
20
-63.1462999999999965
40
0.4
0
CIRCLE
8
BLACK
10
114.5841999999999956
20
-65.6863000000000028
40
0.4
0
CIRCLE
8
BLACK
10
114.5841999999999956
20
-68.2262999999999948
40
0.4
0
CIRCLE
8
BLACK
10
114.5841999999999956
20
-70.7663000000000011
40
0.4
0
CIRCLE
8
BLACK
10
114.5841999999999956
20
-73.3062999999999931
40
0.4
0
CIRCLE
8
BLACK
10
114.7083999999999975
20
-108.6426999999999907
40
0.4
0
CIRCLE
8
BLACK
10
116.6955999999999989
20
-92.7710999999999899
40
0.4
0
CIRCLE
8
BLACK
10
116.6955999999999989
20
-100.3910999999999945
40
0.4
0
CIRCLE
8
BLACK
10
117.2483999999999895
20
-108.6426999999999907
40
0.4
0
CIRCLE
8
BLACK
10
119.2355999999999909
20
-92.7710999999999899
40
0.4
0
CIRCLE
8
BLACK
10
119.2355999999999909
20
-100.3910999999999945
40
0.4
0
CIRCLE
8
BLACK
10
119.7883999999999958
20
-108.6426999999999907
40
0.4
0
CIRCLE
8
BLACK
10
120.9168999999999983
20
-52.9550999999999945
40
0.4
0
CIRCLE
8
BLACK
10
120.9168999999999983
20
-55.4951000000000008
40
0.4
0
CIRCLE
8
BLACK
10
120.9168999999999983
20
-58.0350999999999999
40
0.4
0
CIRCLE
8
BLACK
10
120.9168999999999983
20
-60.5750999999999991
40
0.4
0
CIRCLE
8
BLACK
10
120.9168999999999983
20
-63.1150999999999982
40
0.4
0
CIRCLE
8
BLACK
10
120.9168999999999983
20
-65.6550999999999902
40
0.4
0
CIRCLE
8
BLACK
10
120.9168999999999983
20
-68.1950999999999965
40
0.4
0
CIRCLE
8
BLACK
10
120.9168999999999983
20
-70.7351000000000028
40
0.4
0
CIRCLE
8
BLACK
10
120.9168999999999983
20
-73.2750999999999948
40
0.4
0
CIRCLE
8
BLACK
10
121.7755999999999972
20
-92.7710999999999899
40
0.4
0
CIRCLE
8
BLACK
10
121.7755999999999972
20
-100.3910999999999945
40
0.4
0
CIRCLE
8
BLACK
10
122.3283999999999878
20
-108.6426999999999907
40
0.4
0
CIRCLE
8
BLACK
10
124.3155999999999892
20
-92.7710999999999899
40
0.4
0
CIRCLE
8
BLACK
10
124.3155999999999892
20
-100.3910999999999945
40
0.4
0
CIRCLE
8
BLACK
10
127.280699999999996
20
-52.9550999999999945
40
0.4
0
CIRCLE
8
BLACK
10
127.280699999999996
20
-55.4951000000000008
40
0.4
0
CIRCLE
8
BLACK
10
127.280699999999996
20
-58.0350999999999999
40
0.4
0
CIRCLE
8
BLACK
10
127.280699999999996
20
-60.5750999999999991
40
0.4
0
CIRCLE
8
BLACK
10
127.280699999999996
20
-63.1150999999999982
40
0.4
0
CIRCLE
8
BLACK
10
127.280699999999996
20
-65.6550999999999902
40
0.4
0
CIRCLE
8
BLACK
10
127.280699999999996
20
-68.1950999999999965
40
0.4
0
CIRCLE
8
BLACK
10
127.280699999999996
20
-70.7351000000000028
40
0.4
0
CIRCLE
8
BLACK
10
127.280699999999996
20
-73.2750999999999948
40
0.4
0
CIRCLE
8
BLACK
10
131.3826999999999998
20
-92.7710999999999899
40
0.4
0
CIRCLE
8
BLACK
10
131.3826999999999998
20
-100.3910999999999945
40
0.4
0
CIRCLE
8
BLACK
10
133.9226999999999919
20
-92.7710999999999899
40
0.4
0
CIRCLE
8
BLACK
10
133.9226999999999919
20
-100.3910999999999945
40
0.4
0
CIRCLE
8
BLACK
10
136.4626999999999839
20
-92.7710999999999899
40
0.4
0
CIRCLE
8
BLACK
10
136.4626999999999839
20
-100.3910999999999945
40
0.4
0
CIRCLE
8
BLACK
10
139.0027000000000044
20
-92.7710999999999899
40
0.4
0
CIRCLE
8
BLACK
10
139.0027000000000044
20
-100.3910999999999945
40
0.4
0
CIRCLE
8
BLACK
10
141.5426999999999964
20
-92.7710999999999899
40
0.4
0
CIRCLE
8
BLACK
10
141.5426999999999964
20
-100.3910999999999945
40
0.4
0
CIRCLE
8
BLACK
10
144.0826999999999884
20
-92.7710999999999899
40
0.4
0
CIRCLE
8
BLACK
10
144.0826999999999884
20
-100.3910999999999945
40
0.4
0
CIRCLE
8
BLACK
10
146.6226999999999805
20
-92.7710999999999899
40
0.4
0
CIRCLE
8
BLACK
10
146.6226999999999805
20
-100.3910999999999945
40
0.4
0
CIRCLE
8
BLACK
10
149.162700000000001
20
-92.7710999999999899
40
0.4
0
CIRCLE
8
BLACK
10
149.162700000000001
20
-100.3910999999999945
40
0.4
0
CIRCLE
8
BLACK
10
151.702699999999993
20
-92.7710999999999899
40
0.4
0
CIRCLE
8
BLACK
10
151.702699999999993
20
-100.3910999999999945
40
0.4
0
CIRCLE
8
BLACK
10
152.452699999999993
20
-74.5305999999999926
40
0.4
0
CIRCLE
8
BLACK
10
152.452699999999993
20
-82.1505999999999972
40
0.4
0
CIRCLE
8
BLACK
10
154.242699999999985
20
-92.7710999999999899
40
0.4
0
CIRCLE
8
BLACK
10
154.242699999999985
20
-100.3910999999999945
40
0.4
0
CIRCLE
8
BLACK
10
154.992699999999985
20
-74.5305999999999926
40
0.4
0
CIRCLE
8
BLACK
10
154.992699999999985
20
-82.1505999999999972
40
0.4
0
CIRCLE
8
BLACK
10
157.5327000000000055
20
-74.5305999999999926
40
0.4
0
CIRCLE
8
BLACK
10
157.5327000000000055
20
-82.1505999999999972
40
0.4
0
CIRCLE
8
BLACK
10
160.0726999999999975
20
-74.5305999999999926
40
0.4
0
CIRCLE
8
BLACK
10
160.0726999999999975
20
-82.1505999999999972
40
0.4
0
CIRCLE
8
BLACK
10
162.1783999999999821
20
-92.2577999999999889
40
0.4
0
CIRCLE
8
BLACK
10
162.1783999999999821
20
-99.8777999999999935
40
0.4
0
CIRCLE
8
BLACK
10
162.6126999999999896
20
-74.5305999999999926
40
0.4
0
CIRCLE
8
BLACK
10
162.6126999999999896
20
-82.1505999999999972
40
0.4
0
CIRCLE
8
BLACK
10
164.7184000000000026
20
-92.2577999999999889
40
0.4
0
CIRCLE
8
BLACK
10
164.7184000000000026
20
-99.8777999999999935
40
0.4
0
CIRCLE
8
BLACK
10
165.1526999999999816
20
-74.5305999999999926
40
0.4
0
CIRCLE
8
BLACK
10
165.1526999999999816
20
-82.1505999999999972
40
0.4
0
CIRCLE
8
BLACK
10
167.2583999999999946
20
-92.2577999999999889
40
0.4
0
CIRCLE
8
BLACK
10
167.2583999999999946
20
-99.8777999999999935
40
0.4
0
CIRCLE
8
BLACK
10
167.6927000000000021
20
-74.5305999999999926
40
0.4
0
CIRCLE
8
BLACK
10
167.6927000000000021
20
-82.1505999999999972
40
0.4
0
CIRCLE
8
BLACK
10
169.7983999999999867
20
-92.2577999999999889
40
0.4
0
CIRCLE
8
BLACK
10
169.7983999999999867
20
-99.8777999999999935
40
0.4
0
CIRCLE
8
BLACK
10
170.2326999999999941
20
-74.5305999999999926
40
0.4
0
CIRCLE
8
BLACK
10
170.2326999999999941
20
-82.1505999999999972
40
0.4
0
CIRCLE
8
BLACK
10
172.3383999999999787
20
-92.2577999999999889
40
0.4
0
CIRCLE
8
BLACK
10
172.3383999999999787
20
-99.8777999999999935
40
0.4
0
CIRCLE
8
BLACK
10
172.7726999999999862
20
-74.5305999999999926
40
0.4
0
CIRCLE
8
BLACK
10
172.7726999999999862
20
-82.1505999999999972
40
0.4
0
CIRCLE
8
BLACK
10
174.8783999999999992
20
-92.2577999999999889
40
0.4
0
CIRCLE
8
BLACK
10
174.8783999999999992
20
-99.8777999999999935
40
0.4
0
CIRCLE
8
BLACK
10
175.3126999999999782
20
-74.5305999999999926
40
0.4
0
CIRCLE
8
BLACK
10
175.3126999999999782
20
-82.1505999999999972
40
0.4
0
CIRCLE
8
BLACK
10
177.4183999999999912
20
-92.2577999999999889
40
0.4
0
CIRCLE
8
BLACK
10
177.4183999999999912
20
-99.8777999999999935
40
0.4
0
CIRCLE
8
BLACK
10
179.9583999999999833
20
-92.2577999999999889
40
0.4
0
CIRCLE
8
BLACK
10
179.9583999999999833
20
-99.8777999999999935
40
0.4
0
CIRCLE
8
BLACK
10
182.4984000000000037
20
-92.2577999999999889
40
0.4
0
CIRCLE
8
BLACK
10
182.4984000000000037
20
-99.8777999999999935
40
0.4
0
CIRCLE
8
BLACK
10
185.0383999999999958
20
-92.2577999999999889
40
0.4
0
CIRCLE
8
BLACK
10
185.0383999999999958
20
-99.8777999999999935
40
0.4
0
CIRCLE
8
BLACK
10
190.0243999999999858
20
-52.9527000000000001
40
0.4
0
CIRCLE
8
BLACK
10
190.0243999999999858
20
-55.4926999999999992
40
0.4
0
CIRCLE
8
BLACK
10
190.0243999999999858
20
-58.0326999999999984
40
0.4
0
CIRCLE
8
BLACK
10
190.0243999999999858
20
-60.5726999999999975
40
0.4
0
CIRCLE
8
BLACK
10
190.0243999999999858
20
-63.1126999999999967
40
0.4
0
CIRCLE
8
BLACK
10
190.0243999999999858
20
-65.6526999999999958
40
0.4
0
CIRCLE
8
BLACK
10
190.0243999999999858
20
-68.1927000000000021
40
0.4
0
CIRCLE
8
BLACK
10
190.0243999999999858
20
-70.7326999999999941
40
0.4
0
CIRCLE
8
BLACK
10
190.0243999999999858
20
-73.2727000000000004
40
0.4
0
CIRCLE
8
BLACK
10
191.0789999999999793
20
-92.2577999999999889
40
0.4
0
CIRCLE
8
BLACK
10
191.0789999999999793
20
-99.8777999999999935
40
0.4
0
CIRCLE
8
BLACK
10
193.6189999999999998
20
-92.2577999999999889
40
0.4
0
CIRCLE
8
BLACK
10
193.6189999999999998
20
-99.8777999999999935
40
0.4
0
CIRCLE
8
BLACK
10
196.1589999999999918
20
-92.2577999999999889
40
0.4
0
CIRCLE
8
BLACK
10
196.1589999999999918
20
-99.8777999999999935
40
0.4
0
CIRCLE
8
BLACK
10
198.6989999999999839
20
-92.2577999999999889
40
0.4
0
CIRCLE
8
BLACK
10
198.6989999999999839
20
-99.8777999999999935
40
0.4
0
CIRCLE
8
BLACK
10
201.2390000000000043
20
-92.2577999999999889
40
0.4
0
CIRCLE
8
BLACK
10
201.2390000000000043
20
-99.8777999999999935
40
0.4
0
CIRCLE
8
BLACK
10
203.7789999999999964
20
-92.2577999999999889
40
0.4
0
CIRCLE
8
BLACK
10
203.7789999999999964
20
-99.8777999999999935
40
0.4
0
CIRCLE
8
BLACK
10
204.5613999999999919
20
-50.4930999999999983
40
0.4
0
CIRCLE
8
BLACK
10
204.5613999999999919
20
-53.0330999999999975
40
0.4
0
CIRCLE
8
BLACK
10
204.5613999999999919
20
-55.5730999999999966
40
0.4
0
CIRCLE
8
BLACK
10
204.5613999999999919
20
-58.1130999999999958
40
0.4
0
CIRCLE
8
BLACK
10
204.5613999999999919
20
-60.6530999999999949
40
0.4
0
CIRCLE
8
BLACK
10
204.5613999999999919
20
-63.1930999999999941
40
0.4
0
CIRCLE
8
BLACK
10
204.5613999999999919
20
-65.7330999999999932
40
0.4
0
CIRCLE
8
BLACK
10
204.5613999999999919
20
-68.2730999999999995
40
0.4
0
CIRCLE
8
BLACK
10
204.5613999999999919
20
-70.8130999999999915
40
0.4
0
CIRCLE
8
BLACK
10
204.5613999999999919
20
-73.3530999999999977
40
0.4
0
CIRCLE
8
BLACK
10
206.3189999999999884
20
-92.2577999999999889
40
0.4
0
CIRCLE
8
BLACK
10
206.3189999999999884
20
-99.8777999999999935
40
0.4
0
CIRCLE
8
BLACK
10
208.8589999999999804
20
-92.2577999999999889
40
0.4
0
CIRCLE
8
BLACK
10
208.8589999999999804
20
-99.8777999999999935
40
0.4
0
CIRCLE
8
BLACK
10
211.3990000000000009
20
-92.2577999999999889
40
0.4
0
CIRCLE
8
BLACK
10
211.3990000000000009
20
-99.8777999999999935
40
0.4
0
CIRCLE
8
BLACK
10
212.1813999999999965
20
-50.4930999999999983
40
0.4
0
CIRCLE
8
BLACK
10
212.1813999999999965
20
-53.0330999999999975
40
0.4
0
CIRCLE
8
BLACK
10
212.1813999999999965
20
-55.5730999999999966
40
0.4
0
CIRCLE
8
BLACK
10
212.1813999999999965
20
-58.1130999999999958
40
0.4
0
CIRCLE
8
BLACK
10
212.1813999999999965
20
-60.6530999999999949
40
0.4
0
CIRCLE
8
BLACK
10
212.1813999999999965
20
-63.1930999999999941
40
0.4
0
CIRCLE
8
BLACK
10
212.1813999999999965
20
-65.7330999999999932
40
0.4
0
CIRCLE
8
BLACK
10
212.1813999999999965
20
-68.2730999999999995
40
0.4
0
CIRCLE
8
BLACK
10
212.1813999999999965
20
-70.8130999999999915
40
0.4
0
CIRCLE
8
BLACK
10
212.1813999999999965
20
-73.3530999999999977
40
0.4
0
CIRCLE
8
BLACK
10
213.938999999999993
20
-92.2577999999999889
40
0.4
0
CIRCLE
8
BLACK
10
213.938999999999993
20
-99.8777999999999935
40
0.4
0
LINE
8
BLACK
6
CONTINUOUS
10
131.97199999999998
20
-109.9954999999999927
11
131.97199999999998
21
-110.9954999999999927
0
LINE
8
BLACK
6
CONTINUOUS
10
131.47199999999998
20
-110.4954999999999927
11
132.47199999999998
21
-110.4954999999999927
0
LINE
8
BLACK
6
CONTINUOUS
10
131.97199999999998
20
-112.535499999999999
11
131.97199999999998
21
-113.535499999999999
0
LINE
8
BLACK
6
CONTINUOUS
10
131.47199999999998
20
-113.035499999999999
11
132.47199999999998
21
-113.035499999999999
0
LINE
8
BLACK
6
CONTINUOUS
10
134.5120000000000005
20
-109.9954999999999927
11
134.5120000000000005
21
-110.9954999999999927
0
LINE
8
BLACK
6
CONTINUOUS
10
134.0120000000000005
20
-110.4954999999999927
11
135.0120000000000005
21
-110.4954999999999927
0
LINE
8
BLACK
6
CONTINUOUS
10
134.5120000000000005
20
-112.535499999999999
11
134.5120000000000005
21
-113.535499999999999
0
LINE
8
BLACK
6
CONTINUOUS
10
134.0120000000000005
20
-113.035499999999999
11
135.0120000000000005
21
-113.035499999999999
0
LINE
8
BLACK
6
CONTINUOUS
10
137.0519999999999925
20
-109.9954999999999927
11
137.0519999999999925
21
-110.9954999999999927
0
LINE
8
BLACK
6
CONTINUOUS
10
136.5519999999999925
20
-110.4954999999999927
11
137.5519999999999925
21
-110.4954999999999927
0
LINE
8
BLACK
6
CONTINUOUS
10
137.0519999999999925
20
-112.535499999999999
11
137.0519999999999925
21
-113.535499999999999
0
LINE
8
BLACK
6
CONTINUOUS
10
136.5519999999999925
20
-113.035499999999999
11
137.5519999999999925
21
-113.035499999999999
0
LINE
8
BLACK
6
CONTINUOUS
10
139.5919999999999845
20
-109.9954999999999927
11
139.5919999999999845
21
-110.9954999999999927
0
LINE
8
BLACK
6
CONTINUOUS
10
139.0919999999999845
20
-110.4954999999999927
11
140.0919999999999845
21
-110.4954999999999927
0
LINE
8
BLACK
6
CONTINUOUS
10
139.5919999999999845
20
-112.535499999999999
11
139.5919999999999845
21
-113.535499999999999
0
LINE
8
BLACK
6
CONTINUOUS
10
139.0919999999999845
20
-113.035499999999999
11
140.0919999999999845
21
-113.035499999999999
0
LINE
8
BLACK
6
CONTINUOUS
10
142.132000000000005
20
-109.9954999999999927
11
142.132000000000005
21
-110.9954999999999927
0
LINE
8
BLACK
6
CONTINUOUS
10
141.632000000000005
20
-110.4954999999999927
11
142.632000000000005
21
-110.4954999999999927
0
LINE
8
BLACK
6
CONTINUOUS
10
142.132000000000005
20
-112.535499999999999
11
142.132000000000005
21
-113.535499999999999
0
LINE
8
BLACK
6
CONTINUOUS
10
141.632000000000005
20
-113.035499999999999
11
142.632000000000005
21
-113.035499999999999
0
LINE
8
BLACK
6
CONTINUOUS
10
144.671999999999997
20
-109.9954999999999927
11
144.671999999999997
21
-110.9954999999999927
0
LINE
8
BLACK
6
CONTINUOUS
10
144.171999999999997
20
-110.4954999999999927
11
145.171999999999997
21
-110.4954999999999927
0
LINE
8
BLACK
6
CONTINUOUS
10
144.671999999999997
20
-112.535499999999999
11
144.671999999999997
21
-113.535499999999999
0
LINE
8
BLACK
6
CONTINUOUS
10
144.171999999999997
20
-113.035499999999999
11
145.171999999999997
21
-113.035499999999999
0
LINE
8
BLACK
6
CONTINUOUS
10
147.2119999999999891
20
-109.9954999999999927
11
147.2119999999999891
21
-110.9954999999999927
0
LINE
8
BLACK
6
CONTINUOUS
10
146.7119999999999891
20
-110.4954999999999927
11
147.7119999999999891
21
-110.4954999999999927
0
LINE
8
BLACK
6
CONTINUOUS
10
147.2119999999999891
20
-112.535499999999999
11
147.2119999999999891
21
-113.535499999999999
0
LINE
8
BLACK
6
CONTINUOUS
10
146.7119999999999891
20
-113.035499999999999
11
147.7119999999999891
21
-113.035499999999999
0
LINE
8
BLACK
6
CONTINUOUS
10
149.7519999999999811
20
-109.9954999999999927
11
149.7519999999999811
21
-110.9954999999999927
0
LINE
8
BLACK
6
CONTINUOUS
10
149.2519999999999811
20
-110.4954999999999927
11
150.2519999999999811
21
-110.4954999999999927
0
LINE
8
BLACK
6
CONTINUOUS
10
149.7519999999999811
20
-112.535499999999999
11
149.7519999999999811
21
-113.535499999999999
0
LINE
8
BLACK
6
CONTINUOUS
10
149.2519999999999811
20
-113.035499999999999
11
150.2519999999999811
21
-113.035499999999999
0
LINE
8
BLACK
6
CONTINUOUS
10
152.2920000000000016
20
-109.9954999999999927
11
152.2920000000000016
21
-110.9954999999999927
0
LINE
8
BLACK
6
CONTINUOUS
10
151.7920000000000016
20
-110.4954999999999927
11
152.7920000000000016
21
-110.4954999999999927
0
LINE
8
BLACK
6
CONTINUOUS
10
152.2920000000000016
20
-112.535499999999999
11
152.2920000000000016
21
-113.535499999999999
0
LINE
8
BLACK
6
CONTINUOUS
10
151.7920000000000016
20
-113.035499999999999
11
152.7920000000000016
21
-113.035499999999999
0
LINE
8
BLACK
6
CONTINUOUS
10
154.8319999999999936
20
-109.9954999999999927
11
154.8319999999999936
21
-110.9954999999999927
0
LINE
8
BLACK
6
CONTINUOUS
10
154.3319999999999936
20
-110.4954999999999927
11
155.3319999999999936
21
-110.4954999999999927
0
LINE
8
BLACK
6
CONTINUOUS
10
154.8319999999999936
20
-112.535499999999999
11
154.8319999999999936
21
-113.535499999999999
0
LINE
8
BLACK
6
CONTINUOUS
10
154.3319999999999936
20
-113.035499999999999
11
155.3319999999999936
21
-113.035499999999999
0
LINE
8
BLACK
6
CONTINUOUS
10
157.3719999999999857
20
-109.9954999999999927
11
157.3719999999999857
21
-110.9954999999999927
0
LINE
8
BLACK
6
CONTINUOUS
10
156.8719999999999857
20
-110.4954999999999927
11
157.8719999999999857
21
-110.4954999999999927
0
LINE
8
BLACK
6
CONTINUOUS
10
157.3719999999999857
20
-112.535499999999999
11
157.3719999999999857
21
-113.535499999999999
0
LINE
8
BLACK
6
CONTINUOUS
10
156.8719999999999857
20
-113.035499999999999
11
157.8719999999999857
21
-113.035499999999999
0
LINE
8
BLACK
6
CONTINUOUS
10
159.9120000000000061
20
-109.9954999999999927
11
159.9120000000000061
21
-110.9954999999999927
0
LINE
8
BLACK
6
CONTINUOUS
10
159.4120000000000061
20
-110.4954999999999927
11
160.4120000000000061
21
-110.4954999999999927
0
LINE
8
BLACK
6
CONTINUOUS
10
159.9120000000000061
20
-112.535499999999999
11
159.9120000000000061
21
-113.535499999999999
0
LINE
8
BLACK
6
CONTINUOUS
10
159.4120000000000061
20
-113.035499999999999
11
160.4120000000000061
21
-113.035499999999999
0
LINE
8
BLACK
6
CONTINUOUS
10
162.4519999999999982
20
-109.9954999999999927
11
162.4519999999999982
21
-110.9954999999999927
0
LINE
8
BLACK
6
CONTINUOUS
10
161.9519999999999982
20
-110.4954999999999927
11
162.9519999999999982
21
-110.4954999999999927
0
LINE
8
BLACK
6
CONTINUOUS
10
162.4519999999999982
20
-112.535499999999999
11
162.4519999999999982
21
-113.535499999999999
0
LINE
8
BLACK
6
CONTINUOUS
10
161.9519999999999982
20
-113.035499999999999
11
162.9519999999999982
21
-113.035499999999999
0
LINE
8
BLACK
6
CONTINUOUS
10
164.9919999999999902
20
-109.9954999999999927
11
164.9919999999999902
21
-110.9954999999999927
0
LINE
8
BLACK
6
CONTINUOUS
10
164.4919999999999902
20
-110.4954999999999927
11
165.4919999999999902
21
-110.4954999999999927
0
LINE
8
BLACK
6
CONTINUOUS
10
164.9919999999999902
20
-112.535499999999999
11
164.9919999999999902
21
-113.535499999999999
0
LINE
8
BLACK
6
CONTINUOUS
10
164.4919999999999902
20
-113.035499999999999
11
165.4919999999999902
21
-113.035499999999999
0
LINE
8
BLACK
6
CONTINUOUS
10
167.5319999999999823
20
-109.9954999999999927
11
167.5319999999999823
21
-110.9954999999999927
0
LINE
8
BLACK
6
CONTINUOUS
10
167.0319999999999823
20
-110.4954999999999927
11
168.0319999999999823
21
-110.4954999999999927
0
LINE
8
BLACK
6
CONTINUOUS
10
167.5319999999999823
20
-112.535499999999999
11
167.5319999999999823
21
-113.535499999999999
0
LINE
8
BLACK
6
CONTINUOUS
10
167.0319999999999823
20
-113.035499999999999
11
168.0319999999999823
21
-113.035499999999999
0
LINE
8
BLACK
6
CONTINUOUS
10
170.0720000000000027
20
-109.9954999999999927
11
170.0720000000000027
21
-110.9954999999999927
0
LINE
8
BLACK
6
CONTINUOUS
10
169.5720000000000027
20
-110.4954999999999927
11
170.5720000000000027
21
-110.4954999999999927
0
LINE
8
BLACK
6
CONTINUOUS
10
170.0720000000000027
20
-112.535499999999999
11
170.0720000000000027
21
-113.535499999999999
0
LINE
8
BLACK
6
CONTINUOUS
10
169.5720000000000027
20
-113.035499999999999
11
170.5720000000000027
21
-113.035499999999999
0
LINE
8
BLACK
6
CONTINUOUS
10
172.6119999999999948
20
-109.9954999999999927
11
172.6119999999999948
21
-110.9954999999999927
0
LINE
8
BLACK
6
CONTINUOUS
10
172.1119999999999948
20
-110.4954999999999927
11
173.1119999999999948
21
-110.4954999999999927
0
LINE
8
BLACK
6
CONTINUOUS
10
172.6119999999999948
20
-112.535499999999999
11
172.6119999999999948
21
-113.535499999999999
0
LINE
8
BLACK
6
CONTINUOUS
10
172.1119999999999948
20
-113.035499999999999
11
173.1119999999999948
21
-113.035499999999999
0
LINE
8
BLACK
6
CONTINUOUS
10
175.1519999999999868
20
-109.9954999999999927
11
175.1519999999999868
21
-110.9954999999999927
0
LINE
8
BLACK
6
CONTINUOUS
10
174.6519999999999868
20
-110.4954999999999927
11
175.6519999999999868
21
-110.4954999999999927
0
LINE
8
BLACK
6
CONTINUOUS
10
175.1519999999999868
20
-112.535499999999999
11
175.1519999999999868
21
-113.535499999999999
0
LINE
8
BLACK
6
CONTINUOUS
10
174.6519999999999868
20
-113.035499999999999
11
175.6519999999999868
21
-113.035499999999999
0
LINE
8
BLACK
6
CONTINUOUS
10
177.6919999999999789
20
-109.9954999999999927
11
177.6919999999999789
21
-110.9954999999999927
0
LINE
8
BLACK
6
CONTINUOUS
10
177.1919999999999789
20
-110.4954999999999927
11
178.1919999999999789
21
-110.4954999999999927
0
LINE
8
BLACK
6
CONTINUOUS
10
177.6919999999999789
20
-112.535499999999999
11
177.6919999999999789
21
-113.535499999999999
0
LINE
8
BLACK
6
CONTINUOUS
10
177.1919999999999789
20
-113.035499999999999
11
178.1919999999999789
21
-113.035499999999999
0
LINE
8
BLACK
6
CONTINUOUS
10
180.2319999999999993
20
-109.9954999999999927
11
180.2319999999999993
21
-110.9954999999999927
0
LINE
8
BLACK
6
CONTINUOUS
10
179.7319999999999993
20
-110.4954999999999927
11
180.7319999999999993
21
-110.4954999999999927
0
LINE
8
BLACK
6
CONTINUOUS
10
180.2319999999999993
20
-112.535499999999999
11
180.2319999999999993
21
-113.535499999999999
0
LINE
8
BLACK
6
CONTINUOUS
10
179.7319999999999993
20
-113.035499999999999
11
180.7319999999999993
21
-113.035499999999999
0
LINE
8
BLACK
6
CONTINUOUS
10
182.7719999999999914
20
-109.9954999999999927
11
182.7719999999999914
21
-110.9954999999999927
0
LINE
8
BLACK
6
CONTINUOUS
10
182.2719999999999914
20
-110.4954999999999927
11
183.2719999999999914
21
-110.4954999999999927
0
LINE
8
BLACK
6
CONTINUOUS
10
182.7719999999999914
20
-112.535499999999999
11
182.7719999999999914
21
-113.535499999999999
0
LINE
8
BLACK
6
CONTINUOUS
10
182.2719999999999914
20
-113.035499999999999
11
183.2719999999999914
21
-113.035499999999999
0
LINE
8
BLACK
6
CONTINUOUS
10
185.3119999999999834
20
-109.9954999999999927
11
185.3119999999999834
21
-110.9954999999999927
0
LINE
8
BLACK
6
CONTINUOUS
10
184.8119999999999834
20
-110.4954999999999927
11
185.8119999999999834
21
-110.4954999999999927
0
LINE
8
BLACK
6
CONTINUOUS
10
185.3119999999999834
20
-112.535499999999999
11
185.3119999999999834
21
-113.535499999999999
0
LINE
8
BLACK
6
CONTINUOUS
10
184.8119999999999834
20
-113.035499999999999
11
185.8119999999999834
21
-113.035499999999999
0
LINE
8
BLACK
6
CONTINUOUS
10
187.8520000000000039
20
-109.9954999999999927
11
187.8520000000000039
21
-110.9954999999999927
0
LINE
8
BLACK
6
CONTINUOUS
10
187.3520000000000039
20
-110.4954999999999927
11
188.3520000000000039
21
-110.4954999999999927
0
LINE
8
BLACK
6
CONTINUOUS
10
187.8520000000000039
20
-112.535499999999999
11
187.8520000000000039
21
-113.535499999999999
0
LINE
8
BLACK
6
CONTINUOUS
10
187.3520000000000039
20
-113.035499999999999
11
188.3520000000000039
21
-113.035499999999999
0
LINE
8
BLACK
6
CONTINUOUS
10
190.3919999999999959
20
-109.9954999999999927
11
190.3919999999999959
21
-110.9954999999999927
0
LINE
8
BLACK
6
CONTINUOUS
10
189.8919999999999959
20
-110.4954999999999927
11
190.8919999999999959
21
-110.4954999999999927
0
LINE
8
BLACK
6
CONTINUOUS
10
190.3919999999999959
20
-112.535499999999999
11
190.3919999999999959
21
-113.535499999999999
0
LINE
8
BLACK
6
CONTINUOUS
10
189.8919999999999959
20
-113.035499999999999
11
190.8919999999999959
21
-113.035499999999999
0
LINE
8
BLACK
6
CONTINUOUS
10
192.9319999999999879
20
-109.9954999999999927
11
192.9319999999999879
21
-110.9954999999999927
0
LINE
8
BLACK
6
CONTINUOUS
10
192.4319999999999879
20
-110.4954999999999927
11
193.4319999999999879
21
-110.4954999999999927
0
LINE
8
BLACK
6
CONTINUOUS
10
192.9319999999999879
20
-112.535499999999999
11
192.9319999999999879
21
-113.535499999999999
0
LINE
8
BLACK
6
CONTINUOUS
10
192.4319999999999879
20
-113.035499999999999
11
193.4319999999999879
21
-113.035499999999999
0
LINE
8
BLACK
6
CONTINUOUS
10
195.47199999999998
20
-109.9954999999999927
11
195.47199999999998
21
-110.9954999999999927
0
LINE
8
BLACK
6
CONTINUOUS
10
194.97199999999998
20
-110.4954999999999927
11
195.97199999999998
21
-110.4954999999999927
0
LINE
8
BLACK
6
CONTINUOUS
10
195.47199999999998
20
-112.535499999999999
11
195.47199999999998
21
-113.535499999999999
0
LINE
8
BLACK
6
CONTINUOUS
10
194.97199999999998
20
-113.035499999999999
11
195.97199999999998
21
-113.035499999999999
0
LINE
8
BLACK
6
CONTINUOUS
10
198.0120000000000005
20
-109.9954999999999927
11
198.0120000000000005
21
-110.9954999999999927
0
LINE
8
BLACK
6
CONTINUOUS
10
197.5120000000000005
20
-110.4954999999999927
11
198.5120000000000005
21
-110.4954999999999927
0
LINE
8
BLACK
6
CONTINUOUS
10
198.0120000000000005
20
-112.535499999999999
11
198.0120000000000005
21
-113.535499999999999
0
LINE
8
BLACK
6
CONTINUOUS
10
197.5120000000000005
20
-113.035499999999999
11
198.5120000000000005
21
-113.035499999999999
0
LINE
8
BLACK
6
CONTINUOUS
10
200.5519999999999925
20
-109.9954999999999927
11
200.5519999999999925
21
-110.9954999999999927
0
LINE
8
BLACK
6
CONTINUOUS
10
200.0519999999999925
20
-110.4954999999999927
11
201.0519999999999925
21
-110.4954999999999927
0
LINE
8
BLACK
6
CONTINUOUS
10
200.5519999999999925
20
-112.535499999999999
11
200.5519999999999925
21
-113.535499999999999
0
LINE
8
BLACK
6
CONTINUOUS
10
200.0519999999999925
20
-113.035499999999999
11
201.0519999999999925
21
-113.035499999999999
0
LINE
8
BLACK
6
CONTINUOUS
10
203.0919999999999845
20
-109.9954999999999927
11
203.0919999999999845
21
-110.9954999999999927
0
LINE
8
BLACK
6
CONTINUOUS
10
202.5919999999999845
20
-110.4954999999999927
11
203.5919999999999845
21
-110.4954999999999927
0
LINE
8
BLACK
6
CONTINUOUS
10
203.0919999999999845
20
-112.535499999999999
11
203.0919999999999845
21
-113.535499999999999
0
LINE
8
BLACK
6
CONTINUOUS
10
202.5919999999999845
20
-113.035499999999999
11
203.5919999999999845
21
-113.035499999999999
0
LINE
8
BLACK
6
CONTINUOUS
10
205.6319999999999766
20
-109.9954999999999927
11
205.6319999999999766
21
-110.9954999999999927
0
LINE
8
BLACK
6
CONTINUOUS
10
205.1319999999999766
20
-110.4954999999999927
11
206.1319999999999766
21
-110.4954999999999927
0
LINE
8
BLACK
6
CONTINUOUS
10
205.6319999999999766
20
-112.535499999999999
11
205.6319999999999766
21
-113.535499999999999
0
LINE
8
BLACK
6
CONTINUOUS
10
205.1319999999999766
20
-113.035499999999999
11
206.1319999999999766
21
-113.035499999999999
0
LINE
8
BLACK
6
CONTINUOUS
10
208.171999999999997
20
-109.9954999999999927
11
208.171999999999997
21
-110.9954999999999927
0
LINE
8
BLACK
6
CONTINUOUS
10
207.671999999999997
20
-110.4954999999999927
11
208.671999999999997
21
-110.4954999999999927
0
LINE
8
BLACK
6
CONTINUOUS
10
208.171999999999997
20
-112.535499999999999
11
208.171999999999997
21
-113.535499999999999
0
LINE
8
BLACK
6
CONTINUOUS
10
207.671999999999997
20
-113.035499999999999
11
208.671999999999997
21
-113.035499999999999
0
LINE
8
BLACK
6
CONTINUOUS
10
210.7119999999999891
20
-109.9954999999999927
11
210.7119999999999891
21
-110.9954999999999927
0
LINE
8
BLACK
6
CONTINUOUS
10
210.2119999999999891
20
-110.4954999999999927
11
211.2119999999999891
21
-110.4954999999999927
0
LINE
8
BLACK
6
CONTINUOUS
10
210.7119999999999891
20
-112.535499999999999
11
210.7119999999999891
21
-113.535499999999999
0
LINE
8
BLACK
6
CONTINUOUS
10
210.2119999999999891
20
-113.035499999999999
11
211.2119999999999891
21
-113.035499999999999
0
LINE
8
BLACK
6
CONTINUOUS
10
96.8747679999999889
20
-121.315337999999997
11
96.8747679999999889
21
-119.315337999999997
0
LINE
8
BLACK
6
CONTINUOUS
10
96.8747679999999889
20
-119.315337999999997
11
97.3509579999999914
21
-119.315337999999997
0
LINE
8
BLACK
6
CONTINUOUS
10
97.3509579999999914
20
-119.315337999999997
11
97.6366730000000018
21
-119.4105759999999918
0
LINE
8
BLACK
6
CONTINUOUS
10
97.6366730000000018
20
-119.4105759999999918
11
97.8271489999999915
21
-119.6010519999999957
0
LINE
8
BLACK
6
CONTINUOUS
10
97.8271489999999915
20
-119.6010519999999957
11
97.9223870000000005
21
-119.7915279999999996
0
LINE
8
BLACK
6
CONTINUOUS
10
97.9223870000000005
20
-119.7915279999999996
11
98.0176249999999953
21
-120.1724799999999931
0
LINE
8
BLACK
6
CONTINUOUS
10
98.0176249999999953
20
-120.1724799999999931
11
98.0176249999999953
21
-120.4581949999999892
0
LINE
8
BLACK
6
CONTINUOUS
10
98.0176249999999953
20
-120.4581949999999892
11
97.9223870000000005
21
-120.839146999999997
0
LINE
8
BLACK
6
CONTINUOUS
10
97.9223870000000005
20
-120.839146999999997
11
97.8271489999999915
21
-121.0296230000000008
0
LINE
8
BLACK
6
CONTINUOUS
10
97.8271489999999915
20
-121.0296230000000008
11
97.6366730000000018
21
-121.220099999999988
0
LINE
8
BLACK
6
CONTINUOUS
10
97.6366730000000018
20
-121.220099999999988
11
97.3509579999999914
21
-121.315337999999997
0
LINE
8
BLACK
6
CONTINUOUS
10
97.3509579999999914
20
-121.315337999999997
11
96.8747679999999889
21
-121.315337999999997
0
LINE
8
BLACK
6
CONTINUOUS
10
98.8747679999999889
20
-121.315337999999997
11
98.8747679999999889
21
-119.9820039999999892
0
LINE
8
BLACK
6
CONTINUOUS
10
98.8747679999999889
20
-120.3629569999999944
11
98.9700059999999979
21
-120.1724799999999931
0
LINE
8
BLACK
6
CONTINUOUS
10
98.9700059999999979
20
-120.1724799999999931
11
99.0652439999999928
21
-120.0772419999999983
0
LINE
8
BLACK
6
CONTINUOUS
10
99.0652439999999928
20
-120.0772419999999983
11
99.2557199999999966
21
-119.9820039999999892
0
LINE
8
BLACK
6
CONTINUOUS
10
99.2557199999999966
20
-119.9820039999999892
11
99.446196999999998
21
-119.9820039999999892
0
LINE
8
BLACK
6
CONTINUOUS
10
100.1128629999999902
20
-121.315337999999997
11
100.1128629999999902
21
-119.9820039999999892
0
LINE
8
BLACK
6
CONTINUOUS
10
100.1128629999999902
20
-119.315337999999997
11
100.0176249999999953
21
-119.4105759999999918
0
LINE
8
BLACK
6
CONTINUOUS
10
100.0176249999999953
20
-119.4105759999999918
11
100.1128629999999902
21
-119.5058140000000009
0
LINE
8
BLACK
6
CONTINUOUS
10
100.1128629999999902
20
-119.5058140000000009
11
100.2081009999999992
21
-119.4105759999999918
0
LINE
8
BLACK
6
CONTINUOUS
10
100.2081009999999992
20
-119.4105759999999918
11
100.1128629999999902
21
-119.315337999999997
0
LINE
8
BLACK
6
CONTINUOUS
10
100.1128629999999902
20
-119.315337999999997
11
100.1128629999999902
21
-119.5058140000000009
0
LINE
8
BLACK
6
CONTINUOUS
10
101.3509579999999914
20
-121.315337999999997
11
101.1604820000000018
21
-121.220099999999988
0
LINE
8
BLACK
6
CONTINUOUS
10
101.1604820000000018
20
-121.220099999999988
11
101.0652439999999928
21
-121.0296230000000008
0
LINE
8
BLACK
6
CONTINUOUS
10
101.0652439999999928
20
-121.0296230000000008
11
101.0652439999999928
21
-119.315337999999997
0
LINE
8
BLACK
6
CONTINUOUS
10
102.3985769999999889
20
-121.315337999999997
11
102.2081009999999992
21
-121.220099999999988
0
LINE
8
BLACK
6
CONTINUOUS
10
102.2081009999999992
20
-121.220099999999988
11
102.1128629999999902
21
-121.0296230000000008
0
LINE
8
BLACK
6
CONTINUOUS
10
102.1128629999999902
20
-121.0296230000000008
11
102.1128629999999902
21
-119.315337999999997
0
LINE
8
BLACK
6
CONTINUOUS
10
104.6842919999999992
20
-121.315337999999997
11
104.6842919999999992
21
-119.315337999999997
0
LINE
8
BLACK
6
CONTINUOUS
10
104.6842919999999992
20
-119.315337999999997
11
105.3509589999999889
21
-120.7439089999999879
0
LINE
8
BLACK
6
CONTINUOUS
10
105.3509589999999889
20
-120.7439089999999879
11
106.0176249999999953
21
-119.315337999999997
0
LINE
8
BLACK
6
CONTINUOUS
10
106.0176249999999953
20
-119.315337999999997
11
106.0176249999999953
21
-121.315337999999997
0
LINE
8
BLACK
6
CONTINUOUS
10
107.8271489999999915
20
-121.315337999999997
11
107.8271489999999915
21
-120.2677189999999996
0
LINE
8
BLACK
6
CONTINUOUS
10
107.8271489999999915
20
-120.2677189999999996
11
107.7319109999999966
21
-120.0772419999999983
0
LINE
8
BLACK
6
CONTINUOUS
10
107.7319109999999966
20
-120.0772419999999983
11
107.5414349999999928
21
-119.9820039999999892
0
LINE
8
BLACK
6
CONTINUOUS
10
107.5414349999999928
20
-119.9820039999999892
11
107.1604820000000018
21
-119.9820039999999892
0
LINE
8
BLACK
6
CONTINUOUS
10
107.1604820000000018
20
-119.9820039999999892
11
106.9700059999999979
21
-120.0772419999999983
0
LINE
8
BLACK
6
CONTINUOUS
10
107.8271489999999915
20
-121.220099999999988
11
107.6366730000000018
21
-121.315337999999997
0
LINE
8
BLACK
6
CONTINUOUS
10
107.6366730000000018
20
-121.315337999999997
11
107.1604820000000018
21
-121.315337999999997
0
LINE
8
BLACK
6
CONTINUOUS
10
107.1604820000000018
20
-121.315337999999997
11
106.9700059999999979
21
-121.220099999999988
0
LINE
8
BLACK
6
CONTINUOUS
10
106.9700059999999979
20
-121.220099999999988
11
106.8747679999999889
21
-121.0296230000000008
0
LINE
8
BLACK
6
CONTINUOUS
10
106.8747679999999889
20
-121.0296230000000008
11
106.8747679999999889
21
-120.839146999999997
0
LINE
8
BLACK
6
CONTINUOUS
10
106.8747679999999889
20
-120.839146999999997
11
106.9700059999999979
21
-120.6486709999999931
0
LINE
8
BLACK
6
CONTINUOUS
10
106.9700059999999979
20
-120.6486709999999931
11
107.1604820000000018
21
-120.5534329999999983
0
LINE
8
BLACK
6
CONTINUOUS
10
107.1604820000000018
20
-120.5534329999999983
11
107.6366730000000018
21
-120.5534329999999983
0
LINE
8
BLACK
6
CONTINUOUS
10
107.6366730000000018
20
-120.5534329999999983
11
107.8271489999999915
21
-120.4581949999999892
0
LINE
8
BLACK
6
CONTINUOUS
10
108.7795299999999941
20
-119.9820039999999892
11
108.7795299999999941
21
-121.9820039999999892
0
LINE
8
BLACK
6
CONTINUOUS
10
108.7795299999999941
20
-120.0772419999999983
11
108.9700059999999979
21
-119.9820039999999892
0
LINE
8
BLACK
6
CONTINUOUS
10
108.9700059999999979
20
-119.9820039999999892
11
109.3509589999999889
21
-119.9820039999999892
0
LINE
8
BLACK
6
CONTINUOUS
10
109.3509589999999889
20
-119.9820039999999892
11
109.5414349999999928
21
-120.0772419999999983
0
LINE
8
BLACK
6
CONTINUOUS
10
109.5414349999999928
20
-120.0772419999999983
11
109.6366730000000018
21
-120.1724799999999931
0
LINE
8
BLACK
6
CONTINUOUS
10
109.6366730000000018
20
-120.1724799999999931
11
109.7319109999999966
21
-120.3629569999999944
0
LINE
8
BLACK
6
CONTINUOUS
10
109.7319109999999966
20
-120.3629569999999944
11
109.7319109999999966
21
-120.9343849999999918
0
LINE
8
BLACK
6
CONTINUOUS
10
109.7319109999999966
20
-120.9343849999999918
11
109.6366730000000018
21
-121.1248609999999957
0
LINE
8
BLACK
6
CONTINUOUS
10
109.6366730000000018
20
-121.1248609999999957
11
109.5414349999999928
21
-121.220099999999988
0
LINE
8
BLACK
6
CONTINUOUS
10
109.5414349999999928
20
-121.220099999999988
11
109.3509589999999889
21
-121.315337999999997
0
LINE
8
BLACK
6
CONTINUOUS
10
109.3509589999999889
20
-121.315337999999997
11
108.9700059999999979
21
-121.315337999999997
0
LINE
8
BLACK
6
CONTINUOUS
10
108.9700059999999979
20
-121.315337999999997
11
108.7795299999999941
21
-121.220099999999988
0
LINE
8
BLACK
6
CONTINUOUS
10
110.5890539999999902
20
-121.1248609999999957
11
110.6842919999999992
21
-121.220099999999988
0
LINE
8
BLACK
6
CONTINUOUS
10
110.6842919999999992
20
-121.220099999999988
11
110.5890539999999902
21
-121.315337999999997
0
LINE
8
BLACK
6
CONTINUOUS
10
110.5890539999999902
20
-121.315337999999997
11
110.4938159999999954
21
-121.220099999999988
0
LINE
8
BLACK
6
CONTINUOUS
10
110.4938159999999954
20
-121.220099999999988
11
110.5890539999999902
21
-121.1248609999999957
0
LINE
8
BLACK
6
CONTINUOUS
10
110.5890539999999902
20
-121.1248609999999957
11
110.5890539999999902
21
-121.315337999999997
0
LINE
8
BLACK
6
CONTINUOUS
10
110.5890539999999902
20
-120.0772419999999983
11
110.6842919999999992
21
-120.1724799999999931
0
LINE
8
BLACK
6
CONTINUOUS
10
110.6842919999999992
20
-120.1724799999999931
11
110.5890539999999902
21
-120.2677189999999996
0
LINE
8
BLACK
6
CONTINUOUS
10
110.5890539999999902
20
-120.2677189999999996
11
110.4938159999999954
21
-120.1724799999999931
0
LINE
8
BLACK
6
CONTINUOUS
10
110.4938159999999954
20
-120.1724799999999931
11
110.5890539999999902
21
-120.0772419999999983
0
LINE
8
BLACK
6
CONTINUOUS
10
110.5890539999999902
20
-120.0772419999999983
11
110.5890539999999902
21
-120.2677189999999996
0
LINE
8
BLACK
6
CONTINUOUS
10
93.8669999999999902
20
-124.4004999999999939
11
94.2669999999999959
21
-124.8004999999999995
0
LINE
8
BLACK
6
CONTINUOUS
10
94.2669999999999959
20
-124.4004999999999939
11
93.8669999999999902
21
-124.8004999999999995
0
LINE
8
BLACK
6
CONTINUOUS
10
97.2557199999999966
20
-123.5153379999999999
11
97.446196999999998
21
-123.5153379999999999
0
LINE
8
BLACK
6
CONTINUOUS
10
97.446196999999998
20
-123.5153379999999999
11
97.6366730000000018
21
-123.6105759999999947
0
LINE
8
BLACK
6
CONTINUOUS
10
97.6366730000000018
20
-123.6105759999999947
11
97.7319109999999966
21
-123.7058139999999895
0
LINE
8
BLACK
6
CONTINUOUS
10
97.7319109999999966
20
-123.7058139999999895
11
97.8271489999999915
21
-123.8962899999999934
0
LINE
8
BLACK
6
CONTINUOUS
10
97.8271489999999915
20
-123.8962899999999934
11
97.9223870000000005
21
-124.2772420000000011
0
LINE
8
BLACK
6
CONTINUOUS
10
97.9223870000000005
20
-124.2772420000000011
11
97.9223870000000005
21
-124.7534330000000011
0
LINE
8
BLACK
6
CONTINUOUS
10
97.9223870000000005
20
-124.7534330000000011
11
97.8271489999999915
21
-125.1343849999999946
0
LINE
8
BLACK
6
CONTINUOUS
10
97.8271489999999915
20
-125.1343849999999946
11
97.7319109999999966
21
-125.3248609999999985
0
LINE
8
BLACK
6
CONTINUOUS
10
97.7319109999999966
20
-125.3248609999999985
11
97.6366730000000018
21
-125.4200999999999908
0
LINE
8
BLACK
6
CONTINUOUS
10
97.6366730000000018
20
-125.4200999999999908
11
97.446196999999998
21
-125.5153379999999999
0
LINE
8
BLACK
6
CONTINUOUS
10
97.446196999999998
20
-125.5153379999999999
11
97.2557199999999966
21
-125.5153379999999999
0
LINE
8
BLACK
6
CONTINUOUS
10
97.2557199999999966
20
-125.5153379999999999
11
97.0652439999999928
21
-125.4200999999999908
0
LINE
8
BLACK
6
CONTINUOUS
10
97.0652439999999928
20
-125.4200999999999908
11
96.9700059999999979
21
-125.3248609999999985
0
LINE
8
BLACK
6
CONTINUOUS
10
96.9700059999999979
20
-125.3248609999999985
11
96.8747679999999889
21
-125.1343849999999946
0
LINE
8
BLACK
6
CONTINUOUS
10
96.8747679999999889
20
-125.1343849999999946
11
96.7795299999999941
21
-124.7534330000000011
0
LINE
8
BLACK
6
CONTINUOUS
10
96.7795299999999941
20
-124.7534330000000011
11
96.7795299999999941
21
-124.2772420000000011
0
LINE
8
BLACK
6
CONTINUOUS
10
96.7795299999999941
20
-124.2772420000000011
11
96.8747679999999889
21
-123.8962899999999934
0
LINE
8
BLACK
6
CONTINUOUS
10
96.8747679999999889
20
-123.8962899999999934
11
96.9700059999999979
21
-123.7058139999999895
0
LINE
8
BLACK
6
CONTINUOUS
10
96.9700059999999979
20
-123.7058139999999895
11
97.0652439999999928
21
-123.6105759999999947
0
LINE
8
BLACK
6
CONTINUOUS
10
97.0652439999999928
20
-123.6105759999999947
11
97.2557199999999966
21
-123.5153379999999999
0
LINE
8
BLACK
6
CONTINUOUS
10
98.7795299999999941
20
-125.3248609999999985
11
98.8747679999999889
21
-125.4200999999999908
0
LINE
8
BLACK
6
CONTINUOUS
10
98.8747679999999889
20
-125.4200999999999908
11
98.7795299999999941
21
-125.5153379999999999
0
LINE
8
BLACK
6
CONTINUOUS
10
98.7795299999999941
20
-125.5153379999999999
11
98.6842919999999992
21
-125.4200999999999908
0
LINE
8
BLACK
6
CONTINUOUS
10
98.6842919999999992
20
-125.4200999999999908
11
98.7795299999999941
21
-125.3248609999999985
0
LINE
8
BLACK
6
CONTINUOUS
10
98.7795299999999941
20
-125.3248609999999985
11
98.7795299999999941
21
-125.5153379999999999
0
LINE
8
BLACK
6
CONTINUOUS
10
100.5890539999999902
20
-124.1820039999999921
11
100.5890539999999902
21
-125.5153379999999999
0
LINE
8
BLACK
6
CONTINUOUS
10
100.1128629999999902
20
-123.4200999999999908
11
99.6366730000000018
21
-124.848670999999996
0
LINE
8
BLACK
6
CONTINUOUS
10
99.6366730000000018
20
-124.848670999999996
11
100.8747679999999889
21
-124.848670999999996
0
LINE
8
BLACK
6
CONTINUOUS
10
102.0176249999999953
20
-123.5153379999999999
11
102.2081019999999967
21
-123.5153379999999999
0
LINE
8
BLACK
6
CONTINUOUS
10
102.2081019999999967
20
-123.5153379999999999
11
102.3985780000000005
21
-123.6105759999999947
0
LINE
8
BLACK
6
CONTINUOUS
10
102.3985780000000005
20
-123.6105759999999947
11
102.4938159999999954
21
-123.7058139999999895
0
LINE
8
BLACK
6
CONTINUOUS
10
102.4938159999999954
20
-123.7058139999999895
11
102.5890539999999902
21
-123.8962899999999934
0
LINE
8
BLACK
6
CONTINUOUS
10
102.5890539999999902
20
-123.8962899999999934
11
102.6842919999999992
21
-124.2772420000000011
0
LINE
8
BLACK
6
CONTINUOUS
10
102.6842919999999992
20
-124.2772420000000011
11
102.6842919999999992
21
-124.7534330000000011
0
LINE
8
BLACK
6
CONTINUOUS
10
102.6842919999999992
20
-124.7534330000000011
11
102.5890539999999902
21
-125.1343849999999946
0
LINE
8
BLACK
6
CONTINUOUS
10
102.5890539999999902
20
-125.1343849999999946
11
102.4938159999999954
21
-125.3248609999999985
0
LINE
8
BLACK
6
CONTINUOUS
10
102.4938159999999954
20
-125.3248609999999985
11
102.3985780000000005
21
-125.4200999999999908
0
LINE
8
BLACK
6
CONTINUOUS
10
102.3985780000000005
20
-125.4200999999999908
11
102.2081019999999967
21
-125.5153379999999999
0
LINE
8
BLACK
6
CONTINUOUS
10
102.2081019999999967
20
-125.5153379999999999
11
102.0176249999999953
21
-125.5153379999999999
0
LINE
8
BLACK
6
CONTINUOUS
10
102.0176249999999953
20
-125.5153379999999999
11
101.8271489999999915
21
-125.4200999999999908
0
LINE
8
BLACK
6
CONTINUOUS
10
101.8271489999999915
20
-125.4200999999999908
11
101.7319109999999966
21
-125.3248609999999985
0
LINE
8
BLACK
6
CONTINUOUS
10
101.7319109999999966
20
-125.3248609999999985
11
101.6366730000000018
21
-125.1343849999999946
0
LINE
8
BLACK
6
CONTINUOUS
10
101.6366730000000018
20
-125.1343849999999946
11
101.5414349999999928
21
-124.7534330000000011
0
LINE
8
BLACK
6
CONTINUOUS
10
101.5414349999999928
20
-124.7534330000000011
11
101.5414349999999928
21
-124.2772420000000011
0
LINE
8
BLACK
6
CONTINUOUS
10
101.5414349999999928
20
-124.2772420000000011
11
101.6366730000000018
21
-123.8962899999999934
0
LINE
8
BLACK
6
CONTINUOUS
10
101.6366730000000018
20
-123.8962899999999934
11
101.7319109999999966
21
-123.7058139999999895
0
LINE
8
BLACK
6
CONTINUOUS
10
101.7319109999999966
20
-123.7058139999999895
11
101.8271489999999915
21
-123.6105759999999947
0
LINE
8
BLACK
6
CONTINUOUS
10
101.8271489999999915
20
-123.6105759999999947
11
102.0176249999999953
21
-123.5153379999999999
0
LINE
8
BLACK
6
CONTINUOUS
10
103.9223870000000005
20
-123.5153379999999999
11
104.1128640000000019
21
-123.5153379999999999
0
LINE
8
BLACK
6
CONTINUOUS
10
104.1128640000000019
20
-123.5153379999999999
11
104.3033399999999915
21
-123.6105759999999947
0
LINE
8
BLACK
6
CONTINUOUS
10
104.3033399999999915
20
-123.6105759999999947
11
104.3985780000000005
21
-123.7058139999999895
0
LINE
8
BLACK
6
CONTINUOUS
10
104.3985780000000005
20
-123.7058139999999895
11
104.4938159999999954
21
-123.8962899999999934
0
LINE
8
BLACK
6
CONTINUOUS
10
104.4938159999999954
20
-123.8962899999999934
11
104.5890539999999902
21
-124.2772420000000011
0
LINE
8
BLACK
6
CONTINUOUS
10
104.5890539999999902
20
-124.2772420000000011
11
104.5890539999999902
21
-124.7534330000000011
0
LINE
8
BLACK
6
CONTINUOUS
10
104.5890539999999902
20
-124.7534330000000011
11
104.4938159999999954
21
-125.1343849999999946
0
LINE
8
BLACK
6
CONTINUOUS
10
104.4938159999999954
20
-125.1343849999999946
11
104.3985780000000005
21
-125.3248609999999985
0
LINE
8
BLACK
6
CONTINUOUS
10
104.3985780000000005
20
-125.3248609999999985
11
104.3033399999999915
21
-125.4200999999999908
0
LINE
8
BLACK
6
CONTINUOUS
10
104.3033399999999915
20
-125.4200999999999908
11
104.1128640000000019
21
-125.5153379999999999
0
LINE
8
BLACK
6
CONTINUOUS
10
104.1128640000000019
20
-125.5153379999999999
11
103.9223870000000005
21
-125.5153379999999999
0
LINE
8
BLACK
6
CONTINUOUS
10
103.9223870000000005
20
-125.5153379999999999
11
103.7319109999999966
21
-125.4200999999999908
0
LINE
8
BLACK
6
CONTINUOUS
10
103.7319109999999966
20
-125.4200999999999908
11
103.6366730000000018
21
-125.3248609999999985
0
LINE
8
BLACK
6
CONTINUOUS
10
103.6366730000000018
20
-125.3248609999999985
11
103.5414349999999928
21
-125.1343849999999946
0
LINE
8
BLACK
6
CONTINUOUS
10
103.5414349999999928
20
-125.1343849999999946
11
103.446196999999998
21
-124.7534330000000011
0
LINE
8
BLACK
6
CONTINUOUS
10
103.446196999999998
20
-124.7534330000000011
11
103.446196999999998
21
-124.2772420000000011
0
LINE
8
BLACK
6
CONTINUOUS
10
103.446196999999998
20
-124.2772420000000011
11
103.5414349999999928
21
-123.8962899999999934
0
LINE
8
BLACK
6
CONTINUOUS
10
103.5414349999999928
20
-123.8962899999999934
11
103.6366730000000018
21
-123.7058139999999895
0
LINE
8
BLACK
6
CONTINUOUS
10
103.6366730000000018
20
-123.7058139999999895
11
103.7319109999999966
21
-123.6105759999999947
0
LINE
8
BLACK
6
CONTINUOUS
10
103.7319109999999966
20
-123.6105759999999947
11
103.9223870000000005
21
-123.5153379999999999
0
LINE
8
BLACK
6
CONTINUOUS
10
105.446196999999998
20
-125.5153379999999999
11
105.446196999999998
21
-124.1820039999999921
0
LINE
8
BLACK
6
CONTINUOUS
10
105.446196999999998
20
-124.3724799999999959
11
105.5414349999999928
21
-124.2772420000000011
0
LINE
8
BLACK
6
CONTINUOUS
10
105.5414349999999928
20
-124.2772420000000011
11
105.7319109999999966
21
-124.1820039999999921
0
LINE
8
BLACK
6
CONTINUOUS
10
105.7319109999999966
20
-124.1820039999999921
11
106.0176259999999928
21
-124.1820039999999921
0
LINE
8
BLACK
6
CONTINUOUS
10
106.0176259999999928
20
-124.1820039999999921
11
106.2081019999999967
21
-124.2772420000000011
0
LINE
8
BLACK
6
CONTINUOUS
10
106.2081019999999967
20
-124.2772420000000011
11
106.3033399999999915
21
-124.4677189999999882
0
LINE
8
BLACK
6
CONTINUOUS
10
106.3033399999999915
20
-124.4677189999999882
11
106.3033399999999915
21
-125.5153379999999999
0
LINE
8
BLACK
6
CONTINUOUS
10
106.3033399999999915
20
-124.4677189999999882
11
106.3985780000000005
21
-124.2772420000000011
0
LINE
8
BLACK
6
CONTINUOUS
10
106.3985780000000005
20
-124.2772420000000011
11
106.5890539999999902
21
-124.1820039999999921
0
LINE
8
BLACK
6
CONTINUOUS
10
106.5890539999999902
20
-124.1820039999999921
11
106.8747679999999889
21
-124.1820039999999921
0
LINE
8
BLACK
6
CONTINUOUS
10
106.8747679999999889
20
-124.1820039999999921
11
107.0652449999999902
21
-124.2772420000000011
0
LINE
8
BLACK
6
CONTINUOUS
10
107.0652449999999902
20
-124.2772420000000011
11
107.1604829999999993
21
-124.4677189999999882
0
LINE
8
BLACK
6
CONTINUOUS
10
107.1604829999999993
20
-124.4677189999999882
11
107.1604829999999993
21
-125.5153379999999999
0
LINE
8
BLACK
6
CONTINUOUS
10
108.1128640000000019
20
-125.5153379999999999
11
108.1128640000000019
21
-124.1820039999999921
0
LINE
8
BLACK
6
CONTINUOUS
10
108.1128640000000019
20
-124.3724799999999959
11
108.2081019999999967
21
-124.2772420000000011
0
LINE
8
BLACK
6
CONTINUOUS
10
108.2081019999999967
20
-124.2772420000000011
11
108.3985780000000005
21
-124.1820039999999921
0
LINE
8
BLACK
6
CONTINUOUS
10
108.3985780000000005
20
-124.1820039999999921
11
108.6842929999999967
21
-124.1820039999999921
0
LINE
8
BLACK
6
CONTINUOUS
10
108.6842929999999967
20
-124.1820039999999921
11
108.8747690000000006
21
-124.2772420000000011
0
LINE
8
BLACK
6
CONTINUOUS
10
108.8747690000000006
20
-124.2772420000000011
11
108.9700069999999954
21
-124.4677189999999882
0
LINE
8
BLACK
6
CONTINUOUS
10
108.9700069999999954
20
-124.4677189999999882
11
108.9700069999999954
21
-125.5153379999999999
0
LINE
8
BLACK
6
CONTINUOUS
10
108.9700069999999954
20
-124.4677189999999882
11
109.0652449999999902
21
-124.2772420000000011
0
LINE
8
BLACK
6
CONTINUOUS
10
109.0652449999999902
20
-124.2772420000000011
11
109.2557209999999941
21
-124.1820039999999921
0
LINE
8
BLACK
6
CONTINUOUS
10
109.2557209999999941
20
-124.1820039999999921
11
109.5414349999999928
21
-124.1820039999999921
0
LINE
8
BLACK
6
CONTINUOUS
10
109.5414349999999928
20
-124.1820039999999921
11
109.7319119999999941
21
-124.2772420000000011
0
LINE
8
BLACK
6
CONTINUOUS
10
109.7319119999999941
20
-124.2772420000000011
11
109.8271499999999889
21
-124.4677189999999882
0
LINE
8
BLACK
6
CONTINUOUS
10
109.8271499999999889
20
-124.4677189999999882
11
109.8271499999999889
21
-125.5153379999999999
0
LINE
8
BLACK
6
CONTINUOUS
10
113.7319119999999941
20
-123.4200999999999908
11
112.0176269999999903
21
-125.9915279999999882
0
LINE
8
BLACK
6
CONTINUOUS
10
116.303340999999989
20
-123.5153379999999999
11
116.4938179999999903
21
-123.5153379999999999
0
LINE
8
BLACK
6
CONTINUOUS
10
116.4938179999999903
20
-123.5153379999999999
11
116.6842939999999942
21
-123.6105759999999947
0
LINE
8
BLACK
6
CONTINUOUS
10
116.6842939999999942
20
-123.6105759999999947
11
116.779531999999989
21
-123.7058139999999895
0
LINE
8
BLACK
6
CONTINUOUS
10
116.779531999999989
20
-123.7058139999999895
11
116.874769999999998
21
-123.8962899999999934
0
LINE
8
BLACK
6
CONTINUOUS
10
116.874769999999998
20
-123.8962899999999934
11
116.9700079999999929
21
-124.2772420000000011
0
LINE
8
BLACK
6
CONTINUOUS
10
116.9700079999999929
20
-124.2772420000000011
11
116.9700079999999929
21
-124.7534330000000011
0
LINE
8
BLACK
6
CONTINUOUS
10
116.9700079999999929
20
-124.7534330000000011
11
116.874769999999998
21
-125.1343849999999946
0
LINE
8
BLACK
6
CONTINUOUS
10
116.874769999999998
20
-125.1343849999999946
11
116.779531999999989
21
-125.3248609999999985
0
LINE
8
BLACK
6
CONTINUOUS
10
116.779531999999989
20
-125.3248609999999985
11
116.6842939999999942
21
-125.4200999999999908
0
LINE
8
BLACK
6
CONTINUOUS
10
116.6842939999999942
20
-125.4200999999999908
11
116.4938179999999903
21
-125.5153379999999999
0
LINE
8
BLACK
6
CONTINUOUS
10
116.4938179999999903
20
-125.5153379999999999
11
116.303340999999989
21
-125.5153379999999999
0
LINE
8
BLACK
6
CONTINUOUS
10
116.303340999999989
20
-125.5153379999999999
11
116.1128649999999993
21
-125.4200999999999908
0
LINE
8
BLACK
6
CONTINUOUS
10
116.1128649999999993
20
-125.4200999999999908
11
116.0176269999999903
21
-125.3248609999999985
0
LINE
8
BLACK
6
CONTINUOUS
10
116.0176269999999903
20
-125.3248609999999985
11
115.9223889999999955
21
-125.1343849999999946
0
LINE
8
BLACK
6
CONTINUOUS
10
115.9223889999999955
20
-125.1343849999999946
11
115.8271510000000006
21
-124.7534330000000011
0
LINE
8
BLACK
6
CONTINUOUS
10
115.8271510000000006
20
-124.7534330000000011
11
115.8271510000000006
21
-124.2772420000000011
0
LINE
8
BLACK
6
CONTINUOUS
10
115.8271510000000006
20
-124.2772420000000011
11
115.9223889999999955
21
-123.8962899999999934
0
LINE
8
BLACK
6
CONTINUOUS
10
115.9223889999999955
20
-123.8962899999999934
11
116.0176269999999903
21
-123.7058139999999895
0
LINE
8
BLACK
6
CONTINUOUS
10
116.0176269999999903
20
-123.7058139999999895
11
116.1128649999999993
21
-123.6105759999999947
0
LINE
8
BLACK
6
CONTINUOUS
10
116.1128649999999993
20
-123.6105759999999947
11
116.303340999999989
21
-123.5153379999999999
0
LINE
8
BLACK
6
CONTINUOUS
10
117.8271510000000006
20
-125.3248609999999985
11
117.9223889999999955
21
-125.4200999999999908
0
LINE
8
BLACK
6
CONTINUOUS
10
117.9223889999999955
20
-125.4200999999999908
11
117.8271510000000006
21
-125.5153379999999999
0
LINE
8
BLACK
6
CONTINUOUS
10
117.8271510000000006
20
-125.5153379999999999
11
117.7319129999999916
21
-125.4200999999999908
0
LINE
8
BLACK
6
CONTINUOUS
10
117.7319129999999916
20
-125.4200999999999908
11
117.8271510000000006
21
-125.3248609999999985
0
LINE
8
BLACK
6
CONTINUOUS
10
117.8271510000000006
20
-125.3248609999999985
11
117.8271510000000006
21
-125.5153379999999999
0
LINE
8
BLACK
6
CONTINUOUS
10
119.1604839999999967
20
-123.5153379999999999
11
119.3509609999999981
21
-123.5153379999999999
0
LINE
8
BLACK
6
CONTINUOUS
10
119.3509609999999981
20
-123.5153379999999999
11
119.5414369999999877
21
-123.6105759999999947
0
LINE
8
BLACK
6
CONTINUOUS
10
119.5414369999999877
20
-123.6105759999999947
11
119.6366749999999968
21
-123.7058139999999895
0
LINE
8
BLACK
6
CONTINUOUS
10
119.6366749999999968
20
-123.7058139999999895
11
119.7319129999999916
21
-123.8962899999999934
0
LINE
8
BLACK
6
CONTINUOUS
10
119.7319129999999916
20
-123.8962899999999934
11
119.8271510000000006
21
-124.2772420000000011
0
LINE
8
BLACK
6
CONTINUOUS
10
119.8271510000000006
20
-124.2772420000000011
11
119.8271510000000006
21
-124.7534330000000011
0
LINE
8
BLACK
6
CONTINUOUS
10
119.8271510000000006
20
-124.7534330000000011
11
119.7319129999999916
21
-125.1343849999999946
0
LINE
8
BLACK
6
CONTINUOUS
10
119.7319129999999916
20
-125.1343849999999946
11
119.6366749999999968
21
-125.3248609999999985
0
LINE
8
BLACK
6
CONTINUOUS
10
119.6366749999999968
20
-125.3248609999999985
11
119.5414369999999877
21
-125.4200999999999908
0
LINE
8
BLACK
6
CONTINUOUS
10
119.5414369999999877
20
-125.4200999999999908
11
119.3509609999999981
21
-125.5153379999999999
0
LINE
8
BLACK
6
CONTINUOUS
10
119.3509609999999981
20
-125.5153379999999999
11
119.1604839999999967
21
-125.5153379999999999
0
LINE
8
BLACK
6
CONTINUOUS
10
119.1604839999999967
20
-125.5153379999999999
11
118.9700079999999929
21
-125.4200999999999908
0
LINE
8
BLACK
6
CONTINUOUS
10
118.9700079999999929
20
-125.4200999999999908
11
118.874769999999998
21
-125.3248609999999985
0
LINE
8
BLACK
6
CONTINUOUS
10
118.874769999999998
20
-125.3248609999999985
11
118.779531999999989
21
-125.1343849999999946
0
LINE
8
BLACK
6
CONTINUOUS
10
118.779531999999989
20
-125.1343849999999946
11
118.6842939999999942
21
-124.7534330000000011
0
LINE
8
BLACK
6
CONTINUOUS
10
118.6842939999999942
20
-124.7534330000000011
11
118.6842939999999942
21
-124.2772420000000011
0
LINE
8
BLACK
6
CONTINUOUS
10
118.6842939999999942
20
-124.2772420000000011
11
118.779531999999989
21
-123.8962899999999934
0
LINE
8
BLACK
6
CONTINUOUS
10
118.779531999999989
20
-123.8962899999999934
11
118.874769999999998
21
-123.7058139999999895
0
LINE
8
BLACK
6
CONTINUOUS
10
118.874769999999998
20
-123.7058139999999895
11
118.9700079999999929
21
-123.6105759999999947
0
LINE
8
BLACK
6
CONTINUOUS
10
118.9700079999999929
20
-123.6105759999999947
11
119.1604839999999967
21
-123.5153379999999999
0
LINE
8
BLACK
6
CONTINUOUS
10
121.7319129999999916
20
-125.5153379999999999
11
120.5890559999999994
21
-125.5153379999999999
0
LINE
8
BLACK
6
CONTINUOUS
10
121.1604839999999967
20
-125.5153379999999999
11
121.1604839999999967
21
-123.5153379999999999
0
LINE
8
BLACK
6
CONTINUOUS
10
121.1604839999999967
20
-123.5153379999999999
11
120.9700079999999929
21
-123.8010519999999985
0
LINE
8
BLACK
6
CONTINUOUS
10
120.9700079999999929
20
-123.8010519999999985
11
120.779531999999989
21
-123.9915279999999882
0
LINE
8
BLACK
6
CONTINUOUS
10
120.779531999999989
20
-123.9915279999999882
11
120.5890559999999994
21
-124.0867659999999972
0
LINE
8
BLACK
6
CONTINUOUS
10
123.5414369999999877
20
-123.5153379999999999
11
122.5890559999999994
21
-123.5153379999999999
0
LINE
8
BLACK
6
CONTINUOUS
10
122.5890559999999994
20
-123.5153379999999999
11
122.4938179999999903
21
-124.4677189999999882
0
LINE
8
BLACK
6
CONTINUOUS
10
122.4938179999999903
20
-124.4677189999999882
11
122.5890559999999994
21
-124.3724799999999959
0
LINE
8
BLACK
6
CONTINUOUS
10
122.5890559999999994
20
-124.3724799999999959
11
122.779531999999989
21
-124.2772420000000011
0
LINE
8
BLACK
6
CONTINUOUS
10
122.779531999999989
20
-124.2772420000000011
11
123.255722999999989
21
-124.2772420000000011
0
LINE
8
BLACK
6
CONTINUOUS
10
123.255722999999989
20
-124.2772420000000011
11
123.4461989999999929
21
-124.3724799999999959
0
LINE
8
BLACK
6
CONTINUOUS
10
123.4461989999999929
20
-124.3724799999999959
11
123.5414369999999877
21
-124.4677189999999882
0
LINE
8
BLACK
6
CONTINUOUS
10
123.5414369999999877
20
-124.4677189999999882
11
123.6366749999999968
21
-124.6581949999999921
0
LINE
8
BLACK
6
CONTINUOUS
10
123.6366749999999968
20
-124.6581949999999921
11
123.6366749999999968
21
-125.1343849999999946
0
LINE
8
BLACK
6
CONTINUOUS
10
123.6366749999999968
20
-125.1343849999999946
11
123.5414369999999877
21
-125.3248609999999985
0
LINE
8
BLACK
6
CONTINUOUS
10
123.5414369999999877
20
-125.3248609999999985
11
123.4461989999999929
21
-125.4200999999999908
0
LINE
8
BLACK
6
CONTINUOUS
10
123.4461989999999929
20
-125.4200999999999908
11
123.255722999999989
21
-125.5153379999999999
0
LINE
8
BLACK
6
CONTINUOUS
10
123.255722999999989
20
-125.5153379999999999
11
122.779531999999989
21
-125.5153379999999999
0
LINE
8
BLACK
6
CONTINUOUS
10
122.779531999999989
20
-125.5153379999999999
11
122.5890559999999994
21
-125.4200999999999908
0
LINE
8
BLACK
6
CONTINUOUS
10
122.5890559999999994
20
-125.4200999999999908
11
122.4938179999999903
21
-125.3248609999999985
0
LINE
8
BLACK
6
CONTINUOUS
10
124.3033420000000007
20
-123.5153379999999999
11
125.6366749999999968
21
-123.5153379999999999
0
LINE
8
BLACK
6
CONTINUOUS
10
125.6366749999999968
20
-123.5153379999999999
11
124.779531999999989
21
-125.5153379999999999
0
LINE
8
BLACK
6
CONTINUOUS
10
126.3033420000000007
20
-123.5153379999999999
11
126.3033420000000007
21
-123.8962899999999934
0
LINE
8
BLACK
6
CONTINUOUS
10
127.0652469999999994
20
-123.5153379999999999
11
127.0652469999999994
21
-123.8962899999999934
0
LINE
8
BLACK
6
CONTINUOUS
10
130.0176289999999995
20
-126.2772420000000011
11
129.9223900000000071
21
-126.1820039999999921
0
LINE
8
BLACK
6
CONTINUOUS
10
129.9223900000000071
20
-126.1820039999999921
11
129.7319139999999891
21
-125.8962899999999934
0
LINE
8
BLACK
6
CONTINUOUS
10
129.7319139999999891
20
-125.8962899999999934
11
129.6366759999999942
21
-125.7058139999999895
0
LINE
8
BLACK
6
CONTINUOUS
10
129.6366759999999942
20
-125.7058139999999895
11
129.5414379999999994
21
-125.4200999999999908
0
LINE
8
BLACK
6
CONTINUOUS
10
129.5414379999999994
20
-125.4200999999999908
11
129.4462000000000046
21
-124.9439089999999908
0
LINE
8
BLACK
6
CONTINUOUS
10
129.4462000000000046
20
-124.9439089999999908
11
129.4462000000000046
21
-124.5629569999999973
0
LINE
8
BLACK
6
CONTINUOUS
10
129.4462000000000046
20
-124.5629569999999973
11
129.5414379999999994
21
-124.0867659999999972
0
LINE
8
BLACK
6
CONTINUOUS
10
129.5414379999999994
20
-124.0867659999999972
11
129.6366759999999942
21
-123.8010519999999985
0
LINE
8
BLACK
6
CONTINUOUS
10
129.6366759999999942
20
-123.8010519999999985
11
129.7319139999999891
21
-123.6105759999999947
0
LINE
8
BLACK
6
CONTINUOUS
10
129.7319139999999891
20
-123.6105759999999947
11
129.9223900000000071
21
-123.3248609999999985
0
LINE
8
BLACK
6
CONTINUOUS
10
129.9223900000000071
20
-123.3248609999999985
11
130.0176289999999995
21
-123.2296229999999895
0
LINE
8
BLACK
6
CONTINUOUS
10
131.0652469999999994
20
-124.3724799999999959
11
130.8747709999999813
21
-124.2772420000000011
0
LINE
8
BLACK
6
CONTINUOUS
10
130.8747709999999813
20
-124.2772420000000011
11
130.7795329999999865
21
-124.1820039999999921
0
LINE
8
BLACK
6
CONTINUOUS
10
130.7795329999999865
20
-124.1820039999999921
11
130.6842949999999917
21
-123.9915279999999882
0
LINE
8
BLACK
6
CONTINUOUS
10
130.6842949999999917
20
-123.9915279999999882
11
130.6842949999999917
21
-123.8962899999999934
0
LINE
8
BLACK
6
CONTINUOUS
10
130.6842949999999917
20
-123.8962899999999934
11
130.7795329999999865
21
-123.7058139999999895
0
LINE
8
BLACK
6
CONTINUOUS
10
130.7795329999999865
20
-123.7058139999999895
11
130.8747709999999813
21
-123.6105759999999947
0
LINE
8
BLACK
6
CONTINUOUS
10
130.8747709999999813
20
-123.6105759999999947
11
131.0652469999999994
21
-123.5153379999999999
0
LINE
8
BLACK
6
CONTINUOUS
10
131.0652469999999994
20
-123.5153379999999999
11
131.4462000000000046
21
-123.5153379999999999
0
LINE
8
BLACK
6
CONTINUOUS
10
131.4462000000000046
20
-123.5153379999999999
11
131.6366759999999942
21
-123.6105759999999947
0
LINE
8
BLACK
6
CONTINUOUS
10
131.6366759999999942
20
-123.6105759999999947
11
131.7319139999999891
21
-123.7058139999999895
0
LINE
8
BLACK
6
CONTINUOUS
10
131.7319139999999891
20
-123.7058139999999895
11
131.8271519999999839
21
-123.8962899999999934
0
LINE
8
BLACK
6
CONTINUOUS
10
131.8271519999999839
20
-123.8962899999999934
11
131.8271519999999839
21
-123.9915279999999882
0
LINE
8
BLACK
6
CONTINUOUS
10
131.8271519999999839
20
-123.9915279999999882
11
131.7319139999999891
21
-124.1820039999999921
0
LINE
8
BLACK
6
CONTINUOUS
10
131.7319139999999891
20
-124.1820039999999921
11
131.6366759999999942
21
-124.2772420000000011
0
LINE
8
BLACK
6
CONTINUOUS
10
131.6366759999999942
20
-124.2772420000000011
11
131.4462000000000046
21
-124.3724799999999959
0
LINE
8
BLACK
6
CONTINUOUS
10
131.4462000000000046
20
-124.3724799999999959
11
131.0652469999999994
21
-124.3724799999999959
0
LINE
8
BLACK
6
CONTINUOUS
10
131.0652469999999994
20
-124.3724799999999959
11
130.8747709999999813
21
-124.4677189999999882
0
LINE
8
BLACK
6
CONTINUOUS
10
130.8747709999999813
20
-124.4677189999999882
11
130.7795329999999865
21
-124.5629569999999973
0
LINE
8
BLACK
6
CONTINUOUS
10
130.7795329999999865
20
-124.5629569999999973
11
130.6842949999999917
21
-124.7534330000000011
0
LINE
8
BLACK
6
CONTINUOUS
10
130.6842949999999917
20
-124.7534330000000011
11
130.6842949999999917
21
-125.1343849999999946
0
LINE
8
BLACK
6
CONTINUOUS
10
130.6842949999999917
20
-125.1343849999999946
11
130.7795329999999865
21
-125.3248609999999985
0
LINE
8
BLACK
6
CONTINUOUS
10
130.7795329999999865
20
-125.3248609999999985
11
130.8747709999999813
21
-125.4200999999999908
0
LINE
8
BLACK
6
CONTINUOUS
10
130.8747709999999813
20
-125.4200999999999908
11
131.0652469999999994
21
-125.5153379999999999
0
LINE
8
BLACK
6
CONTINUOUS
10
131.0652469999999994
20
-125.5153379999999999
11
131.4462000000000046
21
-125.5153379999999999
0
LINE
8
BLACK
6
CONTINUOUS
10
131.4462000000000046
20
-125.5153379999999999
11
131.6366759999999942
21
-125.4200999999999908
0
LINE
8
BLACK
6
CONTINUOUS
10
131.6366759999999942
20
-125.4200999999999908
11
131.7319139999999891
21
-125.3248609999999985
0
LINE
8
BLACK
6
CONTINUOUS
10
131.7319139999999891
20
-125.3248609999999985
11
131.8271519999999839
21
-125.1343849999999946
0
LINE
8
BLACK
6
CONTINUOUS
10
131.8271519999999839
20
-125.1343849999999946
11
131.8271519999999839
21
-124.7534330000000011
0
LINE
8
BLACK
6
CONTINUOUS
10
131.8271519999999839
20
-124.7534330000000011
11
131.7319139999999891
21
-124.5629569999999973
0
LINE
8
BLACK
6
CONTINUOUS
10
131.7319139999999891
20
-124.5629569999999973
11
131.6366759999999942
21
-124.4677189999999882
0
LINE
8
BLACK
6
CONTINUOUS
10
131.6366759999999942
20
-124.4677189999999882
11
131.4462000000000046
21
-124.3724799999999959
0
LINE
8
BLACK
6
CONTINUOUS
10
132.493819000000002
20
-123.5153379999999999
11
133.8271519999999839
21
-123.5153379999999999
0
LINE
8
BLACK
6
CONTINUOUS
10
133.8271519999999839
20
-123.5153379999999999
11
132.9700090000000046
21
-125.5153379999999999
0
LINE
8
BLACK
6
CONTINUOUS
10
136.1128669999999943
20
-125.5153379999999999
11
136.1128669999999943
21
-123.5153379999999999
0
LINE
8
BLACK
6
CONTINUOUS
10
136.970010000000002
20
-125.5153379999999999
11
136.970010000000002
21
-124.4677189999999882
0
LINE
8
BLACK
6
CONTINUOUS
10
136.970010000000002
20
-124.4677189999999882
11
136.8747720000000072
21
-124.2772420000000011
0
LINE
8
BLACK
6
CONTINUOUS
10
136.8747720000000072
20
-124.2772420000000011
11
136.6842959999999891
21
-124.1820039999999921
0
LINE
8
BLACK
6
CONTINUOUS
10
136.6842959999999891
20
-124.1820039999999921
11
136.3985810000000072
21
-124.1820039999999921
0
LINE
8
BLACK
6
CONTINUOUS
10
136.3985810000000072
20
-124.1820039999999921
11
136.2081049999999891
21
-124.2772420000000011
0
LINE
8
BLACK
6
CONTINUOUS
10
136.2081049999999891
20
-124.2772420000000011
11
136.1128669999999943
21
-124.3724799999999959
0
LINE
8
BLACK
6
CONTINUOUS
10
138.2081049999999891
20
-125.5153379999999999
11
138.0176289999999995
21
-125.4200999999999908
0
LINE
8
BLACK
6
CONTINUOUS
10
138.0176289999999995
20
-125.4200999999999908
11
137.9223910000000046
21
-125.3248609999999985
0
LINE
8
BLACK
6
CONTINUOUS
10
137.9223910000000046
20
-125.3248609999999985
11
137.8271529999999814
21
-125.1343849999999946
0
LINE
8
BLACK
6
CONTINUOUS
10
137.8271529999999814
20
-125.1343849999999946
11
137.8271529999999814
21
-124.5629569999999973
0
LINE
8
BLACK
6
CONTINUOUS
10
137.8271529999999814
20
-124.5629569999999973
11
137.9223910000000046
21
-124.3724799999999959
0
LINE
8
BLACK
6
CONTINUOUS
10
137.9223910000000046
20
-124.3724799999999959
11
138.0176289999999995
21
-124.2772420000000011
0
LINE
8
BLACK
6
CONTINUOUS
10
138.0176289999999995
20
-124.2772420000000011
11
138.2081049999999891
21
-124.1820039999999921
0
LINE
8
BLACK
6
CONTINUOUS
10
138.2081049999999891
20
-124.1820039999999921
11
138.4938199999999995
21
-124.1820039999999921
0
LINE
8
BLACK
6
CONTINUOUS
10
138.4938199999999995
20
-124.1820039999999921
11
138.6842959999999891
21
-124.2772420000000011
0
LINE
8
BLACK
6
CONTINUOUS
10
138.6842959999999891
20
-124.2772420000000011
11
138.779533999999984
21
-124.3724799999999959
0
LINE
8
BLACK
6
CONTINUOUS
10
138.779533999999984
20
-124.3724799999999959
11
138.8747720000000072
21
-124.5629569999999973
0
LINE
8
BLACK
6
CONTINUOUS
10
138.8747720000000072
20
-124.5629569999999973
11
138.8747720000000072
21
-125.1343849999999946
0
LINE
8
BLACK
6
CONTINUOUS
10
138.8747720000000072
20
-125.1343849999999946
11
138.779533999999984
21
-125.3248609999999985
0
LINE
8
BLACK
6
CONTINUOUS
10
138.779533999999984
20
-125.3248609999999985
11
138.6842959999999891
21
-125.4200999999999908
0
LINE
8
BLACK
6
CONTINUOUS
10
138.6842959999999891
20
-125.4200999999999908
11
138.4938199999999995
21
-125.5153379999999999
0
LINE
8
BLACK
6
CONTINUOUS
10
138.4938199999999995
20
-125.5153379999999999
11
138.2081049999999891
21
-125.5153379999999999
0
LINE
8
BLACK
6
CONTINUOUS
10
140.0176289999999995
20
-125.5153379999999999
11
139.8271529999999814
21
-125.4200999999999908
0
LINE
8
BLACK
6
CONTINUOUS
10
139.8271529999999814
20
-125.4200999999999908
11
139.7319149999999865
21
-125.2296229999999895
0
LINE
8
BLACK
6
CONTINUOUS
10
139.7319149999999865
20
-125.2296229999999895
11
139.7319149999999865
21
-123.5153379999999999
0
LINE
8
BLACK
6
CONTINUOUS
10
141.5414389999999969
20
-125.4200999999999908
11
141.3509630000000072
21
-125.5153379999999999
0
LINE
8
BLACK
6
CONTINUOUS
10
141.3509630000000072
20
-125.5153379999999999
11
140.970010000000002
21
-125.5153379999999999
0
LINE
8
BLACK
6
CONTINUOUS
10
140.970010000000002
20
-125.5153379999999999
11
140.779533999999984
21
-125.4200999999999908
0
LINE
8
BLACK
6
CONTINUOUS
10
140.779533999999984
20
-125.4200999999999908
11
140.6842959999999891
21
-125.2296229999999895
0
LINE
8
BLACK
6
CONTINUOUS
10
140.6842959999999891
20
-125.2296229999999895
11
140.6842959999999891
21
-124.4677189999999882
0
LINE
8
BLACK
6
CONTINUOUS
10
140.6842959999999891
20
-124.4677189999999882
11
140.779533999999984
21
-124.2772420000000011
0
LINE
8
BLACK
6
CONTINUOUS
10
140.779533999999984
20
-124.2772420000000011
11
140.970010000000002
21
-124.1820039999999921
0
LINE
8
BLACK
6
CONTINUOUS
10
140.970010000000002
20
-124.1820039999999921
11
141.3509630000000072
21
-124.1820039999999921
0
LINE
8
BLACK
6
CONTINUOUS
10
141.3509630000000072
20
-124.1820039999999921
11
141.5414389999999969
21
-124.2772420000000011
0
LINE
8
BLACK
6
CONTINUOUS
10
141.5414389999999969
20
-124.2772420000000011
11
141.6366769999999917
21
-124.4677189999999882
0
LINE
8
BLACK
6
CONTINUOUS
10
141.6366769999999917
20
-124.4677189999999882
11
141.6366769999999917
21
-124.6581949999999921
0
LINE
8
BLACK
6
CONTINUOUS
10
141.6366769999999917
20
-124.6581949999999921
11
140.6842959999999891
21
-124.848670999999996
0
LINE
8
BLACK
6
CONTINUOUS
10
142.3985820000000047
20
-125.4200999999999908
11
142.5890579999999943
21
-125.5153379999999999
0
LINE
8
BLACK
6
CONTINUOUS
10
142.5890579999999943
20
-125.5153379999999999
11
142.970010000000002
21
-125.5153379999999999
0
LINE
8
BLACK
6
CONTINUOUS
10
142.970010000000002
20
-125.5153379999999999
11
143.1604869999999892
21
-125.4200999999999908
0
LINE
8
BLACK
6
CONTINUOUS
10
143.1604869999999892
20
-125.4200999999999908
11
143.255724999999984
21
-125.2296229999999895
0
LINE
8
BLACK
6
CONTINUOUS
10
143.255724999999984
20
-125.2296229999999895
11
143.255724999999984
21
-125.1343849999999946
0
LINE
8
BLACK
6
CONTINUOUS
10
143.255724999999984
20
-125.1343849999999946
11
143.1604869999999892
21
-124.9439089999999908
0
LINE
8
BLACK
6
CONTINUOUS
10
143.1604869999999892
20
-124.9439089999999908
11
142.970010000000002
21
-124.848670999999996
0
LINE
8
BLACK
6
CONTINUOUS
10
142.970010000000002
20
-124.848670999999996
11
142.6842959999999891
21
-124.848670999999996
0
LINE
8
BLACK
6
CONTINUOUS
10
142.6842959999999891
20
-124.848670999999996
11
142.4938199999999995
21
-124.7534330000000011
0
LINE
8
BLACK
6
CONTINUOUS
10
142.4938199999999995
20
-124.7534330000000011
11
142.3985820000000047
21
-124.5629569999999973
0
LINE
8
BLACK
6
CONTINUOUS
10
142.3985820000000047
20
-124.5629569999999973
11
142.3985820000000047
21
-124.4677189999999882
0
LINE
8
BLACK
6
CONTINUOUS
10
142.3985820000000047
20
-124.4677189999999882
11
142.4938199999999995
21
-124.2772420000000011
0
LINE
8
BLACK
6
CONTINUOUS
10
142.4938199999999995
20
-124.2772420000000011
11
142.6842959999999891
21
-124.1820039999999921
0
LINE
8
BLACK
6
CONTINUOUS
10
142.6842959999999891
20
-124.1820039999999921
11
142.970010000000002
21
-124.1820039999999921
0
LINE
8
BLACK
6
CONTINUOUS
10
142.970010000000002
20
-124.1820039999999921
11
143.1604869999999892
21
-124.2772420000000011
0
LINE
8
BLACK
6
CONTINUOUS
10
143.9223920000000021
20
-126.2772420000000011
11
144.0176299999999969
21
-126.1820039999999921
0
LINE
8
BLACK
6
CONTINUOUS
10
144.0176299999999969
20
-126.1820039999999921
11
144.2081059999999866
21
-125.8962899999999934
0
LINE
8
BLACK
6
CONTINUOUS
10
144.2081059999999866
20
-125.8962899999999934
11
144.3033439999999814
21
-125.7058139999999895
0
LINE
8
BLACK
6
CONTINUOUS
10
144.3033439999999814
20
-125.7058139999999895
11
144.3985820000000047
21
-125.4200999999999908
0
LINE
8
BLACK
6
CONTINUOUS
10
144.3985820000000047
20
-125.4200999999999908
11
144.4938199999999995
21
-124.9439089999999908
0
LINE
8
BLACK
6
CONTINUOUS
10
144.4938199999999995
20
-124.9439089999999908
11
144.4938199999999995
21
-124.5629569999999973
0
LINE
8
BLACK
6
CONTINUOUS
10
144.4938199999999995
20
-124.5629569999999973
11
144.3985820000000047
21
-124.0867659999999972
0
LINE
8
BLACK
6
CONTINUOUS
10
144.3985820000000047
20
-124.0867659999999972
11
144.3033439999999814
21
-123.8010519999999985
0
LINE
8
BLACK
6
CONTINUOUS
10
144.3033439999999814
20
-123.8010519999999985
11
144.2081059999999866
21
-123.6105759999999947
0
LINE
8
BLACK
6
CONTINUOUS
10
144.2081059999999866
20
-123.6105759999999947
11
144.0176299999999969
21
-123.3248609999999985
0
LINE
8
BLACK
6
CONTINUOUS
10
144.0176299999999969
20
-123.3248609999999985
11
143.9223920000000021
21
-123.2296229999999895
0
CIRCLE
8
BLACK
10
93.8669999999999902
20
-127.2404999999999973
40
0.4
0
LINE
8
BLACK
6
CONTINUOUS
10
97.2557199999999966
20
-126.1553380000000004
11
97.446196999999998
21
-126.1553380000000004
0
LINE
8
BLACK
6
CONTINUOUS
10
97.446196999999998
20
-126.1553380000000004
11
97.6366730000000018
21
-126.2505759999999952
0
LINE
8
BLACK
6
CONTINUOUS
10
97.6366730000000018
20
-126.2505759999999952
11
97.7319109999999966
21
-126.3458139999999901
0
LINE
8
BLACK
6
CONTINUOUS
10
97.7319109999999966
20
-126.3458139999999901
11
97.8271489999999915
21
-126.5362899999999939
0
LINE
8
BLACK
6
CONTINUOUS
10
97.8271489999999915
20
-126.5362899999999939
11
97.9223870000000005
21
-126.9172419999999875
0
LINE
8
BLACK
6
CONTINUOUS
10
97.9223870000000005
20
-126.9172419999999875
11
97.9223870000000005
21
-127.3934329999999875
0
LINE
8
BLACK
6
CONTINUOUS
10
97.9223870000000005
20
-127.3934329999999875
11
97.8271489999999915
21
-127.7743849999999952
0
LINE
8
BLACK
6
CONTINUOUS
10
97.8271489999999915
20
-127.7743849999999952
11
97.7319109999999966
21
-127.9648609999999991
0
LINE
8
BLACK
6
CONTINUOUS
10
97.7319109999999966
20
-127.9648609999999991
11
97.6366730000000018
21
-128.0601000000000056
0
LINE
8
BLACK
6
CONTINUOUS
10
97.6366730000000018
20
-128.0601000000000056
11
97.446196999999998
21
-128.1553380000000004
0
LINE
8
BLACK
6
CONTINUOUS
10
97.446196999999998
20
-128.1553380000000004
11
97.2557199999999966
21
-128.1553380000000004
0
LINE
8
BLACK
6
CONTINUOUS
10
97.2557199999999966
20
-128.1553380000000004
11
97.0652439999999928
21
-128.0601000000000056
0
LINE
8
BLACK
6
CONTINUOUS
10
97.0652439999999928
20
-128.0601000000000056
11
96.9700059999999979
21
-127.9648609999999991
0
LINE
8
BLACK
6
CONTINUOUS
10
96.9700059999999979
20
-127.9648609999999991
11
96.8747679999999889
21
-127.7743849999999952
0
LINE
8
BLACK
6
CONTINUOUS
10
96.8747679999999889
20
-127.7743849999999952
11
96.7795299999999941
21
-127.3934329999999875
0
LINE
8
BLACK
6
CONTINUOUS
10
96.7795299999999941
20
-127.3934329999999875
11
96.7795299999999941
21
-126.9172419999999875
0
LINE
8
BLACK
6
CONTINUOUS
10
96.7795299999999941
20
-126.9172419999999875
11
96.8747679999999889
21
-126.5362899999999939
0
LINE
8
BLACK
6
CONTINUOUS
10
96.8747679999999889
20
-126.5362899999999939
11
96.9700059999999979
21
-126.3458139999999901
0
LINE
8
BLACK
6
CONTINUOUS
10
96.9700059999999979
20
-126.3458139999999901
11
97.0652439999999928
21
-126.2505759999999952
0
LINE
8
BLACK
6
CONTINUOUS
10
97.0652439999999928
20
-126.2505759999999952
11
97.2557199999999966
21
-126.1553380000000004
0
LINE
8
BLACK
6
CONTINUOUS
10
98.7795299999999941
20
-127.9648609999999991
11
98.8747679999999889
21
-128.0601000000000056
0
LINE
8
BLACK
6
CONTINUOUS
10
98.8747679999999889
20
-128.0601000000000056
11
98.7795299999999941
21
-128.1553380000000004
0
LINE
8
BLACK
6
CONTINUOUS
10
98.7795299999999941
20
-128.1553380000000004
11
98.6842919999999992
21
-128.0601000000000056
0
LINE
8
BLACK
6
CONTINUOUS
10
98.6842919999999992
20
-128.0601000000000056
11
98.7795299999999941
21
-127.9648609999999991
0
LINE
8
BLACK
6
CONTINUOUS
10
98.7795299999999941
20
-127.9648609999999991
11
98.7795299999999941
21
-128.1553380000000004
0
LINE
8
BLACK
6
CONTINUOUS
10
100.0176249999999953
20
-127.0124799999999965
11
99.8271489999999915
21
-126.9172419999999875
0
LINE
8
BLACK
6
CONTINUOUS
10
99.8271489999999915
20
-126.9172419999999875
11
99.7319109999999966
21
-126.8220039999999926
0
LINE
8
BLACK
6
CONTINUOUS
10
99.7319109999999966
20
-126.8220039999999926
11
99.6366730000000018
21
-126.6315279999999888
0
LINE
8
BLACK
6
CONTINUOUS
10
99.6366730000000018
20
-126.6315279999999888
11
99.6366730000000018
21
-126.5362899999999939
0
LINE
8
BLACK
6
CONTINUOUS
10
99.6366730000000018
20
-126.5362899999999939
11
99.7319109999999966
21
-126.3458139999999901
0
LINE
8
BLACK
6
CONTINUOUS
10
99.7319109999999966
20
-126.3458139999999901
11
99.8271489999999915
21
-126.2505759999999952
0
LINE
8
BLACK
6
CONTINUOUS
10
99.8271489999999915
20
-126.2505759999999952
11
100.0176249999999953
21
-126.1553380000000004
0
LINE
8
BLACK
6
CONTINUOUS
10
100.0176249999999953
20
-126.1553380000000004
11
100.3985780000000005
21
-126.1553380000000004
0
LINE
8
BLACK
6
CONTINUOUS
10
100.3985780000000005
20
-126.1553380000000004
11
100.5890539999999902
21
-126.2505759999999952
0
LINE
8
BLACK
6
CONTINUOUS
10
100.5890539999999902
20
-126.2505759999999952
11
100.6842919999999992
21
-126.3458139999999901
0
LINE
8
BLACK
6
CONTINUOUS
10
100.6842919999999992
20
-126.3458139999999901
11
100.7795299999999941
21
-126.5362899999999939
0
LINE
8
BLACK
6
CONTINUOUS
10
100.7795299999999941
20
-126.5362899999999939
11
100.7795299999999941
21
-126.6315279999999888
0
LINE
8
BLACK
6
CONTINUOUS
10
100.7795299999999941
20
-126.6315279999999888
11
100.6842919999999992
21
-126.8220039999999926
0
LINE
8
BLACK
6
CONTINUOUS
10
100.6842919999999992
20
-126.8220039999999926
11
100.5890539999999902
21
-126.9172419999999875
0
LINE
8
BLACK
6
CONTINUOUS
10
100.5890539999999902
20
-126.9172419999999875
11
100.3985780000000005
21
-127.0124799999999965
0
LINE
8
BLACK
6
CONTINUOUS
10
100.3985780000000005
20
-127.0124799999999965
11
100.0176249999999953
21
-127.0124799999999965
0
LINE
8
BLACK
6
CONTINUOUS
10
100.0176249999999953
20
-127.0124799999999965
11
99.8271489999999915
21
-127.1077189999999888
0
LINE
8
BLACK
6
CONTINUOUS
10
99.8271489999999915
20
-127.1077189999999888
11
99.7319109999999966
21
-127.2029569999999978
0
LINE
8
BLACK
6
CONTINUOUS
10
99.7319109999999966
20
-127.2029569999999978
11
99.6366730000000018
21
-127.3934329999999875
0
LINE
8
BLACK
6
CONTINUOUS
10
99.6366730000000018
20
-127.3934329999999875
11
99.6366730000000018
21
-127.7743849999999952
0
LINE
8
BLACK
6
CONTINUOUS
10
99.6366730000000018
20
-127.7743849999999952
11
99.7319109999999966
21
-127.9648609999999991
0
LINE
8
BLACK
6
CONTINUOUS
10
99.7319109999999966
20
-127.9648609999999991
11
99.8271489999999915
21
-128.0601000000000056
0
LINE
8
BLACK
6
CONTINUOUS
10
99.8271489999999915
20
-128.0601000000000056
11
100.0176249999999953
21
-128.1553380000000004
0
LINE
8
BLACK
6
CONTINUOUS
10
100.0176249999999953
20
-128.1553380000000004
11
100.3985780000000005
21
-128.1553380000000004
0
LINE
8
BLACK
6
CONTINUOUS
10
100.3985780000000005
20
-128.1553380000000004
11
100.5890539999999902
21
-128.0601000000000056
0
LINE
8
BLACK
6
CONTINUOUS
10
100.5890539999999902
20
-128.0601000000000056
11
100.6842919999999992
21
-127.9648609999999991
0
LINE
8
BLACK
6
CONTINUOUS
10
100.6842919999999992
20
-127.9648609999999991
11
100.7795299999999941
21
-127.7743849999999952
0
LINE
8
BLACK
6
CONTINUOUS
10
100.7795299999999941
20
-127.7743849999999952
11
100.7795299999999941
21
-127.3934329999999875
0
LINE
8
BLACK
6
CONTINUOUS
10
100.7795299999999941
20
-127.3934329999999875
11
100.6842919999999992
21
-127.2029569999999978
0
LINE
8
BLACK
6
CONTINUOUS
10
100.6842919999999992
20
-127.2029569999999978
11
100.5890539999999902
21
-127.1077189999999888
0
LINE
8
BLACK
6
CONTINUOUS
10
100.5890539999999902
20
-127.1077189999999888
11
100.3985780000000005
21
-127.0124799999999965
0
LINE
8
BLACK
6
CONTINUOUS
10
102.0176249999999953
20
-126.1553380000000004
11
102.2081019999999967
21
-126.1553380000000004
0
LINE
8
BLACK
6
CONTINUOUS
10
102.2081019999999967
20
-126.1553380000000004
11
102.3985780000000005
21
-126.2505759999999952
0
LINE
8
BLACK
6
CONTINUOUS
10
102.3985780000000005
20
-126.2505759999999952
11
102.4938159999999954
21
-126.3458139999999901
0
LINE
8
BLACK
6
CONTINUOUS
10
102.4938159999999954
20
-126.3458139999999901
11
102.5890539999999902
21
-126.5362899999999939
0
LINE
8
BLACK
6
CONTINUOUS
10
102.5890539999999902
20
-126.5362899999999939
11
102.6842919999999992
21
-126.9172419999999875
0
LINE
8
BLACK
6
CONTINUOUS
10
102.6842919999999992
20
-126.9172419999999875
11
102.6842919999999992
21
-127.3934329999999875
0
LINE
8
BLACK
6
CONTINUOUS
10
102.6842919999999992
20
-127.3934329999999875
11
102.5890539999999902
21
-127.7743849999999952
0
LINE
8
BLACK
6
CONTINUOUS
10
102.5890539999999902
20
-127.7743849999999952
11
102.4938159999999954
21
-127.9648609999999991
0
LINE
8
BLACK
6
CONTINUOUS
10
102.4938159999999954
20
-127.9648609999999991
11
102.3985780000000005
21
-128.0601000000000056
0
LINE
8
BLACK
6
CONTINUOUS
10
102.3985780000000005
20
-128.0601000000000056
11
102.2081019999999967
21
-128.1553380000000004
0
LINE
8
BLACK
6
CONTINUOUS
10
102.2081019999999967
20
-128.1553380000000004
11
102.0176249999999953
21
-128.1553380000000004
0
LINE
8
BLACK
6
CONTINUOUS
10
102.0176249999999953
20
-128.1553380000000004
11
101.8271489999999915
21
-128.0601000000000056
0
LINE
8
BLACK
6
CONTINUOUS
10
101.8271489999999915
20
-128.0601000000000056
11
101.7319109999999966
21
-127.9648609999999991
0
LINE
8
BLACK
6
CONTINUOUS
10
101.7319109999999966
20
-127.9648609999999991
11
101.6366730000000018
21
-127.7743849999999952
0
LINE
8
BLACK
6
CONTINUOUS
10
101.6366730000000018
20
-127.7743849999999952
11
101.5414349999999928
21
-127.3934329999999875
0
LINE
8
BLACK
6
CONTINUOUS
10
101.5414349999999928
20
-127.3934329999999875
11
101.5414349999999928
21
-126.9172419999999875
0
LINE
8
BLACK
6
CONTINUOUS
10
101.5414349999999928
20
-126.9172419999999875
11
101.6366730000000018
21
-126.5362899999999939
0
LINE
8
BLACK
6
CONTINUOUS
10
101.6366730000000018
20
-126.5362899999999939
11
101.7319109999999966
21
-126.3458139999999901
0
LINE
8
BLACK
6
CONTINUOUS
10
101.7319109999999966
20
-126.3458139999999901
11
101.8271489999999915
21
-126.2505759999999952
0
LINE
8
BLACK
6
CONTINUOUS
10
101.8271489999999915
20
-126.2505759999999952
11
102.0176249999999953
21
-126.1553380000000004
0
LINE
8
BLACK
6
CONTINUOUS
10
103.9223870000000005
20
-126.1553380000000004
11
104.1128640000000019
21
-126.1553380000000004
0
LINE
8
BLACK
6
CONTINUOUS
10
104.1128640000000019
20
-126.1553380000000004
11
104.3033399999999915
21
-126.2505759999999952
0
LINE
8
BLACK
6
CONTINUOUS
10
104.3033399999999915
20
-126.2505759999999952
11
104.3985780000000005
21
-126.3458139999999901
0
LINE
8
BLACK
6
CONTINUOUS
10
104.3985780000000005
20
-126.3458139999999901
11
104.4938159999999954
21
-126.5362899999999939
0
LINE
8
BLACK
6
CONTINUOUS
10
104.4938159999999954
20
-126.5362899999999939
11
104.5890539999999902
21
-126.9172419999999875
0
LINE
8
BLACK
6
CONTINUOUS
10
104.5890539999999902
20
-126.9172419999999875
11
104.5890539999999902
21
-127.3934329999999875
0
LINE
8
BLACK
6
CONTINUOUS
10
104.5890539999999902
20
-127.3934329999999875
11
104.4938159999999954
21
-127.7743849999999952
0
LINE
8
BLACK
6
CONTINUOUS
10
104.4938159999999954
20
-127.7743849999999952
11
104.3985780000000005
21
-127.9648609999999991
0
LINE
8
BLACK
6
CONTINUOUS
10
104.3985780000000005
20
-127.9648609999999991
11
104.3033399999999915
21
-128.0601000000000056
0
LINE
8
BLACK
6
CONTINUOUS
10
104.3033399999999915
20
-128.0601000000000056
11
104.1128640000000019
21
-128.1553380000000004
0
LINE
8
BLACK
6
CONTINUOUS
10
104.1128640000000019
20
-128.1553380000000004
11
103.9223870000000005
21
-128.1553380000000004
0
LINE
8
BLACK
6
CONTINUOUS
10
103.9223870000000005
20
-128.1553380000000004
11
103.7319109999999966
21
-128.0601000000000056
0
LINE
8
BLACK
6
CONTINUOUS
10
103.7319109999999966
20
-128.0601000000000056
11
103.6366730000000018
21
-127.9648609999999991
0
LINE
8
BLACK
6
CONTINUOUS
10
103.6366730000000018
20
-127.9648609999999991
11
103.5414349999999928
21
-127.7743849999999952
0
LINE
8
BLACK
6
CONTINUOUS
10
103.5414349999999928
20
-127.7743849999999952
11
103.446196999999998
21
-127.3934329999999875
0
LINE
8
BLACK
6
CONTINUOUS
10
103.446196999999998
20
-127.3934329999999875
11
103.446196999999998
21
-126.9172419999999875
0
LINE
8
BLACK
6
CONTINUOUS
10
103.446196999999998
20
-126.9172419999999875
11
103.5414349999999928
21
-126.5362899999999939
0
LINE
8
BLACK
6
CONTINUOUS
10
103.5414349999999928
20
-126.5362899999999939
11
103.6366730000000018
21
-126.3458139999999901
0
LINE
8
BLACK
6
CONTINUOUS
10
103.6366730000000018
20
-126.3458139999999901
11
103.7319109999999966
21
-126.2505759999999952
0
LINE
8
BLACK
6
CONTINUOUS
10
103.7319109999999966
20
-126.2505759999999952
11
103.9223870000000005
21
-126.1553380000000004
0
LINE
8
BLACK
6
CONTINUOUS
10
105.446196999999998
20
-128.1553380000000004
11
105.446196999999998
21
-126.8220039999999926
0
LINE
8
BLACK
6
CONTINUOUS
10
105.446196999999998
20
-127.0124799999999965
11
105.5414349999999928
21
-126.9172419999999875
0
LINE
8
BLACK
6
CONTINUOUS
10
105.5414349999999928
20
-126.9172419999999875
11
105.7319109999999966
21
-126.8220039999999926
0
LINE
8
BLACK
6
CONTINUOUS
10
105.7319109999999966
20
-126.8220039999999926
11
106.0176259999999928
21
-126.8220039999999926
0
LINE
8
BLACK
6
CONTINUOUS
10
106.0176259999999928
20
-126.8220039999999926
11
106.2081019999999967
21
-126.9172419999999875
0
LINE
8
BLACK
6
CONTINUOUS
10
106.2081019999999967
20
-126.9172419999999875
11
106.3033399999999915
21
-127.1077189999999888
0
LINE
8
BLACK
6
CONTINUOUS
10
106.3033399999999915
20
-127.1077189999999888
11
106.3033399999999915
21
-128.1553380000000004
0
LINE
8
BLACK
6
CONTINUOUS
10
106.3033399999999915
20
-127.1077189999999888
11
106.3985780000000005
21
-126.9172419999999875
0
LINE
8
BLACK
6
CONTINUOUS
10
106.3985780000000005
20
-126.9172419999999875
11
106.5890539999999902
21
-126.8220039999999926
0
LINE
8
BLACK
6
CONTINUOUS
10
106.5890539999999902
20
-126.8220039999999926
11
106.8747679999999889
21
-126.8220039999999926
0
LINE
8
BLACK
6
CONTINUOUS
10
106.8747679999999889
20
-126.8220039999999926
11
107.0652449999999902
21
-126.9172419999999875
0
LINE
8
BLACK
6
CONTINUOUS
10
107.0652449999999902
20
-126.9172419999999875
11
107.1604829999999993
21
-127.1077189999999888
0
LINE
8
BLACK
6
CONTINUOUS
10
107.1604829999999993
20
-127.1077189999999888
11
107.1604829999999993
21
-128.1553380000000004
0
LINE
8
BLACK
6
CONTINUOUS
10
108.1128640000000019
20
-128.1553380000000004
11
108.1128640000000019
21
-126.8220039999999926
0
LINE
8
BLACK
6
CONTINUOUS
10
108.1128640000000019
20
-127.0124799999999965
11
108.2081019999999967
21
-126.9172419999999875
0
LINE
8
BLACK
6
CONTINUOUS
10
108.2081019999999967
20
-126.9172419999999875
11
108.3985780000000005
21
-126.8220039999999926
0
LINE
8
BLACK
6
CONTINUOUS
10
108.3985780000000005
20
-126.8220039999999926
11
108.6842929999999967
21
-126.8220039999999926
0
LINE
8
BLACK
6
CONTINUOUS
10
108.6842929999999967
20
-126.8220039999999926
11
108.8747690000000006
21
-126.9172419999999875
0
LINE
8
BLACK
6
CONTINUOUS
10
108.8747690000000006
20
-126.9172419999999875
11
108.9700069999999954
21
-127.1077189999999888
0
LINE
8
BLACK
6
CONTINUOUS
10
108.9700069999999954
20
-127.1077189999999888
11
108.9700069999999954
21
-128.1553380000000004
0
LINE
8
BLACK
6
CONTINUOUS
10
108.9700069999999954
20
-127.1077189999999888
11
109.0652449999999902
21
-126.9172419999999875
0
LINE
8
BLACK
6
CONTINUOUS
10
109.0652449999999902
20
-126.9172419999999875
11
109.2557209999999941
21
-126.8220039999999926
0
LINE
8
BLACK
6
CONTINUOUS
10
109.2557209999999941
20
-126.8220039999999926
11
109.5414349999999928
21
-126.8220039999999926
0
LINE
8
BLACK
6
CONTINUOUS
10
109.5414349999999928
20
-126.8220039999999926
11
109.7319119999999941
21
-126.9172419999999875
0
LINE
8
BLACK
6
CONTINUOUS
10
109.7319119999999941
20
-126.9172419999999875
11
109.8271499999999889
21
-127.1077189999999888
0
LINE
8
BLACK
6
CONTINUOUS
10
109.8271499999999889
20
-127.1077189999999888
11
109.8271499999999889
21
-128.1553380000000004
0
LINE
8
BLACK
6
CONTINUOUS
10
113.7319119999999941
20
-126.0600999999999914
11
112.0176269999999903
21
-128.631528000000003
0
LINE
8
BLACK
6
CONTINUOUS
10
116.303340999999989
20
-126.1553380000000004
11
116.4938179999999903
21
-126.1553380000000004
0
LINE
8
BLACK
6
CONTINUOUS
10
116.4938179999999903
20
-126.1553380000000004
11
116.6842939999999942
21
-126.2505759999999952
0
LINE
8
BLACK
6
CONTINUOUS
10
116.6842939999999942
20
-126.2505759999999952
11
116.779531999999989
21
-126.3458139999999901
0
LINE
8
BLACK
6
CONTINUOUS
10
116.779531999999989
20
-126.3458139999999901
11
116.874769999999998
21
-126.5362899999999939
0
LINE
8
BLACK
6
CONTINUOUS
10
116.874769999999998
20
-126.5362899999999939
11
116.9700079999999929
21
-126.9172419999999875
0
LINE
8
BLACK
6
CONTINUOUS
10
116.9700079999999929
20
-126.9172419999999875
11
116.9700079999999929
21
-127.3934329999999875
0
LINE
8
BLACK
6
CONTINUOUS
10
116.9700079999999929
20
-127.3934329999999875
11
116.874769999999998
21
-127.7743849999999952
0
LINE
8
BLACK
6
CONTINUOUS
10
116.874769999999998
20
-127.7743849999999952
11
116.779531999999989
21
-127.9648609999999991
0
LINE
8
BLACK
6
CONTINUOUS
10
116.779531999999989
20
-127.9648609999999991
11
116.6842939999999942
21
-128.0601000000000056
0
LINE
8
BLACK
6
CONTINUOUS
10
116.6842939999999942
20
-128.0601000000000056
11
116.4938179999999903
21
-128.1553380000000004
0
LINE
8
BLACK
6
CONTINUOUS
10
116.4938179999999903
20
-128.1553380000000004
11
116.303340999999989
21
-128.1553380000000004
0
LINE
8
BLACK
6
CONTINUOUS
10
116.303340999999989
20
-128.1553380000000004
11
116.1128649999999993
21
-128.0601000000000056
0
LINE
8
BLACK
6
CONTINUOUS
10
116.1128649999999993
20
-128.0601000000000056
11
116.0176269999999903
21
-127.9648609999999991
0
LINE
8
BLACK
6
CONTINUOUS
10
116.0176269999999903
20
-127.9648609999999991
11
115.9223889999999955
21
-127.7743849999999952
0
LINE
8
BLACK
6
CONTINUOUS
10
115.9223889999999955
20
-127.7743849999999952
11
115.8271510000000006
21
-127.3934329999999875
0
LINE
8
BLACK
6
CONTINUOUS
10
115.8271510000000006
20
-127.3934329999999875
11
115.8271510000000006
21
-126.9172419999999875
0
LINE
8
BLACK
6
CONTINUOUS
10
115.8271510000000006
20
-126.9172419999999875
11
115.9223889999999955
21
-126.5362899999999939
0
LINE
8
BLACK
6
CONTINUOUS
10
115.9223889999999955
20
-126.5362899999999939
11
116.0176269999999903
21
-126.3458139999999901
0
LINE
8
BLACK
6
CONTINUOUS
10
116.0176269999999903
20
-126.3458139999999901
11
116.1128649999999993
21
-126.2505759999999952
0
LINE
8
BLACK
6
CONTINUOUS
10
116.1128649999999993
20
-126.2505759999999952
11
116.303340999999989
21
-126.1553380000000004
0
LINE
8
BLACK
6
CONTINUOUS
10
117.8271510000000006
20
-127.9648609999999991
11
117.9223889999999955
21
-128.0601000000000056
0
LINE
8
BLACK
6
CONTINUOUS
10
117.9223889999999955
20
-128.0601000000000056
11
117.8271510000000006
21
-128.1553380000000004
0
LINE
8
BLACK
6
CONTINUOUS
10
117.8271510000000006
20
-128.1553380000000004
11
117.7319129999999916
21
-128.0601000000000056
0
LINE
8
BLACK
6
CONTINUOUS
10
117.7319129999999916
20
-128.0601000000000056
11
117.8271510000000006
21
-127.9648609999999991
0
LINE
8
BLACK
6
CONTINUOUS
10
117.8271510000000006
20
-127.9648609999999991
11
117.8271510000000006
21
-128.1553380000000004
0
LINE
8
BLACK
6
CONTINUOUS
10
119.1604839999999967
20
-126.1553380000000004
11
119.3509609999999981
21
-126.1553380000000004
0
LINE
8
BLACK
6
CONTINUOUS
10
119.3509609999999981
20
-126.1553380000000004
11
119.5414369999999877
21
-126.2505759999999952
0
LINE
8
BLACK
6
CONTINUOUS
10
119.5414369999999877
20
-126.2505759999999952
11
119.6366749999999968
21
-126.3458139999999901
0
LINE
8
BLACK
6
CONTINUOUS
10
119.6366749999999968
20
-126.3458139999999901
11
119.7319129999999916
21
-126.5362899999999939
0
LINE
8
BLACK
6
CONTINUOUS
10
119.7319129999999916
20
-126.5362899999999939
11
119.8271510000000006
21
-126.9172419999999875
0
LINE
8
BLACK
6
CONTINUOUS
10
119.8271510000000006
20
-126.9172419999999875
11
119.8271510000000006
21
-127.3934329999999875
0
LINE
8
BLACK
6
CONTINUOUS
10
119.8271510000000006
20
-127.3934329999999875
11
119.7319129999999916
21
-127.7743849999999952
0
LINE
8
BLACK
6
CONTINUOUS
10
119.7319129999999916
20
-127.7743849999999952
11
119.6366749999999968
21
-127.9648609999999991
0
LINE
8
BLACK
6
CONTINUOUS
10
119.6366749999999968
20
-127.9648609999999991
11
119.5414369999999877
21
-128.0601000000000056
0
LINE
8
BLACK
6
CONTINUOUS
10
119.5414369999999877
20
-128.0601000000000056
11
119.3509609999999981
21
-128.1553380000000004
0
LINE
8
BLACK
6
CONTINUOUS
10
119.3509609999999981
20
-128.1553380000000004
11
119.1604839999999967
21
-128.1553380000000004
0
LINE
8
BLACK
6
CONTINUOUS
10
119.1604839999999967
20
-128.1553380000000004
11
118.9700079999999929
21
-128.0601000000000056
0
LINE
8
BLACK
6
CONTINUOUS
10
118.9700079999999929
20
-128.0601000000000056
11
118.874769999999998
21
-127.9648609999999991
0
LINE
8
BLACK
6
CONTINUOUS
10
118.874769999999998
20
-127.9648609999999991
11
118.779531999999989
21
-127.7743849999999952
0
LINE
8
BLACK
6
CONTINUOUS
10
118.779531999999989
20
-127.7743849999999952
11
118.6842939999999942
21
-127.3934329999999875
0
LINE
8
BLACK
6
CONTINUOUS
10
118.6842939999999942
20
-127.3934329999999875
11
118.6842939999999942
21
-126.9172419999999875
0
LINE
8
BLACK
6
CONTINUOUS
10
118.6842939999999942
20
-126.9172419999999875
11
118.779531999999989
21
-126.5362899999999939
0
LINE
8
BLACK
6
CONTINUOUS
10
118.779531999999989
20
-126.5362899999999939
11
118.874769999999998
21
-126.3458139999999901
0
LINE
8
BLACK
6
CONTINUOUS
10
118.874769999999998
20
-126.3458139999999901
11
118.9700079999999929
21
-126.2505759999999952
0
LINE
8
BLACK
6
CONTINUOUS
10
118.9700079999999929
20
-126.2505759999999952
11
119.1604839999999967
21
-126.1553380000000004
0
LINE
8
BLACK
6
CONTINUOUS
10
120.4938179999999903
20
-126.1553380000000004
11
121.7319129999999916
21
-126.1553380000000004
0
LINE
8
BLACK
6
CONTINUOUS
10
121.7319129999999916
20
-126.1553380000000004
11
121.0652459999999877
21
-126.9172419999999875
0
LINE
8
BLACK
6
CONTINUOUS
10
121.0652459999999877
20
-126.9172419999999875
11
121.3509609999999981
21
-126.9172419999999875
0
LINE
8
BLACK
6
CONTINUOUS
10
121.3509609999999981
20
-126.9172419999999875
11
121.5414369999999877
21
-127.0124799999999965
0
LINE
8
BLACK
6
CONTINUOUS
10
121.5414369999999877
20
-127.0124799999999965
11
121.6366749999999968
21
-127.1077189999999888
0
LINE
8
BLACK
6
CONTINUOUS
10
121.6366749999999968
20
-127.1077189999999888
11
121.7319129999999916
21
-127.2981949999999927
0
LINE
8
BLACK
6
CONTINUOUS
10
121.7319129999999916
20
-127.2981949999999927
11
121.7319129999999916
21
-127.7743849999999952
0
LINE
8
BLACK
6
CONTINUOUS
10
121.7319129999999916
20
-127.7743849999999952
11
121.6366749999999968
21
-127.9648609999999991
0
LINE
8
BLACK
6
CONTINUOUS
10
121.6366749999999968
20
-127.9648609999999991
11
121.5414369999999877
21
-128.0601000000000056
0
LINE
8
BLACK
6
CONTINUOUS
10
121.5414369999999877
20
-128.0601000000000056
11
121.3509609999999981
21
-128.1553380000000004
0
LINE
8
BLACK
6
CONTINUOUS
10
121.3509609999999981
20
-128.1553380000000004
11
120.779531999999989
21
-128.1553380000000004
0
LINE
8
BLACK
6
CONTINUOUS
10
120.779531999999989
20
-128.1553380000000004
11
120.5890559999999994
21
-128.0601000000000056
0
LINE
8
BLACK
6
CONTINUOUS
10
120.5890559999999994
20
-128.0601000000000056
11
120.4938179999999903
21
-127.9648609999999991
0
LINE
8
BLACK
6
CONTINUOUS
10
123.6366749999999968
20
-128.1553380000000004
11
122.4938179999999903
21
-128.1553380000000004
0
LINE
8
BLACK
6
CONTINUOUS
10
123.0652459999999877
20
-128.1553380000000004
11
123.0652459999999877
21
-126.1553380000000004
0
LINE
8
BLACK
6
CONTINUOUS
10
123.0652459999999877
20
-126.1553380000000004
11
122.874769999999998
21
-126.4410519999999991
0
LINE
8
BLACK
6
CONTINUOUS
10
122.874769999999998
20
-126.4410519999999991
11
122.6842939999999942
21
-126.6315279999999888
0
LINE
8
BLACK
6
CONTINUOUS
10
122.6842939999999942
20
-126.6315279999999888
11
122.4938179999999903
21
-126.7267659999999978
0
LINE
8
BLACK
6
CONTINUOUS
10
125.4461989999999929
20
-126.1553380000000004
11
124.4938179999999903
21
-126.1553380000000004
0
LINE
8
BLACK
6
CONTINUOUS
10
124.4938179999999903
20
-126.1553380000000004
11
124.3985799999999955
21
-127.1077189999999888
0
LINE
8
BLACK
6
CONTINUOUS
10
124.3985799999999955
20
-127.1077189999999888
11
124.4938179999999903
21
-127.0124799999999965
0
LINE
8
BLACK
6
CONTINUOUS
10
124.4938179999999903
20
-127.0124799999999965
11
124.6842939999999942
21
-126.9172419999999875
0
LINE
8
BLACK
6
CONTINUOUS
10
124.6842939999999942
20
-126.9172419999999875
11
125.1604849999999942
21
-126.9172419999999875
0
LINE
8
BLACK
6
CONTINUOUS
10
125.1604849999999942
20
-126.9172419999999875
11
125.3509609999999981
21
-127.0124799999999965
0
LINE
8
BLACK
6
CONTINUOUS
10
125.3509609999999981
20
-127.0124799999999965
11
125.4461989999999929
21
-127.1077189999999888
0
LINE
8
BLACK
6
CONTINUOUS
10
125.4461989999999929
20
-127.1077189999999888
11
125.5414369999999877
21
-127.2981949999999927
0
LINE
8
BLACK
6
CONTINUOUS
10
125.5414369999999877
20
-127.2981949999999927
11
125.5414369999999877
21
-127.7743849999999952
0
LINE
8
BLACK
6
CONTINUOUS
10
125.5414369999999877
20
-127.7743849999999952
11
125.4461989999999929
21
-127.9648609999999991
0
LINE
8
BLACK
6
CONTINUOUS
10
125.4461989999999929
20
-127.9648609999999991
11
125.3509609999999981
21
-128.0601000000000056
0
LINE
8
BLACK
6
CONTINUOUS
10
125.3509609999999981
20
-128.0601000000000056
11
125.1604849999999942
21
-128.1553380000000004
0
LINE
8
BLACK
6
CONTINUOUS
10
125.1604849999999942
20
-128.1553380000000004
11
124.6842939999999942
21
-128.1553380000000004
0
LINE
8
BLACK
6
CONTINUOUS
10
124.6842939999999942
20
-128.1553380000000004
11
124.4938179999999903
21
-128.0601000000000056
0
LINE
8
BLACK
6
CONTINUOUS
10
124.4938179999999903
20
-128.0601000000000056
11
124.3985799999999955
21
-127.9648609999999991
0
LINE
8
BLACK
6
CONTINUOUS
10
126.3033420000000007
20
-126.1553380000000004
11
126.3033420000000007
21
-126.5362899999999939
0
LINE
8
BLACK
6
CONTINUOUS
10
127.0652469999999994
20
-126.1553380000000004
11
127.0652469999999994
21
-126.5362899999999939
0
LINE
8
BLACK
6
CONTINUOUS
10
130.0176289999999995
20
-128.9172419999999875
11
129.9223900000000071
21
-128.8220039999999926
0
LINE
8
BLACK
6
CONTINUOUS
10
129.9223900000000071
20
-128.8220039999999926
11
129.7319139999999891
21
-128.5362900000000081
0
LINE
8
BLACK
6
CONTINUOUS
10
129.7319139999999891
20
-128.5362900000000081
11
129.6366759999999942
21
-128.3458139999999901
0
LINE
8
BLACK
6
CONTINUOUS
10
129.6366759999999942
20
-128.3458139999999901
11
129.5414379999999994
21
-128.0601000000000056
0
LINE
8
BLACK
6
CONTINUOUS
10
129.5414379999999994
20
-128.0601000000000056
11
129.4462000000000046
21
-127.5839089999999914
0
LINE
8
BLACK
6
CONTINUOUS
10
129.4462000000000046
20
-127.5839089999999914
11
129.4462000000000046
21
-127.2029569999999978
0
LINE
8
BLACK
6
CONTINUOUS
10
129.4462000000000046
20
-127.2029569999999978
11
129.5414379999999994
21
-126.7267659999999978
0
LINE
8
BLACK
6
CONTINUOUS
10
129.5414379999999994
20
-126.7267659999999978
11
129.6366759999999942
21
-126.4410519999999991
0
LINE
8
BLACK
6
CONTINUOUS
10
129.6366759999999942
20
-126.4410519999999991
11
129.7319139999999891
21
-126.2505759999999952
0
LINE
8
BLACK
6
CONTINUOUS
10
129.7319139999999891
20
-126.2505759999999952
11
129.9223900000000071
21
-125.9648609999999991
0
LINE
8
BLACK
6
CONTINUOUS
10
129.9223900000000071
20
-125.9648609999999991
11
130.0176289999999995
21
-125.86962299999999
0
LINE
8
BLACK
6
CONTINUOUS
10
131.8271519999999839
20
-128.1553380000000004
11
130.6842949999999917
21
-128.1553380000000004
0
LINE
8
BLACK
6
CONTINUOUS
10
131.255722999999989
20
-128.1553380000000004
11
131.255722999999989
21
-126.1553380000000004
0
LINE
8
BLACK
6
CONTINUOUS
10
131.255722999999989
20
-126.1553380000000004
11
131.0652469999999994
21
-126.4410519999999991
0
LINE
8
BLACK
6
CONTINUOUS
10
131.0652469999999994
20
-126.4410519999999991
11
130.8747709999999813
21
-126.6315279999999888
0
LINE
8
BLACK
6
CONTINUOUS
10
130.8747709999999813
20
-126.6315279999999888
11
130.6842949999999917
21
-126.7267659999999978
0
LINE
8
BLACK
6
CONTINUOUS
10
133.5414379999999994
20
-126.1553380000000004
11
133.1604849999999942
21
-126.1553380000000004
0
LINE
8
BLACK
6
CONTINUOUS
10
133.1604849999999942
20
-126.1553380000000004
11
132.9700090000000046
21
-126.2505759999999952
0
LINE
8
BLACK
6
CONTINUOUS
10
132.9700090000000046
20
-126.2505759999999952
11
132.8747709999999813
21
-126.3458139999999901
0
LINE
8
BLACK
6
CONTINUOUS
10
132.8747709999999813
20
-126.3458139999999901
11
132.6842949999999917
21
-126.6315279999999888
0
LINE
8
BLACK
6
CONTINUOUS
10
132.6842949999999917
20
-126.6315279999999888
11
132.5890569999999968
21
-127.0124799999999965
0
LINE
8
BLACK
6
CONTINUOUS
10
132.5890569999999968
20
-127.0124799999999965
11
132.5890569999999968
21
-127.7743849999999952
0
LINE
8
BLACK
6
CONTINUOUS
10
132.5890569999999968
20
-127.7743849999999952
11
132.6842949999999917
21
-127.9648609999999991
0
LINE
8
BLACK
6
CONTINUOUS
10
132.6842949999999917
20
-127.9648609999999991
11
132.7795329999999865
21
-128.0601000000000056
0
LINE
8
BLACK
6
CONTINUOUS
10
132.7795329999999865
20
-128.0601000000000056
11
132.9700090000000046
21
-128.1553380000000004
0
LINE
8
BLACK
6
CONTINUOUS
10
132.9700090000000046
20
-128.1553380000000004
11
133.3509619999999813
21
-128.1553380000000004
0
LINE
8
BLACK
6
CONTINUOUS
10
133.3509619999999813
20
-128.1553380000000004
11
133.5414379999999994
21
-128.0601000000000056
0
LINE
8
BLACK
6
CONTINUOUS
10
133.5414379999999994
20
-128.0601000000000056
11
133.6366759999999942
21
-127.9648609999999991
0
LINE
8
BLACK
6
CONTINUOUS
10
133.6366759999999942
20
-127.9648609999999991
11
133.7319139999999891
21
-127.7743849999999952
0
LINE
8
BLACK
6
CONTINUOUS
10
133.7319139999999891
20
-127.7743849999999952
11
133.7319139999999891
21
-127.2981949999999927
0
LINE
8
BLACK
6
CONTINUOUS
10
133.7319139999999891
20
-127.2981949999999927
11
133.6366759999999942
21
-127.1077189999999888
0
LINE
8
BLACK
6
CONTINUOUS
10
133.6366759999999942
20
-127.1077189999999888
11
133.5414379999999994
21
-127.0124799999999965
0
LINE
8
BLACK
6
CONTINUOUS
10
133.5414379999999994
20
-127.0124799999999965
11
133.3509619999999813
21
-126.9172419999999875
0
LINE
8
BLACK
6
CONTINUOUS
10
133.3509619999999813
20
-126.9172419999999875
11
132.9700090000000046
21
-126.9172419999999875
0
LINE
8
BLACK
6
CONTINUOUS
10
132.9700090000000046
20
-126.9172419999999875
11
132.7795329999999865
21
-127.0124799999999965
0
LINE
8
BLACK
6
CONTINUOUS
10
132.7795329999999865
20
-127.0124799999999965
11
132.6842949999999917
21
-127.1077189999999888
0
LINE
8
BLACK
6
CONTINUOUS
10
132.6842949999999917
20
-127.1077189999999888
11
132.5890569999999968
21
-127.2981949999999927
0
LINE
8
BLACK
6
CONTINUOUS
10
135.5414379999999994
20
-126.1553380000000004
11
134.5890569999999968
21
-126.1553380000000004
0
LINE
8
BLACK
6
CONTINUOUS
10
134.5890569999999968
20
-126.1553380000000004
11
134.493819000000002
21
-127.1077189999999888
0
LINE
8
BLACK
6
CONTINUOUS
10
134.493819000000002
20
-127.1077189999999888
11
134.5890569999999968
21
-127.0124799999999965
0
LINE
8
BLACK
6
CONTINUOUS
10
134.5890569999999968
20
-127.0124799999999965
11
134.7795329999999865
21
-126.9172419999999875
0
LINE
8
BLACK
6
CONTINUOUS
10
134.7795329999999865
20
-126.9172419999999875
11
135.2557239999999865
21
-126.9172419999999875
0
LINE
8
BLACK
6
CONTINUOUS
10
135.2557239999999865
20
-126.9172419999999875
11
135.4462000000000046
21
-127.0124799999999965
0
LINE
8
BLACK
6
CONTINUOUS
10
135.4462000000000046
20
-127.0124799999999965
11
135.5414379999999994
21
-127.1077189999999888
0
LINE
8
BLACK
6
CONTINUOUS
10
135.5414379999999994
20
-127.1077189999999888
11
135.6366759999999942
21
-127.2981949999999927
0
LINE
8
BLACK
6
CONTINUOUS
10
135.6366759999999942
20
-127.2981949999999927
11
135.6366759999999942
21
-127.7743849999999952
0
LINE
8
BLACK
6
CONTINUOUS
10
135.6366759999999942
20
-127.7743849999999952
11
135.5414379999999994
21
-127.9648609999999991
0
LINE
8
BLACK
6
CONTINUOUS
10
135.5414379999999994
20
-127.9648609999999991
11
135.4462000000000046
21
-128.0601000000000056
0
LINE
8
BLACK
6
CONTINUOUS
10
135.4462000000000046
20
-128.0601000000000056
11
135.2557239999999865
21
-128.1553380000000004
0
LINE
8
BLACK
6
CONTINUOUS
10
135.2557239999999865
20
-128.1553380000000004
11
134.7795329999999865
21
-128.1553380000000004
0
LINE
8
BLACK
6
CONTINUOUS
10
134.7795329999999865
20
-128.1553380000000004
11
134.5890569999999968
21
-128.0601000000000056
0
LINE
8
BLACK
6
CONTINUOUS
10
134.5890569999999968
20
-128.0601000000000056
11
134.493819000000002
21
-127.9648609999999991
0
LINE
8
BLACK
6
CONTINUOUS
10
138.0176289999999995
20
-128.1553380000000004
11
138.0176289999999995
21
-126.1553380000000004
0
LINE
8
BLACK
6
CONTINUOUS
10
138.8747720000000072
20
-128.1553380000000004
11
138.8747720000000072
21
-127.1077189999999888
0
LINE
8
BLACK
6
CONTINUOUS
10
138.8747720000000072
20
-127.1077189999999888
11
138.779533999999984
21
-126.9172419999999875
0
LINE
8
BLACK
6
CONTINUOUS
10
138.779533999999984
20
-126.9172419999999875
11
138.5890579999999943
21
-126.8220039999999926
0
LINE
8
BLACK
6
CONTINUOUS
10
138.5890579999999943
20
-126.8220039999999926
11
138.3033429999999839
21
-126.8220039999999926
0
LINE
8
BLACK
6
CONTINUOUS
10
138.3033429999999839
20
-126.8220039999999926
11
138.1128669999999943
21
-126.9172419999999875
0
LINE
8
BLACK
6
CONTINUOUS
10
138.1128669999999943
20
-126.9172419999999875
11
138.0176289999999995
21
-127.0124799999999965
0
LINE
8
BLACK
6
CONTINUOUS
10
140.1128669999999943
20
-128.1553380000000004
11
139.9223910000000046
21
-128.0601000000000056
0
LINE
8
BLACK
6
CONTINUOUS
10
139.9223910000000046
20
-128.0601000000000056
11
139.8271529999999814
21
-127.9648609999999991
0
LINE
8
BLACK
6
CONTINUOUS
10
139.8271529999999814
20
-127.9648609999999991
11
139.7319149999999865
21
-127.7743849999999952
0
LINE
8
BLACK
6
CONTINUOUS
10
139.7319149999999865
20
-127.7743849999999952
11
139.7319149999999865
21
-127.2029569999999978
0
LINE
8
BLACK
6
CONTINUOUS
10
139.7319149999999865
20
-127.2029569999999978
11
139.8271529999999814
21
-127.0124799999999965
0
LINE
8
BLACK
6
CONTINUOUS
10
139.8271529999999814
20
-127.0124799999999965
11
139.9223910000000046
21
-126.9172419999999875
0
LINE
8
BLACK
6
CONTINUOUS
10
139.9223910000000046
20
-126.9172419999999875
11
140.1128669999999943
21
-126.8220039999999926
0
LINE
8
BLACK
6
CONTINUOUS
10
140.1128669999999943
20
-126.8220039999999926
11
140.3985820000000047
21
-126.8220039999999926
0
LINE
8
BLACK
6
CONTINUOUS
10
140.3985820000000047
20
-126.8220039999999926
11
140.5890579999999943
21
-126.9172419999999875
0
LINE
8
BLACK
6
CONTINUOUS
10
140.5890579999999943
20
-126.9172419999999875
11
140.6842959999999891
21
-127.0124799999999965
0
LINE
8
BLACK
6
CONTINUOUS
10
140.6842959999999891
20
-127.0124799999999965
11
140.779533999999984
21
-127.2029569999999978
0
LINE
8
BLACK
6
CONTINUOUS
10
140.779533999999984
20
-127.2029569999999978
11
140.779533999999984
21
-127.7743849999999952
0
LINE
8
BLACK
6
CONTINUOUS
10
140.779533999999984
20
-127.7743849999999952
11
140.6842959999999891
21
-127.9648609999999991
0
LINE
8
BLACK
6
CONTINUOUS
10
140.6842959999999891
20
-127.9648609999999991
11
140.5890579999999943
21
-128.0601000000000056
0
LINE
8
BLACK
6
CONTINUOUS
10
140.5890579999999943
20
-128.0601000000000056
11
140.3985820000000047
21
-128.1553380000000004
0
LINE
8
BLACK
6
CONTINUOUS
10
140.3985820000000047
20
-128.1553380000000004
11
140.1128669999999943
21
-128.1553380000000004
0
LINE
8
BLACK
6
CONTINUOUS
10
141.9223910000000046
20
-128.1553380000000004
11
141.7319149999999865
21
-128.0601000000000056
0
LINE
8
BLACK
6
CONTINUOUS
10
141.7319149999999865
20
-128.0601000000000056
11
141.6366769999999917
21
-127.86962299999999
0
LINE
8
BLACK
6
CONTINUOUS
10
141.6366769999999917
20
-127.86962299999999
11
141.6366769999999917
21
-126.1553380000000004
0
LINE
8
BLACK
6
CONTINUOUS
10
143.4462010000000021
20
-128.0601000000000056
11
143.255724999999984
21
-128.1553380000000004
0
LINE
8
BLACK
6
CONTINUOUS
10
143.255724999999984
20
-128.1553380000000004
11
142.8747720000000072
21
-128.1553380000000004
0
LINE
8
BLACK
6
CONTINUOUS
10
142.8747720000000072
20
-128.1553380000000004
11
142.6842959999999891
21
-128.0601000000000056
0
LINE
8
BLACK
6
CONTINUOUS
10
142.6842959999999891
20
-128.0601000000000056
11
142.5890579999999943
21
-127.86962299999999
0
LINE
8
BLACK
6
CONTINUOUS
10
142.5890579999999943
20
-127.86962299999999
11
142.5890579999999943
21
-127.1077189999999888
0
LINE
8
BLACK
6
CONTINUOUS
10
142.5890579999999943
20
-127.1077189999999888
11
142.6842959999999891
21
-126.9172419999999875
0
LINE
8
BLACK
6
CONTINUOUS
10
142.6842959999999891
20
-126.9172419999999875
11
142.8747720000000072
21
-126.8220039999999926
0
LINE
8
BLACK
6
CONTINUOUS
10
142.8747720000000072
20
-126.8220039999999926
11
143.255724999999984
21
-126.8220039999999926
0
LINE
8
BLACK
6
CONTINUOUS
10
143.255724999999984
20
-126.8220039999999926
11
143.4462010000000021
21
-126.9172419999999875
0
LINE
8
BLACK
6
CONTINUOUS
10
143.4462010000000021
20
-126.9172419999999875
11
143.5414389999999969
21
-127.1077189999999888
0
LINE
8
BLACK
6
CONTINUOUS
10
143.5414389999999969
20
-127.1077189999999888
11
143.5414389999999969
21
-127.2981949999999927
0
LINE
8
BLACK
6
CONTINUOUS
10
143.5414389999999969
20
-127.2981949999999927
11
142.5890579999999943
21
-127.4886709999999965
0
LINE
8
BLACK
6
CONTINUOUS
10
144.3033439999999814
20
-128.0601000000000056
11
144.4938199999999995
21
-128.1553380000000004
0
LINE
8
BLACK
6
CONTINUOUS
10
144.4938199999999995
20
-128.1553380000000004
11
144.8747720000000072
21
-128.1553380000000004
0
LINE
8
BLACK
6
CONTINUOUS
10
144.8747720000000072
20
-128.1553380000000004
11
145.0652489999999943
21
-128.0601000000000056
0
LINE
8
BLACK
6
CONTINUOUS
10
145.0652489999999943
20
-128.0601000000000056
11
145.1604869999999892
21
-127.86962299999999
0
LINE
8
BLACK
6
CONTINUOUS
10
145.1604869999999892
20
-127.86962299999999
11
145.1604869999999892
21
-127.7743849999999952
0
LINE
8
BLACK
6
CONTINUOUS
10
145.1604869999999892
20
-127.7743849999999952
11
145.0652489999999943
21
-127.5839089999999914
0
LINE
8
BLACK
6
CONTINUOUS
10
145.0652489999999943
20
-127.5839089999999914
11
144.8747720000000072
21
-127.4886709999999965
0
LINE
8
BLACK
6
CONTINUOUS
10
144.8747720000000072
20
-127.4886709999999965
11
144.5890579999999943
21
-127.4886709999999965
0
LINE
8
BLACK
6
CONTINUOUS
10
144.5890579999999943
20
-127.4886709999999965
11
144.3985820000000047
21
-127.3934329999999875
0
LINE
8
BLACK
6
CONTINUOUS
10
144.3985820000000047
20
-127.3934329999999875
11
144.3033439999999814
21
-127.2029569999999978
0
LINE
8
BLACK
6
CONTINUOUS
10
144.3033439999999814
20
-127.2029569999999978
11
144.3033439999999814
21
-127.1077189999999888
0
LINE
8
BLACK
6
CONTINUOUS
10
144.3033439999999814
20
-127.1077189999999888
11
144.3985820000000047
21
-126.9172419999999875
0
LINE
8
BLACK
6
CONTINUOUS
10
144.3985820000000047
20
-126.9172419999999875
11
144.5890579999999943
21
-126.8220039999999926
0
LINE
8
BLACK
6
CONTINUOUS
10
144.5890579999999943
20
-126.8220039999999926
11
144.8747720000000072
21
-126.8220039999999926
0
LINE
8
BLACK
6
CONTINUOUS
10
144.8747720000000072
20
-126.8220039999999926
11
145.0652489999999943
21
-126.9172419999999875
0
LINE
8
BLACK
6
CONTINUOUS
10
145.8271540000000073
20
-128.9172419999999875
11
145.9223920000000021
21
-128.8220039999999926
0
LINE
8
BLACK
6
CONTINUOUS
10
145.9223920000000021
20
-128.8220039999999926
11
146.1128679999999918
21
-128.5362900000000081
0
LINE
8
BLACK
6
CONTINUOUS
10
146.1128679999999918
20
-128.5362900000000081
11
146.2081059999999866
21
-128.3458139999999901
0
LINE
8
BLACK
6
CONTINUOUS
10
146.2081059999999866
20
-128.3458139999999901
11
146.3033439999999814
21
-128.0601000000000056
0
LINE
8
BLACK
6
CONTINUOUS
10
146.3033439999999814
20
-128.0601000000000056
11
146.3985820000000047
21
-127.5839089999999914
0
LINE
8
BLACK
6
CONTINUOUS
10
146.3985820000000047
20
-127.5839089999999914
11
146.3985820000000047
21
-127.2029569999999978
0
LINE
8
BLACK
6
CONTINUOUS
10
146.3985820000000047
20
-127.2029569999999978
11
146.3033439999999814
21
-126.7267659999999978
0
LINE
8
BLACK
6
CONTINUOUS
10
146.3033439999999814
20
-126.7267659999999978
11
146.2081059999999866
21
-126.4410519999999991
0
LINE
8
BLACK
6
CONTINUOUS
10
146.2081059999999866
20
-126.4410519999999991
11
146.1128679999999918
21
-126.2505759999999952
0
LINE
8
BLACK
6
CONTINUOUS
10
146.1128679999999918
20
-126.2505759999999952
11
145.9223920000000021
21
-125.9648609999999991
0
LINE
8
BLACK
6
CONTINUOUS
10
145.9223920000000021
20
-125.9648609999999991
11
145.8271540000000073
21
-125.86962299999999
0
LINE
8
BLACK
6
CONTINUOUS
10
93.7669999999999959
20
-129.3804999999999836
11
93.7669999999999959
21
-130.3804999999999836
0
LINE
8
BLACK
6
CONTINUOUS
10
93.2669999999999959
20
-129.8804999999999836
11
94.2669999999999959
21
-129.8804999999999836
0
LINE
8
BLACK
6
CONTINUOUS
10
97.9223870000000005
20
-130.7953379999999868
11
96.7795299999999941
21
-130.7953379999999868
0
LINE
8
BLACK
6
CONTINUOUS
10
97.3509579999999914
20
-130.7953379999999868
11
97.3509579999999914
21
-128.7953379999999868
0
LINE
8
BLACK
6
CONTINUOUS
10
97.3509579999999914
20
-128.7953379999999868
11
97.1604820000000018
21
-129.0810519999999997
0
LINE
8
BLACK
6
CONTINUOUS
10
97.1604820000000018
20
-129.0810519999999997
11
96.9700059999999979
21
-129.2715279999999893
0
LINE
8
BLACK
6
CONTINUOUS
10
96.9700059999999979
20
-129.2715279999999893
11
96.7795299999999941
21
-129.3667659999999842
0
LINE
8
BLACK
6
CONTINUOUS
10
98.7795299999999941
20
-130.6048609999999996
11
98.8747679999999889
21
-130.700099999999992
0
LINE
8
BLACK
6
CONTINUOUS
10
98.8747679999999889
20
-130.700099999999992
11
98.7795299999999941
21
-130.7953379999999868
0
LINE
8
BLACK
6
CONTINUOUS
10
98.7795299999999941
20
-130.7953379999999868
11
98.6842919999999992
21
-130.700099999999992
0
LINE
8
BLACK
6
CONTINUOUS
10
98.6842919999999992
20
-130.700099999999992
11
98.7795299999999941
21
-130.6048609999999996
0
LINE
8
BLACK
6
CONTINUOUS
10
98.7795299999999941
20
-130.6048609999999996
11
98.7795299999999941
21
-130.7953379999999868
0
LINE
8
BLACK
6
CONTINUOUS
10
100.1128629999999902
20
-128.7953379999999868
11
100.3033399999999915
21
-128.7953379999999868
0
LINE
8
BLACK
6
CONTINUOUS
10
100.3033399999999915
20
-128.7953379999999868
11
100.4938159999999954
21
-128.8905759999999816
0
LINE
8
BLACK
6
CONTINUOUS
10
100.4938159999999954
20
-128.8905759999999816
11
100.5890539999999902
21
-128.9858140000000049
0
LINE
8
BLACK
6
CONTINUOUS
10
100.5890539999999902
20
-128.9858140000000049
11
100.6842919999999992
21
-129.1762899999999945
0
LINE
8
BLACK
6
CONTINUOUS
10
100.6842919999999992
20
-129.1762899999999945
11
100.7795299999999941
21
-129.5572420000000022
0
LINE
8
BLACK
6
CONTINUOUS
10
100.7795299999999941
20
-129.5572420000000022
11
100.7795299999999941
21
-130.0334330000000023
0
LINE
8
BLACK
6
CONTINUOUS
10
100.7795299999999941
20
-130.0334330000000023
11
100.6842919999999992
21
-130.4143849999999816
0
LINE
8
BLACK
6
CONTINUOUS
10
100.6842919999999992
20
-130.4143849999999816
11
100.5890539999999902
21
-130.6048609999999996
0
LINE
8
BLACK
6
CONTINUOUS
10
100.5890539999999902
20
-130.6048609999999996
11
100.4938159999999954
21
-130.700099999999992
0
LINE
8
BLACK
6
CONTINUOUS
10
100.4938159999999954
20
-130.700099999999992
11
100.3033399999999915
21
-130.7953379999999868
0
LINE
8
BLACK
6
CONTINUOUS
10
100.3033399999999915
20
-130.7953379999999868
11
100.1128629999999902
21
-130.7953379999999868
0
LINE
8
BLACK
6
CONTINUOUS
10
100.1128629999999902
20
-130.7953379999999868
11
99.9223870000000005
21
-130.700099999999992
0
LINE
8
BLACK
6
CONTINUOUS
10
99.9223870000000005
20
-130.700099999999992
11
99.8271489999999915
21
-130.6048609999999996
0
LINE
8
BLACK
6
CONTINUOUS
10
99.8271489999999915
20
-130.6048609999999996
11
99.7319109999999966
21
-130.4143849999999816
0
LINE
8
BLACK
6
CONTINUOUS
10
99.7319109999999966
20
-130.4143849999999816
11
99.6366730000000018
21
-130.0334330000000023
0
LINE
8
BLACK
6
CONTINUOUS
10
99.6366730000000018
20
-130.0334330000000023
11
99.6366730000000018
21
-129.5572420000000022
0
LINE
8
BLACK
6
CONTINUOUS
10
99.6366730000000018
20
-129.5572420000000022
11
99.7319109999999966
21
-129.1762899999999945
0
LINE
8
BLACK
6
CONTINUOUS
10
99.7319109999999966
20
-129.1762899999999945
11
99.8271489999999915
21
-128.9858140000000049
0
LINE
8
BLACK
6
CONTINUOUS
10
99.8271489999999915
20
-128.9858140000000049
11
99.9223870000000005
21
-128.8905759999999816
0
LINE
8
BLACK
6
CONTINUOUS
10
99.9223870000000005
20
-128.8905759999999816
11
100.1128629999999902
21
-128.7953379999999868
0
LINE
8
BLACK
6
CONTINUOUS
10
102.0176249999999953
20
-128.7953379999999868
11
102.2081019999999967
21
-128.7953379999999868
0
LINE
8
BLACK
6
CONTINUOUS
10
102.2081019999999967
20
-128.7953379999999868
11
102.3985780000000005
21
-128.8905759999999816
0
LINE
8
BLACK
6
CONTINUOUS
10
102.3985780000000005
20
-128.8905759999999816
11
102.4938159999999954
21
-128.9858140000000049
0
LINE
8
BLACK
6
CONTINUOUS
10
102.4938159999999954
20
-128.9858140000000049
11
102.5890539999999902
21
-129.1762899999999945
0
LINE
8
BLACK
6
CONTINUOUS
10
102.5890539999999902
20
-129.1762899999999945
11
102.6842919999999992
21
-129.5572420000000022
0
LINE
8
BLACK
6
CONTINUOUS
10
102.6842919999999992
20
-129.5572420000000022
11
102.6842919999999992
21
-130.0334330000000023
0
LINE
8
BLACK
6
CONTINUOUS
10
102.6842919999999992
20
-130.0334330000000023
11
102.5890539999999902
21
-130.4143849999999816
0
LINE
8
BLACK
6
CONTINUOUS
10
102.5890539999999902
20
-130.4143849999999816
11
102.4938159999999954
21
-130.6048609999999996
0
LINE
8
BLACK
6
CONTINUOUS
10
102.4938159999999954
20
-130.6048609999999996
11
102.3985780000000005
21
-130.700099999999992
0
LINE
8
BLACK
6
CONTINUOUS
10
102.3985780000000005
20
-130.700099999999992
11
102.2081019999999967
21
-130.7953379999999868
0
LINE
8
BLACK
6
CONTINUOUS
10
102.2081019999999967
20
-130.7953379999999868
11
102.0176249999999953
21
-130.7953379999999868
0
LINE
8
BLACK
6
CONTINUOUS
10
102.0176249999999953
20
-130.7953379999999868
11
101.8271489999999915
21
-130.700099999999992
0
LINE
8
BLACK
6
CONTINUOUS
10
101.8271489999999915
20
-130.700099999999992
11
101.7319109999999966
21
-130.6048609999999996
0
LINE
8
BLACK
6
CONTINUOUS
10
101.7319109999999966
20
-130.6048609999999996
11
101.6366730000000018
21
-130.4143849999999816
0
LINE
8
BLACK
6
CONTINUOUS
10
101.6366730000000018
20
-130.4143849999999816
11
101.5414349999999928
21
-130.0334330000000023
0
LINE
8
BLACK
6
CONTINUOUS
10
101.5414349999999928
20
-130.0334330000000023
11
101.5414349999999928
21
-129.5572420000000022
0
LINE
8
BLACK
6
CONTINUOUS
10
101.5414349999999928
20
-129.5572420000000022
11
101.6366730000000018
21
-129.1762899999999945
0
LINE
8
BLACK
6
CONTINUOUS
10
101.6366730000000018
20
-129.1762899999999945
11
101.7319109999999966
21
-128.9858140000000049
0
LINE
8
BLACK
6
CONTINUOUS
10
101.7319109999999966
20
-128.9858140000000049
11
101.8271489999999915
21
-128.8905759999999816
0
LINE
8
BLACK
6
CONTINUOUS
10
101.8271489999999915
20
-128.8905759999999816
11
102.0176249999999953
21
-128.7953379999999868
0
LINE
8
BLACK
6
CONTINUOUS
10
103.9223870000000005
20
-128.7953379999999868
11
104.1128640000000019
21
-128.7953379999999868
0
LINE
8
BLACK
6
CONTINUOUS
10
104.1128640000000019
20
-128.7953379999999868
11
104.3033399999999915
21
-128.8905759999999816
0
LINE
8
BLACK
6
CONTINUOUS
10
104.3033399999999915
20
-128.8905759999999816
11
104.3985780000000005
21
-128.9858140000000049
0
LINE
8
BLACK
6
CONTINUOUS
10
104.3985780000000005
20
-128.9858140000000049
11
104.4938159999999954
21
-129.1762899999999945
0
LINE
8
BLACK
6
CONTINUOUS
10
104.4938159999999954
20
-129.1762899999999945
11
104.5890539999999902
21
-129.5572420000000022
0
LINE
8
BLACK
6
CONTINUOUS
10
104.5890539999999902
20
-129.5572420000000022
11
104.5890539999999902
21
-130.0334330000000023
0
LINE
8
BLACK
6
CONTINUOUS
10
104.5890539999999902
20
-130.0334330000000023
11
104.4938159999999954
21
-130.4143849999999816
0
LINE
8
BLACK
6
CONTINUOUS
10
104.4938159999999954
20
-130.4143849999999816
11
104.3985780000000005
21
-130.6048609999999996
0
LINE
8
BLACK
6
CONTINUOUS
10
104.3985780000000005
20
-130.6048609999999996
11
104.3033399999999915
21
-130.700099999999992
0
LINE
8
BLACK
6
CONTINUOUS
10
104.3033399999999915
20
-130.700099999999992
11
104.1128640000000019
21
-130.7953379999999868
0
LINE
8
BLACK
6
CONTINUOUS
10
104.1128640000000019
20
-130.7953379999999868
11
103.9223870000000005
21
-130.7953379999999868
0
LINE
8
BLACK
6
CONTINUOUS
10
103.9223870000000005
20
-130.7953379999999868
11
103.7319109999999966
21
-130.700099999999992
0
LINE
8
BLACK
6
CONTINUOUS
10
103.7319109999999966
20
-130.700099999999992
11
103.6366730000000018
21
-130.6048609999999996
0
LINE
8
BLACK
6
CONTINUOUS
10
103.6366730000000018
20
-130.6048609999999996
11
103.5414349999999928
21
-130.4143849999999816
0
LINE
8
BLACK
6
CONTINUOUS
10
103.5414349999999928
20
-130.4143849999999816
11
103.446196999999998
21
-130.0334330000000023
0
LINE
8
BLACK
6
CONTINUOUS
10
103.446196999999998
20
-130.0334330000000023
11
103.446196999999998
21
-129.5572420000000022
0
LINE
8
BLACK
6
CONTINUOUS
10
103.446196999999998
20
-129.5572420000000022
11
103.5414349999999928
21
-129.1762899999999945
0
LINE
8
BLACK
6
CONTINUOUS
10
103.5414349999999928
20
-129.1762899999999945
11
103.6366730000000018
21
-128.9858140000000049
0
LINE
8
BLACK
6
CONTINUOUS
10
103.6366730000000018
20
-128.9858140000000049
11
103.7319109999999966
21
-128.8905759999999816
0
LINE
8
BLACK
6
CONTINUOUS
10
103.7319109999999966
20
-128.8905759999999816
11
103.9223870000000005
21
-128.7953379999999868
0
LINE
8
BLACK
6
CONTINUOUS
10
105.446196999999998
20
-130.7953379999999868
11
105.446196999999998
21
-129.4620040000000074
0
LINE
8
BLACK
6
CONTINUOUS
10
105.446196999999998
20
-129.6524799999999971
11
105.5414349999999928
21
-129.5572420000000022
0
LINE
8
BLACK
6
CONTINUOUS
10
105.5414349999999928
20
-129.5572420000000022
11
105.7319109999999966
21
-129.4620040000000074
0
LINE
8
BLACK
6
CONTINUOUS
10
105.7319109999999966
20
-129.4620040000000074
11
106.0176259999999928
21
-129.4620040000000074
0
LINE
8
BLACK
6
CONTINUOUS
10
106.0176259999999928
20
-129.4620040000000074
11
106.2081019999999967
21
-129.5572420000000022
0
LINE
8
BLACK
6
CONTINUOUS
10
106.2081019999999967
20
-129.5572420000000022
11
106.3033399999999915
21
-129.7477189999999894
0
LINE
8
BLACK
6
CONTINUOUS
10
106.3033399999999915
20
-129.7477189999999894
11
106.3033399999999915
21
-130.7953379999999868
0
LINE
8
BLACK
6
CONTINUOUS
10
106.3033399999999915
20
-129.7477189999999894
11
106.3985780000000005
21
-129.5572420000000022
0
LINE
8
BLACK
6
CONTINUOUS
10
106.3985780000000005
20
-129.5572420000000022
11
106.5890539999999902
21
-129.4620040000000074
0
LINE
8
BLACK
6
CONTINUOUS
10
106.5890539999999902
20
-129.4620040000000074
11
106.8747679999999889
21
-129.4620040000000074
0
LINE
8
BLACK
6
CONTINUOUS
10
106.8747679999999889
20
-129.4620040000000074
11
107.0652449999999902
21
-129.5572420000000022
0
LINE
8
BLACK
6
CONTINUOUS
10
107.0652449999999902
20
-129.5572420000000022
11
107.1604829999999993
21
-129.7477189999999894
0
LINE
8
BLACK
6
CONTINUOUS
10
107.1604829999999993
20
-129.7477189999999894
11
107.1604829999999993
21
-130.7953379999999868
0
LINE
8
BLACK
6
CONTINUOUS
10
108.1128640000000019
20
-130.7953379999999868
11
108.1128640000000019
21
-129.4620040000000074
0
LINE
8
BLACK
6
CONTINUOUS
10
108.1128640000000019
20
-129.6524799999999971
11
108.2081019999999967
21
-129.5572420000000022
0
LINE
8
BLACK
6
CONTINUOUS
10
108.2081019999999967
20
-129.5572420000000022
11
108.3985780000000005
21
-129.4620040000000074
0
LINE
8
BLACK
6
CONTINUOUS
10
108.3985780000000005
20
-129.4620040000000074
11
108.6842929999999967
21
-129.4620040000000074
0
LINE
8
BLACK
6
CONTINUOUS
10
108.6842929999999967
20
-129.4620040000000074
11
108.8747690000000006
21
-129.5572420000000022
0
LINE
8
BLACK
6
CONTINUOUS
10
108.8747690000000006
20
-129.5572420000000022
11
108.9700069999999954
21
-129.7477189999999894
0
LINE
8
BLACK
6
CONTINUOUS
10
108.9700069999999954
20
-129.7477189999999894
11
108.9700069999999954
21
-130.7953379999999868
0
LINE
8
BLACK
6
CONTINUOUS
10
108.9700069999999954
20
-129.7477189999999894
11
109.0652449999999902
21
-129.5572420000000022
0
LINE
8
BLACK
6
CONTINUOUS
10
109.0652449999999902
20
-129.5572420000000022
11
109.2557209999999941
21
-129.4620040000000074
0
LINE
8
BLACK
6
CONTINUOUS
10
109.2557209999999941
20
-129.4620040000000074
11
109.5414349999999928
21
-129.4620040000000074
0
LINE
8
BLACK
6
CONTINUOUS
10
109.5414349999999928
20
-129.4620040000000074
11
109.7319119999999941
21
-129.5572420000000022
0
LINE
8
BLACK
6
CONTINUOUS
10
109.7319119999999941
20
-129.5572420000000022
11
109.8271499999999889
21
-129.7477189999999894
0
LINE
8
BLACK
6
CONTINUOUS
10
109.8271499999999889
20
-129.7477189999999894
11
109.8271499999999889
21
-130.7953379999999868
0
LINE
8
BLACK
6
CONTINUOUS
10
113.7319119999999941
20
-128.700099999999992
11
112.0176269999999903
21
-131.2715279999999893
0
LINE
8
BLACK
6
CONTINUOUS
10
116.303340999999989
20
-128.7953379999999868
11
116.4938179999999903
21
-128.7953379999999868
0
LINE
8
BLACK
6
CONTINUOUS
10
116.4938179999999903
20
-128.7953379999999868
11
116.6842939999999942
21
-128.8905759999999816
0
LINE
8
BLACK
6
CONTINUOUS
10
116.6842939999999942
20
-128.8905759999999816
11
116.779531999999989
21
-128.9858140000000049
0
LINE
8
BLACK
6
CONTINUOUS
10
116.779531999999989
20
-128.9858140000000049
11
116.874769999999998
21
-129.1762899999999945
0
LINE
8
BLACK
6
CONTINUOUS
10
116.874769999999998
20
-129.1762899999999945
11
116.9700079999999929
21
-129.5572420000000022
0
LINE
8
BLACK
6
CONTINUOUS
10
116.9700079999999929
20
-129.5572420000000022
11
116.9700079999999929
21
-130.0334330000000023
0
LINE
8
BLACK
6
CONTINUOUS
10
116.9700079999999929
20
-130.0334330000000023
11
116.874769999999998
21
-130.4143849999999816
0
LINE
8
BLACK
6
CONTINUOUS
10
116.874769999999998
20
-130.4143849999999816
11
116.779531999999989
21
-130.6048609999999996
0
LINE
8
BLACK
6
CONTINUOUS
10
116.779531999999989
20
-130.6048609999999996
11
116.6842939999999942
21
-130.700099999999992
0
LINE
8
BLACK
6
CONTINUOUS
10
116.6842939999999942
20
-130.700099999999992
11
116.4938179999999903
21
-130.7953379999999868
0
LINE
8
BLACK
6
CONTINUOUS
10
116.4938179999999903
20
-130.7953379999999868
11
116.303340999999989
21
-130.7953379999999868
0
LINE
8
BLACK
6
CONTINUOUS
10
116.303340999999989
20
-130.7953379999999868
11
116.1128649999999993
21
-130.700099999999992
0
LINE
8
BLACK
6
CONTINUOUS
10
116.1128649999999993
20
-130.700099999999992
11
116.0176269999999903
21
-130.6048609999999996
0
LINE
8
BLACK
6
CONTINUOUS
10
116.0176269999999903
20
-130.6048609999999996
11
115.9223889999999955
21
-130.4143849999999816
0
LINE
8
BLACK
6
CONTINUOUS
10
115.9223889999999955
20
-130.4143849999999816
11
115.8271510000000006
21
-130.0334330000000023
0
LINE
8
BLACK
6
CONTINUOUS
10
115.8271510000000006
20
-130.0334330000000023
11
115.8271510000000006
21
-129.5572420000000022
0
LINE
8
BLACK
6
CONTINUOUS
10
115.8271510000000006
20
-129.5572420000000022
11
115.9223889999999955
21
-129.1762899999999945
0
LINE
8
BLACK
6
CONTINUOUS
10
115.9223889999999955
20
-129.1762899999999945
11
116.0176269999999903
21
-128.9858140000000049
0
LINE
8
BLACK
6
CONTINUOUS
10
116.0176269999999903
20
-128.9858140000000049
11
116.1128649999999993
21
-128.8905759999999816
0
LINE
8
BLACK
6
CONTINUOUS
10
116.1128649999999993
20
-128.8905759999999816
11
116.303340999999989
21
-128.7953379999999868
0
LINE
8
BLACK
6
CONTINUOUS
10
117.8271510000000006
20
-130.6048609999999996
11
117.9223889999999955
21
-130.700099999999992
0
LINE
8
BLACK
6
CONTINUOUS
10
117.9223889999999955
20
-130.700099999999992
11
117.8271510000000006
21
-130.7953379999999868
0
LINE
8
BLACK
6
CONTINUOUS
10
117.8271510000000006
20
-130.7953379999999868
11
117.7319129999999916
21
-130.700099999999992
0
LINE
8
BLACK
6
CONTINUOUS
10
117.7319129999999916
20
-130.700099999999992
11
117.8271510000000006
21
-130.6048609999999996
0
LINE
8
BLACK
6
CONTINUOUS
10
117.8271510000000006
20
-130.6048609999999996
11
117.8271510000000006
21
-130.7953379999999868
0
LINE
8
BLACK
6
CONTINUOUS
10
119.1604839999999967
20
-128.7953379999999868
11
119.3509609999999981
21
-128.7953379999999868
0
LINE
8
BLACK
6
CONTINUOUS
10
119.3509609999999981
20
-128.7953379999999868
11
119.5414369999999877
21
-128.8905759999999816
0
LINE
8
BLACK
6
CONTINUOUS
10
119.5414369999999877
20
-128.8905759999999816
11
119.6366749999999968
21
-128.9858140000000049
0
LINE
8
BLACK
6
CONTINUOUS
10
119.6366749999999968
20
-128.9858140000000049
11
119.7319129999999916
21
-129.1762899999999945
0
LINE
8
BLACK
6
CONTINUOUS
10
119.7319129999999916
20
-129.1762899999999945
11
119.8271510000000006
21
-129.5572420000000022
0
LINE
8
BLACK
6
CONTINUOUS
10
119.8271510000000006
20
-129.5572420000000022
11
119.8271510000000006
21
-130.0334330000000023
0
LINE
8
BLACK
6
CONTINUOUS
10
119.8271510000000006
20
-130.0334330000000023
11
119.7319129999999916
21
-130.4143849999999816
0
LINE
8
BLACK
6
CONTINUOUS
10
119.7319129999999916
20
-130.4143849999999816
11
119.6366749999999968
21
-130.6048609999999996
0
LINE
8
BLACK
6
CONTINUOUS
10
119.6366749999999968
20
-130.6048609999999996
11
119.5414369999999877
21
-130.700099999999992
0
LINE
8
BLACK
6
CONTINUOUS
10
119.5414369999999877
20
-130.700099999999992
11
119.3509609999999981
21
-130.7953379999999868
0
LINE
8
BLACK
6
CONTINUOUS
10
119.3509609999999981
20
-130.7953379999999868
11
119.1604839999999967
21
-130.7953379999999868
0
LINE
8
BLACK
6
CONTINUOUS
10
119.1604839999999967
20
-130.7953379999999868
11
118.9700079999999929
21
-130.700099999999992
0
LINE
8
BLACK
6
CONTINUOUS
10
118.9700079999999929
20
-130.700099999999992
11
118.874769999999998
21
-130.6048609999999996
0
LINE
8
BLACK
6
CONTINUOUS
10
118.874769999999998
20
-130.6048609999999996
11
118.779531999999989
21
-130.4143849999999816
0
LINE
8
BLACK
6
CONTINUOUS
10
118.779531999999989
20
-130.4143849999999816
11
118.6842939999999942
21
-130.0334330000000023
0
LINE
8
BLACK
6
CONTINUOUS
10
118.6842939999999942
20
-130.0334330000000023
11
118.6842939999999942
21
-129.5572420000000022
0
LINE
8
BLACK
6
CONTINUOUS
10
118.6842939999999942
20
-129.5572420000000022
11
118.779531999999989
21
-129.1762899999999945
0
LINE
8
BLACK
6
CONTINUOUS
10
118.779531999999989
20
-129.1762899999999945
11
118.874769999999998
21
-128.9858140000000049
0
LINE
8
BLACK
6
CONTINUOUS
10
118.874769999999998
20
-128.9858140000000049
11
118.9700079999999929
21
-128.8905759999999816
0
LINE
8
BLACK
6
CONTINUOUS
10
118.9700079999999929
20
-128.8905759999999816
11
119.1604839999999967
21
-128.7953379999999868
0
LINE
8
BLACK
6
CONTINUOUS
10
120.4938179999999903
20
-128.7953379999999868
11
121.7319129999999916
21
-128.7953379999999868
0
LINE
8
BLACK
6
CONTINUOUS
10
121.7319129999999916
20
-128.7953379999999868
11
121.0652459999999877
21
-129.5572420000000022
0
LINE
8
BLACK
6
CONTINUOUS
10
121.0652459999999877
20
-129.5572420000000022
11
121.3509609999999981
21
-129.5572420000000022
0
LINE
8
BLACK
6
CONTINUOUS
10
121.3509609999999981
20
-129.5572420000000022
11
121.5414369999999877
21
-129.6524799999999971
0
LINE
8
BLACK
6
CONTINUOUS
10
121.5414369999999877
20
-129.6524799999999971
11
121.6366749999999968
21
-129.7477189999999894
0
LINE
8
BLACK
6
CONTINUOUS
10
121.6366749999999968
20
-129.7477189999999894
11
121.7319129999999916
21
-129.9381950000000074
0
LINE
8
BLACK
6
CONTINUOUS
10
121.7319129999999916
20
-129.9381950000000074
11
121.7319129999999916
21
-130.4143849999999816
0
LINE
8
BLACK
6
CONTINUOUS
10
121.7319129999999916
20
-130.4143849999999816
11
121.6366749999999968
21
-130.6048609999999996
0
LINE
8
BLACK
6
CONTINUOUS
10
121.6366749999999968
20
-130.6048609999999996
11
121.5414369999999877
21
-130.700099999999992
0
LINE
8
BLACK
6
CONTINUOUS
10
121.5414369999999877
20
-130.700099999999992
11
121.3509609999999981
21
-130.7953379999999868
0
LINE
8
BLACK
6
CONTINUOUS
10
121.3509609999999981
20
-130.7953379999999868
11
120.779531999999989
21
-130.7953379999999868
0
LINE
8
BLACK
6
CONTINUOUS
10
120.779531999999989
20
-130.7953379999999868
11
120.5890559999999994
21
-130.700099999999992
0
LINE
8
BLACK
6
CONTINUOUS
10
120.5890559999999994
20
-130.700099999999992
11
120.4938179999999903
21
-130.6048609999999996
0
LINE
8
BLACK
6
CONTINUOUS
10
122.6842939999999942
20
-130.7953379999999868
11
123.0652459999999877
21
-130.7953379999999868
0
LINE
8
BLACK
6
CONTINUOUS
10
123.0652459999999877
20
-130.7953379999999868
11
123.255722999999989
21
-130.700099999999992
0
LINE
8
BLACK
6
CONTINUOUS
10
123.255722999999989
20
-130.700099999999992
11
123.3509609999999981
21
-130.6048609999999996
0
LINE
8
BLACK
6
CONTINUOUS
10
123.3509609999999981
20
-130.6048609999999996
11
123.5414369999999877
21
-130.3191469999999867
0
LINE
8
BLACK
6
CONTINUOUS
10
123.5414369999999877
20
-130.3191469999999867
11
123.6366749999999968
21
-129.9381950000000074
0
LINE
8
BLACK
6
CONTINUOUS
10
123.6366749999999968
20
-129.9381950000000074
11
123.6366749999999968
21
-129.1762899999999945
0
LINE
8
BLACK
6
CONTINUOUS
10
123.6366749999999968
20
-129.1762899999999945
11
123.5414369999999877
21
-128.9858140000000049
0
LINE
8
BLACK
6
CONTINUOUS
10
123.5414369999999877
20
-128.9858140000000049
11
123.4461989999999929
21
-128.8905759999999816
0
LINE
8
BLACK
6
CONTINUOUS
10
123.4461989999999929
20
-128.8905759999999816
11
123.255722999999989
21
-128.7953379999999868
0
LINE
8
BLACK
6
CONTINUOUS
10
123.255722999999989
20
-128.7953379999999868
11
122.874769999999998
21
-128.7953379999999868
0
LINE
8
BLACK
6
CONTINUOUS
10
122.874769999999998
20
-128.7953379999999868
11
122.6842939999999942
21
-128.8905759999999816
0
LINE
8
BLACK
6
CONTINUOUS
10
122.6842939999999942
20
-128.8905759999999816
11
122.5890559999999994
21
-128.9858140000000049
0
LINE
8
BLACK
6
CONTINUOUS
10
122.5890559999999994
20
-128.9858140000000049
11
122.4938179999999903
21
-129.1762899999999945
0
LINE
8
BLACK
6
CONTINUOUS
10
122.4938179999999903
20
-129.1762899999999945
11
122.4938179999999903
21
-129.6524799999999971
0
LINE
8
BLACK
6
CONTINUOUS
10
122.4938179999999903
20
-129.6524799999999971
11
122.5890559999999994
21
-129.8429569999999842
0
LINE
8
BLACK
6
CONTINUOUS
10
122.5890559999999994
20
-129.8429569999999842
11
122.6842939999999942
21
-129.9381950000000074
0
LINE
8
BLACK
6
CONTINUOUS
10
122.6842939999999942
20
-129.9381950000000074
11
122.874769999999998
21
-130.0334330000000023
0
LINE
8
BLACK
6
CONTINUOUS
10
122.874769999999998
20
-130.0334330000000023
11
123.255722999999989
21
-130.0334330000000023
0
LINE
8
BLACK
6
CONTINUOUS
10
123.255722999999989
20
-130.0334330000000023
11
123.4461989999999929
21
-129.9381950000000074
0
LINE
8
BLACK
6
CONTINUOUS
10
123.4461989999999929
20
-129.9381950000000074
11
123.5414369999999877
21
-129.8429569999999842
0
LINE
8
BLACK
6
CONTINUOUS
10
123.5414369999999877
20
-129.8429569999999842
11
123.6366749999999968
21
-129.6524799999999971
0
LINE
8
BLACK
6
CONTINUOUS
10
125.3509609999999981
20
-129.4620040000000074
11
125.3509609999999981
21
-130.7953379999999868
0
LINE
8
BLACK
6
CONTINUOUS
10
124.874769999999998
20
-128.700099999999992
11
124.3985799999999955
21
-130.1286709999999971
0
LINE
8
BLACK
6
CONTINUOUS
10
124.3985799999999955
20
-130.1286709999999971
11
125.6366749999999968
21
-130.1286709999999971
0
LINE
8
BLACK
6
CONTINUOUS
10
126.3033420000000007
20
-128.7953379999999868
11
126.3033420000000007
21
-129.1762899999999945
0
LINE
8
BLACK
6
CONTINUOUS
10
127.0652469999999994
20
-128.7953379999999868
11
127.0652469999999994
21
-129.1762899999999945
0
LINE
8
BLACK
6
CONTINUOUS
10
130.0176289999999995
20
-131.5572420000000022
11
129.9223900000000071
21
-131.4620040000000074
0
LINE
8
BLACK
6
CONTINUOUS
10
129.9223900000000071
20
-131.4620040000000074
11
129.7319139999999891
21
-131.1762899999999945
0
LINE
8
BLACK
6
CONTINUOUS
10
129.7319139999999891
20
-131.1762899999999945
11
129.6366759999999942
21
-130.9858140000000049
0
LINE
8
BLACK
6
CONTINUOUS
10
129.6366759999999942
20
-130.9858140000000049
11
129.5414379999999994
21
-130.700099999999992
0
LINE
8
BLACK
6
CONTINUOUS
10
129.5414379999999994
20
-130.700099999999992
11
129.4462000000000046
21
-130.2239089999999919
0
LINE
8
BLACK
6
CONTINUOUS
10
129.4462000000000046
20
-130.2239089999999919
11
129.4462000000000046
21
-129.8429569999999842
0
LINE
8
BLACK
6
CONTINUOUS
10
129.4462000000000046
20
-129.8429569999999842
11
129.5414379999999994
21
-129.3667659999999842
0
LINE
8
BLACK
6
CONTINUOUS
10
129.5414379999999994
20
-129.3667659999999842
11
129.6366759999999942
21
-129.0810519999999997
0
LINE
8
BLACK
6
CONTINUOUS
10
129.6366759999999942
20
-129.0810519999999997
11
129.7319139999999891
21
-128.8905759999999816
0
LINE
8
BLACK
6
CONTINUOUS
10
129.7319139999999891
20
-128.8905759999999816
11
129.9223900000000071
21
-128.6048609999999996
0
LINE
8
BLACK
6
CONTINUOUS
10
129.9223900000000071
20
-128.6048609999999996
11
130.0176289999999995
21
-128.5096230000000048
0
LINE
8
BLACK
6
CONTINUOUS
10
131.6366759999999942
20
-128.7953379999999868
11
131.255722999999989
21
-128.7953379999999868
0
LINE
8
BLACK
6
CONTINUOUS
10
131.255722999999989
20
-128.7953379999999868
11
131.0652469999999994
21
-128.8905759999999816
0
LINE
8
BLACK
6
CONTINUOUS
10
131.0652469999999994
20
-128.8905759999999816
11
130.9700090000000046
21
-128.9858140000000049
0
LINE
8
BLACK
6
CONTINUOUS
10
130.9700090000000046
20
-128.9858140000000049
11
130.7795329999999865
21
-129.2715279999999893
0
LINE
8
BLACK
6
CONTINUOUS
10
130.7795329999999865
20
-129.2715279999999893
11
130.6842949999999917
21
-129.6524799999999971
0
LINE
8
BLACK
6
CONTINUOUS
10
130.6842949999999917
20
-129.6524799999999971
11
130.6842949999999917
21
-130.4143849999999816
0
LINE
8
BLACK
6
CONTINUOUS
10
130.6842949999999917
20
-130.4143849999999816
11
130.7795329999999865
21
-130.6048609999999996
0
LINE
8
BLACK
6
CONTINUOUS
10
130.7795329999999865
20
-130.6048609999999996
11
130.8747709999999813
21
-130.700099999999992
0
LINE
8
BLACK
6
CONTINUOUS
10
130.8747709999999813
20
-130.700099999999992
11
131.0652469999999994
21
-130.7953379999999868
0
LINE
8
BLACK
6
CONTINUOUS
10
131.0652469999999994
20
-130.7953379999999868
11
131.4462000000000046
21
-130.7953379999999868
0
LINE
8
BLACK
6
CONTINUOUS
10
131.4462000000000046
20
-130.7953379999999868
11
131.6366759999999942
21
-130.700099999999992
0
LINE
8
BLACK
6
CONTINUOUS
10
131.6366759999999942
20
-130.700099999999992
11
131.7319139999999891
21
-130.6048609999999996
0
LINE
8
BLACK
6
CONTINUOUS
10
131.7319139999999891
20
-130.6048609999999996
11
131.8271519999999839
21
-130.4143849999999816
0
LINE
8
BLACK
6
CONTINUOUS
10
131.8271519999999839
20
-130.4143849999999816
11
131.8271519999999839
21
-129.9381950000000074
0
LINE
8
BLACK
6
CONTINUOUS
10
131.8271519999999839
20
-129.9381950000000074
11
131.7319139999999891
21
-129.7477189999999894
0
LINE
8
BLACK
6
CONTINUOUS
10
131.7319139999999891
20
-129.7477189999999894
11
131.6366759999999942
21
-129.6524799999999971
0
LINE
8
BLACK
6
CONTINUOUS
10
131.6366759999999942
20
-129.6524799999999971
11
131.4462000000000046
21
-129.5572420000000022
0
LINE
8
BLACK
6
CONTINUOUS
10
131.4462000000000046
20
-129.5572420000000022
11
131.0652469999999994
21
-129.5572420000000022
0
LINE
8
BLACK
6
CONTINUOUS
10
131.0652469999999994
20
-129.5572420000000022
11
130.8747709999999813
21
-129.6524799999999971
0
LINE
8
BLACK
6
CONTINUOUS
10
130.8747709999999813
20
-129.6524799999999971
11
130.7795329999999865
21
-129.7477189999999894
0
LINE
8
BLACK
6
CONTINUOUS
10
130.7795329999999865
20
-129.7477189999999894
11
130.6842949999999917
21
-129.9381950000000074
0
LINE
8
BLACK
6
CONTINUOUS
10
133.5414379999999994
20
-129.4620040000000074
11
133.5414379999999994
21
-130.7953379999999868
0
LINE
8
BLACK
6
CONTINUOUS
10
133.0652469999999994
20
-128.700099999999992
11
132.5890569999999968
21
-130.1286709999999971
0
LINE
8
BLACK
6
CONTINUOUS
10
132.5890569999999968
20
-130.1286709999999971
11
133.8271519999999839
21
-130.1286709999999971
0
LINE
8
BLACK
6
CONTINUOUS
10
136.1128669999999943
20
-130.7953379999999868
11
136.1128669999999943
21
-128.7953379999999868
0
LINE
8
BLACK
6
CONTINUOUS
10
136.970010000000002
20
-130.7953379999999868
11
136.970010000000002
21
-129.7477189999999894
0
LINE
8
BLACK
6
CONTINUOUS
10
136.970010000000002
20
-129.7477189999999894
11
136.8747720000000072
21
-129.5572420000000022
0
LINE
8
BLACK
6
CONTINUOUS
10
136.8747720000000072
20
-129.5572420000000022
11
136.6842959999999891
21
-129.4620040000000074
0
LINE
8
BLACK
6
CONTINUOUS
10
136.6842959999999891
20
-129.4620040000000074
11
136.3985810000000072
21
-129.4620040000000074
0
LINE
8
BLACK
6
CONTINUOUS
10
136.3985810000000072
20
-129.4620040000000074
11
136.2081049999999891
21
-129.5572420000000022
0
LINE
8
BLACK
6
CONTINUOUS
10
136.2081049999999891
20
-129.5572420000000022
11
136.1128669999999943
21
-129.6524799999999971
0
LINE
8
BLACK
6
CONTINUOUS
10
138.2081049999999891
20
-130.7953379999999868
11
138.0176289999999995
21
-130.700099999999992
0
LINE
8
BLACK
6
CONTINUOUS
10
138.0176289999999995
20
-130.700099999999992
11
137.9223910000000046
21
-130.6048609999999996
0
LINE
8
BLACK
6
CONTINUOUS
10
137.9223910000000046
20
-130.6048609999999996
11
137.8271529999999814
21
-130.4143849999999816
0
LINE
8
BLACK
6
CONTINUOUS
10
137.8271529999999814
20
-130.4143849999999816
11
137.8271529999999814
21
-129.8429569999999842
0
LINE
8
BLACK
6
CONTINUOUS
10
137.8271529999999814
20
-129.8429569999999842
11
137.9223910000000046
21
-129.6524799999999971
0
LINE
8
BLACK
6
CONTINUOUS
10
137.9223910000000046
20
-129.6524799999999971
11
138.0176289999999995
21
-129.5572420000000022
0
LINE
8
BLACK
6
CONTINUOUS
10
138.0176289999999995
20
-129.5572420000000022
11
138.2081049999999891
21
-129.4620040000000074
0
LINE
8
BLACK
6
CONTINUOUS
10
138.2081049999999891
20
-129.4620040000000074
11
138.4938199999999995
21
-129.4620040000000074
0
LINE
8
BLACK
6
CONTINUOUS
10
138.4938199999999995
20
-129.4620040000000074
11
138.6842959999999891
21
-129.5572420000000022
0
LINE
8
BLACK
6
CONTINUOUS
10
138.6842959999999891
20
-129.5572420000000022
11
138.779533999999984
21
-129.6524799999999971
0
LINE
8
BLACK
6
CONTINUOUS
10
138.779533999999984
20
-129.6524799999999971
11
138.8747720000000072
21
-129.8429569999999842
0
LINE
8
BLACK
6
CONTINUOUS
10
138.8747720000000072
20
-129.8429569999999842
11
138.8747720000000072
21
-130.4143849999999816
0
LINE
8
BLACK
6
CONTINUOUS
10
138.8747720000000072
20
-130.4143849999999816
11
138.779533999999984
21
-130.6048609999999996
0
LINE
8
BLACK
6
CONTINUOUS
10
138.779533999999984
20
-130.6048609999999996
11
138.6842959999999891
21
-130.700099999999992
0
LINE
8
BLACK
6
CONTINUOUS
10
138.6842959999999891
20
-130.700099999999992
11
138.4938199999999995
21
-130.7953379999999868
0
LINE
8
BLACK
6
CONTINUOUS
10
138.4938199999999995
20
-130.7953379999999868
11
138.2081049999999891
21
-130.7953379999999868
0
LINE
8
BLACK
6
CONTINUOUS
10
140.0176289999999995
20
-130.7953379999999868
11
139.8271529999999814
21
-130.700099999999992
0
LINE
8
BLACK
6
CONTINUOUS
10
139.8271529999999814
20
-130.700099999999992
11
139.7319149999999865
21
-130.5096230000000048
0
LINE
8
BLACK
6
CONTINUOUS
10
139.7319149999999865
20
-130.5096230000000048
11
139.7319149999999865
21
-128.7953379999999868
0
LINE
8
BLACK
6
CONTINUOUS
10
141.5414389999999969
20
-130.700099999999992
11
141.3509630000000072
21
-130.7953379999999868
0
LINE
8
BLACK
6
CONTINUOUS
10
141.3509630000000072
20
-130.7953379999999868
11
140.970010000000002
21
-130.7953379999999868
0
LINE
8
BLACK
6
CONTINUOUS
10
140.970010000000002
20
-130.7953379999999868
11
140.779533999999984
21
-130.700099999999992
0
LINE
8
BLACK
6
CONTINUOUS
10
140.779533999999984
20
-130.700099999999992
11
140.6842959999999891
21
-130.5096230000000048
0
LINE
8
BLACK
6
CONTINUOUS
10
140.6842959999999891
20
-130.5096230000000048
11
140.6842959999999891
21
-129.7477189999999894
0
LINE
8
BLACK
6
CONTINUOUS
10
140.6842959999999891
20
-129.7477189999999894
11
140.779533999999984
21
-129.5572420000000022
0
LINE
8
BLACK
6
CONTINUOUS
10
140.779533999999984
20
-129.5572420000000022
11
140.970010000000002
21
-129.4620040000000074
0
LINE
8
BLACK
6
CONTINUOUS
10
140.970010000000002
20
-129.4620040000000074
11
141.3509630000000072
21
-129.4620040000000074
0
LINE
8
BLACK
6
CONTINUOUS
10
141.3509630000000072
20
-129.4620040000000074
11
141.5414389999999969
21
-129.5572420000000022
0
LINE
8
BLACK
6
CONTINUOUS
10
141.5414389999999969
20
-129.5572420000000022
11
141.6366769999999917
21
-129.7477189999999894
0
LINE
8
BLACK
6
CONTINUOUS
10
141.6366769999999917
20
-129.7477189999999894
11
141.6366769999999917
21
-129.9381950000000074
0
LINE
8
BLACK
6
CONTINUOUS
10
141.6366769999999917
20
-129.9381950000000074
11
140.6842959999999891
21
-130.1286709999999971
0
LINE
8
BLACK
6
CONTINUOUS
10
142.3985820000000047
20
-130.700099999999992
11
142.5890579999999943
21
-130.7953379999999868
0
LINE
8
BLACK
6
CONTINUOUS
10
142.5890579999999943
20
-130.7953379999999868
11
142.970010000000002
21
-130.7953379999999868
0
LINE
8
BLACK
6
CONTINUOUS
10
142.970010000000002
20
-130.7953379999999868
11
143.1604869999999892
21
-130.700099999999992
0
LINE
8
BLACK
6
CONTINUOUS
10
143.1604869999999892
20
-130.700099999999992
11
143.255724999999984
21
-130.5096230000000048
0
LINE
8
BLACK
6
CONTINUOUS
10
143.255724999999984
20
-130.5096230000000048
11
143.255724999999984
21
-130.4143849999999816
0
LINE
8
BLACK
6
CONTINUOUS
10
143.255724999999984
20
-130.4143849999999816
11
143.1604869999999892
21
-130.2239089999999919
0
LINE
8
BLACK
6
CONTINUOUS
10
143.1604869999999892
20
-130.2239089999999919
11
142.970010000000002
21
-130.1286709999999971
0
LINE
8
BLACK
6
CONTINUOUS
10
142.970010000000002
20
-130.1286709999999971
11
142.6842959999999891
21
-130.1286709999999971
0
LINE
8
BLACK
6
CONTINUOUS
10
142.6842959999999891
20
-130.1286709999999971
11
142.4938199999999995
21
-130.0334330000000023
0
LINE
8
BLACK
6
CONTINUOUS
10
142.4938199999999995
20
-130.0334330000000023
11
142.3985820000000047
21
-129.8429569999999842
0
LINE
8
BLACK
6
CONTINUOUS
10
142.3985820000000047
20
-129.8429569999999842
11
142.3985820000000047
21
-129.7477189999999894
0
LINE
8
BLACK
6
CONTINUOUS
10
142.3985820000000047
20
-129.7477189999999894
11
142.4938199999999995
21
-129.5572420000000022
0
LINE
8
BLACK
6
CONTINUOUS
10
142.4938199999999995
20
-129.5572420000000022
11
142.6842959999999891
21
-129.4620040000000074
0
LINE
8
BLACK
6
CONTINUOUS
10
142.6842959999999891
20
-129.4620040000000074
11
142.970010000000002
21
-129.4620040000000074
0
LINE
8
BLACK
6
CONTINUOUS
10
142.970010000000002
20
-129.4620040000000074
11
143.1604869999999892
21
-129.5572420000000022
0
LINE
8
BLACK
6
CONTINUOUS
10
143.9223920000000021
20
-131.5572420000000022
11
144.0176299999999969
21
-131.4620040000000074
0
LINE
8
BLACK
6
CONTINUOUS
10
144.0176299999999969
20
-131.4620040000000074
11
144.2081059999999866
21
-131.1762899999999945
0
LINE
8
BLACK
6
CONTINUOUS
10
144.2081059999999866
20
-131.1762899999999945
11
144.3033439999999814
21
-130.9858140000000049
0
LINE
8
BLACK
6
CONTINUOUS
10
144.3033439999999814
20
-130.9858140000000049
11
144.3985820000000047
21
-130.700099999999992
0
LINE
8
BLACK
6
CONTINUOUS
10
144.3985820000000047
20
-130.700099999999992
11
144.4938199999999995
21
-130.2239089999999919
0
LINE
8
BLACK
6
CONTINUOUS
10
144.4938199999999995
20
-130.2239089999999919
11
144.4938199999999995
21
-129.8429569999999842
0
LINE
8
BLACK
6
CONTINUOUS
10
144.4938199999999995
20
-129.8429569999999842
11
144.3985820000000047
21
-129.3667659999999842
0
LINE
8
BLACK
6
CONTINUOUS
10
144.3985820000000047
20
-129.3667659999999842
11
144.3033439999999814
21
-129.0810519999999997
0
LINE
8
BLACK
6
CONTINUOUS
10
144.3033439999999814
20
-129.0810519999999997
11
144.2081059999999866
21
-128.8905759999999816
0
LINE
8
BLACK
6
CONTINUOUS
10
144.2081059999999866
20
-128.8905759999999816
11
144.0176299999999969
21
-128.6048609999999996
0
LINE
8
BLACK
6
CONTINUOUS
10
144.0176299999999969
20
-128.6048609999999996
11
143.9223920000000021
21
-128.5096230000000048
  0
ENDSEC
  0
EOF
