%TF.GenerationSoftware,KiCad,Pcbnew,8.0.1*%
%TF.CreationDate,2024-03-31T12:23:00+01:00*%
%TF.ProjectId,Apricot-Xi-Expansion-RAM,41707269-636f-4742-9d58-692d45787061,rev?*%
%TF.SameCoordinates,Original*%
%TF.FileFunction,Legend,Bot*%
%TF.FilePolarity,Positive*%
%FSLAX46Y46*%
G04 Gerber Fmt 4.6, Leading zero omitted, Abs format (unit mm)*
G04 Created by KiCad (PCBNEW 8.0.1) date 2024-03-31 12:23:00*
%MOMM*%
%LPD*%
G01*
G04 APERTURE LIST*
%ADD10C,0.150000*%
%ADD11C,0.120000*%
G04 APERTURE END LIST*
D10*
X160530095Y-66739716D02*
X160053905Y-66739716D01*
X160625333Y-67025431D02*
X160292000Y-66025431D01*
X160292000Y-66025431D02*
X159958667Y-67025431D01*
X159625333Y-66358764D02*
X159625333Y-67358764D01*
X159625333Y-66406383D02*
X159530095Y-66358764D01*
X159530095Y-66358764D02*
X159339619Y-66358764D01*
X159339619Y-66358764D02*
X159244381Y-66406383D01*
X159244381Y-66406383D02*
X159196762Y-66454002D01*
X159196762Y-66454002D02*
X159149143Y-66549240D01*
X159149143Y-66549240D02*
X159149143Y-66834954D01*
X159149143Y-66834954D02*
X159196762Y-66930192D01*
X159196762Y-66930192D02*
X159244381Y-66977812D01*
X159244381Y-66977812D02*
X159339619Y-67025431D01*
X159339619Y-67025431D02*
X159530095Y-67025431D01*
X159530095Y-67025431D02*
X159625333Y-66977812D01*
X158720571Y-67025431D02*
X158720571Y-66358764D01*
X158720571Y-66549240D02*
X158672952Y-66454002D01*
X158672952Y-66454002D02*
X158625333Y-66406383D01*
X158625333Y-66406383D02*
X158530095Y-66358764D01*
X158530095Y-66358764D02*
X158434857Y-66358764D01*
X158101523Y-67025431D02*
X158101523Y-66358764D01*
X158101523Y-66025431D02*
X158149142Y-66073050D01*
X158149142Y-66073050D02*
X158101523Y-66120669D01*
X158101523Y-66120669D02*
X158053904Y-66073050D01*
X158053904Y-66073050D02*
X158101523Y-66025431D01*
X158101523Y-66025431D02*
X158101523Y-66120669D01*
X157196762Y-66977812D02*
X157292000Y-67025431D01*
X157292000Y-67025431D02*
X157482476Y-67025431D01*
X157482476Y-67025431D02*
X157577714Y-66977812D01*
X157577714Y-66977812D02*
X157625333Y-66930192D01*
X157625333Y-66930192D02*
X157672952Y-66834954D01*
X157672952Y-66834954D02*
X157672952Y-66549240D01*
X157672952Y-66549240D02*
X157625333Y-66454002D01*
X157625333Y-66454002D02*
X157577714Y-66406383D01*
X157577714Y-66406383D02*
X157482476Y-66358764D01*
X157482476Y-66358764D02*
X157292000Y-66358764D01*
X157292000Y-66358764D02*
X157196762Y-66406383D01*
X156625333Y-67025431D02*
X156720571Y-66977812D01*
X156720571Y-66977812D02*
X156768190Y-66930192D01*
X156768190Y-66930192D02*
X156815809Y-66834954D01*
X156815809Y-66834954D02*
X156815809Y-66549240D01*
X156815809Y-66549240D02*
X156768190Y-66454002D01*
X156768190Y-66454002D02*
X156720571Y-66406383D01*
X156720571Y-66406383D02*
X156625333Y-66358764D01*
X156625333Y-66358764D02*
X156482476Y-66358764D01*
X156482476Y-66358764D02*
X156387238Y-66406383D01*
X156387238Y-66406383D02*
X156339619Y-66454002D01*
X156339619Y-66454002D02*
X156292000Y-66549240D01*
X156292000Y-66549240D02*
X156292000Y-66834954D01*
X156292000Y-66834954D02*
X156339619Y-66930192D01*
X156339619Y-66930192D02*
X156387238Y-66977812D01*
X156387238Y-66977812D02*
X156482476Y-67025431D01*
X156482476Y-67025431D02*
X156625333Y-67025431D01*
X156006285Y-66358764D02*
X155625333Y-66358764D01*
X155863428Y-66025431D02*
X155863428Y-66882573D01*
X155863428Y-66882573D02*
X155815809Y-66977812D01*
X155815809Y-66977812D02*
X155720571Y-67025431D01*
X155720571Y-67025431D02*
X155625333Y-67025431D01*
X154625332Y-66025431D02*
X153958666Y-67025431D01*
X153958666Y-66025431D02*
X154625332Y-67025431D01*
X153577713Y-67025431D02*
X153577713Y-66358764D01*
X153577713Y-66025431D02*
X153625332Y-66073050D01*
X153625332Y-66073050D02*
X153577713Y-66120669D01*
X153577713Y-66120669D02*
X153530094Y-66073050D01*
X153530094Y-66073050D02*
X153577713Y-66025431D01*
X153577713Y-66025431D02*
X153577713Y-66120669D01*
X152387238Y-65977812D02*
X153244380Y-67263526D01*
X152053904Y-67025431D02*
X152053904Y-66025431D01*
X152053904Y-66025431D02*
X151672952Y-66025431D01*
X151672952Y-66025431D02*
X151577714Y-66073050D01*
X151577714Y-66073050D02*
X151530095Y-66120669D01*
X151530095Y-66120669D02*
X151482476Y-66215907D01*
X151482476Y-66215907D02*
X151482476Y-66358764D01*
X151482476Y-66358764D02*
X151530095Y-66454002D01*
X151530095Y-66454002D02*
X151577714Y-66501621D01*
X151577714Y-66501621D02*
X151672952Y-66549240D01*
X151672952Y-66549240D02*
X152053904Y-66549240D01*
X150482476Y-66930192D02*
X150530095Y-66977812D01*
X150530095Y-66977812D02*
X150672952Y-67025431D01*
X150672952Y-67025431D02*
X150768190Y-67025431D01*
X150768190Y-67025431D02*
X150911047Y-66977812D01*
X150911047Y-66977812D02*
X151006285Y-66882573D01*
X151006285Y-66882573D02*
X151053904Y-66787335D01*
X151053904Y-66787335D02*
X151101523Y-66596859D01*
X151101523Y-66596859D02*
X151101523Y-66454002D01*
X151101523Y-66454002D02*
X151053904Y-66263526D01*
X151053904Y-66263526D02*
X151006285Y-66168288D01*
X151006285Y-66168288D02*
X150911047Y-66073050D01*
X150911047Y-66073050D02*
X150768190Y-66025431D01*
X150768190Y-66025431D02*
X150672952Y-66025431D01*
X150672952Y-66025431D02*
X150530095Y-66073050D01*
X150530095Y-66073050D02*
X150482476Y-66120669D01*
X148815809Y-66025431D02*
X149291999Y-66025431D01*
X149291999Y-66025431D02*
X149339618Y-66501621D01*
X149339618Y-66501621D02*
X149291999Y-66454002D01*
X149291999Y-66454002D02*
X149196761Y-66406383D01*
X149196761Y-66406383D02*
X148958666Y-66406383D01*
X148958666Y-66406383D02*
X148863428Y-66454002D01*
X148863428Y-66454002D02*
X148815809Y-66501621D01*
X148815809Y-66501621D02*
X148768190Y-66596859D01*
X148768190Y-66596859D02*
X148768190Y-66834954D01*
X148768190Y-66834954D02*
X148815809Y-66930192D01*
X148815809Y-66930192D02*
X148863428Y-66977812D01*
X148863428Y-66977812D02*
X148958666Y-67025431D01*
X148958666Y-67025431D02*
X149196761Y-67025431D01*
X149196761Y-67025431D02*
X149291999Y-66977812D01*
X149291999Y-66977812D02*
X149339618Y-66930192D01*
X147815809Y-67025431D02*
X148387237Y-67025431D01*
X148101523Y-67025431D02*
X148101523Y-66025431D01*
X148101523Y-66025431D02*
X148196761Y-66168288D01*
X148196761Y-66168288D02*
X148291999Y-66263526D01*
X148291999Y-66263526D02*
X148387237Y-66311145D01*
X147434856Y-66120669D02*
X147387237Y-66073050D01*
X147387237Y-66073050D02*
X147291999Y-66025431D01*
X147291999Y-66025431D02*
X147053904Y-66025431D01*
X147053904Y-66025431D02*
X146958666Y-66073050D01*
X146958666Y-66073050D02*
X146911047Y-66120669D01*
X146911047Y-66120669D02*
X146863428Y-66215907D01*
X146863428Y-66215907D02*
X146863428Y-66311145D01*
X146863428Y-66311145D02*
X146911047Y-66454002D01*
X146911047Y-66454002D02*
X147482475Y-67025431D01*
X147482475Y-67025431D02*
X146863428Y-67025431D01*
X146434856Y-67025431D02*
X146434856Y-66025431D01*
X145863428Y-67025431D02*
X146291999Y-66454002D01*
X145863428Y-66025431D02*
X146434856Y-66596859D01*
X144672951Y-67025431D02*
X144672951Y-66358764D01*
X144672951Y-66454002D02*
X144625332Y-66406383D01*
X144625332Y-66406383D02*
X144530094Y-66358764D01*
X144530094Y-66358764D02*
X144387237Y-66358764D01*
X144387237Y-66358764D02*
X144291999Y-66406383D01*
X144291999Y-66406383D02*
X144244380Y-66501621D01*
X144244380Y-66501621D02*
X144244380Y-67025431D01*
X144244380Y-66501621D02*
X144196761Y-66406383D01*
X144196761Y-66406383D02*
X144101523Y-66358764D01*
X144101523Y-66358764D02*
X143958666Y-66358764D01*
X143958666Y-66358764D02*
X143863427Y-66406383D01*
X143863427Y-66406383D02*
X143815808Y-66501621D01*
X143815808Y-66501621D02*
X143815808Y-67025431D01*
X142958666Y-66977812D02*
X143053904Y-67025431D01*
X143053904Y-67025431D02*
X143244380Y-67025431D01*
X143244380Y-67025431D02*
X143339618Y-66977812D01*
X143339618Y-66977812D02*
X143387237Y-66882573D01*
X143387237Y-66882573D02*
X143387237Y-66501621D01*
X143387237Y-66501621D02*
X143339618Y-66406383D01*
X143339618Y-66406383D02*
X143244380Y-66358764D01*
X143244380Y-66358764D02*
X143053904Y-66358764D01*
X143053904Y-66358764D02*
X142958666Y-66406383D01*
X142958666Y-66406383D02*
X142911047Y-66501621D01*
X142911047Y-66501621D02*
X142911047Y-66596859D01*
X142911047Y-66596859D02*
X143387237Y-66692097D01*
X142482475Y-67025431D02*
X142482475Y-66358764D01*
X142482475Y-66454002D02*
X142434856Y-66406383D01*
X142434856Y-66406383D02*
X142339618Y-66358764D01*
X142339618Y-66358764D02*
X142196761Y-66358764D01*
X142196761Y-66358764D02*
X142101523Y-66406383D01*
X142101523Y-66406383D02*
X142053904Y-66501621D01*
X142053904Y-66501621D02*
X142053904Y-67025431D01*
X142053904Y-66501621D02*
X142006285Y-66406383D01*
X142006285Y-66406383D02*
X141911047Y-66358764D01*
X141911047Y-66358764D02*
X141768190Y-66358764D01*
X141768190Y-66358764D02*
X141672951Y-66406383D01*
X141672951Y-66406383D02*
X141625332Y-66501621D01*
X141625332Y-66501621D02*
X141625332Y-67025431D01*
X141006285Y-67025431D02*
X141101523Y-66977812D01*
X141101523Y-66977812D02*
X141149142Y-66930192D01*
X141149142Y-66930192D02*
X141196761Y-66834954D01*
X141196761Y-66834954D02*
X141196761Y-66549240D01*
X141196761Y-66549240D02*
X141149142Y-66454002D01*
X141149142Y-66454002D02*
X141101523Y-66406383D01*
X141101523Y-66406383D02*
X141006285Y-66358764D01*
X141006285Y-66358764D02*
X140863428Y-66358764D01*
X140863428Y-66358764D02*
X140768190Y-66406383D01*
X140768190Y-66406383D02*
X140720571Y-66454002D01*
X140720571Y-66454002D02*
X140672952Y-66549240D01*
X140672952Y-66549240D02*
X140672952Y-66834954D01*
X140672952Y-66834954D02*
X140720571Y-66930192D01*
X140720571Y-66930192D02*
X140768190Y-66977812D01*
X140768190Y-66977812D02*
X140863428Y-67025431D01*
X140863428Y-67025431D02*
X141006285Y-67025431D01*
X140244380Y-67025431D02*
X140244380Y-66358764D01*
X140244380Y-66549240D02*
X140196761Y-66454002D01*
X140196761Y-66454002D02*
X140149142Y-66406383D01*
X140149142Y-66406383D02*
X140053904Y-66358764D01*
X140053904Y-66358764D02*
X139958666Y-66358764D01*
X139720570Y-66358764D02*
X139482475Y-67025431D01*
X139244380Y-66358764D02*
X139482475Y-67025431D01*
X139482475Y-67025431D02*
X139577713Y-67263526D01*
X139577713Y-67263526D02*
X139625332Y-67311145D01*
X139625332Y-67311145D02*
X139720570Y-67358764D01*
X137672951Y-66358764D02*
X137672951Y-67025431D01*
X138101522Y-66358764D02*
X138101522Y-66882573D01*
X138101522Y-66882573D02*
X138053903Y-66977812D01*
X138053903Y-66977812D02*
X137958665Y-67025431D01*
X137958665Y-67025431D02*
X137815808Y-67025431D01*
X137815808Y-67025431D02*
X137720570Y-66977812D01*
X137720570Y-66977812D02*
X137672951Y-66930192D01*
X137196760Y-66358764D02*
X137196760Y-67358764D01*
X137196760Y-66406383D02*
X137101522Y-66358764D01*
X137101522Y-66358764D02*
X136911046Y-66358764D01*
X136911046Y-66358764D02*
X136815808Y-66406383D01*
X136815808Y-66406383D02*
X136768189Y-66454002D01*
X136768189Y-66454002D02*
X136720570Y-66549240D01*
X136720570Y-66549240D02*
X136720570Y-66834954D01*
X136720570Y-66834954D02*
X136768189Y-66930192D01*
X136768189Y-66930192D02*
X136815808Y-66977812D01*
X136815808Y-66977812D02*
X136911046Y-67025431D01*
X136911046Y-67025431D02*
X137101522Y-67025431D01*
X137101522Y-67025431D02*
X137196760Y-66977812D01*
X135863427Y-66358764D02*
X135863427Y-67168288D01*
X135863427Y-67168288D02*
X135911046Y-67263526D01*
X135911046Y-67263526D02*
X135958665Y-67311145D01*
X135958665Y-67311145D02*
X136053903Y-67358764D01*
X136053903Y-67358764D02*
X136196760Y-67358764D01*
X136196760Y-67358764D02*
X136291998Y-67311145D01*
X135863427Y-66977812D02*
X135958665Y-67025431D01*
X135958665Y-67025431D02*
X136149141Y-67025431D01*
X136149141Y-67025431D02*
X136244379Y-66977812D01*
X136244379Y-66977812D02*
X136291998Y-66930192D01*
X136291998Y-66930192D02*
X136339617Y-66834954D01*
X136339617Y-66834954D02*
X136339617Y-66549240D01*
X136339617Y-66549240D02*
X136291998Y-66454002D01*
X136291998Y-66454002D02*
X136244379Y-66406383D01*
X136244379Y-66406383D02*
X136149141Y-66358764D01*
X136149141Y-66358764D02*
X135958665Y-66358764D01*
X135958665Y-66358764D02*
X135863427Y-66406383D01*
X135387236Y-67025431D02*
X135387236Y-66358764D01*
X135387236Y-66549240D02*
X135339617Y-66454002D01*
X135339617Y-66454002D02*
X135291998Y-66406383D01*
X135291998Y-66406383D02*
X135196760Y-66358764D01*
X135196760Y-66358764D02*
X135101522Y-66358764D01*
X134339617Y-67025431D02*
X134339617Y-66501621D01*
X134339617Y-66501621D02*
X134387236Y-66406383D01*
X134387236Y-66406383D02*
X134482474Y-66358764D01*
X134482474Y-66358764D02*
X134672950Y-66358764D01*
X134672950Y-66358764D02*
X134768188Y-66406383D01*
X134339617Y-66977812D02*
X134434855Y-67025431D01*
X134434855Y-67025431D02*
X134672950Y-67025431D01*
X134672950Y-67025431D02*
X134768188Y-66977812D01*
X134768188Y-66977812D02*
X134815807Y-66882573D01*
X134815807Y-66882573D02*
X134815807Y-66787335D01*
X134815807Y-66787335D02*
X134768188Y-66692097D01*
X134768188Y-66692097D02*
X134672950Y-66644478D01*
X134672950Y-66644478D02*
X134434855Y-66644478D01*
X134434855Y-66644478D02*
X134339617Y-66596859D01*
X133434855Y-67025431D02*
X133434855Y-66025431D01*
X133434855Y-66977812D02*
X133530093Y-67025431D01*
X133530093Y-67025431D02*
X133720569Y-67025431D01*
X133720569Y-67025431D02*
X133815807Y-66977812D01*
X133815807Y-66977812D02*
X133863426Y-66930192D01*
X133863426Y-66930192D02*
X133911045Y-66834954D01*
X133911045Y-66834954D02*
X133911045Y-66549240D01*
X133911045Y-66549240D02*
X133863426Y-66454002D01*
X133863426Y-66454002D02*
X133815807Y-66406383D01*
X133815807Y-66406383D02*
X133720569Y-66358764D01*
X133720569Y-66358764D02*
X133530093Y-66358764D01*
X133530093Y-66358764D02*
X133434855Y-66406383D01*
X132577712Y-66977812D02*
X132672950Y-67025431D01*
X132672950Y-67025431D02*
X132863426Y-67025431D01*
X132863426Y-67025431D02*
X132958664Y-66977812D01*
X132958664Y-66977812D02*
X133006283Y-66882573D01*
X133006283Y-66882573D02*
X133006283Y-66501621D01*
X133006283Y-66501621D02*
X132958664Y-66406383D01*
X132958664Y-66406383D02*
X132863426Y-66358764D01*
X132863426Y-66358764D02*
X132672950Y-66358764D01*
X132672950Y-66358764D02*
X132577712Y-66406383D01*
X132577712Y-66406383D02*
X132530093Y-66501621D01*
X132530093Y-66501621D02*
X132530093Y-66596859D01*
X132530093Y-66596859D02*
X133006283Y-66692097D01*
X132101521Y-66930192D02*
X132053902Y-66977812D01*
X132053902Y-66977812D02*
X132101521Y-67025431D01*
X132101521Y-67025431D02*
X132149140Y-66977812D01*
X132149140Y-66977812D02*
X132101521Y-66930192D01*
X132101521Y-66930192D02*
X132101521Y-67025431D01*
X150482475Y-67635375D02*
X150149142Y-68635375D01*
X150149142Y-68635375D02*
X149815809Y-67635375D01*
X149101523Y-68587756D02*
X149196761Y-68635375D01*
X149196761Y-68635375D02*
X149387237Y-68635375D01*
X149387237Y-68635375D02*
X149482475Y-68587756D01*
X149482475Y-68587756D02*
X149530094Y-68492517D01*
X149530094Y-68492517D02*
X149530094Y-68111565D01*
X149530094Y-68111565D02*
X149482475Y-68016327D01*
X149482475Y-68016327D02*
X149387237Y-67968708D01*
X149387237Y-67968708D02*
X149196761Y-67968708D01*
X149196761Y-67968708D02*
X149101523Y-68016327D01*
X149101523Y-68016327D02*
X149053904Y-68111565D01*
X149053904Y-68111565D02*
X149053904Y-68206803D01*
X149053904Y-68206803D02*
X149530094Y-68302041D01*
X148625332Y-68635375D02*
X148625332Y-67968708D01*
X148625332Y-68159184D02*
X148577713Y-68063946D01*
X148577713Y-68063946D02*
X148530094Y-68016327D01*
X148530094Y-68016327D02*
X148434856Y-67968708D01*
X148434856Y-67968708D02*
X148339618Y-67968708D01*
X148053903Y-68587756D02*
X147958665Y-68635375D01*
X147958665Y-68635375D02*
X147768189Y-68635375D01*
X147768189Y-68635375D02*
X147672951Y-68587756D01*
X147672951Y-68587756D02*
X147625332Y-68492517D01*
X147625332Y-68492517D02*
X147625332Y-68444898D01*
X147625332Y-68444898D02*
X147672951Y-68349660D01*
X147672951Y-68349660D02*
X147768189Y-68302041D01*
X147768189Y-68302041D02*
X147911046Y-68302041D01*
X147911046Y-68302041D02*
X148006284Y-68254422D01*
X148006284Y-68254422D02*
X148053903Y-68159184D01*
X148053903Y-68159184D02*
X148053903Y-68111565D01*
X148053903Y-68111565D02*
X148006284Y-68016327D01*
X148006284Y-68016327D02*
X147911046Y-67968708D01*
X147911046Y-67968708D02*
X147768189Y-67968708D01*
X147768189Y-67968708D02*
X147672951Y-68016327D01*
X147196760Y-68635375D02*
X147196760Y-67968708D01*
X147196760Y-67635375D02*
X147244379Y-67682994D01*
X147244379Y-67682994D02*
X147196760Y-67730613D01*
X147196760Y-67730613D02*
X147149141Y-67682994D01*
X147149141Y-67682994D02*
X147196760Y-67635375D01*
X147196760Y-67635375D02*
X147196760Y-67730613D01*
X146577713Y-68635375D02*
X146672951Y-68587756D01*
X146672951Y-68587756D02*
X146720570Y-68540136D01*
X146720570Y-68540136D02*
X146768189Y-68444898D01*
X146768189Y-68444898D02*
X146768189Y-68159184D01*
X146768189Y-68159184D02*
X146720570Y-68063946D01*
X146720570Y-68063946D02*
X146672951Y-68016327D01*
X146672951Y-68016327D02*
X146577713Y-67968708D01*
X146577713Y-67968708D02*
X146434856Y-67968708D01*
X146434856Y-67968708D02*
X146339618Y-68016327D01*
X146339618Y-68016327D02*
X146291999Y-68063946D01*
X146291999Y-68063946D02*
X146244380Y-68159184D01*
X146244380Y-68159184D02*
X146244380Y-68444898D01*
X146244380Y-68444898D02*
X146291999Y-68540136D01*
X146291999Y-68540136D02*
X146339618Y-68587756D01*
X146339618Y-68587756D02*
X146434856Y-68635375D01*
X146434856Y-68635375D02*
X146577713Y-68635375D01*
X145815808Y-67968708D02*
X145815808Y-68635375D01*
X145815808Y-68063946D02*
X145768189Y-68016327D01*
X145768189Y-68016327D02*
X145672951Y-67968708D01*
X145672951Y-67968708D02*
X145530094Y-67968708D01*
X145530094Y-67968708D02*
X145434856Y-68016327D01*
X145434856Y-68016327D02*
X145387237Y-68111565D01*
X145387237Y-68111565D02*
X145387237Y-68635375D01*
X143625332Y-68635375D02*
X144196760Y-68635375D01*
X143911046Y-68635375D02*
X143911046Y-67635375D01*
X143911046Y-67635375D02*
X144006284Y-67778232D01*
X144006284Y-67778232D02*
X144101522Y-67873470D01*
X144101522Y-67873470D02*
X144196760Y-67921089D01*
X143196760Y-68540136D02*
X143149141Y-68587756D01*
X143149141Y-68587756D02*
X143196760Y-68635375D01*
X143196760Y-68635375D02*
X143244379Y-68587756D01*
X143244379Y-68587756D02*
X143196760Y-68540136D01*
X143196760Y-68540136D02*
X143196760Y-68635375D01*
X142530094Y-67635375D02*
X142434856Y-67635375D01*
X142434856Y-67635375D02*
X142339618Y-67682994D01*
X142339618Y-67682994D02*
X142291999Y-67730613D01*
X142291999Y-67730613D02*
X142244380Y-67825851D01*
X142244380Y-67825851D02*
X142196761Y-68016327D01*
X142196761Y-68016327D02*
X142196761Y-68254422D01*
X142196761Y-68254422D02*
X142244380Y-68444898D01*
X142244380Y-68444898D02*
X142291999Y-68540136D01*
X142291999Y-68540136D02*
X142339618Y-68587756D01*
X142339618Y-68587756D02*
X142434856Y-68635375D01*
X142434856Y-68635375D02*
X142530094Y-68635375D01*
X142530094Y-68635375D02*
X142625332Y-68587756D01*
X142625332Y-68587756D02*
X142672951Y-68540136D01*
X142672951Y-68540136D02*
X142720570Y-68444898D01*
X142720570Y-68444898D02*
X142768189Y-68254422D01*
X142768189Y-68254422D02*
X142768189Y-68016327D01*
X142768189Y-68016327D02*
X142720570Y-67825851D01*
X142720570Y-67825851D02*
X142672951Y-67730613D01*
X142672951Y-67730613D02*
X142625332Y-67682994D01*
X142625332Y-67682994D02*
X142530094Y-67635375D01*
X156053905Y-70626271D02*
X156101524Y-70578652D01*
X156101524Y-70578652D02*
X156196762Y-70435795D01*
X156196762Y-70435795D02*
X156244381Y-70340557D01*
X156244381Y-70340557D02*
X156292000Y-70197700D01*
X156292000Y-70197700D02*
X156339619Y-69959604D01*
X156339619Y-69959604D02*
X156339619Y-69769128D01*
X156339619Y-69769128D02*
X156292000Y-69531033D01*
X156292000Y-69531033D02*
X156244381Y-69388176D01*
X156244381Y-69388176D02*
X156196762Y-69292938D01*
X156196762Y-69292938D02*
X156101524Y-69150080D01*
X156101524Y-69150080D02*
X156053905Y-69102461D01*
X155244381Y-70197700D02*
X155339619Y-70245319D01*
X155339619Y-70245319D02*
X155530095Y-70245319D01*
X155530095Y-70245319D02*
X155625333Y-70197700D01*
X155625333Y-70197700D02*
X155672952Y-70150080D01*
X155672952Y-70150080D02*
X155720571Y-70054842D01*
X155720571Y-70054842D02*
X155720571Y-69769128D01*
X155720571Y-69769128D02*
X155672952Y-69673890D01*
X155672952Y-69673890D02*
X155625333Y-69626271D01*
X155625333Y-69626271D02*
X155530095Y-69578652D01*
X155530095Y-69578652D02*
X155339619Y-69578652D01*
X155339619Y-69578652D02*
X155244381Y-69626271D01*
X154911047Y-70626271D02*
X154863428Y-70578652D01*
X154863428Y-70578652D02*
X154768190Y-70435795D01*
X154768190Y-70435795D02*
X154720571Y-70340557D01*
X154720571Y-70340557D02*
X154672952Y-70197700D01*
X154672952Y-70197700D02*
X154625333Y-69959604D01*
X154625333Y-69959604D02*
X154625333Y-69769128D01*
X154625333Y-69769128D02*
X154672952Y-69531033D01*
X154672952Y-69531033D02*
X154720571Y-69388176D01*
X154720571Y-69388176D02*
X154768190Y-69292938D01*
X154768190Y-69292938D02*
X154863428Y-69150080D01*
X154863428Y-69150080D02*
X154911047Y-69102461D01*
X153434856Y-70197700D02*
X153291999Y-70245319D01*
X153291999Y-70245319D02*
X153053904Y-70245319D01*
X153053904Y-70245319D02*
X152958666Y-70197700D01*
X152958666Y-70197700D02*
X152911047Y-70150080D01*
X152911047Y-70150080D02*
X152863428Y-70054842D01*
X152863428Y-70054842D02*
X152863428Y-69959604D01*
X152863428Y-69959604D02*
X152911047Y-69864366D01*
X152911047Y-69864366D02*
X152958666Y-69816747D01*
X152958666Y-69816747D02*
X153053904Y-69769128D01*
X153053904Y-69769128D02*
X153244380Y-69721509D01*
X153244380Y-69721509D02*
X153339618Y-69673890D01*
X153339618Y-69673890D02*
X153387237Y-69626271D01*
X153387237Y-69626271D02*
X153434856Y-69531033D01*
X153434856Y-69531033D02*
X153434856Y-69435795D01*
X153434856Y-69435795D02*
X153387237Y-69340557D01*
X153387237Y-69340557D02*
X153339618Y-69292938D01*
X153339618Y-69292938D02*
X153244380Y-69245319D01*
X153244380Y-69245319D02*
X153006285Y-69245319D01*
X153006285Y-69245319D02*
X152863428Y-69292938D01*
X152434856Y-70150080D02*
X152387237Y-70197700D01*
X152387237Y-70197700D02*
X152434856Y-70245319D01*
X152434856Y-70245319D02*
X152482475Y-70197700D01*
X152482475Y-70197700D02*
X152434856Y-70150080D01*
X152434856Y-70150080D02*
X152434856Y-70245319D01*
X151387238Y-70245319D02*
X151720571Y-69769128D01*
X151958666Y-70245319D02*
X151958666Y-69245319D01*
X151958666Y-69245319D02*
X151577714Y-69245319D01*
X151577714Y-69245319D02*
X151482476Y-69292938D01*
X151482476Y-69292938D02*
X151434857Y-69340557D01*
X151434857Y-69340557D02*
X151387238Y-69435795D01*
X151387238Y-69435795D02*
X151387238Y-69578652D01*
X151387238Y-69578652D02*
X151434857Y-69673890D01*
X151434857Y-69673890D02*
X151482476Y-69721509D01*
X151482476Y-69721509D02*
X151577714Y-69769128D01*
X151577714Y-69769128D02*
X151958666Y-69769128D01*
X150958666Y-70150080D02*
X150911047Y-70197700D01*
X150911047Y-70197700D02*
X150958666Y-70245319D01*
X150958666Y-70245319D02*
X151006285Y-70197700D01*
X151006285Y-70197700D02*
X150958666Y-70150080D01*
X150958666Y-70150080D02*
X150958666Y-70245319D01*
X150482476Y-69245319D02*
X150482476Y-70054842D01*
X150482476Y-70054842D02*
X150434857Y-70150080D01*
X150434857Y-70150080D02*
X150387238Y-70197700D01*
X150387238Y-70197700D02*
X150292000Y-70245319D01*
X150292000Y-70245319D02*
X150101524Y-70245319D01*
X150101524Y-70245319D02*
X150006286Y-70197700D01*
X150006286Y-70197700D02*
X149958667Y-70150080D01*
X149958667Y-70150080D02*
X149911048Y-70054842D01*
X149911048Y-70054842D02*
X149911048Y-69245319D01*
X149482476Y-70197700D02*
X149387238Y-70245319D01*
X149387238Y-70245319D02*
X149196762Y-70245319D01*
X149196762Y-70245319D02*
X149101524Y-70197700D01*
X149101524Y-70197700D02*
X149053905Y-70102461D01*
X149053905Y-70102461D02*
X149053905Y-70054842D01*
X149053905Y-70054842D02*
X149101524Y-69959604D01*
X149101524Y-69959604D02*
X149196762Y-69911985D01*
X149196762Y-69911985D02*
X149339619Y-69911985D01*
X149339619Y-69911985D02*
X149434857Y-69864366D01*
X149434857Y-69864366D02*
X149482476Y-69769128D01*
X149482476Y-69769128D02*
X149482476Y-69721509D01*
X149482476Y-69721509D02*
X149434857Y-69626271D01*
X149434857Y-69626271D02*
X149339619Y-69578652D01*
X149339619Y-69578652D02*
X149196762Y-69578652D01*
X149196762Y-69578652D02*
X149101524Y-69626271D01*
X148625333Y-70245319D02*
X148625333Y-69245319D01*
X148196762Y-70245319D02*
X148196762Y-69721509D01*
X148196762Y-69721509D02*
X148244381Y-69626271D01*
X148244381Y-69626271D02*
X148339619Y-69578652D01*
X148339619Y-69578652D02*
X148482476Y-69578652D01*
X148482476Y-69578652D02*
X148577714Y-69626271D01*
X148577714Y-69626271D02*
X148625333Y-69673890D01*
X147339619Y-70197700D02*
X147434857Y-70245319D01*
X147434857Y-70245319D02*
X147625333Y-70245319D01*
X147625333Y-70245319D02*
X147720571Y-70197700D01*
X147720571Y-70197700D02*
X147768190Y-70102461D01*
X147768190Y-70102461D02*
X147768190Y-69721509D01*
X147768190Y-69721509D02*
X147720571Y-69626271D01*
X147720571Y-69626271D02*
X147625333Y-69578652D01*
X147625333Y-69578652D02*
X147434857Y-69578652D01*
X147434857Y-69578652D02*
X147339619Y-69626271D01*
X147339619Y-69626271D02*
X147292000Y-69721509D01*
X147292000Y-69721509D02*
X147292000Y-69816747D01*
X147292000Y-69816747D02*
X147768190Y-69911985D01*
X146863428Y-70245319D02*
X146863428Y-69578652D01*
X146863428Y-69769128D02*
X146815809Y-69673890D01*
X146815809Y-69673890D02*
X146768190Y-69626271D01*
X146768190Y-69626271D02*
X146672952Y-69578652D01*
X146672952Y-69578652D02*
X146577714Y-69578652D01*
X145530094Y-69340557D02*
X145482475Y-69292938D01*
X145482475Y-69292938D02*
X145387237Y-69245319D01*
X145387237Y-69245319D02*
X145149142Y-69245319D01*
X145149142Y-69245319D02*
X145053904Y-69292938D01*
X145053904Y-69292938D02*
X145006285Y-69340557D01*
X145006285Y-69340557D02*
X144958666Y-69435795D01*
X144958666Y-69435795D02*
X144958666Y-69531033D01*
X144958666Y-69531033D02*
X145006285Y-69673890D01*
X145006285Y-69673890D02*
X145577713Y-70245319D01*
X145577713Y-70245319D02*
X144958666Y-70245319D01*
X144339618Y-69245319D02*
X144244380Y-69245319D01*
X144244380Y-69245319D02*
X144149142Y-69292938D01*
X144149142Y-69292938D02*
X144101523Y-69340557D01*
X144101523Y-69340557D02*
X144053904Y-69435795D01*
X144053904Y-69435795D02*
X144006285Y-69626271D01*
X144006285Y-69626271D02*
X144006285Y-69864366D01*
X144006285Y-69864366D02*
X144053904Y-70054842D01*
X144053904Y-70054842D02*
X144101523Y-70150080D01*
X144101523Y-70150080D02*
X144149142Y-70197700D01*
X144149142Y-70197700D02*
X144244380Y-70245319D01*
X144244380Y-70245319D02*
X144339618Y-70245319D01*
X144339618Y-70245319D02*
X144434856Y-70197700D01*
X144434856Y-70197700D02*
X144482475Y-70150080D01*
X144482475Y-70150080D02*
X144530094Y-70054842D01*
X144530094Y-70054842D02*
X144577713Y-69864366D01*
X144577713Y-69864366D02*
X144577713Y-69626271D01*
X144577713Y-69626271D02*
X144530094Y-69435795D01*
X144530094Y-69435795D02*
X144482475Y-69340557D01*
X144482475Y-69340557D02*
X144434856Y-69292938D01*
X144434856Y-69292938D02*
X144339618Y-69245319D01*
X143625332Y-69340557D02*
X143577713Y-69292938D01*
X143577713Y-69292938D02*
X143482475Y-69245319D01*
X143482475Y-69245319D02*
X143244380Y-69245319D01*
X143244380Y-69245319D02*
X143149142Y-69292938D01*
X143149142Y-69292938D02*
X143101523Y-69340557D01*
X143101523Y-69340557D02*
X143053904Y-69435795D01*
X143053904Y-69435795D02*
X143053904Y-69531033D01*
X143053904Y-69531033D02*
X143101523Y-69673890D01*
X143101523Y-69673890D02*
X143672951Y-70245319D01*
X143672951Y-70245319D02*
X143053904Y-70245319D01*
X142196761Y-69578652D02*
X142196761Y-70245319D01*
X142434856Y-69197700D02*
X142672951Y-69911985D01*
X142672951Y-69911985D02*
X142053904Y-69911985D01*
X140958666Y-69197700D02*
X141815808Y-70483414D01*
X140434856Y-69245319D02*
X140339618Y-69245319D01*
X140339618Y-69245319D02*
X140244380Y-69292938D01*
X140244380Y-69292938D02*
X140196761Y-69340557D01*
X140196761Y-69340557D02*
X140149142Y-69435795D01*
X140149142Y-69435795D02*
X140101523Y-69626271D01*
X140101523Y-69626271D02*
X140101523Y-69864366D01*
X140101523Y-69864366D02*
X140149142Y-70054842D01*
X140149142Y-70054842D02*
X140196761Y-70150080D01*
X140196761Y-70150080D02*
X140244380Y-70197700D01*
X140244380Y-70197700D02*
X140339618Y-70245319D01*
X140339618Y-70245319D02*
X140434856Y-70245319D01*
X140434856Y-70245319D02*
X140530094Y-70197700D01*
X140530094Y-70197700D02*
X140577713Y-70150080D01*
X140577713Y-70150080D02*
X140625332Y-70054842D01*
X140625332Y-70054842D02*
X140672951Y-69864366D01*
X140672951Y-69864366D02*
X140672951Y-69626271D01*
X140672951Y-69626271D02*
X140625332Y-69435795D01*
X140625332Y-69435795D02*
X140577713Y-69340557D01*
X140577713Y-69340557D02*
X140530094Y-69292938D01*
X140530094Y-69292938D02*
X140434856Y-69245319D01*
X139768189Y-69245319D02*
X139149142Y-69245319D01*
X139149142Y-69245319D02*
X139482475Y-69626271D01*
X139482475Y-69626271D02*
X139339618Y-69626271D01*
X139339618Y-69626271D02*
X139244380Y-69673890D01*
X139244380Y-69673890D02*
X139196761Y-69721509D01*
X139196761Y-69721509D02*
X139149142Y-69816747D01*
X139149142Y-69816747D02*
X139149142Y-70054842D01*
X139149142Y-70054842D02*
X139196761Y-70150080D01*
X139196761Y-70150080D02*
X139244380Y-70197700D01*
X139244380Y-70197700D02*
X139339618Y-70245319D01*
X139339618Y-70245319D02*
X139625332Y-70245319D01*
X139625332Y-70245319D02*
X139720570Y-70197700D01*
X139720570Y-70197700D02*
X139768189Y-70150080D01*
X138006285Y-69197700D02*
X138863427Y-70483414D01*
X137768189Y-69245319D02*
X137149142Y-69245319D01*
X137149142Y-69245319D02*
X137482475Y-69626271D01*
X137482475Y-69626271D02*
X137339618Y-69626271D01*
X137339618Y-69626271D02*
X137244380Y-69673890D01*
X137244380Y-69673890D02*
X137196761Y-69721509D01*
X137196761Y-69721509D02*
X137149142Y-69816747D01*
X137149142Y-69816747D02*
X137149142Y-70054842D01*
X137149142Y-70054842D02*
X137196761Y-70150080D01*
X137196761Y-70150080D02*
X137244380Y-70197700D01*
X137244380Y-70197700D02*
X137339618Y-70245319D01*
X137339618Y-70245319D02*
X137625332Y-70245319D01*
X137625332Y-70245319D02*
X137720570Y-70197700D01*
X137720570Y-70197700D02*
X137768189Y-70150080D01*
X136196761Y-70245319D02*
X136768189Y-70245319D01*
X136482475Y-70245319D02*
X136482475Y-69245319D01*
X136482475Y-69245319D02*
X136577713Y-69388176D01*
X136577713Y-69388176D02*
X136672951Y-69483414D01*
X136672951Y-69483414D02*
X136768189Y-69531033D01*
X87706285Y-64530319D02*
X88277713Y-64530319D01*
X87991999Y-64530319D02*
X87991999Y-63530319D01*
X87991999Y-63530319D02*
X88087237Y-63673176D01*
X88087237Y-63673176D02*
X88182475Y-63768414D01*
X88182475Y-63768414D02*
X88277713Y-63816033D01*
X153344166Y-102490680D02*
X153391785Y-102538300D01*
X153391785Y-102538300D02*
X153534642Y-102585919D01*
X153534642Y-102585919D02*
X153629880Y-102585919D01*
X153629880Y-102585919D02*
X153772737Y-102538300D01*
X153772737Y-102538300D02*
X153867975Y-102443061D01*
X153867975Y-102443061D02*
X153915594Y-102347823D01*
X153915594Y-102347823D02*
X153963213Y-102157347D01*
X153963213Y-102157347D02*
X153963213Y-102014490D01*
X153963213Y-102014490D02*
X153915594Y-101824014D01*
X153915594Y-101824014D02*
X153867975Y-101728776D01*
X153867975Y-101728776D02*
X153772737Y-101633538D01*
X153772737Y-101633538D02*
X153629880Y-101585919D01*
X153629880Y-101585919D02*
X153534642Y-101585919D01*
X153534642Y-101585919D02*
X153391785Y-101633538D01*
X153391785Y-101633538D02*
X153344166Y-101681157D01*
X152963213Y-101681157D02*
X152915594Y-101633538D01*
X152915594Y-101633538D02*
X152820356Y-101585919D01*
X152820356Y-101585919D02*
X152582261Y-101585919D01*
X152582261Y-101585919D02*
X152487023Y-101633538D01*
X152487023Y-101633538D02*
X152439404Y-101681157D01*
X152439404Y-101681157D02*
X152391785Y-101776395D01*
X152391785Y-101776395D02*
X152391785Y-101871633D01*
X152391785Y-101871633D02*
X152439404Y-102014490D01*
X152439404Y-102014490D02*
X153010832Y-102585919D01*
X153010832Y-102585919D02*
X152391785Y-102585919D01*
X123417866Y-102256280D02*
X123465485Y-102303900D01*
X123465485Y-102303900D02*
X123608342Y-102351519D01*
X123608342Y-102351519D02*
X123703580Y-102351519D01*
X123703580Y-102351519D02*
X123846437Y-102303900D01*
X123846437Y-102303900D02*
X123941675Y-102208661D01*
X123941675Y-102208661D02*
X123989294Y-102113423D01*
X123989294Y-102113423D02*
X124036913Y-101922947D01*
X124036913Y-101922947D02*
X124036913Y-101780090D01*
X124036913Y-101780090D02*
X123989294Y-101589614D01*
X123989294Y-101589614D02*
X123941675Y-101494376D01*
X123941675Y-101494376D02*
X123846437Y-101399138D01*
X123846437Y-101399138D02*
X123703580Y-101351519D01*
X123703580Y-101351519D02*
X123608342Y-101351519D01*
X123608342Y-101351519D02*
X123465485Y-101399138D01*
X123465485Y-101399138D02*
X123417866Y-101446757D01*
X123084532Y-101351519D02*
X122417866Y-101351519D01*
X122417866Y-101351519D02*
X122846437Y-102351519D01*
X184007366Y-102347680D02*
X184054985Y-102395300D01*
X184054985Y-102395300D02*
X184197842Y-102442919D01*
X184197842Y-102442919D02*
X184293080Y-102442919D01*
X184293080Y-102442919D02*
X184435937Y-102395300D01*
X184435937Y-102395300D02*
X184531175Y-102300061D01*
X184531175Y-102300061D02*
X184578794Y-102204823D01*
X184578794Y-102204823D02*
X184626413Y-102014347D01*
X184626413Y-102014347D02*
X184626413Y-101871490D01*
X184626413Y-101871490D02*
X184578794Y-101681014D01*
X184578794Y-101681014D02*
X184531175Y-101585776D01*
X184531175Y-101585776D02*
X184435937Y-101490538D01*
X184435937Y-101490538D02*
X184293080Y-101442919D01*
X184293080Y-101442919D02*
X184197842Y-101442919D01*
X184197842Y-101442919D02*
X184054985Y-101490538D01*
X184054985Y-101490538D02*
X184007366Y-101538157D01*
X183435937Y-101871490D02*
X183531175Y-101823871D01*
X183531175Y-101823871D02*
X183578794Y-101776252D01*
X183578794Y-101776252D02*
X183626413Y-101681014D01*
X183626413Y-101681014D02*
X183626413Y-101633395D01*
X183626413Y-101633395D02*
X183578794Y-101538157D01*
X183578794Y-101538157D02*
X183531175Y-101490538D01*
X183531175Y-101490538D02*
X183435937Y-101442919D01*
X183435937Y-101442919D02*
X183245461Y-101442919D01*
X183245461Y-101442919D02*
X183150223Y-101490538D01*
X183150223Y-101490538D02*
X183102604Y-101538157D01*
X183102604Y-101538157D02*
X183054985Y-101633395D01*
X183054985Y-101633395D02*
X183054985Y-101681014D01*
X183054985Y-101681014D02*
X183102604Y-101776252D01*
X183102604Y-101776252D02*
X183150223Y-101823871D01*
X183150223Y-101823871D02*
X183245461Y-101871490D01*
X183245461Y-101871490D02*
X183435937Y-101871490D01*
X183435937Y-101871490D02*
X183531175Y-101919109D01*
X183531175Y-101919109D02*
X183578794Y-101966728D01*
X183578794Y-101966728D02*
X183626413Y-102061966D01*
X183626413Y-102061966D02*
X183626413Y-102252442D01*
X183626413Y-102252442D02*
X183578794Y-102347680D01*
X183578794Y-102347680D02*
X183531175Y-102395300D01*
X183531175Y-102395300D02*
X183435937Y-102442919D01*
X183435937Y-102442919D02*
X183245461Y-102442919D01*
X183245461Y-102442919D02*
X183150223Y-102395300D01*
X183150223Y-102395300D02*
X183102604Y-102347680D01*
X183102604Y-102347680D02*
X183054985Y-102252442D01*
X183054985Y-102252442D02*
X183054985Y-102061966D01*
X183054985Y-102061966D02*
X183102604Y-101966728D01*
X183102604Y-101966728D02*
X183150223Y-101919109D01*
X183150223Y-101919109D02*
X183245461Y-101871490D01*
X203637380Y-72316833D02*
X203685000Y-72269214D01*
X203685000Y-72269214D02*
X203732619Y-72126357D01*
X203732619Y-72126357D02*
X203732619Y-72031119D01*
X203732619Y-72031119D02*
X203685000Y-71888262D01*
X203685000Y-71888262D02*
X203589761Y-71793024D01*
X203589761Y-71793024D02*
X203494523Y-71745405D01*
X203494523Y-71745405D02*
X203304047Y-71697786D01*
X203304047Y-71697786D02*
X203161190Y-71697786D01*
X203161190Y-71697786D02*
X202970714Y-71745405D01*
X202970714Y-71745405D02*
X202875476Y-71793024D01*
X202875476Y-71793024D02*
X202780238Y-71888262D01*
X202780238Y-71888262D02*
X202732619Y-72031119D01*
X202732619Y-72031119D02*
X202732619Y-72126357D01*
X202732619Y-72126357D02*
X202780238Y-72269214D01*
X202780238Y-72269214D02*
X202827857Y-72316833D01*
X203732619Y-72793024D02*
X203732619Y-72983500D01*
X203732619Y-72983500D02*
X203685000Y-73078738D01*
X203685000Y-73078738D02*
X203637380Y-73126357D01*
X203637380Y-73126357D02*
X203494523Y-73221595D01*
X203494523Y-73221595D02*
X203304047Y-73269214D01*
X203304047Y-73269214D02*
X202923095Y-73269214D01*
X202923095Y-73269214D02*
X202827857Y-73221595D01*
X202827857Y-73221595D02*
X202780238Y-73173976D01*
X202780238Y-73173976D02*
X202732619Y-73078738D01*
X202732619Y-73078738D02*
X202732619Y-72888262D01*
X202732619Y-72888262D02*
X202780238Y-72793024D01*
X202780238Y-72793024D02*
X202827857Y-72745405D01*
X202827857Y-72745405D02*
X202923095Y-72697786D01*
X202923095Y-72697786D02*
X203161190Y-72697786D01*
X203161190Y-72697786D02*
X203256428Y-72745405D01*
X203256428Y-72745405D02*
X203304047Y-72793024D01*
X203304047Y-72793024D02*
X203351666Y-72888262D01*
X203351666Y-72888262D02*
X203351666Y-73078738D01*
X203351666Y-73078738D02*
X203304047Y-73173976D01*
X203304047Y-73173976D02*
X203256428Y-73221595D01*
X203256428Y-73221595D02*
X203161190Y-73269214D01*
X213565757Y-102494080D02*
X213613376Y-102541700D01*
X213613376Y-102541700D02*
X213756233Y-102589319D01*
X213756233Y-102589319D02*
X213851471Y-102589319D01*
X213851471Y-102589319D02*
X213994328Y-102541700D01*
X213994328Y-102541700D02*
X214089566Y-102446461D01*
X214089566Y-102446461D02*
X214137185Y-102351223D01*
X214137185Y-102351223D02*
X214184804Y-102160747D01*
X214184804Y-102160747D02*
X214184804Y-102017890D01*
X214184804Y-102017890D02*
X214137185Y-101827414D01*
X214137185Y-101827414D02*
X214089566Y-101732176D01*
X214089566Y-101732176D02*
X213994328Y-101636938D01*
X213994328Y-101636938D02*
X213851471Y-101589319D01*
X213851471Y-101589319D02*
X213756233Y-101589319D01*
X213756233Y-101589319D02*
X213613376Y-101636938D01*
X213613376Y-101636938D02*
X213565757Y-101684557D01*
X212613376Y-102589319D02*
X213184804Y-102589319D01*
X212899090Y-102589319D02*
X212899090Y-101589319D01*
X212899090Y-101589319D02*
X212994328Y-101732176D01*
X212994328Y-101732176D02*
X213089566Y-101827414D01*
X213089566Y-101827414D02*
X213184804Y-101875033D01*
X211994328Y-101589319D02*
X211899090Y-101589319D01*
X211899090Y-101589319D02*
X211803852Y-101636938D01*
X211803852Y-101636938D02*
X211756233Y-101684557D01*
X211756233Y-101684557D02*
X211708614Y-101779795D01*
X211708614Y-101779795D02*
X211660995Y-101970271D01*
X211660995Y-101970271D02*
X211660995Y-102208366D01*
X211660995Y-102208366D02*
X211708614Y-102398842D01*
X211708614Y-102398842D02*
X211756233Y-102494080D01*
X211756233Y-102494080D02*
X211803852Y-102541700D01*
X211803852Y-102541700D02*
X211899090Y-102589319D01*
X211899090Y-102589319D02*
X211994328Y-102589319D01*
X211994328Y-102589319D02*
X212089566Y-102541700D01*
X212089566Y-102541700D02*
X212137185Y-102494080D01*
X212137185Y-102494080D02*
X212184804Y-102398842D01*
X212184804Y-102398842D02*
X212232423Y-102208366D01*
X212232423Y-102208366D02*
X212232423Y-101970271D01*
X212232423Y-101970271D02*
X212184804Y-101779795D01*
X212184804Y-101779795D02*
X212137185Y-101684557D01*
X212137185Y-101684557D02*
X212089566Y-101636938D01*
X212089566Y-101636938D02*
X211994328Y-101589319D01*
X174870557Y-84112980D02*
X174918176Y-84160600D01*
X174918176Y-84160600D02*
X175061033Y-84208219D01*
X175061033Y-84208219D02*
X175156271Y-84208219D01*
X175156271Y-84208219D02*
X175299128Y-84160600D01*
X175299128Y-84160600D02*
X175394366Y-84065361D01*
X175394366Y-84065361D02*
X175441985Y-83970123D01*
X175441985Y-83970123D02*
X175489604Y-83779647D01*
X175489604Y-83779647D02*
X175489604Y-83636790D01*
X175489604Y-83636790D02*
X175441985Y-83446314D01*
X175441985Y-83446314D02*
X175394366Y-83351076D01*
X175394366Y-83351076D02*
X175299128Y-83255838D01*
X175299128Y-83255838D02*
X175156271Y-83208219D01*
X175156271Y-83208219D02*
X175061033Y-83208219D01*
X175061033Y-83208219D02*
X174918176Y-83255838D01*
X174918176Y-83255838D02*
X174870557Y-83303457D01*
X173918176Y-84208219D02*
X174489604Y-84208219D01*
X174203890Y-84208219D02*
X174203890Y-83208219D01*
X174203890Y-83208219D02*
X174299128Y-83351076D01*
X174299128Y-83351076D02*
X174394366Y-83446314D01*
X174394366Y-83446314D02*
X174489604Y-83493933D01*
X172965795Y-84208219D02*
X173537223Y-84208219D01*
X173251509Y-84208219D02*
X173251509Y-83208219D01*
X173251509Y-83208219D02*
X173346747Y-83351076D01*
X173346747Y-83351076D02*
X173441985Y-83446314D01*
X173441985Y-83446314D02*
X173537223Y-83493933D01*
X173451380Y-53487633D02*
X173499000Y-53440014D01*
X173499000Y-53440014D02*
X173546619Y-53297157D01*
X173546619Y-53297157D02*
X173546619Y-53201919D01*
X173546619Y-53201919D02*
X173499000Y-53059062D01*
X173499000Y-53059062D02*
X173403761Y-52963824D01*
X173403761Y-52963824D02*
X173308523Y-52916205D01*
X173308523Y-52916205D02*
X173118047Y-52868586D01*
X173118047Y-52868586D02*
X172975190Y-52868586D01*
X172975190Y-52868586D02*
X172784714Y-52916205D01*
X172784714Y-52916205D02*
X172689476Y-52963824D01*
X172689476Y-52963824D02*
X172594238Y-53059062D01*
X172594238Y-53059062D02*
X172546619Y-53201919D01*
X172546619Y-53201919D02*
X172546619Y-53297157D01*
X172546619Y-53297157D02*
X172594238Y-53440014D01*
X172594238Y-53440014D02*
X172641857Y-53487633D01*
X173546619Y-54440014D02*
X173546619Y-53868586D01*
X173546619Y-54154300D02*
X172546619Y-54154300D01*
X172546619Y-54154300D02*
X172689476Y-54059062D01*
X172689476Y-54059062D02*
X172784714Y-53963824D01*
X172784714Y-53963824D02*
X172832333Y-53868586D01*
D11*
%TO.C,C2*%
X153438752Y-103076100D02*
X152916248Y-103076100D01*
X153438752Y-104546100D02*
X152916248Y-104546100D01*
%TO.C,C7*%
X123512452Y-102841700D02*
X122989948Y-102841700D01*
X123512452Y-104311700D02*
X122989948Y-104311700D01*
%TO.C,C8*%
X184101952Y-102933100D02*
X183579448Y-102933100D01*
X184101952Y-104403100D02*
X183579448Y-104403100D01*
%TO.C,C9*%
X200862800Y-72744752D02*
X200862800Y-72222248D01*
X202332800Y-72744752D02*
X202332800Y-72222248D01*
%TO.C,C10*%
X213184152Y-103079500D02*
X212661648Y-103079500D01*
X213184152Y-104549500D02*
X212661648Y-104549500D01*
%TO.C,C11*%
X174488952Y-84698400D02*
X173966448Y-84698400D01*
X174488952Y-86168400D02*
X173966448Y-86168400D01*
%TO.C,C1*%
X174036800Y-53393048D02*
X174036800Y-53915552D01*
X175506800Y-53393048D02*
X175506800Y-53915552D01*
%TD*%
M02*
