  0
SECTION
  2
HEADER
  9
$ANGBASE
  50
0.0
  9
$ANGDIR
  70
1
  9
$MEASUREMENT
  70
1
  0
ENDSEC
  0
SECTION
  2
TABLES
  0
TABLE
  2
LTYPE
  70
4
  0
LTYPE
  5
40F
  2
CONTINUOUS
  70
0
  3
Solid line
  72
65
  73
0
  40
0.0
  0
LTYPE
  5
410
  2
DASHDOT
 70
0
  3
Dash Dot ____ _ ____ _
 72
65
 73
4
 40
2.0
 49
1.25
 49
-0.25
 49
0.25
 49
-0.25
  0
LTYPE
  5
411
  2
DASHED
 70
0
  3
Dashed __ __ __ __ __
 72
65
 73
2
 40
0.75
 49
0.5
 49
-0.25
  0
LTYPE
  5
43B
  2
DOTTED
 70
0
  3
Dotted .  .  .  .
 72
65
 73
2
 40
0.2
 49
0.0
 49
-0.2
  0
ENDTAB
  0
TABLE
  2
STYLE
  70
4
  0
STYLE
  2
KICAD
  70
0
  40
0
  41
1
  42
1
  50
0
  71
0
  3
isocp.shx
  0
STYLE
  2
KICADB
  70
0
  40
0
  41
1
  42
1
  50
0
  71
0
  3
isocp.shx
  0
STYLE
  2
KICADI
  70
0
  40
0
  41
1
  42
1
  50
15
  71
0
  3
isocp.shx
  0
STYLE
  2
KICADBI
  70
0
  40
0
  41
1
  42
1
  50
15
  71
0
  3
isocp.shx
  0
ENDTAB
  0
TABLE
  2
LAYER
  70
1
  0
LAYER
  2
BLACK
  70
0
  62
7
  6
CONTINUOUS
  0
ENDTAB
  0
ENDSEC
  0
SECTION
  2
ENTITIES
0
LINE
8
BLACK
6
CONTINUOUS
10
94.2920000000000016
20
-118.1754999999999995
11
218.3919999999999959
21
-118.1754999999999995
0
LINE
8
BLACK
6
CONTINUOUS
10
218.36957799999999
20
-45.5920470000000009
11
94.2920000000000016
21
-45.5754999999999981
0
LINE
8
BLACK
6
CONTINUOUS
10
94.2920000000000016
20
-45.5754999999999981
11
94.2920000000000016
21
-118.1754999999999995
0
LINE
8
BLACK
6
CONTINUOUS
10
218.3919999999999959
20
-118.1754999999999995
11
218.36957799999999
21
-45.5920470000000009
0
LINE
8
BLACK
6
CONTINUOUS
10
125.4669999999999987
20
-114.1504999999999939
11
128.3170000000000073
21
-117.0004999999999882
0
LINE
8
BLACK
6
CONTINUOUS
10
128.3170000000000073
20
-114.1504999999999939
11
125.4669999999999987
21
-117.0004999999999882
0
LINE
8
BLACK
6
CONTINUOUS
10
214.3669999999999902
20
-114.1504999999999939
11
217.2169999999999845
21
-117.0004999999999882
0
LINE
8
BLACK
6
CONTINUOUS
10
217.2169999999999845
20
-114.1504999999999939
11
214.3669999999999902
21
-117.0004999999999882
0
LINE
8
BLACK
6
CONTINUOUS
10
96.8747679999999889
20
-121.315337999999997
11
96.8747679999999889
21
-119.315337999999997
0
LINE
8
BLACK
6
CONTINUOUS
10
96.8747679999999889
20
-119.315337999999997
11
97.3509579999999914
21
-119.315337999999997
0
LINE
8
BLACK
6
CONTINUOUS
10
97.3509579999999914
20
-119.315337999999997
11
97.6366730000000018
21
-119.4105759999999918
0
LINE
8
BLACK
6
CONTINUOUS
10
97.6366730000000018
20
-119.4105759999999918
11
97.8271489999999915
21
-119.6010519999999957
0
LINE
8
BLACK
6
CONTINUOUS
10
97.8271489999999915
20
-119.6010519999999957
11
97.9223870000000005
21
-119.7915279999999996
0
LINE
8
BLACK
6
CONTINUOUS
10
97.9223870000000005
20
-119.7915279999999996
11
98.0176249999999953
21
-120.1724799999999931
0
LINE
8
BLACK
6
CONTINUOUS
10
98.0176249999999953
20
-120.1724799999999931
11
98.0176249999999953
21
-120.4581949999999892
0
LINE
8
BLACK
6
CONTINUOUS
10
98.0176249999999953
20
-120.4581949999999892
11
97.9223870000000005
21
-120.839146999999997
0
LINE
8
BLACK
6
CONTINUOUS
10
97.9223870000000005
20
-120.839146999999997
11
97.8271489999999915
21
-121.0296230000000008
0
LINE
8
BLACK
6
CONTINUOUS
10
97.8271489999999915
20
-121.0296230000000008
11
97.6366730000000018
21
-121.220099999999988
0
LINE
8
BLACK
6
CONTINUOUS
10
97.6366730000000018
20
-121.220099999999988
11
97.3509579999999914
21
-121.315337999999997
0
LINE
8
BLACK
6
CONTINUOUS
10
97.3509579999999914
20
-121.315337999999997
11
96.8747679999999889
21
-121.315337999999997
0
LINE
8
BLACK
6
CONTINUOUS
10
98.8747679999999889
20
-121.315337999999997
11
98.8747679999999889
21
-119.9820039999999892
0
LINE
8
BLACK
6
CONTINUOUS
10
98.8747679999999889
20
-120.3629569999999944
11
98.9700059999999979
21
-120.1724799999999931
0
LINE
8
BLACK
6
CONTINUOUS
10
98.9700059999999979
20
-120.1724799999999931
11
99.0652439999999928
21
-120.0772419999999983
0
LINE
8
BLACK
6
CONTINUOUS
10
99.0652439999999928
20
-120.0772419999999983
11
99.2557199999999966
21
-119.9820039999999892
0
LINE
8
BLACK
6
CONTINUOUS
10
99.2557199999999966
20
-119.9820039999999892
11
99.446196999999998
21
-119.9820039999999892
0
LINE
8
BLACK
6
CONTINUOUS
10
100.1128629999999902
20
-121.315337999999997
11
100.1128629999999902
21
-119.9820039999999892
0
LINE
8
BLACK
6
CONTINUOUS
10
100.1128629999999902
20
-119.315337999999997
11
100.0176249999999953
21
-119.4105759999999918
0
LINE
8
BLACK
6
CONTINUOUS
10
100.0176249999999953
20
-119.4105759999999918
11
100.1128629999999902
21
-119.5058140000000009
0
LINE
8
BLACK
6
CONTINUOUS
10
100.1128629999999902
20
-119.5058140000000009
11
100.2081009999999992
21
-119.4105759999999918
0
LINE
8
BLACK
6
CONTINUOUS
10
100.2081009999999992
20
-119.4105759999999918
11
100.1128629999999902
21
-119.315337999999997
0
LINE
8
BLACK
6
CONTINUOUS
10
100.1128629999999902
20
-119.315337999999997
11
100.1128629999999902
21
-119.5058140000000009
0
LINE
8
BLACK
6
CONTINUOUS
10
101.3509579999999914
20
-121.315337999999997
11
101.1604820000000018
21
-121.220099999999988
0
LINE
8
BLACK
6
CONTINUOUS
10
101.1604820000000018
20
-121.220099999999988
11
101.0652439999999928
21
-121.0296230000000008
0
LINE
8
BLACK
6
CONTINUOUS
10
101.0652439999999928
20
-121.0296230000000008
11
101.0652439999999928
21
-119.315337999999997
0
LINE
8
BLACK
6
CONTINUOUS
10
102.3985769999999889
20
-121.315337999999997
11
102.2081009999999992
21
-121.220099999999988
0
LINE
8
BLACK
6
CONTINUOUS
10
102.2081009999999992
20
-121.220099999999988
11
102.1128629999999902
21
-121.0296230000000008
0
LINE
8
BLACK
6
CONTINUOUS
10
102.1128629999999902
20
-121.0296230000000008
11
102.1128629999999902
21
-119.315337999999997
0
LINE
8
BLACK
6
CONTINUOUS
10
104.6842919999999992
20
-121.315337999999997
11
104.6842919999999992
21
-119.315337999999997
0
LINE
8
BLACK
6
CONTINUOUS
10
104.6842919999999992
20
-119.315337999999997
11
105.3509589999999889
21
-120.7439089999999879
0
LINE
8
BLACK
6
CONTINUOUS
10
105.3509589999999889
20
-120.7439089999999879
11
106.0176249999999953
21
-119.315337999999997
0
LINE
8
BLACK
6
CONTINUOUS
10
106.0176249999999953
20
-119.315337999999997
11
106.0176249999999953
21
-121.315337999999997
0
LINE
8
BLACK
6
CONTINUOUS
10
107.8271489999999915
20
-121.315337999999997
11
107.8271489999999915
21
-120.2677189999999996
0
LINE
8
BLACK
6
CONTINUOUS
10
107.8271489999999915
20
-120.2677189999999996
11
107.7319109999999966
21
-120.0772419999999983
0
LINE
8
BLACK
6
CONTINUOUS
10
107.7319109999999966
20
-120.0772419999999983
11
107.5414349999999928
21
-119.9820039999999892
0
LINE
8
BLACK
6
CONTINUOUS
10
107.5414349999999928
20
-119.9820039999999892
11
107.1604820000000018
21
-119.9820039999999892
0
LINE
8
BLACK
6
CONTINUOUS
10
107.1604820000000018
20
-119.9820039999999892
11
106.9700059999999979
21
-120.0772419999999983
0
LINE
8
BLACK
6
CONTINUOUS
10
107.8271489999999915
20
-121.220099999999988
11
107.6366730000000018
21
-121.315337999999997
0
LINE
8
BLACK
6
CONTINUOUS
10
107.6366730000000018
20
-121.315337999999997
11
107.1604820000000018
21
-121.315337999999997
0
LINE
8
BLACK
6
CONTINUOUS
10
107.1604820000000018
20
-121.315337999999997
11
106.9700059999999979
21
-121.220099999999988
0
LINE
8
BLACK
6
CONTINUOUS
10
106.9700059999999979
20
-121.220099999999988
11
106.8747679999999889
21
-121.0296230000000008
0
LINE
8
BLACK
6
CONTINUOUS
10
106.8747679999999889
20
-121.0296230000000008
11
106.8747679999999889
21
-120.839146999999997
0
LINE
8
BLACK
6
CONTINUOUS
10
106.8747679999999889
20
-120.839146999999997
11
106.9700059999999979
21
-120.6486709999999931
0
LINE
8
BLACK
6
CONTINUOUS
10
106.9700059999999979
20
-120.6486709999999931
11
107.1604820000000018
21
-120.5534329999999983
0
LINE
8
BLACK
6
CONTINUOUS
10
107.1604820000000018
20
-120.5534329999999983
11
107.6366730000000018
21
-120.5534329999999983
0
LINE
8
BLACK
6
CONTINUOUS
10
107.6366730000000018
20
-120.5534329999999983
11
107.8271489999999915
21
-120.4581949999999892
0
LINE
8
BLACK
6
CONTINUOUS
10
108.7795299999999941
20
-119.9820039999999892
11
108.7795299999999941
21
-121.9820039999999892
0
LINE
8
BLACK
6
CONTINUOUS
10
108.7795299999999941
20
-120.0772419999999983
11
108.9700059999999979
21
-119.9820039999999892
0
LINE
8
BLACK
6
CONTINUOUS
10
108.9700059999999979
20
-119.9820039999999892
11
109.3509589999999889
21
-119.9820039999999892
0
LINE
8
BLACK
6
CONTINUOUS
10
109.3509589999999889
20
-119.9820039999999892
11
109.5414349999999928
21
-120.0772419999999983
0
LINE
8
BLACK
6
CONTINUOUS
10
109.5414349999999928
20
-120.0772419999999983
11
109.6366730000000018
21
-120.1724799999999931
0
LINE
8
BLACK
6
CONTINUOUS
10
109.6366730000000018
20
-120.1724799999999931
11
109.7319109999999966
21
-120.3629569999999944
0
LINE
8
BLACK
6
CONTINUOUS
10
109.7319109999999966
20
-120.3629569999999944
11
109.7319109999999966
21
-120.9343849999999918
0
LINE
8
BLACK
6
CONTINUOUS
10
109.7319109999999966
20
-120.9343849999999918
11
109.6366730000000018
21
-121.1248609999999957
0
LINE
8
BLACK
6
CONTINUOUS
10
109.6366730000000018
20
-121.1248609999999957
11
109.5414349999999928
21
-121.220099999999988
0
LINE
8
BLACK
6
CONTINUOUS
10
109.5414349999999928
20
-121.220099999999988
11
109.3509589999999889
21
-121.315337999999997
0
LINE
8
BLACK
6
CONTINUOUS
10
109.3509589999999889
20
-121.315337999999997
11
108.9700059999999979
21
-121.315337999999997
0
LINE
8
BLACK
6
CONTINUOUS
10
108.9700059999999979
20
-121.315337999999997
11
108.7795299999999941
21
-121.220099999999988
0
LINE
8
BLACK
6
CONTINUOUS
10
110.5890539999999902
20
-121.1248609999999957
11
110.6842919999999992
21
-121.220099999999988
0
LINE
8
BLACK
6
CONTINUOUS
10
110.6842919999999992
20
-121.220099999999988
11
110.5890539999999902
21
-121.315337999999997
0
LINE
8
BLACK
6
CONTINUOUS
10
110.5890539999999902
20
-121.315337999999997
11
110.4938159999999954
21
-121.220099999999988
0
LINE
8
BLACK
6
CONTINUOUS
10
110.4938159999999954
20
-121.220099999999988
11
110.5890539999999902
21
-121.1248609999999957
0
LINE
8
BLACK
6
CONTINUOUS
10
110.5890539999999902
20
-121.1248609999999957
11
110.5890539999999902
21
-121.315337999999997
0
LINE
8
BLACK
6
CONTINUOUS
10
110.5890539999999902
20
-120.0772419999999983
11
110.6842919999999992
21
-120.1724799999999931
0
LINE
8
BLACK
6
CONTINUOUS
10
110.6842919999999992
20
-120.1724799999999931
11
110.5890539999999902
21
-120.2677189999999996
0
LINE
8
BLACK
6
CONTINUOUS
10
110.5890539999999902
20
-120.2677189999999996
11
110.4938159999999954
21
-120.1724799999999931
0
LINE
8
BLACK
6
CONTINUOUS
10
110.4938159999999954
20
-120.1724799999999931
11
110.5890539999999902
21
-120.0772419999999983
0
LINE
8
BLACK
6
CONTINUOUS
10
110.5890539999999902
20
-120.0772419999999983
11
110.5890539999999902
21
-120.2677189999999996
0
LINE
8
BLACK
6
CONTINUOUS
10
92.2669999999999959
20
-123.6004999999999967
11
94.2669999999999959
21
-125.6004999999999967
0
LINE
8
BLACK
6
CONTINUOUS
10
94.2669999999999959
20
-123.6004999999999967
11
92.2669999999999959
21
-125.6004999999999967
0
LINE
8
BLACK
6
CONTINUOUS
10
96.7795299999999941
20
-123.7058139999999895
11
96.8747679999999889
21
-123.6105759999999947
0
LINE
8
BLACK
6
CONTINUOUS
10
96.8747679999999889
20
-123.6105759999999947
11
97.0652439999999928
21
-123.5153379999999999
0
LINE
8
BLACK
6
CONTINUOUS
10
97.0652439999999928
20
-123.5153379999999999
11
97.5414349999999928
21
-123.5153379999999999
0
LINE
8
BLACK
6
CONTINUOUS
10
97.5414349999999928
20
-123.5153379999999999
11
97.7319109999999966
21
-123.6105759999999947
0
LINE
8
BLACK
6
CONTINUOUS
10
97.7319109999999966
20
-123.6105759999999947
11
97.8271489999999915
21
-123.7058139999999895
0
LINE
8
BLACK
6
CONTINUOUS
10
97.8271489999999915
20
-123.7058139999999895
11
97.9223870000000005
21
-123.8962899999999934
0
LINE
8
BLACK
6
CONTINUOUS
10
97.9223870000000005
20
-123.8962899999999934
11
97.9223870000000005
21
-124.0867659999999972
0
LINE
8
BLACK
6
CONTINUOUS
10
97.9223870000000005
20
-124.0867659999999972
11
97.8271489999999915
21
-124.3724799999999959
0
LINE
8
BLACK
6
CONTINUOUS
10
97.8271489999999915
20
-124.3724799999999959
11
96.6842919999999992
21
-125.5153379999999999
0
LINE
8
BLACK
6
CONTINUOUS
10
96.6842919999999992
20
-125.5153379999999999
11
97.9223870000000005
21
-125.5153379999999999
0
LINE
8
BLACK
6
CONTINUOUS
10
98.7795299999999941
20
-125.3248609999999985
11
98.8747679999999889
21
-125.4200999999999908
0
LINE
8
BLACK
6
CONTINUOUS
10
98.8747679999999889
20
-125.4200999999999908
11
98.7795299999999941
21
-125.5153379999999999
0
LINE
8
BLACK
6
CONTINUOUS
10
98.7795299999999941
20
-125.5153379999999999
11
98.6842919999999992
21
-125.4200999999999908
0
LINE
8
BLACK
6
CONTINUOUS
10
98.6842919999999992
20
-125.4200999999999908
11
98.7795299999999941
21
-125.3248609999999985
0
LINE
8
BLACK
6
CONTINUOUS
10
98.7795299999999941
20
-125.3248609999999985
11
98.7795299999999941
21
-125.5153379999999999
0
LINE
8
BLACK
6
CONTINUOUS
10
100.0176249999999953
20
-124.3724799999999959
11
99.8271489999999915
21
-124.2772420000000011
0
LINE
8
BLACK
6
CONTINUOUS
10
99.8271489999999915
20
-124.2772420000000011
11
99.7319109999999966
21
-124.1820039999999921
0
LINE
8
BLACK
6
CONTINUOUS
10
99.7319109999999966
20
-124.1820039999999921
11
99.6366730000000018
21
-123.9915279999999882
0
LINE
8
BLACK
6
CONTINUOUS
10
99.6366730000000018
20
-123.9915279999999882
11
99.6366730000000018
21
-123.8962899999999934
0
LINE
8
BLACK
6
CONTINUOUS
10
99.6366730000000018
20
-123.8962899999999934
11
99.7319109999999966
21
-123.7058139999999895
0
LINE
8
BLACK
6
CONTINUOUS
10
99.7319109999999966
20
-123.7058139999999895
11
99.8271489999999915
21
-123.6105759999999947
0
LINE
8
BLACK
6
CONTINUOUS
10
99.8271489999999915
20
-123.6105759999999947
11
100.0176249999999953
21
-123.5153379999999999
0
LINE
8
BLACK
6
CONTINUOUS
10
100.0176249999999953
20
-123.5153379999999999
11
100.3985780000000005
21
-123.5153379999999999
0
LINE
8
BLACK
6
CONTINUOUS
10
100.3985780000000005
20
-123.5153379999999999
11
100.5890539999999902
21
-123.6105759999999947
0
LINE
8
BLACK
6
CONTINUOUS
10
100.5890539999999902
20
-123.6105759999999947
11
100.6842919999999992
21
-123.7058139999999895
0
LINE
8
BLACK
6
CONTINUOUS
10
100.6842919999999992
20
-123.7058139999999895
11
100.7795299999999941
21
-123.8962899999999934
0
LINE
8
BLACK
6
CONTINUOUS
10
100.7795299999999941
20
-123.8962899999999934
11
100.7795299999999941
21
-123.9915279999999882
0
LINE
8
BLACK
6
CONTINUOUS
10
100.7795299999999941
20
-123.9915279999999882
11
100.6842919999999992
21
-124.1820039999999921
0
LINE
8
BLACK
6
CONTINUOUS
10
100.6842919999999992
20
-124.1820039999999921
11
100.5890539999999902
21
-124.2772420000000011
0
LINE
8
BLACK
6
CONTINUOUS
10
100.5890539999999902
20
-124.2772420000000011
11
100.3985780000000005
21
-124.3724799999999959
0
LINE
8
BLACK
6
CONTINUOUS
10
100.3985780000000005
20
-124.3724799999999959
11
100.0176249999999953
21
-124.3724799999999959
0
LINE
8
BLACK
6
CONTINUOUS
10
100.0176249999999953
20
-124.3724799999999959
11
99.8271489999999915
21
-124.4677189999999882
0
LINE
8
BLACK
6
CONTINUOUS
10
99.8271489999999915
20
-124.4677189999999882
11
99.7319109999999966
21
-124.5629569999999973
0
LINE
8
BLACK
6
CONTINUOUS
10
99.7319109999999966
20
-124.5629569999999973
11
99.6366730000000018
21
-124.7534330000000011
0
LINE
8
BLACK
6
CONTINUOUS
10
99.6366730000000018
20
-124.7534330000000011
11
99.6366730000000018
21
-125.1343849999999946
0
LINE
8
BLACK
6
CONTINUOUS
10
99.6366730000000018
20
-125.1343849999999946
11
99.7319109999999966
21
-125.3248609999999985
0
LINE
8
BLACK
6
CONTINUOUS
10
99.7319109999999966
20
-125.3248609999999985
11
99.8271489999999915
21
-125.4200999999999908
0
LINE
8
BLACK
6
CONTINUOUS
10
99.8271489999999915
20
-125.4200999999999908
11
100.0176249999999953
21
-125.5153379999999999
0
LINE
8
BLACK
6
CONTINUOUS
10
100.0176249999999953
20
-125.5153379999999999
11
100.3985780000000005
21
-125.5153379999999999
0
LINE
8
BLACK
6
CONTINUOUS
10
100.3985780000000005
20
-125.5153379999999999
11
100.5890539999999902
21
-125.4200999999999908
0
LINE
8
BLACK
6
CONTINUOUS
10
100.5890539999999902
20
-125.4200999999999908
11
100.6842919999999992
21
-125.3248609999999985
0
LINE
8
BLACK
6
CONTINUOUS
10
100.6842919999999992
20
-125.3248609999999985
11
100.7795299999999941
21
-125.1343849999999946
0
LINE
8
BLACK
6
CONTINUOUS
10
100.7795299999999941
20
-125.1343849999999946
11
100.7795299999999941
21
-124.7534330000000011
0
LINE
8
BLACK
6
CONTINUOUS
10
100.7795299999999941
20
-124.7534330000000011
11
100.6842919999999992
21
-124.5629569999999973
0
LINE
8
BLACK
6
CONTINUOUS
10
100.6842919999999992
20
-124.5629569999999973
11
100.5890539999999902
21
-124.4677189999999882
0
LINE
8
BLACK
6
CONTINUOUS
10
100.5890539999999902
20
-124.4677189999999882
11
100.3985780000000005
21
-124.3724799999999959
0
LINE
8
BLACK
6
CONTINUOUS
10
102.5890539999999902
20
-123.5153379999999999
11
101.6366730000000018
21
-123.5153379999999999
0
LINE
8
BLACK
6
CONTINUOUS
10
101.6366730000000018
20
-123.5153379999999999
11
101.5414349999999928
21
-124.4677189999999882
0
LINE
8
BLACK
6
CONTINUOUS
10
101.5414349999999928
20
-124.4677189999999882
11
101.6366730000000018
21
-124.3724799999999959
0
LINE
8
BLACK
6
CONTINUOUS
10
101.6366730000000018
20
-124.3724799999999959
11
101.8271489999999915
21
-124.2772420000000011
0
LINE
8
BLACK
6
CONTINUOUS
10
101.8271489999999915
20
-124.2772420000000011
11
102.3033399999999915
21
-124.2772420000000011
0
LINE
8
BLACK
6
CONTINUOUS
10
102.3033399999999915
20
-124.2772420000000011
11
102.4938159999999954
21
-124.3724799999999959
0
LINE
8
BLACK
6
CONTINUOUS
10
102.4938159999999954
20
-124.3724799999999959
11
102.5890539999999902
21
-124.4677189999999882
0
LINE
8
BLACK
6
CONTINUOUS
10
102.5890539999999902
20
-124.4677189999999882
11
102.6842919999999992
21
-124.6581949999999921
0
LINE
8
BLACK
6
CONTINUOUS
10
102.6842919999999992
20
-124.6581949999999921
11
102.6842919999999992
21
-125.1343849999999946
0
LINE
8
BLACK
6
CONTINUOUS
10
102.6842919999999992
20
-125.1343849999999946
11
102.5890539999999902
21
-125.3248609999999985
0
LINE
8
BLACK
6
CONTINUOUS
10
102.5890539999999902
20
-125.3248609999999985
11
102.4938159999999954
21
-125.4200999999999908
0
LINE
8
BLACK
6
CONTINUOUS
10
102.4938159999999954
20
-125.4200999999999908
11
102.3033399999999915
21
-125.5153379999999999
0
LINE
8
BLACK
6
CONTINUOUS
10
102.3033399999999915
20
-125.5153379999999999
11
101.8271489999999915
21
-125.5153379999999999
0
LINE
8
BLACK
6
CONTINUOUS
10
101.8271489999999915
20
-125.5153379999999999
11
101.6366730000000018
21
-125.4200999999999908
0
LINE
8
BLACK
6
CONTINUOUS
10
101.6366730000000018
20
-125.4200999999999908
11
101.5414349999999928
21
-125.3248609999999985
0
LINE
8
BLACK
6
CONTINUOUS
10
103.9223870000000005
20
-123.5153379999999999
11
104.1128640000000019
21
-123.5153379999999999
0
LINE
8
BLACK
6
CONTINUOUS
10
104.1128640000000019
20
-123.5153379999999999
11
104.3033399999999915
21
-123.6105759999999947
0
LINE
8
BLACK
6
CONTINUOUS
10
104.3033399999999915
20
-123.6105759999999947
11
104.3985780000000005
21
-123.7058139999999895
0
LINE
8
BLACK
6
CONTINUOUS
10
104.3985780000000005
20
-123.7058139999999895
11
104.4938159999999954
21
-123.8962899999999934
0
LINE
8
BLACK
6
CONTINUOUS
10
104.4938159999999954
20
-123.8962899999999934
11
104.5890539999999902
21
-124.2772420000000011
0
LINE
8
BLACK
6
CONTINUOUS
10
104.5890539999999902
20
-124.2772420000000011
11
104.5890539999999902
21
-124.7534330000000011
0
LINE
8
BLACK
6
CONTINUOUS
10
104.5890539999999902
20
-124.7534330000000011
11
104.4938159999999954
21
-125.1343849999999946
0
LINE
8
BLACK
6
CONTINUOUS
10
104.4938159999999954
20
-125.1343849999999946
11
104.3985780000000005
21
-125.3248609999999985
0
LINE
8
BLACK
6
CONTINUOUS
10
104.3985780000000005
20
-125.3248609999999985
11
104.3033399999999915
21
-125.4200999999999908
0
LINE
8
BLACK
6
CONTINUOUS
10
104.3033399999999915
20
-125.4200999999999908
11
104.1128640000000019
21
-125.5153379999999999
0
LINE
8
BLACK
6
CONTINUOUS
10
104.1128640000000019
20
-125.5153379999999999
11
103.9223870000000005
21
-125.5153379999999999
0
LINE
8
BLACK
6
CONTINUOUS
10
103.9223870000000005
20
-125.5153379999999999
11
103.7319109999999966
21
-125.4200999999999908
0
LINE
8
BLACK
6
CONTINUOUS
10
103.7319109999999966
20
-125.4200999999999908
11
103.6366730000000018
21
-125.3248609999999985
0
LINE
8
BLACK
6
CONTINUOUS
10
103.6366730000000018
20
-125.3248609999999985
11
103.5414349999999928
21
-125.1343849999999946
0
LINE
8
BLACK
6
CONTINUOUS
10
103.5414349999999928
20
-125.1343849999999946
11
103.446196999999998
21
-124.7534330000000011
0
LINE
8
BLACK
6
CONTINUOUS
10
103.446196999999998
20
-124.7534330000000011
11
103.446196999999998
21
-124.2772420000000011
0
LINE
8
BLACK
6
CONTINUOUS
10
103.446196999999998
20
-124.2772420000000011
11
103.5414349999999928
21
-123.8962899999999934
0
LINE
8
BLACK
6
CONTINUOUS
10
103.5414349999999928
20
-123.8962899999999934
11
103.6366730000000018
21
-123.7058139999999895
0
LINE
8
BLACK
6
CONTINUOUS
10
103.6366730000000018
20
-123.7058139999999895
11
103.7319109999999966
21
-123.6105759999999947
0
LINE
8
BLACK
6
CONTINUOUS
10
103.7319109999999966
20
-123.6105759999999947
11
103.9223870000000005
21
-123.5153379999999999
0
LINE
8
BLACK
6
CONTINUOUS
10
105.446196999999998
20
-125.5153379999999999
11
105.446196999999998
21
-124.1820039999999921
0
LINE
8
BLACK
6
CONTINUOUS
10
105.446196999999998
20
-124.3724799999999959
11
105.5414349999999928
21
-124.2772420000000011
0
LINE
8
BLACK
6
CONTINUOUS
10
105.5414349999999928
20
-124.2772420000000011
11
105.7319109999999966
21
-124.1820039999999921
0
LINE
8
BLACK
6
CONTINUOUS
10
105.7319109999999966
20
-124.1820039999999921
11
106.0176259999999928
21
-124.1820039999999921
0
LINE
8
BLACK
6
CONTINUOUS
10
106.0176259999999928
20
-124.1820039999999921
11
106.2081019999999967
21
-124.2772420000000011
0
LINE
8
BLACK
6
CONTINUOUS
10
106.2081019999999967
20
-124.2772420000000011
11
106.3033399999999915
21
-124.4677189999999882
0
LINE
8
BLACK
6
CONTINUOUS
10
106.3033399999999915
20
-124.4677189999999882
11
106.3033399999999915
21
-125.5153379999999999
0
LINE
8
BLACK
6
CONTINUOUS
10
106.3033399999999915
20
-124.4677189999999882
11
106.3985780000000005
21
-124.2772420000000011
0
LINE
8
BLACK
6
CONTINUOUS
10
106.3985780000000005
20
-124.2772420000000011
11
106.5890539999999902
21
-124.1820039999999921
0
LINE
8
BLACK
6
CONTINUOUS
10
106.5890539999999902
20
-124.1820039999999921
11
106.8747679999999889
21
-124.1820039999999921
0
LINE
8
BLACK
6
CONTINUOUS
10
106.8747679999999889
20
-124.1820039999999921
11
107.0652449999999902
21
-124.2772420000000011
0
LINE
8
BLACK
6
CONTINUOUS
10
107.0652449999999902
20
-124.2772420000000011
11
107.1604829999999993
21
-124.4677189999999882
0
LINE
8
BLACK
6
CONTINUOUS
10
107.1604829999999993
20
-124.4677189999999882
11
107.1604829999999993
21
-125.5153379999999999
0
LINE
8
BLACK
6
CONTINUOUS
10
108.1128640000000019
20
-125.5153379999999999
11
108.1128640000000019
21
-124.1820039999999921
0
LINE
8
BLACK
6
CONTINUOUS
10
108.1128640000000019
20
-124.3724799999999959
11
108.2081019999999967
21
-124.2772420000000011
0
LINE
8
BLACK
6
CONTINUOUS
10
108.2081019999999967
20
-124.2772420000000011
11
108.3985780000000005
21
-124.1820039999999921
0
LINE
8
BLACK
6
CONTINUOUS
10
108.3985780000000005
20
-124.1820039999999921
11
108.6842929999999967
21
-124.1820039999999921
0
LINE
8
BLACK
6
CONTINUOUS
10
108.6842929999999967
20
-124.1820039999999921
11
108.8747690000000006
21
-124.2772420000000011
0
LINE
8
BLACK
6
CONTINUOUS
10
108.8747690000000006
20
-124.2772420000000011
11
108.9700069999999954
21
-124.4677189999999882
0
LINE
8
BLACK
6
CONTINUOUS
10
108.9700069999999954
20
-124.4677189999999882
11
108.9700069999999954
21
-125.5153379999999999
0
LINE
8
BLACK
6
CONTINUOUS
10
108.9700069999999954
20
-124.4677189999999882
11
109.0652449999999902
21
-124.2772420000000011
0
LINE
8
BLACK
6
CONTINUOUS
10
109.0652449999999902
20
-124.2772420000000011
11
109.2557209999999941
21
-124.1820039999999921
0
LINE
8
BLACK
6
CONTINUOUS
10
109.2557209999999941
20
-124.1820039999999921
11
109.5414349999999928
21
-124.1820039999999921
0
LINE
8
BLACK
6
CONTINUOUS
10
109.5414349999999928
20
-124.1820039999999921
11
109.7319119999999941
21
-124.2772420000000011
0
LINE
8
BLACK
6
CONTINUOUS
10
109.7319119999999941
20
-124.2772420000000011
11
109.8271499999999889
21
-124.4677189999999882
0
LINE
8
BLACK
6
CONTINUOUS
10
109.8271499999999889
20
-124.4677189999999882
11
109.8271499999999889
21
-125.5153379999999999
0
LINE
8
BLACK
6
CONTINUOUS
10
113.7319119999999941
20
-123.4200999999999908
11
112.0176269999999903
21
-125.9915279999999882
0
LINE
8
BLACK
6
CONTINUOUS
10
116.303340999999989
20
-123.5153379999999999
11
116.4938179999999903
21
-123.5153379999999999
0
LINE
8
BLACK
6
CONTINUOUS
10
116.4938179999999903
20
-123.5153379999999999
11
116.6842939999999942
21
-123.6105759999999947
0
LINE
8
BLACK
6
CONTINUOUS
10
116.6842939999999942
20
-123.6105759999999947
11
116.779531999999989
21
-123.7058139999999895
0
LINE
8
BLACK
6
CONTINUOUS
10
116.779531999999989
20
-123.7058139999999895
11
116.874769999999998
21
-123.8962899999999934
0
LINE
8
BLACK
6
CONTINUOUS
10
116.874769999999998
20
-123.8962899999999934
11
116.9700079999999929
21
-124.2772420000000011
0
LINE
8
BLACK
6
CONTINUOUS
10
116.9700079999999929
20
-124.2772420000000011
11
116.9700079999999929
21
-124.7534330000000011
0
LINE
8
BLACK
6
CONTINUOUS
10
116.9700079999999929
20
-124.7534330000000011
11
116.874769999999998
21
-125.1343849999999946
0
LINE
8
BLACK
6
CONTINUOUS
10
116.874769999999998
20
-125.1343849999999946
11
116.779531999999989
21
-125.3248609999999985
0
LINE
8
BLACK
6
CONTINUOUS
10
116.779531999999989
20
-125.3248609999999985
11
116.6842939999999942
21
-125.4200999999999908
0
LINE
8
BLACK
6
CONTINUOUS
10
116.6842939999999942
20
-125.4200999999999908
11
116.4938179999999903
21
-125.5153379999999999
0
LINE
8
BLACK
6
CONTINUOUS
10
116.4938179999999903
20
-125.5153379999999999
11
116.303340999999989
21
-125.5153379999999999
0
LINE
8
BLACK
6
CONTINUOUS
10
116.303340999999989
20
-125.5153379999999999
11
116.1128649999999993
21
-125.4200999999999908
0
LINE
8
BLACK
6
CONTINUOUS
10
116.1128649999999993
20
-125.4200999999999908
11
116.0176269999999903
21
-125.3248609999999985
0
LINE
8
BLACK
6
CONTINUOUS
10
116.0176269999999903
20
-125.3248609999999985
11
115.9223889999999955
21
-125.1343849999999946
0
LINE
8
BLACK
6
CONTINUOUS
10
115.9223889999999955
20
-125.1343849999999946
11
115.8271510000000006
21
-124.7534330000000011
0
LINE
8
BLACK
6
CONTINUOUS
10
115.8271510000000006
20
-124.7534330000000011
11
115.8271510000000006
21
-124.2772420000000011
0
LINE
8
BLACK
6
CONTINUOUS
10
115.8271510000000006
20
-124.2772420000000011
11
115.9223889999999955
21
-123.8962899999999934
0
LINE
8
BLACK
6
CONTINUOUS
10
115.9223889999999955
20
-123.8962899999999934
11
116.0176269999999903
21
-123.7058139999999895
0
LINE
8
BLACK
6
CONTINUOUS
10
116.0176269999999903
20
-123.7058139999999895
11
116.1128649999999993
21
-123.6105759999999947
0
LINE
8
BLACK
6
CONTINUOUS
10
116.1128649999999993
20
-123.6105759999999947
11
116.303340999999989
21
-123.5153379999999999
0
LINE
8
BLACK
6
CONTINUOUS
10
117.8271510000000006
20
-125.3248609999999985
11
117.9223889999999955
21
-125.4200999999999908
0
LINE
8
BLACK
6
CONTINUOUS
10
117.9223889999999955
20
-125.4200999999999908
11
117.8271510000000006
21
-125.5153379999999999
0
LINE
8
BLACK
6
CONTINUOUS
10
117.8271510000000006
20
-125.5153379999999999
11
117.7319129999999916
21
-125.4200999999999908
0
LINE
8
BLACK
6
CONTINUOUS
10
117.7319129999999916
20
-125.4200999999999908
11
117.8271510000000006
21
-125.3248609999999985
0
LINE
8
BLACK
6
CONTINUOUS
10
117.8271510000000006
20
-125.3248609999999985
11
117.8271510000000006
21
-125.5153379999999999
0
LINE
8
BLACK
6
CONTINUOUS
10
119.8271510000000006
20
-125.5153379999999999
11
118.6842939999999942
21
-125.5153379999999999
0
LINE
8
BLACK
6
CONTINUOUS
10
119.2557219999999916
20
-125.5153379999999999
11
119.2557219999999916
21
-123.5153379999999999
0
LINE
8
BLACK
6
CONTINUOUS
10
119.2557219999999916
20
-123.5153379999999999
11
119.0652459999999877
21
-123.8010519999999985
0
LINE
8
BLACK
6
CONTINUOUS
10
119.0652459999999877
20
-123.8010519999999985
11
118.874769999999998
21
-123.9915279999999882
0
LINE
8
BLACK
6
CONTINUOUS
10
118.874769999999998
20
-123.9915279999999882
11
118.6842939999999942
21
-124.0867659999999972
0
LINE
8
BLACK
6
CONTINUOUS
10
121.7319129999999916
20
-125.5153379999999999
11
120.5890559999999994
21
-125.5153379999999999
0
LINE
8
BLACK
6
CONTINUOUS
10
121.1604839999999967
20
-125.5153379999999999
11
121.1604839999999967
21
-123.5153379999999999
0
LINE
8
BLACK
6
CONTINUOUS
10
121.1604839999999967
20
-123.5153379999999999
11
120.9700079999999929
21
-123.8010519999999985
0
LINE
8
BLACK
6
CONTINUOUS
10
120.9700079999999929
20
-123.8010519999999985
11
120.779531999999989
21
-123.9915279999999882
0
LINE
8
BLACK
6
CONTINUOUS
10
120.779531999999989
20
-123.9915279999999882
11
120.5890559999999994
21
-124.0867659999999972
0
LINE
8
BLACK
6
CONTINUOUS
10
122.4938179999999903
20
-123.7058139999999895
11
122.5890559999999994
21
-123.6105759999999947
0
LINE
8
BLACK
6
CONTINUOUS
10
122.5890559999999994
20
-123.6105759999999947
11
122.779531999999989
21
-123.5153379999999999
0
LINE
8
BLACK
6
CONTINUOUS
10
122.779531999999989
20
-123.5153379999999999
11
123.255722999999989
21
-123.5153379999999999
0
LINE
8
BLACK
6
CONTINUOUS
10
123.255722999999989
20
-123.5153379999999999
11
123.4461989999999929
21
-123.6105759999999947
0
LINE
8
BLACK
6
CONTINUOUS
10
123.4461989999999929
20
-123.6105759999999947
11
123.5414369999999877
21
-123.7058139999999895
0
LINE
8
BLACK
6
CONTINUOUS
10
123.5414369999999877
20
-123.7058139999999895
11
123.6366749999999968
21
-123.8962899999999934
0
LINE
8
BLACK
6
CONTINUOUS
10
123.6366749999999968
20
-123.8962899999999934
11
123.6366749999999968
21
-124.0867659999999972
0
LINE
8
BLACK
6
CONTINUOUS
10
123.6366749999999968
20
-124.0867659999999972
11
123.5414369999999877
21
-124.3724799999999959
0
LINE
8
BLACK
6
CONTINUOUS
10
123.5414369999999877
20
-124.3724799999999959
11
122.3985799999999955
21
-125.5153379999999999
0
LINE
8
BLACK
6
CONTINUOUS
10
122.3985799999999955
20
-125.5153379999999999
11
123.6366749999999968
21
-125.5153379999999999
0
LINE
8
BLACK
6
CONTINUOUS
10
124.3985799999999955
20
-123.7058139999999895
11
124.4938179999999903
21
-123.6105759999999947
0
LINE
8
BLACK
6
CONTINUOUS
10
124.4938179999999903
20
-123.6105759999999947
11
124.6842939999999942
21
-123.5153379999999999
0
LINE
8
BLACK
6
CONTINUOUS
10
124.6842939999999942
20
-123.5153379999999999
11
125.1604849999999942
21
-123.5153379999999999
0
LINE
8
BLACK
6
CONTINUOUS
10
125.1604849999999942
20
-123.5153379999999999
11
125.3509609999999981
21
-123.6105759999999947
0
LINE
8
BLACK
6
CONTINUOUS
10
125.3509609999999981
20
-123.6105759999999947
11
125.4461989999999929
21
-123.7058139999999895
0
LINE
8
BLACK
6
CONTINUOUS
10
125.4461989999999929
20
-123.7058139999999895
11
125.5414369999999877
21
-123.8962899999999934
0
LINE
8
BLACK
6
CONTINUOUS
10
125.5414369999999877
20
-123.8962899999999934
11
125.5414369999999877
21
-124.0867659999999972
0
LINE
8
BLACK
6
CONTINUOUS
10
125.5414369999999877
20
-124.0867659999999972
11
125.4461989999999929
21
-124.3724799999999959
0
LINE
8
BLACK
6
CONTINUOUS
10
125.4461989999999929
20
-124.3724799999999959
11
124.3033420000000007
21
-125.5153379999999999
0
LINE
8
BLACK
6
CONTINUOUS
10
124.3033420000000007
20
-125.5153379999999999
11
125.5414369999999877
21
-125.5153379999999999
0
LINE
8
BLACK
6
CONTINUOUS
10
126.3033420000000007
20
-123.5153379999999999
11
126.3033420000000007
21
-123.8962899999999934
0
LINE
8
BLACK
6
CONTINUOUS
10
127.0652469999999994
20
-123.5153379999999999
11
127.0652469999999994
21
-123.8962899999999934
0
LINE
8
BLACK
6
CONTINUOUS
10
130.0176289999999995
20
-126.2772420000000011
11
129.9223900000000071
21
-126.1820039999999921
0
LINE
8
BLACK
6
CONTINUOUS
10
129.9223900000000071
20
-126.1820039999999921
11
129.7319139999999891
21
-125.8962899999999934
0
LINE
8
BLACK
6
CONTINUOUS
10
129.7319139999999891
20
-125.8962899999999934
11
129.6366759999999942
21
-125.7058139999999895
0
LINE
8
BLACK
6
CONTINUOUS
10
129.6366759999999942
20
-125.7058139999999895
11
129.5414379999999994
21
-125.4200999999999908
0
LINE
8
BLACK
6
CONTINUOUS
10
129.5414379999999994
20
-125.4200999999999908
11
129.4462000000000046
21
-124.9439089999999908
0
LINE
8
BLACK
6
CONTINUOUS
10
129.4462000000000046
20
-124.9439089999999908
11
129.4462000000000046
21
-124.5629569999999973
0
LINE
8
BLACK
6
CONTINUOUS
10
129.4462000000000046
20
-124.5629569999999973
11
129.5414379999999994
21
-124.0867659999999972
0
LINE
8
BLACK
6
CONTINUOUS
10
129.5414379999999994
20
-124.0867659999999972
11
129.6366759999999942
21
-123.8010519999999985
0
LINE
8
BLACK
6
CONTINUOUS
10
129.6366759999999942
20
-123.8010519999999985
11
129.7319139999999891
21
-123.6105759999999947
0
LINE
8
BLACK
6
CONTINUOUS
10
129.7319139999999891
20
-123.6105759999999947
11
129.9223900000000071
21
-123.3248609999999985
0
LINE
8
BLACK
6
CONTINUOUS
10
129.9223900000000071
20
-123.3248609999999985
11
130.0176289999999995
21
-123.2296229999999895
0
LINE
8
BLACK
6
CONTINUOUS
10
130.6842949999999917
20
-123.7058139999999895
11
130.7795329999999865
21
-123.6105759999999947
0
LINE
8
BLACK
6
CONTINUOUS
10
130.7795329999999865
20
-123.6105759999999947
11
130.9700090000000046
21
-123.5153379999999999
0
LINE
8
BLACK
6
CONTINUOUS
10
130.9700090000000046
20
-123.5153379999999999
11
131.4462000000000046
21
-123.5153379999999999
0
LINE
8
BLACK
6
CONTINUOUS
10
131.4462000000000046
20
-123.5153379999999999
11
131.6366759999999942
21
-123.6105759999999947
0
LINE
8
BLACK
6
CONTINUOUS
10
131.6366759999999942
20
-123.6105759999999947
11
131.7319139999999891
21
-123.7058139999999895
0
LINE
8
BLACK
6
CONTINUOUS
10
131.7319139999999891
20
-123.7058139999999895
11
131.8271519999999839
21
-123.8962899999999934
0
LINE
8
BLACK
6
CONTINUOUS
10
131.8271519999999839
20
-123.8962899999999934
11
131.8271519999999839
21
-124.0867659999999972
0
LINE
8
BLACK
6
CONTINUOUS
10
131.8271519999999839
20
-124.0867659999999972
11
131.7319139999999891
21
-124.3724799999999959
0
LINE
8
BLACK
6
CONTINUOUS
10
131.7319139999999891
20
-124.3724799999999959
11
130.5890569999999968
21
-125.5153379999999999
0
LINE
8
BLACK
6
CONTINUOUS
10
130.5890569999999968
20
-125.5153379999999999
11
131.8271519999999839
21
-125.5153379999999999
0
LINE
8
BLACK
6
CONTINUOUS
10
134.2081049999999891
20
-125.5153379999999999
11
134.2081049999999891
21
-123.5153379999999999
0
LINE
8
BLACK
6
CONTINUOUS
10
135.0652479999999969
20
-125.5153379999999999
11
135.0652479999999969
21
-124.4677189999999882
0
LINE
8
BLACK
6
CONTINUOUS
10
135.0652479999999969
20
-124.4677189999999882
11
134.970010000000002
21
-124.2772420000000011
0
LINE
8
BLACK
6
CONTINUOUS
10
134.970010000000002
20
-124.2772420000000011
11
134.779533999999984
21
-124.1820039999999921
0
LINE
8
BLACK
6
CONTINUOUS
10
134.779533999999984
20
-124.1820039999999921
11
134.493819000000002
21
-124.1820039999999921
0
LINE
8
BLACK
6
CONTINUOUS
10
134.493819000000002
20
-124.1820039999999921
11
134.3033429999999839
21
-124.2772420000000011
0
LINE
8
BLACK
6
CONTINUOUS
10
134.3033429999999839
20
-124.2772420000000011
11
134.2081049999999891
21
-124.3724799999999959
0
LINE
8
BLACK
6
CONTINUOUS
10
136.3033429999999839
20
-125.5153379999999999
11
136.1128669999999943
21
-125.4200999999999908
0
LINE
8
BLACK
6
CONTINUOUS
10
136.1128669999999943
20
-125.4200999999999908
11
136.0176289999999995
21
-125.3248609999999985
0
LINE
8
BLACK
6
CONTINUOUS
10
136.0176289999999995
20
-125.3248609999999985
11
135.9223910000000046
21
-125.1343849999999946
0
LINE
8
BLACK
6
CONTINUOUS
10
135.9223910000000046
20
-125.1343849999999946
11
135.9223910000000046
21
-124.5629569999999973
0
LINE
8
BLACK
6
CONTINUOUS
10
135.9223910000000046
20
-124.5629569999999973
11
136.0176289999999995
21
-124.3724799999999959
0
LINE
8
BLACK
6
CONTINUOUS
10
136.0176289999999995
20
-124.3724799999999959
11
136.1128669999999943
21
-124.2772420000000011
0
LINE
8
BLACK
6
CONTINUOUS
10
136.1128669999999943
20
-124.2772420000000011
11
136.3033429999999839
21
-124.1820039999999921
0
LINE
8
BLACK
6
CONTINUOUS
10
136.3033429999999839
20
-124.1820039999999921
11
136.5890579999999943
21
-124.1820039999999921
0
LINE
8
BLACK
6
CONTINUOUS
10
136.5890579999999943
20
-124.1820039999999921
11
136.779533999999984
21
-124.2772420000000011
0
LINE
8
BLACK
6
CONTINUOUS
10
136.779533999999984
20
-124.2772420000000011
11
136.8747720000000072
21
-124.3724799999999959
0
LINE
8
BLACK
6
CONTINUOUS
10
136.8747720000000072
20
-124.3724799999999959
11
136.970010000000002
21
-124.5629569999999973
0
LINE
8
BLACK
6
CONTINUOUS
10
136.970010000000002
20
-124.5629569999999973
11
136.970010000000002
21
-125.1343849999999946
0
LINE
8
BLACK
6
CONTINUOUS
10
136.970010000000002
20
-125.1343849999999946
11
136.8747720000000072
21
-125.3248609999999985
0
LINE
8
BLACK
6
CONTINUOUS
10
136.8747720000000072
20
-125.3248609999999985
11
136.779533999999984
21
-125.4200999999999908
0
LINE
8
BLACK
6
CONTINUOUS
10
136.779533999999984
20
-125.4200999999999908
11
136.5890579999999943
21
-125.5153379999999999
0
LINE
8
BLACK
6
CONTINUOUS
10
136.5890579999999943
20
-125.5153379999999999
11
136.3033429999999839
21
-125.5153379999999999
0
LINE
8
BLACK
6
CONTINUOUS
10
138.1128669999999943
20
-125.5153379999999999
11
137.9223910000000046
21
-125.4200999999999908
0
LINE
8
BLACK
6
CONTINUOUS
10
137.9223910000000046
20
-125.4200999999999908
11
137.8271529999999814
21
-125.2296229999999895
0
LINE
8
BLACK
6
CONTINUOUS
10
137.8271529999999814
20
-125.2296229999999895
11
137.8271529999999814
21
-123.5153379999999999
0
LINE
8
BLACK
6
CONTINUOUS
10
139.6366769999999917
20
-125.4200999999999908
11
139.4462010000000021
21
-125.5153379999999999
0
LINE
8
BLACK
6
CONTINUOUS
10
139.4462010000000021
20
-125.5153379999999999
11
139.0652479999999969
21
-125.5153379999999999
0
LINE
8
BLACK
6
CONTINUOUS
10
139.0652479999999969
20
-125.5153379999999999
11
138.8747720000000072
21
-125.4200999999999908
0
LINE
8
BLACK
6
CONTINUOUS
10
138.8747720000000072
20
-125.4200999999999908
11
138.779533999999984
21
-125.2296229999999895
0
LINE
8
BLACK
6
CONTINUOUS
10
138.779533999999984
20
-125.2296229999999895
11
138.779533999999984
21
-124.4677189999999882
0
LINE
8
BLACK
6
CONTINUOUS
10
138.779533999999984
20
-124.4677189999999882
11
138.8747720000000072
21
-124.2772420000000011
0
LINE
8
BLACK
6
CONTINUOUS
10
138.8747720000000072
20
-124.2772420000000011
11
139.0652479999999969
21
-124.1820039999999921
0
LINE
8
BLACK
6
CONTINUOUS
10
139.0652479999999969
20
-124.1820039999999921
11
139.4462010000000021
21
-124.1820039999999921
0
LINE
8
BLACK
6
CONTINUOUS
10
139.4462010000000021
20
-124.1820039999999921
11
139.6366769999999917
21
-124.2772420000000011
0
LINE
8
BLACK
6
CONTINUOUS
10
139.6366769999999917
20
-124.2772420000000011
11
139.7319149999999865
21
-124.4677189999999882
0
LINE
8
BLACK
6
CONTINUOUS
10
139.7319149999999865
20
-124.4677189999999882
11
139.7319149999999865
21
-124.6581949999999921
0
LINE
8
BLACK
6
CONTINUOUS
10
139.7319149999999865
20
-124.6581949999999921
11
138.779533999999984
21
-124.848670999999996
0
LINE
8
BLACK
6
CONTINUOUS
10
140.4938199999999995
20
-125.4200999999999908
11
140.6842959999999891
21
-125.5153379999999999
0
LINE
8
BLACK
6
CONTINUOUS
10
140.6842959999999891
20
-125.5153379999999999
11
141.0652479999999969
21
-125.5153379999999999
0
LINE
8
BLACK
6
CONTINUOUS
10
141.0652479999999969
20
-125.5153379999999999
11
141.255724999999984
21
-125.4200999999999908
0
LINE
8
BLACK
6
CONTINUOUS
10
141.255724999999984
20
-125.4200999999999908
11
141.3509630000000072
21
-125.2296229999999895
0
LINE
8
BLACK
6
CONTINUOUS
10
141.3509630000000072
20
-125.2296229999999895
11
141.3509630000000072
21
-125.1343849999999946
0
LINE
8
BLACK
6
CONTINUOUS
10
141.3509630000000072
20
-125.1343849999999946
11
141.255724999999984
21
-124.9439089999999908
0
LINE
8
BLACK
6
CONTINUOUS
10
141.255724999999984
20
-124.9439089999999908
11
141.0652479999999969
21
-124.848670999999996
0
LINE
8
BLACK
6
CONTINUOUS
10
141.0652479999999969
20
-124.848670999999996
11
140.779533999999984
21
-124.848670999999996
0
LINE
8
BLACK
6
CONTINUOUS
10
140.779533999999984
20
-124.848670999999996
11
140.5890579999999943
21
-124.7534330000000011
0
LINE
8
BLACK
6
CONTINUOUS
10
140.5890579999999943
20
-124.7534330000000011
11
140.4938199999999995
21
-124.5629569999999973
0
LINE
8
BLACK
6
CONTINUOUS
10
140.4938199999999995
20
-124.5629569999999973
11
140.4938199999999995
21
-124.4677189999999882
0
LINE
8
BLACK
6
CONTINUOUS
10
140.4938199999999995
20
-124.4677189999999882
11
140.5890579999999943
21
-124.2772420000000011
0
LINE
8
BLACK
6
CONTINUOUS
10
140.5890579999999943
20
-124.2772420000000011
11
140.779533999999984
21
-124.1820039999999921
0
LINE
8
BLACK
6
CONTINUOUS
10
140.779533999999984
20
-124.1820039999999921
11
141.0652479999999969
21
-124.1820039999999921
0
LINE
8
BLACK
6
CONTINUOUS
10
141.0652479999999969
20
-124.1820039999999921
11
141.255724999999984
21
-124.2772420000000011
0
LINE
8
BLACK
6
CONTINUOUS
10
142.0176299999999969
20
-126.2772420000000011
11
142.1128679999999918
21
-126.1820039999999921
0
LINE
8
BLACK
6
CONTINUOUS
10
142.1128679999999918
20
-126.1820039999999921
11
142.3033439999999814
21
-125.8962899999999934
0
LINE
8
BLACK
6
CONTINUOUS
10
142.3033439999999814
20
-125.8962899999999934
11
142.3985820000000047
21
-125.7058139999999895
0
LINE
8
BLACK
6
CONTINUOUS
10
142.3985820000000047
20
-125.7058139999999895
11
142.4938199999999995
21
-125.4200999999999908
0
LINE
8
BLACK
6
CONTINUOUS
10
142.4938199999999995
20
-125.4200999999999908
11
142.5890579999999943
21
-124.9439089999999908
0
LINE
8
BLACK
6
CONTINUOUS
10
142.5890579999999943
20
-124.9439089999999908
11
142.5890579999999943
21
-124.5629569999999973
0
LINE
8
BLACK
6
CONTINUOUS
10
142.5890579999999943
20
-124.5629569999999973
11
142.4938199999999995
21
-124.0867659999999972
0
LINE
8
BLACK
6
CONTINUOUS
10
142.4938199999999995
20
-124.0867659999999972
11
142.3985820000000047
21
-123.8010519999999985
0
LINE
8
BLACK
6
CONTINUOUS
10
142.3985820000000047
20
-123.8010519999999985
11
142.3033439999999814
21
-123.6105759999999947
0
LINE
8
BLACK
6
CONTINUOUS
10
142.3033439999999814
20
-123.6105759999999947
11
142.1128679999999918
21
-123.3248609999999985
0
LINE
8
BLACK
6
CONTINUOUS
10
142.1128679999999918
20
-123.3248609999999985
11
142.0176299999999969
21
-123.2296229999999895
0
LINE
8
BLACK
6
CONTINUOUS
10
145.6366779999999892
20
-126.2772420000000011
11
145.5414389999999969
21
-126.1820039999999921
0
LINE
8
BLACK
6
CONTINUOUS
10
145.5414389999999969
20
-126.1820039999999921
11
145.3509630000000072
21
-125.8962899999999934
0
LINE
8
BLACK
6
CONTINUOUS
10
145.3509630000000072
20
-125.8962899999999934
11
145.255724999999984
21
-125.7058139999999895
0
LINE
8
BLACK
6
CONTINUOUS
10
145.255724999999984
20
-125.7058139999999895
11
145.1604869999999892
21
-125.4200999999999908
0
LINE
8
BLACK
6
CONTINUOUS
10
145.1604869999999892
20
-125.4200999999999908
11
145.0652489999999943
21
-124.9439089999999908
0
LINE
8
BLACK
6
CONTINUOUS
10
145.0652489999999943
20
-124.9439089999999908
11
145.0652489999999943
21
-124.5629569999999973
0
LINE
8
BLACK
6
CONTINUOUS
10
145.0652489999999943
20
-124.5629569999999973
11
145.1604869999999892
21
-124.0867659999999972
0
LINE
8
BLACK
6
CONTINUOUS
10
145.1604869999999892
20
-124.0867659999999972
11
145.255724999999984
21
-123.8010519999999985
0
LINE
8
BLACK
6
CONTINUOUS
10
145.255724999999984
20
-123.8010519999999985
11
145.3509630000000072
21
-123.6105759999999947
0
LINE
8
BLACK
6
CONTINUOUS
10
145.3509630000000072
20
-123.6105759999999947
11
145.5414389999999969
21
-123.3248609999999985
0
LINE
8
BLACK
6
CONTINUOUS
10
145.5414389999999969
20
-123.3248609999999985
11
145.6366779999999892
21
-123.2296229999999895
0
LINE
8
BLACK
6
CONTINUOUS
10
146.3985820000000047
20
-124.1820039999999921
11
146.3985820000000047
21
-125.5153379999999999
0
LINE
8
BLACK
6
CONTINUOUS
10
146.3985820000000047
20
-124.3724799999999959
11
146.4938199999999995
21
-124.2772420000000011
0
LINE
8
BLACK
6
CONTINUOUS
10
146.4938199999999995
20
-124.2772420000000011
11
146.6842959999999891
21
-124.1820039999999921
0
LINE
8
BLACK
6
CONTINUOUS
10
146.6842959999999891
20
-124.1820039999999921
11
146.9700109999999995
21
-124.1820039999999921
0
LINE
8
BLACK
6
CONTINUOUS
10
146.9700109999999995
20
-124.1820039999999921
11
147.1604869999999892
21
-124.2772420000000011
0
LINE
8
BLACK
6
CONTINUOUS
10
147.1604869999999892
20
-124.2772420000000011
11
147.255724999999984
21
-124.4677189999999882
0
LINE
8
BLACK
6
CONTINUOUS
10
147.255724999999984
20
-124.4677189999999882
11
147.255724999999984
21
-125.5153379999999999
0
LINE
8
BLACK
6
CONTINUOUS
10
148.4938199999999995
20
-125.5153379999999999
11
148.3033439999999814
21
-125.4200999999999908
0
LINE
8
BLACK
6
CONTINUOUS
10
148.3033439999999814
20
-125.4200999999999908
11
148.2081059999999866
21
-125.3248609999999985
0
LINE
8
BLACK
6
CONTINUOUS
10
148.2081059999999866
20
-125.3248609999999985
11
148.1128679999999918
21
-125.1343849999999946
0
LINE
8
BLACK
6
CONTINUOUS
10
148.1128679999999918
20
-125.1343849999999946
11
148.1128679999999918
21
-124.5629569999999973
0
LINE
8
BLACK
6
CONTINUOUS
10
148.1128679999999918
20
-124.5629569999999973
11
148.2081059999999866
21
-124.3724799999999959
0
LINE
8
BLACK
6
CONTINUOUS
10
148.2081059999999866
20
-124.3724799999999959
11
148.3033439999999814
21
-124.2772420000000011
0
LINE
8
BLACK
6
CONTINUOUS
10
148.3033439999999814
20
-124.2772420000000011
11
148.4938199999999995
21
-124.1820039999999921
0
LINE
8
BLACK
6
CONTINUOUS
10
148.4938199999999995
20
-124.1820039999999921
11
148.7795349999999814
21
-124.1820039999999921
0
LINE
8
BLACK
6
CONTINUOUS
10
148.7795349999999814
20
-124.1820039999999921
11
148.9700109999999995
21
-124.2772420000000011
0
LINE
8
BLACK
6
CONTINUOUS
10
148.9700109999999995
20
-124.2772420000000011
11
149.0652489999999943
21
-124.3724799999999959
0
LINE
8
BLACK
6
CONTINUOUS
10
149.0652489999999943
20
-124.3724799999999959
11
149.1604869999999892
21
-124.5629569999999973
0
LINE
8
BLACK
6
CONTINUOUS
10
149.1604869999999892
20
-124.5629569999999973
11
149.1604869999999892
21
-125.1343849999999946
0
LINE
8
BLACK
6
CONTINUOUS
10
149.1604869999999892
20
-125.1343849999999946
11
149.0652489999999943
21
-125.3248609999999985
0
LINE
8
BLACK
6
CONTINUOUS
10
149.0652489999999943
20
-125.3248609999999985
11
148.9700109999999995
21
-125.4200999999999908
0
LINE
8
BLACK
6
CONTINUOUS
10
148.9700109999999995
20
-125.4200999999999908
11
148.7795349999999814
21
-125.5153379999999999
0
LINE
8
BLACK
6
CONTINUOUS
10
148.7795349999999814
20
-125.5153379999999999
11
148.4938199999999995
21
-125.5153379999999999
0
LINE
8
BLACK
6
CONTINUOUS
10
149.731915999999984
20
-124.1820039999999921
11
150.4938199999999995
21
-124.1820039999999921
0
LINE
8
BLACK
6
CONTINUOUS
10
150.0176299999999969
20
-123.5153379999999999
11
150.0176299999999969
21
-125.2296229999999895
0
LINE
8
BLACK
6
CONTINUOUS
10
150.0176299999999969
20
-125.2296229999999895
11
150.1128679999999918
21
-125.4200999999999908
0
LINE
8
BLACK
6
CONTINUOUS
10
150.1128679999999918
20
-125.4200999999999908
11
150.3033439999999814
21
-125.5153379999999999
0
LINE
8
BLACK
6
CONTINUOUS
10
150.3033439999999814
20
-125.5153379999999999
11
150.4938199999999995
21
-125.5153379999999999
0
LINE
8
BLACK
6
CONTINUOUS
10
152.6842969999999866
20
-124.1820039999999921
11
152.6842969999999866
21
-126.1820039999999921
0
LINE
8
BLACK
6
CONTINUOUS
10
152.6842969999999866
20
-124.2772420000000011
11
152.8747730000000047
21
-124.1820039999999921
0
LINE
8
BLACK
6
CONTINUOUS
10
152.8747730000000047
20
-124.1820039999999921
11
153.2557259999999815
21
-124.1820039999999921
0
LINE
8
BLACK
6
CONTINUOUS
10
153.2557259999999815
20
-124.1820039999999921
11
153.4462019999999995
21
-124.2772420000000011
0
LINE
8
BLACK
6
CONTINUOUS
10
153.4462019999999995
20
-124.2772420000000011
11
153.5414399999999944
21
-124.3724799999999959
0
LINE
8
BLACK
6
CONTINUOUS
10
153.5414399999999944
20
-124.3724799999999959
11
153.6366779999999892
21
-124.5629569999999973
0
LINE
8
BLACK
6
CONTINUOUS
10
153.6366779999999892
20
-124.5629569999999973
11
153.6366779999999892
21
-125.1343849999999946
0
LINE
8
BLACK
6
CONTINUOUS
10
153.6366779999999892
20
-125.1343849999999946
11
153.5414399999999944
21
-125.3248609999999985
0
LINE
8
BLACK
6
CONTINUOUS
10
153.5414399999999944
20
-125.3248609999999985
11
153.4462019999999995
21
-125.4200999999999908
0
LINE
8
BLACK
6
CONTINUOUS
10
153.4462019999999995
20
-125.4200999999999908
11
153.2557259999999815
21
-125.5153379999999999
0
LINE
8
BLACK
6
CONTINUOUS
10
153.2557259999999815
20
-125.5153379999999999
11
152.8747730000000047
21
-125.5153379999999999
0
LINE
8
BLACK
6
CONTINUOUS
10
152.8747730000000047
20
-125.5153379999999999
11
152.6842969999999866
21
-125.4200999999999908
0
LINE
8
BLACK
6
CONTINUOUS
10
154.7795349999999814
20
-125.5153379999999999
11
154.5890589999999918
21
-125.4200999999999908
0
LINE
8
BLACK
6
CONTINUOUS
10
154.5890589999999918
20
-125.4200999999999908
11
154.493820999999997
21
-125.2296229999999895
0
LINE
8
BLACK
6
CONTINUOUS
10
154.493820999999997
20
-125.2296229999999895
11
154.493820999999997
21
-123.5153379999999999
0
LINE
8
BLACK
6
CONTINUOUS
10
156.3985830000000021
20
-125.5153379999999999
11
156.3985830000000021
21
-124.4677189999999882
0
LINE
8
BLACK
6
CONTINUOUS
10
156.3985830000000021
20
-124.4677189999999882
11
156.3033449999999789
21
-124.2772420000000011
0
LINE
8
BLACK
6
CONTINUOUS
10
156.3033449999999789
20
-124.2772420000000011
11
156.1128689999999892
21
-124.1820039999999921
0
LINE
8
BLACK
6
CONTINUOUS
10
156.1128689999999892
20
-124.1820039999999921
11
155.731915999999984
21
-124.1820039999999921
0
LINE
8
BLACK
6
CONTINUOUS
10
155.731915999999984
20
-124.1820039999999921
11
155.5414399999999944
21
-124.2772420000000011
0
LINE
8
BLACK
6
CONTINUOUS
10
156.3985830000000021
20
-125.4200999999999908
11
156.2081069999999841
21
-125.5153379999999999
0
LINE
8
BLACK
6
CONTINUOUS
10
156.2081069999999841
20
-125.5153379999999999
11
155.731915999999984
21
-125.5153379999999999
0
LINE
8
BLACK
6
CONTINUOUS
10
155.731915999999984
20
-125.5153379999999999
11
155.5414399999999944
21
-125.4200999999999908
0
LINE
8
BLACK
6
CONTINUOUS
10
155.5414399999999944
20
-125.4200999999999908
11
155.4462019999999995
21
-125.2296229999999895
0
LINE
8
BLACK
6
CONTINUOUS
10
155.4462019999999995
20
-125.2296229999999895
11
155.4462019999999995
21
-125.0391469999999998
0
LINE
8
BLACK
6
CONTINUOUS
10
155.4462019999999995
20
-125.0391469999999998
11
155.5414399999999944
21
-124.848670999999996
0
LINE
8
BLACK
6
CONTINUOUS
10
155.5414399999999944
20
-124.848670999999996
11
155.731915999999984
21
-124.7534330000000011
0
LINE
8
BLACK
6
CONTINUOUS
10
155.731915999999984
20
-124.7534330000000011
11
156.2081069999999841
21
-124.7534330000000011
0
LINE
8
BLACK
6
CONTINUOUS
10
156.2081069999999841
20
-124.7534330000000011
11
156.3985830000000021
21
-124.6581949999999921
0
LINE
8
BLACK
6
CONTINUOUS
10
157.0652499999999918
20
-124.1820039999999921
11
157.8271539999999789
21
-124.1820039999999921
0
LINE
8
BLACK
6
CONTINUOUS
10
157.3509640000000047
20
-123.5153379999999999
11
157.3509640000000047
21
-125.2296229999999895
0
LINE
8
BLACK
6
CONTINUOUS
10
157.3509640000000047
20
-125.2296229999999895
11
157.4462019999999995
21
-125.4200999999999908
0
LINE
8
BLACK
6
CONTINUOUS
10
157.4462019999999995
20
-125.4200999999999908
11
157.6366779999999892
21
-125.5153379999999999
0
LINE
8
BLACK
6
CONTINUOUS
10
157.6366779999999892
20
-125.5153379999999999
11
157.8271539999999789
21
-125.5153379999999999
0
LINE
8
BLACK
6
CONTINUOUS
10
159.2557259999999815
20
-125.4200999999999908
11
159.0652499999999918
21
-125.5153379999999999
0
LINE
8
BLACK
6
CONTINUOUS
10
159.0652499999999918
20
-125.5153379999999999
11
158.6842969999999866
21
-125.5153379999999999
0
LINE
8
BLACK
6
CONTINUOUS
10
158.6842969999999866
20
-125.5153379999999999
11
158.493820999999997
21
-125.4200999999999908
0
LINE
8
BLACK
6
CONTINUOUS
10
158.493820999999997
20
-125.4200999999999908
11
158.3985830000000021
21
-125.2296229999999895
0
LINE
8
BLACK
6
CONTINUOUS
10
158.3985830000000021
20
-125.2296229999999895
11
158.3985830000000021
21
-124.4677189999999882
0
LINE
8
BLACK
6
CONTINUOUS
10
158.3985830000000021
20
-124.4677189999999882
11
158.493820999999997
21
-124.2772420000000011
0
LINE
8
BLACK
6
CONTINUOUS
10
158.493820999999997
20
-124.2772420000000011
11
158.6842969999999866
21
-124.1820039999999921
0
LINE
8
BLACK
6
CONTINUOUS
10
158.6842969999999866
20
-124.1820039999999921
11
159.0652499999999918
21
-124.1820039999999921
0
LINE
8
BLACK
6
CONTINUOUS
10
159.0652499999999918
20
-124.1820039999999921
11
159.2557259999999815
21
-124.2772420000000011
0
LINE
8
BLACK
6
CONTINUOUS
10
159.2557259999999815
20
-124.2772420000000011
11
159.3509640000000047
21
-124.4677189999999882
0
LINE
8
BLACK
6
CONTINUOUS
10
159.3509640000000047
20
-124.4677189999999882
11
159.3509640000000047
21
-124.6581949999999921
0
LINE
8
BLACK
6
CONTINUOUS
10
159.3509640000000047
20
-124.6581949999999921
11
158.3985830000000021
21
-124.848670999999996
0
LINE
8
BLACK
6
CONTINUOUS
10
161.0652499999999918
20
-125.5153379999999999
11
161.0652499999999918
21
-123.5153379999999999
0
LINE
8
BLACK
6
CONTINUOUS
10
161.0652499999999918
20
-125.4200999999999908
11
160.8747740000000022
21
-125.5153379999999999
0
LINE
8
BLACK
6
CONTINUOUS
10
160.8747740000000022
20
-125.5153379999999999
11
160.493820999999997
21
-125.5153379999999999
0
LINE
8
BLACK
6
CONTINUOUS
10
160.493820999999997
20
-125.5153379999999999
11
160.3033449999999789
21
-125.4200999999999908
0
LINE
8
BLACK
6
CONTINUOUS
10
160.3033449999999789
20
-125.4200999999999908
11
160.2081069999999841
21
-125.3248609999999985
0
LINE
8
BLACK
6
CONTINUOUS
10
160.2081069999999841
20
-125.3248609999999985
11
160.1128689999999892
21
-125.1343849999999946
0
LINE
8
BLACK
6
CONTINUOUS
10
160.1128689999999892
20
-125.1343849999999946
11
160.1128689999999892
21
-124.5629569999999973
0
LINE
8
BLACK
6
CONTINUOUS
10
160.1128689999999892
20
-124.5629569999999973
11
160.2081069999999841
21
-124.3724799999999959
0
LINE
8
BLACK
6
CONTINUOUS
10
160.2081069999999841
20
-124.3724799999999959
11
160.3033449999999789
21
-124.2772420000000011
0
LINE
8
BLACK
6
CONTINUOUS
10
160.3033449999999789
20
-124.2772420000000011
11
160.493820999999997
21
-124.1820039999999921
0
LINE
8
BLACK
6
CONTINUOUS
10
160.493820999999997
20
-124.1820039999999921
11
160.8747740000000022
21
-124.1820039999999921
0
LINE
8
BLACK
6
CONTINUOUS
10
160.8747740000000022
20
-124.1820039999999921
11
161.0652499999999918
21
-124.2772420000000011
0
LINE
8
BLACK
6
CONTINUOUS
10
161.8271550000000047
20
-126.2772420000000011
11
161.9223929999999996
21
-126.1820039999999921
0
LINE
8
BLACK
6
CONTINUOUS
10
161.9223929999999996
20
-126.1820039999999921
11
162.1128689999999892
21
-125.8962899999999934
0
LINE
8
BLACK
6
CONTINUOUS
10
162.1128689999999892
20
-125.8962899999999934
11
162.2081069999999841
21
-125.7058139999999895
0
LINE
8
BLACK
6
CONTINUOUS
10
162.2081069999999841
20
-125.7058139999999895
11
162.3033449999999789
21
-125.4200999999999908
0
LINE
8
BLACK
6
CONTINUOUS
10
162.3033449999999789
20
-125.4200999999999908
11
162.3985830000000021
21
-124.9439089999999908
0
LINE
8
BLACK
6
CONTINUOUS
10
162.3985830000000021
20
-124.9439089999999908
11
162.3985830000000021
21
-124.5629569999999973
0
LINE
8
BLACK
6
CONTINUOUS
10
162.3985830000000021
20
-124.5629569999999973
11
162.3033449999999789
21
-124.0867659999999972
0
LINE
8
BLACK
6
CONTINUOUS
10
162.3033449999999789
20
-124.0867659999999972
11
162.2081069999999841
21
-123.8010519999999985
0
LINE
8
BLACK
6
CONTINUOUS
10
162.2081069999999841
20
-123.8010519999999985
11
162.1128689999999892
21
-123.6105759999999947
0
LINE
8
BLACK
6
CONTINUOUS
10
162.1128689999999892
20
-123.6105759999999947
11
161.9223929999999996
21
-123.3248609999999985
0
LINE
8
BLACK
6
CONTINUOUS
10
161.9223929999999996
20
-123.3248609999999985
11
161.8271550000000047
21
-123.2296229999999895
  0
ENDSEC
  0
EOF
