%TF.GenerationSoftware,KiCad,Pcbnew,8.0.1*%
%TF.CreationDate,2024-03-31T12:23:00+01:00*%
%TF.ProjectId,Apricot-Xi-Expansion-RAM,41707269-636f-4742-9d58-692d45787061,rev?*%
%TF.SameCoordinates,Original*%
%TF.FileFunction,Legend,Top*%
%TF.FilePolarity,Positive*%
%FSLAX46Y46*%
G04 Gerber Fmt 4.6, Leading zero omitted, Abs format (unit mm)*
G04 Created by KiCad (PCBNEW 8.0.1) date 2024-03-31 12:23:00*
%MOMM*%
%LPD*%
G01*
G04 APERTURE LIST*
%ADD10C,0.200000*%
%ADD11C,0.150000*%
%ADD12C,0.120000*%
%ADD13C,0.100000*%
G04 APERTURE END LIST*
D10*
X146061673Y-52692719D02*
X146061673Y-51692719D01*
X146061673Y-51692719D02*
X146442625Y-51692719D01*
X146442625Y-51692719D02*
X146537863Y-51740338D01*
X146537863Y-51740338D02*
X146585482Y-51787957D01*
X146585482Y-51787957D02*
X146633101Y-51883195D01*
X146633101Y-51883195D02*
X146633101Y-52026052D01*
X146633101Y-52026052D02*
X146585482Y-52121290D01*
X146585482Y-52121290D02*
X146537863Y-52168909D01*
X146537863Y-52168909D02*
X146442625Y-52216528D01*
X146442625Y-52216528D02*
X146061673Y-52216528D01*
X147061673Y-52692719D02*
X147061673Y-52026052D01*
X147061673Y-51692719D02*
X147014054Y-51740338D01*
X147014054Y-51740338D02*
X147061673Y-51787957D01*
X147061673Y-51787957D02*
X147109292Y-51740338D01*
X147109292Y-51740338D02*
X147061673Y-51692719D01*
X147061673Y-51692719D02*
X147061673Y-51787957D01*
X147537863Y-52026052D02*
X147537863Y-52692719D01*
X147537863Y-52121290D02*
X147585482Y-52073671D01*
X147585482Y-52073671D02*
X147680720Y-52026052D01*
X147680720Y-52026052D02*
X147823577Y-52026052D01*
X147823577Y-52026052D02*
X147918815Y-52073671D01*
X147918815Y-52073671D02*
X147966434Y-52168909D01*
X147966434Y-52168909D02*
X147966434Y-52692719D01*
X149728339Y-52692719D02*
X149156911Y-52692719D01*
X149442625Y-52692719D02*
X149442625Y-51692719D01*
X149442625Y-51692719D02*
X149347387Y-51835576D01*
X149347387Y-51835576D02*
X149252149Y-51930814D01*
X149252149Y-51930814D02*
X149156911Y-51978433D01*
X151061673Y-52692719D02*
X150966435Y-52645100D01*
X150966435Y-52645100D02*
X150918816Y-52597480D01*
X150918816Y-52597480D02*
X150871197Y-52502242D01*
X150871197Y-52502242D02*
X150871197Y-52216528D01*
X150871197Y-52216528D02*
X150918816Y-52121290D01*
X150918816Y-52121290D02*
X150966435Y-52073671D01*
X150966435Y-52073671D02*
X151061673Y-52026052D01*
X151061673Y-52026052D02*
X151204530Y-52026052D01*
X151204530Y-52026052D02*
X151299768Y-52073671D01*
X151299768Y-52073671D02*
X151347387Y-52121290D01*
X151347387Y-52121290D02*
X151395006Y-52216528D01*
X151395006Y-52216528D02*
X151395006Y-52502242D01*
X151395006Y-52502242D02*
X151347387Y-52597480D01*
X151347387Y-52597480D02*
X151299768Y-52645100D01*
X151299768Y-52645100D02*
X151204530Y-52692719D01*
X151204530Y-52692719D02*
X151061673Y-52692719D01*
D11*
X109585725Y-88634833D02*
X110252391Y-88634833D01*
X110252391Y-88634833D02*
X109823820Y-89634833D01*
X111061915Y-88968166D02*
X111061915Y-89634833D01*
X110823820Y-88587214D02*
X110585725Y-89301499D01*
X110585725Y-89301499D02*
X111204772Y-89301499D01*
X112061915Y-89634833D02*
X111585725Y-89634833D01*
X111585725Y-89634833D02*
X111585725Y-88634833D01*
X112347630Y-89587214D02*
X112490487Y-89634833D01*
X112490487Y-89634833D02*
X112728582Y-89634833D01*
X112728582Y-89634833D02*
X112823820Y-89587214D01*
X112823820Y-89587214D02*
X112871439Y-89539594D01*
X112871439Y-89539594D02*
X112919058Y-89444356D01*
X112919058Y-89444356D02*
X112919058Y-89349118D01*
X112919058Y-89349118D02*
X112871439Y-89253880D01*
X112871439Y-89253880D02*
X112823820Y-89206261D01*
X112823820Y-89206261D02*
X112728582Y-89158642D01*
X112728582Y-89158642D02*
X112538106Y-89111023D01*
X112538106Y-89111023D02*
X112442868Y-89063404D01*
X112442868Y-89063404D02*
X112395249Y-89015785D01*
X112395249Y-89015785D02*
X112347630Y-88920547D01*
X112347630Y-88920547D02*
X112347630Y-88825309D01*
X112347630Y-88825309D02*
X112395249Y-88730071D01*
X112395249Y-88730071D02*
X112442868Y-88682452D01*
X112442868Y-88682452D02*
X112538106Y-88634833D01*
X112538106Y-88634833D02*
X112776201Y-88634833D01*
X112776201Y-88634833D02*
X112919058Y-88682452D01*
X113300011Y-88730071D02*
X113347630Y-88682452D01*
X113347630Y-88682452D02*
X113442868Y-88634833D01*
X113442868Y-88634833D02*
X113680963Y-88634833D01*
X113680963Y-88634833D02*
X113776201Y-88682452D01*
X113776201Y-88682452D02*
X113823820Y-88730071D01*
X113823820Y-88730071D02*
X113871439Y-88825309D01*
X113871439Y-88825309D02*
X113871439Y-88920547D01*
X113871439Y-88920547D02*
X113823820Y-89063404D01*
X113823820Y-89063404D02*
X113252392Y-89634833D01*
X113252392Y-89634833D02*
X113871439Y-89634833D01*
X114728582Y-88968166D02*
X114728582Y-89634833D01*
X114490487Y-88587214D02*
X114252392Y-89301499D01*
X114252392Y-89301499D02*
X114871439Y-89301499D01*
X115728582Y-88634833D02*
X115252392Y-88634833D01*
X115252392Y-88634833D02*
X115204773Y-89111023D01*
X115204773Y-89111023D02*
X115252392Y-89063404D01*
X115252392Y-89063404D02*
X115347630Y-89015785D01*
X115347630Y-89015785D02*
X115585725Y-89015785D01*
X115585725Y-89015785D02*
X115680963Y-89063404D01*
X115680963Y-89063404D02*
X115728582Y-89111023D01*
X115728582Y-89111023D02*
X115776201Y-89206261D01*
X115776201Y-89206261D02*
X115776201Y-89444356D01*
X115776201Y-89444356D02*
X115728582Y-89539594D01*
X115728582Y-89539594D02*
X115680963Y-89587214D01*
X115680963Y-89587214D02*
X115585725Y-89634833D01*
X115585725Y-89634833D02*
X115347630Y-89634833D01*
X115347630Y-89634833D02*
X115252392Y-89587214D01*
X115252392Y-89587214D02*
X115204773Y-89539594D01*
X139749688Y-88634833D02*
X140416354Y-88634833D01*
X140416354Y-88634833D02*
X139987783Y-89634833D01*
X141225878Y-88968166D02*
X141225878Y-89634833D01*
X140987783Y-88587214D02*
X140749688Y-89301499D01*
X140749688Y-89301499D02*
X141368735Y-89301499D01*
X142225878Y-89634833D02*
X141749688Y-89634833D01*
X141749688Y-89634833D02*
X141749688Y-88634833D01*
X142511593Y-89587214D02*
X142654450Y-89634833D01*
X142654450Y-89634833D02*
X142892545Y-89634833D01*
X142892545Y-89634833D02*
X142987783Y-89587214D01*
X142987783Y-89587214D02*
X143035402Y-89539594D01*
X143035402Y-89539594D02*
X143083021Y-89444356D01*
X143083021Y-89444356D02*
X143083021Y-89349118D01*
X143083021Y-89349118D02*
X143035402Y-89253880D01*
X143035402Y-89253880D02*
X142987783Y-89206261D01*
X142987783Y-89206261D02*
X142892545Y-89158642D01*
X142892545Y-89158642D02*
X142702069Y-89111023D01*
X142702069Y-89111023D02*
X142606831Y-89063404D01*
X142606831Y-89063404D02*
X142559212Y-89015785D01*
X142559212Y-89015785D02*
X142511593Y-88920547D01*
X142511593Y-88920547D02*
X142511593Y-88825309D01*
X142511593Y-88825309D02*
X142559212Y-88730071D01*
X142559212Y-88730071D02*
X142606831Y-88682452D01*
X142606831Y-88682452D02*
X142702069Y-88634833D01*
X142702069Y-88634833D02*
X142940164Y-88634833D01*
X142940164Y-88634833D02*
X143083021Y-88682452D01*
X143416355Y-88634833D02*
X144035402Y-88634833D01*
X144035402Y-88634833D02*
X143702069Y-89015785D01*
X143702069Y-89015785D02*
X143844926Y-89015785D01*
X143844926Y-89015785D02*
X143940164Y-89063404D01*
X143940164Y-89063404D02*
X143987783Y-89111023D01*
X143987783Y-89111023D02*
X144035402Y-89206261D01*
X144035402Y-89206261D02*
X144035402Y-89444356D01*
X144035402Y-89444356D02*
X143987783Y-89539594D01*
X143987783Y-89539594D02*
X143940164Y-89587214D01*
X143940164Y-89587214D02*
X143844926Y-89634833D01*
X143844926Y-89634833D02*
X143559212Y-89634833D01*
X143559212Y-89634833D02*
X143463974Y-89587214D01*
X143463974Y-89587214D02*
X143416355Y-89539594D01*
X144368736Y-88634833D02*
X145035402Y-88634833D01*
X145035402Y-88634833D02*
X144606831Y-89634833D01*
X145321117Y-88634833D02*
X145940164Y-88634833D01*
X145940164Y-88634833D02*
X145606831Y-89015785D01*
X145606831Y-89015785D02*
X145749688Y-89015785D01*
X145749688Y-89015785D02*
X145844926Y-89063404D01*
X145844926Y-89063404D02*
X145892545Y-89111023D01*
X145892545Y-89111023D02*
X145940164Y-89206261D01*
X145940164Y-89206261D02*
X145940164Y-89444356D01*
X145940164Y-89444356D02*
X145892545Y-89539594D01*
X145892545Y-89539594D02*
X145844926Y-89587214D01*
X145844926Y-89587214D02*
X145749688Y-89634833D01*
X145749688Y-89634833D02*
X145463974Y-89634833D01*
X145463974Y-89634833D02*
X145368736Y-89587214D01*
X145368736Y-89587214D02*
X145321117Y-89539594D01*
X170538043Y-88870258D02*
X171204709Y-88870258D01*
X171204709Y-88870258D02*
X170776138Y-89870258D01*
X172014233Y-89203591D02*
X172014233Y-89870258D01*
X171776138Y-88822639D02*
X171538043Y-89536924D01*
X171538043Y-89536924D02*
X172157090Y-89536924D01*
X173014233Y-89870258D02*
X172538043Y-89870258D01*
X172538043Y-89870258D02*
X172538043Y-88870258D01*
X173299948Y-89822639D02*
X173442805Y-89870258D01*
X173442805Y-89870258D02*
X173680900Y-89870258D01*
X173680900Y-89870258D02*
X173776138Y-89822639D01*
X173776138Y-89822639D02*
X173823757Y-89775019D01*
X173823757Y-89775019D02*
X173871376Y-89679781D01*
X173871376Y-89679781D02*
X173871376Y-89584543D01*
X173871376Y-89584543D02*
X173823757Y-89489305D01*
X173823757Y-89489305D02*
X173776138Y-89441686D01*
X173776138Y-89441686D02*
X173680900Y-89394067D01*
X173680900Y-89394067D02*
X173490424Y-89346448D01*
X173490424Y-89346448D02*
X173395186Y-89298829D01*
X173395186Y-89298829D02*
X173347567Y-89251210D01*
X173347567Y-89251210D02*
X173299948Y-89155972D01*
X173299948Y-89155972D02*
X173299948Y-89060734D01*
X173299948Y-89060734D02*
X173347567Y-88965496D01*
X173347567Y-88965496D02*
X173395186Y-88917877D01*
X173395186Y-88917877D02*
X173490424Y-88870258D01*
X173490424Y-88870258D02*
X173728519Y-88870258D01*
X173728519Y-88870258D02*
X173871376Y-88917877D01*
X174204710Y-88870258D02*
X174823757Y-88870258D01*
X174823757Y-88870258D02*
X174490424Y-89251210D01*
X174490424Y-89251210D02*
X174633281Y-89251210D01*
X174633281Y-89251210D02*
X174728519Y-89298829D01*
X174728519Y-89298829D02*
X174776138Y-89346448D01*
X174776138Y-89346448D02*
X174823757Y-89441686D01*
X174823757Y-89441686D02*
X174823757Y-89679781D01*
X174823757Y-89679781D02*
X174776138Y-89775019D01*
X174776138Y-89775019D02*
X174728519Y-89822639D01*
X174728519Y-89822639D02*
X174633281Y-89870258D01*
X174633281Y-89870258D02*
X174347567Y-89870258D01*
X174347567Y-89870258D02*
X174252329Y-89822639D01*
X174252329Y-89822639D02*
X174204710Y-89775019D01*
X175157091Y-88870258D02*
X175823757Y-88870258D01*
X175823757Y-88870258D02*
X175395186Y-89870258D01*
X176109472Y-88870258D02*
X176728519Y-88870258D01*
X176728519Y-88870258D02*
X176395186Y-89251210D01*
X176395186Y-89251210D02*
X176538043Y-89251210D01*
X176538043Y-89251210D02*
X176633281Y-89298829D01*
X176633281Y-89298829D02*
X176680900Y-89346448D01*
X176680900Y-89346448D02*
X176728519Y-89441686D01*
X176728519Y-89441686D02*
X176728519Y-89679781D01*
X176728519Y-89679781D02*
X176680900Y-89775019D01*
X176680900Y-89775019D02*
X176633281Y-89822639D01*
X176633281Y-89822639D02*
X176538043Y-89870258D01*
X176538043Y-89870258D02*
X176252329Y-89870258D01*
X176252329Y-89870258D02*
X176157091Y-89822639D01*
X176157091Y-89822639D02*
X176109472Y-89775019D01*
X214453557Y-66196827D02*
X214453557Y-65530161D01*
X214453557Y-65530161D02*
X215453557Y-65958732D01*
X214786890Y-64720637D02*
X215453557Y-64720637D01*
X214405938Y-64958732D02*
X215120223Y-65196827D01*
X215120223Y-65196827D02*
X215120223Y-64577780D01*
X215453557Y-63720637D02*
X215453557Y-64196827D01*
X215453557Y-64196827D02*
X214453557Y-64196827D01*
X215405938Y-63434922D02*
X215453557Y-63292065D01*
X215453557Y-63292065D02*
X215453557Y-63053970D01*
X215453557Y-63053970D02*
X215405938Y-62958732D01*
X215405938Y-62958732D02*
X215358318Y-62911113D01*
X215358318Y-62911113D02*
X215263080Y-62863494D01*
X215263080Y-62863494D02*
X215167842Y-62863494D01*
X215167842Y-62863494D02*
X215072604Y-62911113D01*
X215072604Y-62911113D02*
X215024985Y-62958732D01*
X215024985Y-62958732D02*
X214977366Y-63053970D01*
X214977366Y-63053970D02*
X214929747Y-63244446D01*
X214929747Y-63244446D02*
X214882128Y-63339684D01*
X214882128Y-63339684D02*
X214834509Y-63387303D01*
X214834509Y-63387303D02*
X214739271Y-63434922D01*
X214739271Y-63434922D02*
X214644033Y-63434922D01*
X214644033Y-63434922D02*
X214548795Y-63387303D01*
X214548795Y-63387303D02*
X214501176Y-63339684D01*
X214501176Y-63339684D02*
X214453557Y-63244446D01*
X214453557Y-63244446D02*
X214453557Y-63006351D01*
X214453557Y-63006351D02*
X214501176Y-62863494D01*
X214548795Y-62482541D02*
X214501176Y-62434922D01*
X214501176Y-62434922D02*
X214453557Y-62339684D01*
X214453557Y-62339684D02*
X214453557Y-62101589D01*
X214453557Y-62101589D02*
X214501176Y-62006351D01*
X214501176Y-62006351D02*
X214548795Y-61958732D01*
X214548795Y-61958732D02*
X214644033Y-61911113D01*
X214644033Y-61911113D02*
X214739271Y-61911113D01*
X214739271Y-61911113D02*
X214882128Y-61958732D01*
X214882128Y-61958732D02*
X215453557Y-62530160D01*
X215453557Y-62530160D02*
X215453557Y-61911113D01*
X214786890Y-61053970D02*
X215453557Y-61053970D01*
X214405938Y-61292065D02*
X215120223Y-61530160D01*
X215120223Y-61530160D02*
X215120223Y-60911113D01*
X214453557Y-60053970D02*
X214453557Y-60530160D01*
X214453557Y-60530160D02*
X214929747Y-60577779D01*
X214929747Y-60577779D02*
X214882128Y-60530160D01*
X214882128Y-60530160D02*
X214834509Y-60434922D01*
X214834509Y-60434922D02*
X214834509Y-60196827D01*
X214834509Y-60196827D02*
X214882128Y-60101589D01*
X214882128Y-60101589D02*
X214929747Y-60053970D01*
X214929747Y-60053970D02*
X215024985Y-60006351D01*
X215024985Y-60006351D02*
X215263080Y-60006351D01*
X215263080Y-60006351D02*
X215358318Y-60053970D01*
X215358318Y-60053970D02*
X215405938Y-60101589D01*
X215405938Y-60101589D02*
X215453557Y-60196827D01*
X215453557Y-60196827D02*
X215453557Y-60434922D01*
X215453557Y-60434922D02*
X215405938Y-60530160D01*
X215405938Y-60530160D02*
X215358318Y-60577779D01*
X161695142Y-85365995D02*
X161599904Y-85318376D01*
X161599904Y-85318376D02*
X161457047Y-85318376D01*
X161457047Y-85318376D02*
X161314190Y-85365995D01*
X161314190Y-85365995D02*
X161218952Y-85461233D01*
X161218952Y-85461233D02*
X161171333Y-85556471D01*
X161171333Y-85556471D02*
X161123714Y-85746947D01*
X161123714Y-85746947D02*
X161123714Y-85889804D01*
X161123714Y-85889804D02*
X161171333Y-86080280D01*
X161171333Y-86080280D02*
X161218952Y-86175518D01*
X161218952Y-86175518D02*
X161314190Y-86270757D01*
X161314190Y-86270757D02*
X161457047Y-86318376D01*
X161457047Y-86318376D02*
X161552285Y-86318376D01*
X161552285Y-86318376D02*
X161695142Y-86270757D01*
X161695142Y-86270757D02*
X161742761Y-86223137D01*
X161742761Y-86223137D02*
X161742761Y-85889804D01*
X161742761Y-85889804D02*
X161552285Y-85889804D01*
X162123714Y-86032661D02*
X162599904Y-86032661D01*
X162028476Y-86318376D02*
X162361809Y-85318376D01*
X162361809Y-85318376D02*
X162695142Y-86318376D01*
X163504666Y-86318376D02*
X163028476Y-86318376D01*
X163028476Y-86318376D02*
X163028476Y-85318376D01*
X165123714Y-86318376D02*
X164552286Y-86318376D01*
X164838000Y-86318376D02*
X164838000Y-85318376D01*
X164838000Y-85318376D02*
X164742762Y-85461233D01*
X164742762Y-85461233D02*
X164647524Y-85556471D01*
X164647524Y-85556471D02*
X164552286Y-85604090D01*
X165980857Y-85318376D02*
X165790381Y-85318376D01*
X165790381Y-85318376D02*
X165695143Y-85365995D01*
X165695143Y-85365995D02*
X165647524Y-85413614D01*
X165647524Y-85413614D02*
X165552286Y-85556471D01*
X165552286Y-85556471D02*
X165504667Y-85746947D01*
X165504667Y-85746947D02*
X165504667Y-86127899D01*
X165504667Y-86127899D02*
X165552286Y-86223137D01*
X165552286Y-86223137D02*
X165599905Y-86270757D01*
X165599905Y-86270757D02*
X165695143Y-86318376D01*
X165695143Y-86318376D02*
X165885619Y-86318376D01*
X165885619Y-86318376D02*
X165980857Y-86270757D01*
X165980857Y-86270757D02*
X166028476Y-86223137D01*
X166028476Y-86223137D02*
X166076095Y-86127899D01*
X166076095Y-86127899D02*
X166076095Y-85889804D01*
X166076095Y-85889804D02*
X166028476Y-85794566D01*
X166028476Y-85794566D02*
X165980857Y-85746947D01*
X165980857Y-85746947D02*
X165885619Y-85699328D01*
X165885619Y-85699328D02*
X165695143Y-85699328D01*
X165695143Y-85699328D02*
X165599905Y-85746947D01*
X165599905Y-85746947D02*
X165552286Y-85794566D01*
X165552286Y-85794566D02*
X165504667Y-85889804D01*
X166361810Y-85318376D02*
X166695143Y-86318376D01*
X166695143Y-86318376D02*
X167028476Y-85318376D01*
X167504667Y-85746947D02*
X167409429Y-85699328D01*
X167409429Y-85699328D02*
X167361810Y-85651709D01*
X167361810Y-85651709D02*
X167314191Y-85556471D01*
X167314191Y-85556471D02*
X167314191Y-85508852D01*
X167314191Y-85508852D02*
X167361810Y-85413614D01*
X167361810Y-85413614D02*
X167409429Y-85365995D01*
X167409429Y-85365995D02*
X167504667Y-85318376D01*
X167504667Y-85318376D02*
X167695143Y-85318376D01*
X167695143Y-85318376D02*
X167790381Y-85365995D01*
X167790381Y-85365995D02*
X167838000Y-85413614D01*
X167838000Y-85413614D02*
X167885619Y-85508852D01*
X167885619Y-85508852D02*
X167885619Y-85556471D01*
X167885619Y-85556471D02*
X167838000Y-85651709D01*
X167838000Y-85651709D02*
X167790381Y-85699328D01*
X167790381Y-85699328D02*
X167695143Y-85746947D01*
X167695143Y-85746947D02*
X167504667Y-85746947D01*
X167504667Y-85746947D02*
X167409429Y-85794566D01*
X167409429Y-85794566D02*
X167361810Y-85842185D01*
X167361810Y-85842185D02*
X167314191Y-85937423D01*
X167314191Y-85937423D02*
X167314191Y-86127899D01*
X167314191Y-86127899D02*
X167361810Y-86223137D01*
X167361810Y-86223137D02*
X167409429Y-86270757D01*
X167409429Y-86270757D02*
X167504667Y-86318376D01*
X167504667Y-86318376D02*
X167695143Y-86318376D01*
X167695143Y-86318376D02*
X167790381Y-86270757D01*
X167790381Y-86270757D02*
X167838000Y-86223137D01*
X167838000Y-86223137D02*
X167885619Y-86127899D01*
X167885619Y-86127899D02*
X167885619Y-85937423D01*
X167885619Y-85937423D02*
X167838000Y-85842185D01*
X167838000Y-85842185D02*
X167790381Y-85794566D01*
X167790381Y-85794566D02*
X167695143Y-85746947D01*
X199362555Y-88355535D02*
X200029221Y-88355535D01*
X200029221Y-88355535D02*
X199600650Y-89355535D01*
X200838745Y-88688868D02*
X200838745Y-89355535D01*
X200600650Y-88307916D02*
X200362555Y-89022201D01*
X200362555Y-89022201D02*
X200981602Y-89022201D01*
X201838745Y-89355535D02*
X201362555Y-89355535D01*
X201362555Y-89355535D02*
X201362555Y-88355535D01*
X202124460Y-89307916D02*
X202267317Y-89355535D01*
X202267317Y-89355535D02*
X202505412Y-89355535D01*
X202505412Y-89355535D02*
X202600650Y-89307916D01*
X202600650Y-89307916D02*
X202648269Y-89260296D01*
X202648269Y-89260296D02*
X202695888Y-89165058D01*
X202695888Y-89165058D02*
X202695888Y-89069820D01*
X202695888Y-89069820D02*
X202648269Y-88974582D01*
X202648269Y-88974582D02*
X202600650Y-88926963D01*
X202600650Y-88926963D02*
X202505412Y-88879344D01*
X202505412Y-88879344D02*
X202314936Y-88831725D01*
X202314936Y-88831725D02*
X202219698Y-88784106D01*
X202219698Y-88784106D02*
X202172079Y-88736487D01*
X202172079Y-88736487D02*
X202124460Y-88641249D01*
X202124460Y-88641249D02*
X202124460Y-88546011D01*
X202124460Y-88546011D02*
X202172079Y-88450773D01*
X202172079Y-88450773D02*
X202219698Y-88403154D01*
X202219698Y-88403154D02*
X202314936Y-88355535D01*
X202314936Y-88355535D02*
X202553031Y-88355535D01*
X202553031Y-88355535D02*
X202695888Y-88403154D01*
X203029222Y-88355535D02*
X203648269Y-88355535D01*
X203648269Y-88355535D02*
X203314936Y-88736487D01*
X203314936Y-88736487D02*
X203457793Y-88736487D01*
X203457793Y-88736487D02*
X203553031Y-88784106D01*
X203553031Y-88784106D02*
X203600650Y-88831725D01*
X203600650Y-88831725D02*
X203648269Y-88926963D01*
X203648269Y-88926963D02*
X203648269Y-89165058D01*
X203648269Y-89165058D02*
X203600650Y-89260296D01*
X203600650Y-89260296D02*
X203553031Y-89307916D01*
X203553031Y-89307916D02*
X203457793Y-89355535D01*
X203457793Y-89355535D02*
X203172079Y-89355535D01*
X203172079Y-89355535D02*
X203076841Y-89307916D01*
X203076841Y-89307916D02*
X203029222Y-89260296D01*
X203981603Y-88355535D02*
X204648269Y-88355535D01*
X204648269Y-88355535D02*
X204219698Y-89355535D01*
X204933984Y-88355535D02*
X205553031Y-88355535D01*
X205553031Y-88355535D02*
X205219698Y-88736487D01*
X205219698Y-88736487D02*
X205362555Y-88736487D01*
X205362555Y-88736487D02*
X205457793Y-88784106D01*
X205457793Y-88784106D02*
X205505412Y-88831725D01*
X205505412Y-88831725D02*
X205553031Y-88926963D01*
X205553031Y-88926963D02*
X205553031Y-89165058D01*
X205553031Y-89165058D02*
X205505412Y-89260296D01*
X205505412Y-89260296D02*
X205457793Y-89307916D01*
X205457793Y-89307916D02*
X205362555Y-89355535D01*
X205362555Y-89355535D02*
X205076841Y-89355535D01*
X205076841Y-89355535D02*
X204981603Y-89307916D01*
X204981603Y-89307916D02*
X204933984Y-89260296D01*
X214053904Y-112395080D02*
X214006285Y-112442700D01*
X214006285Y-112442700D02*
X213863428Y-112490319D01*
X213863428Y-112490319D02*
X213768190Y-112490319D01*
X213768190Y-112490319D02*
X213625333Y-112442700D01*
X213625333Y-112442700D02*
X213530095Y-112347461D01*
X213530095Y-112347461D02*
X213482476Y-112252223D01*
X213482476Y-112252223D02*
X213434857Y-112061747D01*
X213434857Y-112061747D02*
X213434857Y-111918890D01*
X213434857Y-111918890D02*
X213482476Y-111728414D01*
X213482476Y-111728414D02*
X213530095Y-111633176D01*
X213530095Y-111633176D02*
X213625333Y-111537938D01*
X213625333Y-111537938D02*
X213768190Y-111490319D01*
X213768190Y-111490319D02*
X213863428Y-111490319D01*
X213863428Y-111490319D02*
X214006285Y-111537938D01*
X214006285Y-111537938D02*
X214053904Y-111585557D01*
X214672952Y-111490319D02*
X214863428Y-111490319D01*
X214863428Y-111490319D02*
X214958666Y-111537938D01*
X214958666Y-111537938D02*
X215053904Y-111633176D01*
X215053904Y-111633176D02*
X215101523Y-111823652D01*
X215101523Y-111823652D02*
X215101523Y-112156985D01*
X215101523Y-112156985D02*
X215053904Y-112347461D01*
X215053904Y-112347461D02*
X214958666Y-112442700D01*
X214958666Y-112442700D02*
X214863428Y-112490319D01*
X214863428Y-112490319D02*
X214672952Y-112490319D01*
X214672952Y-112490319D02*
X214577714Y-112442700D01*
X214577714Y-112442700D02*
X214482476Y-112347461D01*
X214482476Y-112347461D02*
X214434857Y-112156985D01*
X214434857Y-112156985D02*
X214434857Y-111823652D01*
X214434857Y-111823652D02*
X214482476Y-111633176D01*
X214482476Y-111633176D02*
X214577714Y-111537938D01*
X214577714Y-111537938D02*
X214672952Y-111490319D01*
X215530095Y-112490319D02*
X215530095Y-111490319D01*
X215530095Y-111490319D02*
X216101523Y-112490319D01*
X216101523Y-112490319D02*
X216101523Y-111490319D01*
X216577714Y-112490319D02*
X216577714Y-111490319D01*
X216577714Y-111490319D02*
X217149142Y-112490319D01*
X217149142Y-112490319D02*
X217149142Y-111490319D01*
X218149142Y-112490319D02*
X217577714Y-112490319D01*
X217863428Y-112490319D02*
X217863428Y-111490319D01*
X217863428Y-111490319D02*
X217768190Y-111633176D01*
X217768190Y-111633176D02*
X217672952Y-111728414D01*
X217672952Y-111728414D02*
X217577714Y-111776033D01*
X216438104Y-99020180D02*
X216438104Y-98543990D01*
X216723819Y-99115418D02*
X215723819Y-98782085D01*
X215723819Y-98782085D02*
X216723819Y-98448752D01*
X216723819Y-97639228D02*
X216723819Y-98115418D01*
X216723819Y-98115418D02*
X215723819Y-98115418D01*
X216438104Y-97353513D02*
X216438104Y-96877323D01*
X216723819Y-97448751D02*
X215723819Y-97115418D01*
X215723819Y-97115418D02*
X216723819Y-96782085D01*
X215723819Y-96591608D02*
X215723819Y-96020180D01*
X216723819Y-96305894D02*
X215723819Y-96305894D01*
X216628580Y-95115418D02*
X216676200Y-95163037D01*
X216676200Y-95163037D02*
X216723819Y-95305894D01*
X216723819Y-95305894D02*
X216723819Y-95401132D01*
X216723819Y-95401132D02*
X216676200Y-95543989D01*
X216676200Y-95543989D02*
X216580961Y-95639227D01*
X216580961Y-95639227D02*
X216485723Y-95686846D01*
X216485723Y-95686846D02*
X216295247Y-95734465D01*
X216295247Y-95734465D02*
X216152390Y-95734465D01*
X216152390Y-95734465D02*
X215961914Y-95686846D01*
X215961914Y-95686846D02*
X215866676Y-95639227D01*
X215866676Y-95639227D02*
X215771438Y-95543989D01*
X215771438Y-95543989D02*
X215723819Y-95401132D01*
X215723819Y-95401132D02*
X215723819Y-95305894D01*
X215723819Y-95305894D02*
X215771438Y-95163037D01*
X215771438Y-95163037D02*
X215819057Y-95115418D01*
X216723819Y-94686846D02*
X215723819Y-94686846D01*
X216200009Y-94686846D02*
X216200009Y-94115418D01*
X216723819Y-94115418D02*
X215723819Y-94115418D01*
X216723819Y-93115418D02*
X216723819Y-93686846D01*
X216723819Y-93401132D02*
X215723819Y-93401132D01*
X215723819Y-93401132D02*
X215866676Y-93496370D01*
X215866676Y-93496370D02*
X215961914Y-93591608D01*
X215961914Y-93591608D02*
X216009533Y-93686846D01*
X156741804Y-99533480D02*
X156741804Y-99057290D01*
X157027519Y-99628718D02*
X156027519Y-99295385D01*
X156027519Y-99295385D02*
X157027519Y-98962052D01*
X157027519Y-98152528D02*
X157027519Y-98628718D01*
X157027519Y-98628718D02*
X156027519Y-98628718D01*
X156741804Y-97866813D02*
X156741804Y-97390623D01*
X157027519Y-97962051D02*
X156027519Y-97628718D01*
X156027519Y-97628718D02*
X157027519Y-97295385D01*
X156027519Y-97104908D02*
X156027519Y-96533480D01*
X157027519Y-96819194D02*
X156027519Y-96819194D01*
X156932280Y-95628718D02*
X156979900Y-95676337D01*
X156979900Y-95676337D02*
X157027519Y-95819194D01*
X157027519Y-95819194D02*
X157027519Y-95914432D01*
X157027519Y-95914432D02*
X156979900Y-96057289D01*
X156979900Y-96057289D02*
X156884661Y-96152527D01*
X156884661Y-96152527D02*
X156789423Y-96200146D01*
X156789423Y-96200146D02*
X156598947Y-96247765D01*
X156598947Y-96247765D02*
X156456090Y-96247765D01*
X156456090Y-96247765D02*
X156265614Y-96200146D01*
X156265614Y-96200146D02*
X156170376Y-96152527D01*
X156170376Y-96152527D02*
X156075138Y-96057289D01*
X156075138Y-96057289D02*
X156027519Y-95914432D01*
X156027519Y-95914432D02*
X156027519Y-95819194D01*
X156027519Y-95819194D02*
X156075138Y-95676337D01*
X156075138Y-95676337D02*
X156122757Y-95628718D01*
X157027519Y-95200146D02*
X156027519Y-95200146D01*
X156503709Y-95200146D02*
X156503709Y-94628718D01*
X157027519Y-94628718D02*
X156027519Y-94628718D01*
X156027519Y-94247765D02*
X156027519Y-93628718D01*
X156027519Y-93628718D02*
X156408471Y-93962051D01*
X156408471Y-93962051D02*
X156408471Y-93819194D01*
X156408471Y-93819194D02*
X156456090Y-93723956D01*
X156456090Y-93723956D02*
X156503709Y-93676337D01*
X156503709Y-93676337D02*
X156598947Y-93628718D01*
X156598947Y-93628718D02*
X156837042Y-93628718D01*
X156837042Y-93628718D02*
X156932280Y-93676337D01*
X156932280Y-93676337D02*
X156979900Y-93723956D01*
X156979900Y-93723956D02*
X157027519Y-93819194D01*
X157027519Y-93819194D02*
X157027519Y-94104908D01*
X157027519Y-94104908D02*
X156979900Y-94200146D01*
X156979900Y-94200146D02*
X156932280Y-94247765D01*
X125049804Y-63059385D02*
X125049804Y-62583195D01*
X125335519Y-63154623D02*
X124335519Y-62821290D01*
X124335519Y-62821290D02*
X125335519Y-62487957D01*
X125335519Y-62154623D02*
X124335519Y-62154623D01*
X124335519Y-62154623D02*
X124335519Y-61773671D01*
X124335519Y-61773671D02*
X124383138Y-61678433D01*
X124383138Y-61678433D02*
X124430757Y-61630814D01*
X124430757Y-61630814D02*
X124525995Y-61583195D01*
X124525995Y-61583195D02*
X124668852Y-61583195D01*
X124668852Y-61583195D02*
X124764090Y-61630814D01*
X124764090Y-61630814D02*
X124811709Y-61678433D01*
X124811709Y-61678433D02*
X124859328Y-61773671D01*
X124859328Y-61773671D02*
X124859328Y-62154623D01*
X125335519Y-60630814D02*
X125335519Y-61202242D01*
X125335519Y-60916528D02*
X124335519Y-60916528D01*
X124335519Y-60916528D02*
X124478376Y-61011766D01*
X124478376Y-61011766D02*
X124573614Y-61107004D01*
X124573614Y-61107004D02*
X124621233Y-61202242D01*
X112353304Y-63090585D02*
X112353304Y-62614395D01*
X112639019Y-63185823D02*
X111639019Y-62852490D01*
X111639019Y-62852490D02*
X112639019Y-62519157D01*
X112639019Y-62185823D02*
X111639019Y-62185823D01*
X111639019Y-62185823D02*
X111639019Y-61804871D01*
X111639019Y-61804871D02*
X111686638Y-61709633D01*
X111686638Y-61709633D02*
X111734257Y-61662014D01*
X111734257Y-61662014D02*
X111829495Y-61614395D01*
X111829495Y-61614395D02*
X111972352Y-61614395D01*
X111972352Y-61614395D02*
X112067590Y-61662014D01*
X112067590Y-61662014D02*
X112115209Y-61709633D01*
X112115209Y-61709633D02*
X112162828Y-61804871D01*
X112162828Y-61804871D02*
X112162828Y-62185823D01*
X111734257Y-61233442D02*
X111686638Y-61185823D01*
X111686638Y-61185823D02*
X111639019Y-61090585D01*
X111639019Y-61090585D02*
X111639019Y-60852490D01*
X111639019Y-60852490D02*
X111686638Y-60757252D01*
X111686638Y-60757252D02*
X111734257Y-60709633D01*
X111734257Y-60709633D02*
X111829495Y-60662014D01*
X111829495Y-60662014D02*
X111924733Y-60662014D01*
X111924733Y-60662014D02*
X112067590Y-60709633D01*
X112067590Y-60709633D02*
X112639019Y-61281061D01*
X112639019Y-61281061D02*
X112639019Y-60662014D01*
X118686004Y-63059385D02*
X118686004Y-62583195D01*
X118971719Y-63154623D02*
X117971719Y-62821290D01*
X117971719Y-62821290D02*
X118971719Y-62487957D01*
X118971719Y-62154623D02*
X117971719Y-62154623D01*
X117971719Y-62154623D02*
X117971719Y-61773671D01*
X117971719Y-61773671D02*
X118019338Y-61678433D01*
X118019338Y-61678433D02*
X118066957Y-61630814D01*
X118066957Y-61630814D02*
X118162195Y-61583195D01*
X118162195Y-61583195D02*
X118305052Y-61583195D01*
X118305052Y-61583195D02*
X118400290Y-61630814D01*
X118400290Y-61630814D02*
X118447909Y-61678433D01*
X118447909Y-61678433D02*
X118495528Y-61773671D01*
X118495528Y-61773671D02*
X118495528Y-62154623D01*
X117971719Y-61249861D02*
X117971719Y-60630814D01*
X117971719Y-60630814D02*
X118352671Y-60964147D01*
X118352671Y-60964147D02*
X118352671Y-60821290D01*
X118352671Y-60821290D02*
X118400290Y-60726052D01*
X118400290Y-60726052D02*
X118447909Y-60678433D01*
X118447909Y-60678433D02*
X118543147Y-60630814D01*
X118543147Y-60630814D02*
X118781242Y-60630814D01*
X118781242Y-60630814D02*
X118876480Y-60678433D01*
X118876480Y-60678433D02*
X118924100Y-60726052D01*
X118924100Y-60726052D02*
X118971719Y-60821290D01*
X118971719Y-60821290D02*
X118971719Y-61107004D01*
X118971719Y-61107004D02*
X118924100Y-61202242D01*
X118924100Y-61202242D02*
X118876480Y-61249861D01*
X188079219Y-63080794D02*
X187079219Y-63080794D01*
X187079219Y-63080794D02*
X187079219Y-62842699D01*
X187079219Y-62842699D02*
X187126838Y-62699842D01*
X187126838Y-62699842D02*
X187222076Y-62604604D01*
X187222076Y-62604604D02*
X187317314Y-62556985D01*
X187317314Y-62556985D02*
X187507790Y-62509366D01*
X187507790Y-62509366D02*
X187650647Y-62509366D01*
X187650647Y-62509366D02*
X187841123Y-62556985D01*
X187841123Y-62556985D02*
X187936361Y-62604604D01*
X187936361Y-62604604D02*
X188031600Y-62699842D01*
X188031600Y-62699842D02*
X188079219Y-62842699D01*
X188079219Y-62842699D02*
X188079219Y-63080794D01*
X188079219Y-62080794D02*
X187079219Y-62080794D01*
X187079219Y-62080794D02*
X187079219Y-61699842D01*
X187079219Y-61699842D02*
X187126838Y-61604604D01*
X187126838Y-61604604D02*
X187174457Y-61556985D01*
X187174457Y-61556985D02*
X187269695Y-61509366D01*
X187269695Y-61509366D02*
X187412552Y-61509366D01*
X187412552Y-61509366D02*
X187507790Y-61556985D01*
X187507790Y-61556985D02*
X187555409Y-61604604D01*
X187555409Y-61604604D02*
X187603028Y-61699842D01*
X187603028Y-61699842D02*
X187603028Y-62080794D01*
X188079219Y-60556985D02*
X188079219Y-61128413D01*
X188079219Y-60842699D02*
X187079219Y-60842699D01*
X187079219Y-60842699D02*
X187222076Y-60937937D01*
X187222076Y-60937937D02*
X187317314Y-61033175D01*
X187317314Y-61033175D02*
X187364933Y-61128413D01*
X109660305Y-111497519D02*
X109660305Y-110497519D01*
X109660305Y-110497519D02*
X109898400Y-110497519D01*
X109898400Y-110497519D02*
X110041257Y-110545138D01*
X110041257Y-110545138D02*
X110136495Y-110640376D01*
X110136495Y-110640376D02*
X110184114Y-110735614D01*
X110184114Y-110735614D02*
X110231733Y-110926090D01*
X110231733Y-110926090D02*
X110231733Y-111068947D01*
X110231733Y-111068947D02*
X110184114Y-111259423D01*
X110184114Y-111259423D02*
X110136495Y-111354661D01*
X110136495Y-111354661D02*
X110041257Y-111449900D01*
X110041257Y-111449900D02*
X109898400Y-111497519D01*
X109898400Y-111497519D02*
X109660305Y-111497519D01*
X110660305Y-111497519D02*
X110660305Y-110497519D01*
X110660305Y-110497519D02*
X111041257Y-110497519D01*
X111041257Y-110497519D02*
X111136495Y-110545138D01*
X111136495Y-110545138D02*
X111184114Y-110592757D01*
X111184114Y-110592757D02*
X111231733Y-110687995D01*
X111231733Y-110687995D02*
X111231733Y-110830852D01*
X111231733Y-110830852D02*
X111184114Y-110926090D01*
X111184114Y-110926090D02*
X111136495Y-110973709D01*
X111136495Y-110973709D02*
X111041257Y-111021328D01*
X111041257Y-111021328D02*
X110660305Y-111021328D01*
X111612686Y-110592757D02*
X111660305Y-110545138D01*
X111660305Y-110545138D02*
X111755543Y-110497519D01*
X111755543Y-110497519D02*
X111993638Y-110497519D01*
X111993638Y-110497519D02*
X112088876Y-110545138D01*
X112088876Y-110545138D02*
X112136495Y-110592757D01*
X112136495Y-110592757D02*
X112184114Y-110687995D01*
X112184114Y-110687995D02*
X112184114Y-110783233D01*
X112184114Y-110783233D02*
X112136495Y-110926090D01*
X112136495Y-110926090D02*
X111565067Y-111497519D01*
X111565067Y-111497519D02*
X112184114Y-111497519D01*
X178097519Y-83126314D02*
X177621328Y-83459647D01*
X178097519Y-83697742D02*
X177097519Y-83697742D01*
X177097519Y-83697742D02*
X177097519Y-83316790D01*
X177097519Y-83316790D02*
X177145138Y-83221552D01*
X177145138Y-83221552D02*
X177192757Y-83173933D01*
X177192757Y-83173933D02*
X177287995Y-83126314D01*
X177287995Y-83126314D02*
X177430852Y-83126314D01*
X177430852Y-83126314D02*
X177526090Y-83173933D01*
X177526090Y-83173933D02*
X177573709Y-83221552D01*
X177573709Y-83221552D02*
X177621328Y-83316790D01*
X177621328Y-83316790D02*
X177621328Y-83697742D01*
X177811804Y-82745361D02*
X177811804Y-82269171D01*
X178097519Y-82840599D02*
X177097519Y-82507266D01*
X177097519Y-82507266D02*
X178097519Y-82173933D01*
X178097519Y-81840599D02*
X177097519Y-81840599D01*
X177097519Y-81840599D02*
X177811804Y-81507266D01*
X177811804Y-81507266D02*
X177097519Y-81173933D01*
X177097519Y-81173933D02*
X178097519Y-81173933D01*
X177716566Y-80697742D02*
X177716566Y-79935838D01*
X178097519Y-79459647D02*
X177097519Y-79459647D01*
X177097519Y-79459647D02*
X177097519Y-79221552D01*
X177097519Y-79221552D02*
X177145138Y-79078695D01*
X177145138Y-79078695D02*
X177240376Y-78983457D01*
X177240376Y-78983457D02*
X177335614Y-78935838D01*
X177335614Y-78935838D02*
X177526090Y-78888219D01*
X177526090Y-78888219D02*
X177668947Y-78888219D01*
X177668947Y-78888219D02*
X177859423Y-78935838D01*
X177859423Y-78935838D02*
X177954661Y-78983457D01*
X177954661Y-78983457D02*
X178049900Y-79078695D01*
X178049900Y-79078695D02*
X178097519Y-79221552D01*
X178097519Y-79221552D02*
X178097519Y-79459647D01*
X178049900Y-78078695D02*
X178097519Y-78173933D01*
X178097519Y-78173933D02*
X178097519Y-78364409D01*
X178097519Y-78364409D02*
X178049900Y-78459647D01*
X178049900Y-78459647D02*
X177954661Y-78507266D01*
X177954661Y-78507266D02*
X177573709Y-78507266D01*
X177573709Y-78507266D02*
X177478471Y-78459647D01*
X177478471Y-78459647D02*
X177430852Y-78364409D01*
X177430852Y-78364409D02*
X177430852Y-78173933D01*
X177430852Y-78173933D02*
X177478471Y-78078695D01*
X177478471Y-78078695D02*
X177573709Y-78031076D01*
X177573709Y-78031076D02*
X177668947Y-78031076D01*
X177668947Y-78031076D02*
X177764185Y-78507266D01*
X178049900Y-77173933D02*
X178097519Y-77269171D01*
X178097519Y-77269171D02*
X178097519Y-77459647D01*
X178097519Y-77459647D02*
X178049900Y-77554885D01*
X178049900Y-77554885D02*
X178002280Y-77602504D01*
X178002280Y-77602504D02*
X177907042Y-77650123D01*
X177907042Y-77650123D02*
X177621328Y-77650123D01*
X177621328Y-77650123D02*
X177526090Y-77602504D01*
X177526090Y-77602504D02*
X177478471Y-77554885D01*
X177478471Y-77554885D02*
X177430852Y-77459647D01*
X177430852Y-77459647D02*
X177430852Y-77269171D01*
X177430852Y-77269171D02*
X177478471Y-77173933D01*
X178097519Y-76602504D02*
X178049900Y-76697742D01*
X178049900Y-76697742D02*
X178002280Y-76745361D01*
X178002280Y-76745361D02*
X177907042Y-76792980D01*
X177907042Y-76792980D02*
X177621328Y-76792980D01*
X177621328Y-76792980D02*
X177526090Y-76745361D01*
X177526090Y-76745361D02*
X177478471Y-76697742D01*
X177478471Y-76697742D02*
X177430852Y-76602504D01*
X177430852Y-76602504D02*
X177430852Y-76459647D01*
X177430852Y-76459647D02*
X177478471Y-76364409D01*
X177478471Y-76364409D02*
X177526090Y-76316790D01*
X177526090Y-76316790D02*
X177621328Y-76269171D01*
X177621328Y-76269171D02*
X177907042Y-76269171D01*
X177907042Y-76269171D02*
X178002280Y-76316790D01*
X178002280Y-76316790D02*
X178049900Y-76364409D01*
X178049900Y-76364409D02*
X178097519Y-76459647D01*
X178097519Y-76459647D02*
X178097519Y-76602504D01*
X178097519Y-75412028D02*
X177097519Y-75412028D01*
X178049900Y-75412028D02*
X178097519Y-75507266D01*
X178097519Y-75507266D02*
X178097519Y-75697742D01*
X178097519Y-75697742D02*
X178049900Y-75792980D01*
X178049900Y-75792980D02*
X178002280Y-75840599D01*
X178002280Y-75840599D02*
X177907042Y-75888218D01*
X177907042Y-75888218D02*
X177621328Y-75888218D01*
X177621328Y-75888218D02*
X177526090Y-75840599D01*
X177526090Y-75840599D02*
X177478471Y-75792980D01*
X177478471Y-75792980D02*
X177430852Y-75697742D01*
X177430852Y-75697742D02*
X177430852Y-75507266D01*
X177430852Y-75507266D02*
X177478471Y-75412028D01*
X178049900Y-74554885D02*
X178097519Y-74650123D01*
X178097519Y-74650123D02*
X178097519Y-74840599D01*
X178097519Y-74840599D02*
X178049900Y-74935837D01*
X178049900Y-74935837D02*
X177954661Y-74983456D01*
X177954661Y-74983456D02*
X177573709Y-74983456D01*
X177573709Y-74983456D02*
X177478471Y-74935837D01*
X177478471Y-74935837D02*
X177430852Y-74840599D01*
X177430852Y-74840599D02*
X177430852Y-74650123D01*
X177430852Y-74650123D02*
X177478471Y-74554885D01*
X177478471Y-74554885D02*
X177573709Y-74507266D01*
X177573709Y-74507266D02*
X177668947Y-74507266D01*
X177668947Y-74507266D02*
X177764185Y-74983456D01*
X178097519Y-74078694D02*
X177430852Y-74078694D01*
X177621328Y-74078694D02*
X177526090Y-74031075D01*
X177526090Y-74031075D02*
X177478471Y-73983456D01*
X177478471Y-73983456D02*
X177430852Y-73888218D01*
X177430852Y-73888218D02*
X177430852Y-73792980D01*
X178097519Y-72935837D02*
X178097519Y-73507265D01*
X178097519Y-73221551D02*
X177097519Y-73221551D01*
X177097519Y-73221551D02*
X177240376Y-73316789D01*
X177240376Y-73316789D02*
X177335614Y-73412027D01*
X177335614Y-73412027D02*
X177383233Y-73507265D01*
X206228543Y-76090300D02*
X206371400Y-76137919D01*
X206371400Y-76137919D02*
X206609495Y-76137919D01*
X206609495Y-76137919D02*
X206704733Y-76090300D01*
X206704733Y-76090300D02*
X206752352Y-76042680D01*
X206752352Y-76042680D02*
X206799971Y-75947442D01*
X206799971Y-75947442D02*
X206799971Y-75852204D01*
X206799971Y-75852204D02*
X206752352Y-75756966D01*
X206752352Y-75756966D02*
X206704733Y-75709347D01*
X206704733Y-75709347D02*
X206609495Y-75661728D01*
X206609495Y-75661728D02*
X206419019Y-75614109D01*
X206419019Y-75614109D02*
X206323781Y-75566490D01*
X206323781Y-75566490D02*
X206276162Y-75518871D01*
X206276162Y-75518871D02*
X206228543Y-75423633D01*
X206228543Y-75423633D02*
X206228543Y-75328395D01*
X206228543Y-75328395D02*
X206276162Y-75233157D01*
X206276162Y-75233157D02*
X206323781Y-75185538D01*
X206323781Y-75185538D02*
X206419019Y-75137919D01*
X206419019Y-75137919D02*
X206657114Y-75137919D01*
X206657114Y-75137919D02*
X206799971Y-75185538D01*
X207561876Y-75614109D02*
X207704733Y-75661728D01*
X207704733Y-75661728D02*
X207752352Y-75709347D01*
X207752352Y-75709347D02*
X207799971Y-75804585D01*
X207799971Y-75804585D02*
X207799971Y-75947442D01*
X207799971Y-75947442D02*
X207752352Y-76042680D01*
X207752352Y-76042680D02*
X207704733Y-76090300D01*
X207704733Y-76090300D02*
X207609495Y-76137919D01*
X207609495Y-76137919D02*
X207228543Y-76137919D01*
X207228543Y-76137919D02*
X207228543Y-75137919D01*
X207228543Y-75137919D02*
X207561876Y-75137919D01*
X207561876Y-75137919D02*
X207657114Y-75185538D01*
X207657114Y-75185538D02*
X207704733Y-75233157D01*
X207704733Y-75233157D02*
X207752352Y-75328395D01*
X207752352Y-75328395D02*
X207752352Y-75423633D01*
X207752352Y-75423633D02*
X207704733Y-75518871D01*
X207704733Y-75518871D02*
X207657114Y-75566490D01*
X207657114Y-75566490D02*
X207561876Y-75614109D01*
X207561876Y-75614109D02*
X207228543Y-75614109D01*
X208228543Y-76137919D02*
X208228543Y-75137919D01*
X208228543Y-75137919D02*
X208466638Y-75137919D01*
X208466638Y-75137919D02*
X208609495Y-75185538D01*
X208609495Y-75185538D02*
X208704733Y-75280776D01*
X208704733Y-75280776D02*
X208752352Y-75376014D01*
X208752352Y-75376014D02*
X208799971Y-75566490D01*
X208799971Y-75566490D02*
X208799971Y-75709347D01*
X208799971Y-75709347D02*
X208752352Y-75899823D01*
X208752352Y-75899823D02*
X208704733Y-75995061D01*
X208704733Y-75995061D02*
X208609495Y-76090300D01*
X208609495Y-76090300D02*
X208466638Y-76137919D01*
X208466638Y-76137919D02*
X208228543Y-76137919D01*
X209085686Y-75137919D02*
X209657114Y-75137919D01*
X209371400Y-76137919D02*
X209371400Y-75137919D01*
X210514257Y-76137919D02*
X209942829Y-76137919D01*
X210228543Y-76137919D02*
X210228543Y-75137919D01*
X210228543Y-75137919D02*
X210133305Y-75280776D01*
X210133305Y-75280776D02*
X210038067Y-75376014D01*
X210038067Y-75376014D02*
X209942829Y-75423633D01*
X127222800Y-99013956D02*
X127270419Y-98871099D01*
X127270419Y-98871099D02*
X127270419Y-98633004D01*
X127270419Y-98633004D02*
X127222800Y-98537766D01*
X127222800Y-98537766D02*
X127175180Y-98490147D01*
X127175180Y-98490147D02*
X127079942Y-98442528D01*
X127079942Y-98442528D02*
X126984704Y-98442528D01*
X126984704Y-98442528D02*
X126889466Y-98490147D01*
X126889466Y-98490147D02*
X126841847Y-98537766D01*
X126841847Y-98537766D02*
X126794228Y-98633004D01*
X126794228Y-98633004D02*
X126746609Y-98823480D01*
X126746609Y-98823480D02*
X126698990Y-98918718D01*
X126698990Y-98918718D02*
X126651371Y-98966337D01*
X126651371Y-98966337D02*
X126556133Y-99013956D01*
X126556133Y-99013956D02*
X126460895Y-99013956D01*
X126460895Y-99013956D02*
X126365657Y-98966337D01*
X126365657Y-98966337D02*
X126318038Y-98918718D01*
X126318038Y-98918718D02*
X126270419Y-98823480D01*
X126270419Y-98823480D02*
X126270419Y-98585385D01*
X126270419Y-98585385D02*
X126318038Y-98442528D01*
X126746609Y-97680623D02*
X126794228Y-97537766D01*
X126794228Y-97537766D02*
X126841847Y-97490147D01*
X126841847Y-97490147D02*
X126937085Y-97442528D01*
X126937085Y-97442528D02*
X127079942Y-97442528D01*
X127079942Y-97442528D02*
X127175180Y-97490147D01*
X127175180Y-97490147D02*
X127222800Y-97537766D01*
X127222800Y-97537766D02*
X127270419Y-97633004D01*
X127270419Y-97633004D02*
X127270419Y-98013956D01*
X127270419Y-98013956D02*
X126270419Y-98013956D01*
X126270419Y-98013956D02*
X126270419Y-97680623D01*
X126270419Y-97680623D02*
X126318038Y-97585385D01*
X126318038Y-97585385D02*
X126365657Y-97537766D01*
X126365657Y-97537766D02*
X126460895Y-97490147D01*
X126460895Y-97490147D02*
X126556133Y-97490147D01*
X126556133Y-97490147D02*
X126651371Y-97537766D01*
X126651371Y-97537766D02*
X126698990Y-97585385D01*
X126698990Y-97585385D02*
X126746609Y-97680623D01*
X126746609Y-97680623D02*
X126746609Y-98013956D01*
X127270419Y-97013956D02*
X126270419Y-97013956D01*
X126270419Y-97013956D02*
X126270419Y-96775861D01*
X126270419Y-96775861D02*
X126318038Y-96633004D01*
X126318038Y-96633004D02*
X126413276Y-96537766D01*
X126413276Y-96537766D02*
X126508514Y-96490147D01*
X126508514Y-96490147D02*
X126698990Y-96442528D01*
X126698990Y-96442528D02*
X126841847Y-96442528D01*
X126841847Y-96442528D02*
X127032323Y-96490147D01*
X127032323Y-96490147D02*
X127127561Y-96537766D01*
X127127561Y-96537766D02*
X127222800Y-96633004D01*
X127222800Y-96633004D02*
X127270419Y-96775861D01*
X127270419Y-96775861D02*
X127270419Y-97013956D01*
X126270419Y-96156813D02*
X126270419Y-95585385D01*
X127270419Y-95871099D02*
X126270419Y-95871099D01*
X126365657Y-95299670D02*
X126318038Y-95252051D01*
X126318038Y-95252051D02*
X126270419Y-95156813D01*
X126270419Y-95156813D02*
X126270419Y-94918718D01*
X126270419Y-94918718D02*
X126318038Y-94823480D01*
X126318038Y-94823480D02*
X126365657Y-94775861D01*
X126365657Y-94775861D02*
X126460895Y-94728242D01*
X126460895Y-94728242D02*
X126556133Y-94728242D01*
X126556133Y-94728242D02*
X126698990Y-94775861D01*
X126698990Y-94775861D02*
X127270419Y-95347289D01*
X127270419Y-95347289D02*
X127270419Y-94728242D01*
X160458095Y-51579300D02*
X160600952Y-51626919D01*
X160600952Y-51626919D02*
X160839047Y-51626919D01*
X160839047Y-51626919D02*
X160934285Y-51579300D01*
X160934285Y-51579300D02*
X160981904Y-51531680D01*
X160981904Y-51531680D02*
X161029523Y-51436442D01*
X161029523Y-51436442D02*
X161029523Y-51341204D01*
X161029523Y-51341204D02*
X160981904Y-51245966D01*
X160981904Y-51245966D02*
X160934285Y-51198347D01*
X160934285Y-51198347D02*
X160839047Y-51150728D01*
X160839047Y-51150728D02*
X160648571Y-51103109D01*
X160648571Y-51103109D02*
X160553333Y-51055490D01*
X160553333Y-51055490D02*
X160505714Y-51007871D01*
X160505714Y-51007871D02*
X160458095Y-50912633D01*
X160458095Y-50912633D02*
X160458095Y-50817395D01*
X160458095Y-50817395D02*
X160505714Y-50722157D01*
X160505714Y-50722157D02*
X160553333Y-50674538D01*
X160553333Y-50674538D02*
X160648571Y-50626919D01*
X160648571Y-50626919D02*
X160886666Y-50626919D01*
X160886666Y-50626919D02*
X161029523Y-50674538D01*
X162029523Y-51626919D02*
X161696190Y-51150728D01*
X161458095Y-51626919D02*
X161458095Y-50626919D01*
X161458095Y-50626919D02*
X161839047Y-50626919D01*
X161839047Y-50626919D02*
X161934285Y-50674538D01*
X161934285Y-50674538D02*
X161981904Y-50722157D01*
X161981904Y-50722157D02*
X162029523Y-50817395D01*
X162029523Y-50817395D02*
X162029523Y-50960252D01*
X162029523Y-50960252D02*
X161981904Y-51055490D01*
X161981904Y-51055490D02*
X161934285Y-51103109D01*
X161934285Y-51103109D02*
X161839047Y-51150728D01*
X161839047Y-51150728D02*
X161458095Y-51150728D01*
X162410476Y-51341204D02*
X162886666Y-51341204D01*
X162315238Y-51626919D02*
X162648571Y-50626919D01*
X162648571Y-50626919D02*
X162981904Y-51626919D01*
X163315238Y-51626919D02*
X163315238Y-50626919D01*
X163315238Y-50626919D02*
X163648571Y-51341204D01*
X163648571Y-51341204D02*
X163981904Y-50626919D01*
X163981904Y-50626919D02*
X163981904Y-51626919D01*
X164981904Y-51626919D02*
X164410476Y-51626919D01*
X164696190Y-51626919D02*
X164696190Y-50626919D01*
X164696190Y-50626919D02*
X164600952Y-50769776D01*
X164600952Y-50769776D02*
X164505714Y-50865014D01*
X164505714Y-50865014D02*
X164410476Y-50912633D01*
X187537504Y-99020180D02*
X187537504Y-98543990D01*
X187823219Y-99115418D02*
X186823219Y-98782085D01*
X186823219Y-98782085D02*
X187823219Y-98448752D01*
X187823219Y-97639228D02*
X187823219Y-98115418D01*
X187823219Y-98115418D02*
X186823219Y-98115418D01*
X187537504Y-97353513D02*
X187537504Y-96877323D01*
X187823219Y-97448751D02*
X186823219Y-97115418D01*
X186823219Y-97115418D02*
X187823219Y-96782085D01*
X186823219Y-96591608D02*
X186823219Y-96020180D01*
X187823219Y-96305894D02*
X186823219Y-96305894D01*
X187727980Y-95115418D02*
X187775600Y-95163037D01*
X187775600Y-95163037D02*
X187823219Y-95305894D01*
X187823219Y-95305894D02*
X187823219Y-95401132D01*
X187823219Y-95401132D02*
X187775600Y-95543989D01*
X187775600Y-95543989D02*
X187680361Y-95639227D01*
X187680361Y-95639227D02*
X187585123Y-95686846D01*
X187585123Y-95686846D02*
X187394647Y-95734465D01*
X187394647Y-95734465D02*
X187251790Y-95734465D01*
X187251790Y-95734465D02*
X187061314Y-95686846D01*
X187061314Y-95686846D02*
X186966076Y-95639227D01*
X186966076Y-95639227D02*
X186870838Y-95543989D01*
X186870838Y-95543989D02*
X186823219Y-95401132D01*
X186823219Y-95401132D02*
X186823219Y-95305894D01*
X186823219Y-95305894D02*
X186870838Y-95163037D01*
X186870838Y-95163037D02*
X186918457Y-95115418D01*
X187823219Y-94686846D02*
X186823219Y-94686846D01*
X187299409Y-94686846D02*
X187299409Y-94115418D01*
X187823219Y-94115418D02*
X186823219Y-94115418D01*
X186918457Y-93686846D02*
X186870838Y-93639227D01*
X186870838Y-93639227D02*
X186823219Y-93543989D01*
X186823219Y-93543989D02*
X186823219Y-93305894D01*
X186823219Y-93305894D02*
X186870838Y-93210656D01*
X186870838Y-93210656D02*
X186918457Y-93163037D01*
X186918457Y-93163037D02*
X187013695Y-93115418D01*
X187013695Y-93115418D02*
X187108933Y-93115418D01*
X187108933Y-93115418D02*
X187251790Y-93163037D01*
X187251790Y-93163037D02*
X187823219Y-93734465D01*
X187823219Y-93734465D02*
X187823219Y-93115418D01*
D12*
%TO.C,CONN1*%
X124082000Y-112775500D02*
X129602000Y-112775500D01*
X124082000Y-118335500D02*
X124082000Y-112775500D01*
X129602000Y-112775500D02*
X129602000Y-113775500D01*
X131102000Y-113775500D02*
X129602000Y-113775500D01*
X133642000Y-113775500D02*
X132841000Y-113775500D01*
X136182000Y-113775500D02*
X135381000Y-113775500D01*
X138722000Y-113775500D02*
X137921000Y-113775500D01*
X141262000Y-113775500D02*
X140461000Y-113775500D01*
X143802000Y-113775500D02*
X143001000Y-113775500D01*
X146342000Y-113775500D02*
X145541000Y-113775500D01*
X148882000Y-113775500D02*
X148081000Y-113775500D01*
X151422000Y-113775500D02*
X150621000Y-113775500D01*
X153962000Y-113775500D02*
X153161000Y-113775500D01*
X156502000Y-113775500D02*
X155701000Y-113775500D01*
X159042000Y-113775500D02*
X158241000Y-113775500D01*
X161582000Y-113775500D02*
X160781000Y-113775500D01*
X164122000Y-113775500D02*
X163321000Y-113775500D01*
X166662000Y-113775500D02*
X165861000Y-113775500D01*
X169202000Y-113775500D02*
X168401000Y-113775500D01*
X171742000Y-113775500D02*
X170941000Y-113775500D01*
X174282000Y-113775500D02*
X173481000Y-113775500D01*
X176822000Y-113775500D02*
X176021000Y-113775500D01*
X179362000Y-113775500D02*
X178561000Y-113775500D01*
X181902000Y-113775500D02*
X181101000Y-113775500D01*
X184442000Y-113775500D02*
X183641000Y-113775500D01*
X186982000Y-113775500D02*
X186181000Y-113775500D01*
X189522000Y-113775500D02*
X188721000Y-113775500D01*
X192062000Y-113775500D02*
X191261000Y-113775500D01*
X194602000Y-113775500D02*
X193801000Y-113775500D01*
X197142000Y-113775500D02*
X196341000Y-113775500D01*
X199682000Y-113775500D02*
X198881000Y-113775500D01*
X202222000Y-113775500D02*
X201421000Y-113775500D01*
X204762000Y-113775500D02*
X203961000Y-113775500D01*
X207302000Y-113775500D02*
X206501000Y-113775500D01*
X209617000Y-113775500D02*
X209041000Y-113775500D01*
X211807000Y-113035500D02*
X212407000Y-113335500D01*
X212407000Y-112735500D02*
X211807000Y-113035500D01*
X212407000Y-113335500D02*
X212407000Y-112735500D01*
X213082000Y-112775500D02*
X213082000Y-113775500D01*
X213083000Y-113775500D02*
X211807000Y-113775500D01*
X218602000Y-112775500D02*
X213082000Y-112775500D01*
X218602000Y-118335500D02*
X218602000Y-112775500D01*
%TO.C,ALATCH1*%
X189689000Y-90927800D02*
X189689000Y-101207800D01*
X189689000Y-101207800D02*
X215329000Y-101207800D01*
X189749000Y-93417800D02*
X189749000Y-98717800D01*
X189749000Y-98717800D02*
X215269000Y-98717800D01*
X215269000Y-93417800D02*
X189749000Y-93417800D01*
X215269000Y-95067800D02*
X215269000Y-93417800D01*
X215269000Y-98717800D02*
X215269000Y-97067800D01*
X215329000Y-90927800D02*
X189689000Y-90927800D01*
X215329000Y-101207800D02*
X215329000Y-90927800D01*
X215269000Y-97067800D02*
G75*
G02*
X215269000Y-95067800I0J1000000D01*
G01*
%TO.C,ALATCH3*%
X129992700Y-91441100D02*
X129992700Y-101721100D01*
X129992700Y-101721100D02*
X155632700Y-101721100D01*
X130052700Y-93931100D02*
X130052700Y-99231100D01*
X130052700Y-99231100D02*
X155572700Y-99231100D01*
X155572700Y-93931100D02*
X130052700Y-93931100D01*
X155572700Y-95581100D02*
X155572700Y-93931100D01*
X155572700Y-99231100D02*
X155572700Y-97581100D01*
X155632700Y-91441100D02*
X129992700Y-91441100D01*
X155632700Y-101721100D02*
X155632700Y-91441100D01*
X155572700Y-97581100D02*
G75*
G02*
X155572700Y-95581100I0J1000000D01*
G01*
%TO.C,AP1*%
X125880700Y-51515100D02*
X125880700Y-74715100D01*
X125880700Y-72005100D02*
X128680700Y-72005100D01*
X125880700Y-74715100D02*
X128680700Y-74715100D01*
X128680700Y-51515100D02*
X125880700Y-51515100D01*
X128680700Y-74715100D02*
X128680700Y-51515100D01*
%TO.C,AP2*%
X113184200Y-51546300D02*
X113184200Y-74746300D01*
X113184200Y-72036300D02*
X115984200Y-72036300D01*
X113184200Y-74746300D02*
X115984200Y-74746300D01*
X115984200Y-51546300D02*
X113184200Y-51546300D01*
X115984200Y-74746300D02*
X115984200Y-51546300D01*
%TO.C,AP3*%
X119516900Y-51515100D02*
X119516900Y-74715100D01*
X119516900Y-72005100D02*
X122316900Y-72005100D01*
X119516900Y-74715100D02*
X122316900Y-74715100D01*
X122316900Y-51515100D02*
X119516900Y-51515100D01*
X122316900Y-74715100D02*
X122316900Y-51515100D01*
%TO.C,DP1*%
X188624400Y-51512700D02*
X188624400Y-74712700D01*
X188624400Y-72002700D02*
X191424400Y-72002700D01*
X188624400Y-74712700D02*
X191424400Y-74712700D01*
X191424400Y-51512700D02*
X188624400Y-51512700D01*
X191424400Y-74712700D02*
X191424400Y-51512700D01*
%TO.C,DP2*%
X100568400Y-107242700D02*
X100568400Y-110042700D01*
X100568400Y-110042700D02*
X123768400Y-110042700D01*
X121058400Y-110042700D02*
X121058400Y-107242700D01*
X123768400Y-107242700D02*
X100568400Y-107242700D01*
X123768400Y-110042700D02*
X123768400Y-107242700D01*
%TO.C,RAM-Decoder1*%
X151062700Y-73200600D02*
X151062700Y-83480600D01*
X151062700Y-83480600D02*
X176702700Y-83480600D01*
X151122700Y-75690600D02*
X151122700Y-80990600D01*
X151122700Y-80990600D02*
X176642700Y-80990600D01*
X176642700Y-75690600D02*
X151122700Y-75690600D01*
X176642700Y-77340600D02*
X176642700Y-75690600D01*
X176642700Y-80990600D02*
X176642700Y-79340600D01*
X176702700Y-73200600D02*
X151062700Y-73200600D01*
X176702700Y-83480600D02*
X176702700Y-73200600D01*
X176642700Y-79340600D02*
G75*
G02*
X176642700Y-77340600I0J1000000D01*
G01*
%TO.C,SBDT1*%
X203231400Y-49103100D02*
X203231400Y-74743100D01*
X203231400Y-74743100D02*
X213511400Y-74743100D01*
X205721400Y-49163100D02*
X205721400Y-74683100D01*
X205721400Y-74683100D02*
X207371400Y-74683100D01*
X209371400Y-74683100D02*
X211021400Y-74683100D01*
X211021400Y-49163100D02*
X205721400Y-49163100D01*
X211021400Y-74683100D02*
X211021400Y-49163100D01*
X213511400Y-49103100D02*
X203231400Y-49103100D01*
X213511400Y-74743100D02*
X213511400Y-49103100D01*
X207371400Y-74683100D02*
G75*
G02*
X209371400Y-74683100I1000000J0D01*
G01*
%TO.C,SBDT2*%
X100065600Y-91441100D02*
X100065600Y-101721100D01*
X100065600Y-101721100D02*
X125705600Y-101721100D01*
X100125600Y-93931100D02*
X100125600Y-99231100D01*
X100125600Y-99231100D02*
X125645600Y-99231100D01*
X125645600Y-93931100D02*
X100125600Y-93931100D01*
X125645600Y-95581100D02*
X125645600Y-93931100D01*
X125645600Y-99231100D02*
X125645600Y-97581100D01*
X125705600Y-91441100D02*
X100065600Y-91441100D01*
X125705600Y-101721100D02*
X125705600Y-91441100D01*
X125645600Y-97581100D02*
G75*
G02*
X125645600Y-95581100I0J1000000D01*
G01*
%TO.C,SRAM1*%
X153520000Y-64292100D02*
X171920000Y-64292100D01*
D13*
X171920000Y-52052100D02*
X152520000Y-52052100D01*
D12*
%TO.C,ALATCH2*%
X160788400Y-90927800D02*
X160788400Y-101207800D01*
X160788400Y-101207800D02*
X186428400Y-101207800D01*
X160848400Y-93417800D02*
X160848400Y-98717800D01*
X160848400Y-98717800D02*
X186368400Y-98717800D01*
X186368400Y-93417800D02*
X160848400Y-93417800D01*
X186368400Y-95067800D02*
X186368400Y-93417800D01*
X186368400Y-98717800D02*
X186368400Y-97067800D01*
X186428400Y-90927800D02*
X160788400Y-90927800D01*
X186428400Y-101207800D02*
X186428400Y-90927800D01*
X186368400Y-97067800D02*
G75*
G02*
X186368400Y-95067800I0J1000000D01*
G01*
%TD*%
M02*
